%TF.GenerationSoftware,KiCad,Pcbnew,8.0.6*%
%TF.CreationDate,2025-01-05T12:11:02-05:00*%
%TF.ProjectId,omni-wheel,6f6d6e69-2d77-4686-9565-6c2e6b696361,rev?*%
%TF.SameCoordinates,Original*%
%TF.FileFunction,Paste,Top*%
%TF.FilePolarity,Positive*%
%FSLAX46Y46*%
G04 Gerber Fmt 4.6, Leading zero omitted, Abs format (unit mm)*
G04 Created by KiCad (PCBNEW 8.0.6) date 2025-01-05 12:11:02*
%MOMM*%
%LPD*%
G01*
G04 APERTURE LIST*
G04 Aperture macros list*
%AMRoundRect*
0 Rectangle with rounded corners*
0 $1 Rounding radius*
0 $2 $3 $4 $5 $6 $7 $8 $9 X,Y pos of 4 corners*
0 Add a 4 corners polygon primitive as box body*
4,1,4,$2,$3,$4,$5,$6,$7,$8,$9,$2,$3,0*
0 Add four circle primitives for the rounded corners*
1,1,$1+$1,$2,$3*
1,1,$1+$1,$4,$5*
1,1,$1+$1,$6,$7*
1,1,$1+$1,$8,$9*
0 Add four rect primitives between the rounded corners*
20,1,$1+$1,$2,$3,$4,$5,0*
20,1,$1+$1,$4,$5,$6,$7,0*
20,1,$1+$1,$6,$7,$8,$9,0*
20,1,$1+$1,$8,$9,$2,$3,0*%
G04 Aperture macros list end*
%ADD10R,1.050000X0.550000*%
%ADD11RoundRect,0.225000X-0.250000X0.225000X-0.250000X-0.225000X0.250000X-0.225000X0.250000X0.225000X0*%
%ADD12RoundRect,0.225000X-0.225000X-0.250000X0.225000X-0.250000X0.225000X0.250000X-0.225000X0.250000X0*%
%ADD13RoundRect,0.075000X0.075000X-0.700000X0.075000X0.700000X-0.075000X0.700000X-0.075000X-0.700000X0*%
%ADD14RoundRect,0.075000X0.700000X-0.075000X0.700000X0.075000X-0.700000X0.075000X-0.700000X-0.075000X0*%
%ADD15RoundRect,0.200000X-0.275000X0.200000X-0.275000X-0.200000X0.275000X-0.200000X0.275000X0.200000X0*%
%ADD16RoundRect,0.225000X0.225000X0.250000X-0.225000X0.250000X-0.225000X-0.250000X0.225000X-0.250000X0*%
%ADD17RoundRect,0.225000X0.250000X-0.225000X0.250000X0.225000X-0.250000X0.225000X-0.250000X-0.225000X0*%
%ADD18RoundRect,0.218750X-0.256250X0.218750X-0.256250X-0.218750X0.256250X-0.218750X0.256250X0.218750X0*%
%ADD19RoundRect,0.200000X0.275000X-0.200000X0.275000X0.200000X-0.275000X0.200000X-0.275000X-0.200000X0*%
%ADD20R,1.981200X0.558800*%
G04 APERTURE END LIST*
D10*
%TO.C,IC2*%
X141087499Y-65842499D03*
X141087499Y-64892499D03*
X141087499Y-63942499D03*
X138487499Y-63942499D03*
X138487499Y-64892499D03*
X138487499Y-65842499D03*
%TD*%
%TO.C,IC1*%
X141087500Y-75425003D03*
X141087500Y-74475003D03*
X141087500Y-73525003D03*
X138487500Y-73525003D03*
X138487500Y-74475003D03*
X138487500Y-75425003D03*
%TD*%
D11*
%TO.C,C14*%
X153250000Y-128500000D03*
X153250000Y-130050000D03*
%TD*%
D12*
%TO.C,C8*%
X130012498Y-59937501D03*
X131562498Y-59937501D03*
%TD*%
D13*
%TO.C,U3*%
X111000001Y-109880000D03*
X111500000Y-109880000D03*
X112000000Y-109880000D03*
X112500000Y-109880000D03*
X113000000Y-109880000D03*
X113500001Y-109880000D03*
X114000000Y-109880000D03*
X114500000Y-109880000D03*
X115000000Y-109880000D03*
X115500000Y-109880000D03*
X115999999Y-109880000D03*
X116500000Y-109880000D03*
X117000000Y-109880000D03*
X117500000Y-109880000D03*
X118000000Y-109880000D03*
X118499999Y-109880000D03*
D14*
X120425000Y-107954999D03*
X120425000Y-107455000D03*
X120425000Y-106955000D03*
X120425000Y-106455000D03*
X120425000Y-105955000D03*
X120425000Y-105454999D03*
X120425000Y-104955000D03*
X120425000Y-104455000D03*
X120425000Y-103955000D03*
X120425000Y-103455000D03*
X120425000Y-102955001D03*
X120425000Y-102455000D03*
X120425000Y-101955000D03*
X120425000Y-101455000D03*
X120425000Y-100955000D03*
X120425000Y-100455001D03*
D13*
X118499999Y-98530000D03*
X118000000Y-98530000D03*
X117500000Y-98530000D03*
X117000000Y-98530000D03*
X116500000Y-98530000D03*
X115999999Y-98530000D03*
X115500000Y-98530000D03*
X115000000Y-98530000D03*
X114500000Y-98530000D03*
X114000000Y-98530000D03*
X113500001Y-98530000D03*
X113000000Y-98530000D03*
X112500000Y-98530000D03*
X112000000Y-98530000D03*
X111500000Y-98530000D03*
X111000001Y-98530000D03*
D14*
X109075000Y-100455001D03*
X109075000Y-100955000D03*
X109075000Y-101455000D03*
X109075000Y-101955000D03*
X109075000Y-102455000D03*
X109075000Y-102955001D03*
X109075000Y-103455000D03*
X109075000Y-103955000D03*
X109075000Y-104455000D03*
X109075000Y-104955000D03*
X109075000Y-105454999D03*
X109075000Y-105955000D03*
X109075000Y-106455000D03*
X109075000Y-106955000D03*
X109075000Y-107455000D03*
X109075000Y-107954999D03*
%TD*%
D15*
%TO.C,R3*%
X130562499Y-64337501D03*
X130562499Y-65987501D03*
%TD*%
D11*
%TO.C,C4*%
X133287499Y-73970003D03*
X133287499Y-75520003D03*
%TD*%
D16*
%TO.C,C16*%
X109275000Y-134250000D03*
X107725000Y-134250000D03*
%TD*%
D12*
%TO.C,C10*%
X101950000Y-128000000D03*
X103500000Y-128000000D03*
%TD*%
D17*
%TO.C,C11*%
X144562500Y-63462499D03*
X144562500Y-61912499D03*
%TD*%
%TO.C,C1*%
X122500000Y-101275000D03*
X122500000Y-99725000D03*
%TD*%
D11*
%TO.C,C9*%
X133287499Y-64387501D03*
X133287499Y-65937501D03*
%TD*%
D18*
%TO.C,L1*%
X135287500Y-70687499D03*
X135287500Y-72262501D03*
%TD*%
D11*
%TO.C,C3*%
X135287501Y-73970000D03*
X135287501Y-75520000D03*
%TD*%
D12*
%TO.C,C6*%
X130012499Y-69437500D03*
X131562499Y-69437500D03*
%TD*%
D16*
%TO.C,C5*%
X131562500Y-70937502D03*
X130012500Y-70937502D03*
%TD*%
D19*
%TO.C,R2*%
X127287499Y-75570004D03*
X127287499Y-73920004D03*
%TD*%
D11*
%TO.C,C2*%
X106200000Y-108600000D03*
X106200000Y-110150000D03*
%TD*%
D16*
%TO.C,C7*%
X131562501Y-61437500D03*
X130012501Y-61437500D03*
%TD*%
D15*
%TO.C,R1*%
X130562499Y-73920003D03*
X130562499Y-75570003D03*
%TD*%
D18*
%TO.C,L2*%
X135287498Y-61105001D03*
X135287498Y-62680003D03*
%TD*%
D17*
%TO.C,C13*%
X81500000Y-117775000D03*
X81500000Y-116225000D03*
%TD*%
D19*
%TO.C,R4*%
X127287498Y-65937502D03*
X127287498Y-64287502D03*
%TD*%
D11*
%TO.C,C15*%
X133000000Y-121975000D03*
X133000000Y-123525000D03*
%TD*%
%TO.C,C12*%
X135287499Y-64387500D03*
X135287499Y-65937500D03*
%TD*%
D12*
%TO.C,C17*%
X112225000Y-93750000D03*
X113775000Y-93750000D03*
%TD*%
D20*
%TO.C,U6*%
X117927600Y-92150000D03*
X117927600Y-90880000D03*
X117927600Y-89610000D03*
X117927600Y-88340000D03*
X117927600Y-87070000D03*
X117927600Y-85800000D03*
X117927600Y-84530000D03*
X113000000Y-84530000D03*
X113000000Y-85800000D03*
X113000000Y-87070000D03*
X113000000Y-88340000D03*
X113000000Y-89610000D03*
X113000000Y-90880000D03*
X113000000Y-92150000D03*
%TD*%
M02*
