%TF.GenerationSoftware,KiCad,Pcbnew,8.0.6*%
%TF.CreationDate,2025-01-05T12:11:02-05:00*%
%TF.ProjectId,omni-wheel,6f6d6e69-2d77-4686-9565-6c2e6b696361,rev?*%
%TF.SameCoordinates,Original*%
%TF.FileFunction,Legend,Top*%
%TF.FilePolarity,Positive*%
%FSLAX46Y46*%
G04 Gerber Fmt 4.6, Leading zero omitted, Abs format (unit mm)*
G04 Created by KiCad (PCBNEW 8.0.6) date 2025-01-05 12:11:02*
%MOMM*%
%LPD*%
G01*
G04 APERTURE LIST*
%ADD10C,0.100000*%
%ADD11C,0.150000*%
%ADD12C,0.254000*%
%ADD13C,0.200000*%
%ADD14C,0.120000*%
%ADD15C,0.127000*%
%ADD16C,0.000000*%
%ADD17C,0.152400*%
G04 APERTURE END LIST*
D10*
G36*
X80320160Y-70124223D02*
G01*
X80282001Y-70122987D01*
X80268686Y-70122025D01*
X80231314Y-70118042D01*
X80214098Y-70115430D01*
X80177763Y-70108744D01*
X80162257Y-70105355D01*
X80125468Y-70095753D01*
X80106386Y-70089968D01*
X80106386Y-69986653D01*
X80140294Y-70003742D01*
X80157677Y-70011749D01*
X80192964Y-70025382D01*
X80209518Y-70030434D01*
X80245910Y-70038642D01*
X80259893Y-70040875D01*
X80297674Y-70044138D01*
X80310451Y-70044356D01*
X80350706Y-70041826D01*
X80389970Y-70032930D01*
X80426120Y-70015535D01*
X80441243Y-70003872D01*
X80465297Y-69975121D01*
X80480442Y-69939930D01*
X80486455Y-69902752D01*
X80486856Y-69889200D01*
X80483277Y-69851066D01*
X80470905Y-69814473D01*
X80449696Y-69783961D01*
X80441610Y-69775994D01*
X80410136Y-69754452D01*
X80372043Y-69740889D01*
X80332101Y-69735503D01*
X80317595Y-69735144D01*
X80238644Y-69735144D01*
X80238644Y-69655277D01*
X80317595Y-69655277D01*
X80355688Y-69652843D01*
X80391895Y-69644428D01*
X80426843Y-69626396D01*
X80429337Y-69624502D01*
X80454955Y-69595500D01*
X80467011Y-69560840D01*
X80468904Y-69537124D01*
X80463700Y-69498081D01*
X80446319Y-69464098D01*
X80431901Y-69449380D01*
X80399950Y-69430627D01*
X80361836Y-69421040D01*
X80324373Y-69418606D01*
X80285589Y-69420569D01*
X80247001Y-69425909D01*
X80231500Y-69428864D01*
X80194053Y-69437742D01*
X80158868Y-69448687D01*
X80129467Y-69459638D01*
X80129467Y-69369513D01*
X80167131Y-69360647D01*
X80205378Y-69352630D01*
X80240293Y-69346432D01*
X80276597Y-69341450D01*
X80314003Y-69338926D01*
X80326938Y-69338738D01*
X80366033Y-69340619D01*
X80402809Y-69346260D01*
X80426039Y-69352110D01*
X80461046Y-69365243D01*
X80494485Y-69384457D01*
X80505357Y-69392594D01*
X80534288Y-69421296D01*
X80554954Y-69454647D01*
X80567353Y-69492646D01*
X80571421Y-69529708D01*
X80571486Y-69535293D01*
X80567980Y-69572716D01*
X80562510Y-69592629D01*
X80545443Y-69625960D01*
X80536498Y-69637508D01*
X80508674Y-69662383D01*
X80476617Y-69680300D01*
X80438120Y-69693746D01*
X80433916Y-69694844D01*
X80469431Y-69706877D01*
X80504075Y-69725094D01*
X80533096Y-69748267D01*
X80549321Y-69766468D01*
X80569369Y-69798617D01*
X80579912Y-69826186D01*
X80587345Y-69862123D01*
X80589438Y-69895978D01*
X80586965Y-69934112D01*
X80577829Y-69974628D01*
X80561960Y-70010868D01*
X80539360Y-70042829D01*
X80519096Y-70063040D01*
X80488398Y-70085061D01*
X80452864Y-70102305D01*
X80434832Y-70108653D01*
X80398967Y-70117518D01*
X80359380Y-70122703D01*
X80320160Y-70124223D01*
G37*
G36*
X80975952Y-70124223D02*
G01*
X80940010Y-70116514D01*
X80916784Y-70099860D01*
X80897381Y-70067666D01*
X80892787Y-70036296D01*
X80899560Y-69998975D01*
X80916784Y-69972915D01*
X80949308Y-69952419D01*
X80975952Y-69948368D01*
X81013472Y-69957022D01*
X81034754Y-69972915D01*
X81054305Y-70004960D01*
X81058934Y-70036296D01*
X81052109Y-70073668D01*
X81034754Y-70099860D01*
X81002447Y-70120202D01*
X80975952Y-70124223D01*
G37*
G36*
X81583384Y-70124223D02*
G01*
X81545225Y-70122987D01*
X81531910Y-70122025D01*
X81494538Y-70118042D01*
X81477322Y-70115430D01*
X81440987Y-70108744D01*
X81425481Y-70105355D01*
X81388692Y-70095753D01*
X81369610Y-70089968D01*
X81369610Y-69986653D01*
X81403518Y-70003742D01*
X81420901Y-70011749D01*
X81456188Y-70025382D01*
X81472742Y-70030434D01*
X81509134Y-70038642D01*
X81523117Y-70040875D01*
X81560898Y-70044138D01*
X81573675Y-70044356D01*
X81613930Y-70041826D01*
X81653194Y-70032930D01*
X81689344Y-70015535D01*
X81704467Y-70003872D01*
X81728521Y-69975121D01*
X81743666Y-69939930D01*
X81749679Y-69902752D01*
X81750080Y-69889200D01*
X81746501Y-69851066D01*
X81734129Y-69814473D01*
X81712920Y-69783961D01*
X81704834Y-69775994D01*
X81673360Y-69754452D01*
X81635267Y-69740889D01*
X81595325Y-69735503D01*
X81580819Y-69735144D01*
X81501868Y-69735144D01*
X81501868Y-69655277D01*
X81580819Y-69655277D01*
X81618912Y-69652843D01*
X81655119Y-69644428D01*
X81690067Y-69626396D01*
X81692561Y-69624502D01*
X81718179Y-69595500D01*
X81730235Y-69560840D01*
X81732128Y-69537124D01*
X81726924Y-69498081D01*
X81709543Y-69464098D01*
X81695125Y-69449380D01*
X81663174Y-69430627D01*
X81625060Y-69421040D01*
X81587597Y-69418606D01*
X81548813Y-69420569D01*
X81510225Y-69425909D01*
X81494724Y-69428864D01*
X81457277Y-69437742D01*
X81422092Y-69448687D01*
X81392691Y-69459638D01*
X81392691Y-69369513D01*
X81430355Y-69360647D01*
X81468602Y-69352630D01*
X81503517Y-69346432D01*
X81539821Y-69341450D01*
X81577227Y-69338926D01*
X81590162Y-69338738D01*
X81629257Y-69340619D01*
X81666033Y-69346260D01*
X81689263Y-69352110D01*
X81724270Y-69365243D01*
X81757709Y-69384457D01*
X81768581Y-69392594D01*
X81797512Y-69421296D01*
X81818178Y-69454647D01*
X81830577Y-69492646D01*
X81834645Y-69529708D01*
X81834710Y-69535293D01*
X81831204Y-69572716D01*
X81825734Y-69592629D01*
X81808667Y-69625960D01*
X81799722Y-69637508D01*
X81771898Y-69662383D01*
X81739841Y-69680300D01*
X81701344Y-69693746D01*
X81697140Y-69694844D01*
X81732655Y-69706877D01*
X81767299Y-69725094D01*
X81796320Y-69748267D01*
X81812545Y-69766468D01*
X81832593Y-69798617D01*
X81843136Y-69826186D01*
X81850569Y-69862123D01*
X81852662Y-69895978D01*
X81850189Y-69934112D01*
X81841053Y-69974628D01*
X81825184Y-70010868D01*
X81802584Y-70042829D01*
X81782320Y-70063040D01*
X81751622Y-70085061D01*
X81716088Y-70102305D01*
X81698056Y-70108653D01*
X81662191Y-70117518D01*
X81622604Y-70122703D01*
X81583384Y-70124223D01*
G37*
G36*
X81954145Y-69350462D02*
G01*
X82061123Y-69350462D01*
X82240642Y-70026770D01*
X82420526Y-69350462D01*
X82527688Y-69350462D01*
X82303656Y-70112500D01*
X82178176Y-70112500D01*
X81954145Y-69350462D01*
G37*
G36*
X80158485Y-65622632D02*
G01*
X80319502Y-65622632D01*
X80319502Y-65075284D01*
X80197320Y-65213770D01*
X80141083Y-65145259D01*
X80318403Y-64940462D01*
X80421901Y-64940462D01*
X80421901Y-65622632D01*
X80580903Y-65622632D01*
X80580903Y-65702500D01*
X80158485Y-65702500D01*
X80158485Y-65622632D01*
G37*
G36*
X80729464Y-65633623D02*
G01*
X80742287Y-65601749D01*
X80767854Y-65574840D01*
X80794567Y-65546620D01*
X80811530Y-65528660D01*
X80837139Y-65501383D01*
X80863822Y-65472675D01*
X80888755Y-65445614D01*
X80897259Y-65436336D01*
X80922696Y-65408492D01*
X80948533Y-65380220D01*
X80949649Y-65379000D01*
X80974784Y-65351178D01*
X80976577Y-65349141D01*
X80995628Y-65326793D01*
X81018629Y-65298054D01*
X81038859Y-65270739D01*
X81058418Y-65239176D01*
X81065420Y-65224944D01*
X81077692Y-65189876D01*
X81083214Y-65152382D01*
X81083372Y-65144893D01*
X81079705Y-65107752D01*
X81067199Y-65073137D01*
X81045819Y-65045059D01*
X81013413Y-65022845D01*
X80976738Y-65011489D01*
X80941772Y-65008606D01*
X80900543Y-65011980D01*
X80863487Y-65020245D01*
X80824847Y-65033468D01*
X80784623Y-65051651D01*
X80749892Y-65070591D01*
X80735692Y-65079131D01*
X80735692Y-64975816D01*
X80771541Y-64961164D01*
X80807303Y-64949196D01*
X80839740Y-64940645D01*
X80877667Y-64933389D01*
X80915337Y-64929482D01*
X80940307Y-64928738D01*
X80979333Y-64930773D01*
X81016453Y-64936878D01*
X81040141Y-64943210D01*
X81076159Y-64957540D01*
X81108307Y-64977311D01*
X81121840Y-64988272D01*
X81147863Y-65016517D01*
X81167358Y-65047672D01*
X81170933Y-65054951D01*
X81183580Y-65091305D01*
X81188983Y-65128454D01*
X81189434Y-65143611D01*
X81186266Y-65181469D01*
X81176760Y-65219483D01*
X81166903Y-65244911D01*
X81149235Y-65278097D01*
X81137777Y-65295102D01*
X81114805Y-65325351D01*
X81092531Y-65352805D01*
X81068268Y-65380849D01*
X81057177Y-65393471D01*
X81032009Y-65421408D01*
X81009549Y-65445861D01*
X80983984Y-65472922D01*
X80973279Y-65483963D01*
X80947245Y-65510067D01*
X80938108Y-65519134D01*
X80911620Y-65545698D01*
X80895793Y-65561816D01*
X80869369Y-65589201D01*
X80844056Y-65615903D01*
X80837725Y-65622632D01*
X81194563Y-65622632D01*
X81194563Y-65702500D01*
X80729464Y-65702500D01*
X80729464Y-65633623D01*
G37*
G36*
X81312533Y-64940462D02*
G01*
X81419511Y-64940462D01*
X81599030Y-65616770D01*
X81778914Y-64940462D01*
X81886076Y-64940462D01*
X81662044Y-65702500D01*
X81536564Y-65702500D01*
X81312533Y-64940462D01*
G37*
G36*
X80289094Y-67784223D02*
G01*
X80251484Y-67783193D01*
X80237620Y-67782391D01*
X80200138Y-67779007D01*
X80184131Y-67776896D01*
X80147105Y-67770370D01*
X80135771Y-67767737D01*
X80099720Y-67756980D01*
X80093272Y-67754731D01*
X80093272Y-67653065D01*
X80126221Y-67669242D01*
X80161770Y-67683285D01*
X80188161Y-67691350D01*
X80226797Y-67699771D01*
X80265313Y-67703899D01*
X80283049Y-67704356D01*
X80320180Y-67702138D01*
X80357377Y-67694173D01*
X80392546Y-67678287D01*
X80417871Y-67658011D01*
X80440186Y-67628720D01*
X80455197Y-67593604D01*
X80462410Y-67557500D01*
X80464033Y-67527402D01*
X80461579Y-67489855D01*
X80452763Y-67453127D01*
X80451210Y-67449000D01*
X80433829Y-67415647D01*
X80416222Y-67394595D01*
X80386380Y-67372550D01*
X80360901Y-67360889D01*
X80323853Y-67351410D01*
X80286251Y-67348299D01*
X80280484Y-67348250D01*
X80243157Y-67350584D01*
X80206392Y-67357588D01*
X80201533Y-67358874D01*
X80164970Y-67371684D01*
X80130500Y-67389164D01*
X80126062Y-67391847D01*
X80126062Y-67010462D01*
X80513675Y-67010462D01*
X80513675Y-67090329D01*
X80220401Y-67090329D01*
X80220401Y-67283770D01*
X80256661Y-67273509D01*
X80265097Y-67271863D01*
X80302298Y-67268467D01*
X80310160Y-67268382D01*
X80347505Y-67270225D01*
X80385196Y-67276508D01*
X80419337Y-67287250D01*
X80452670Y-67303144D01*
X80484014Y-67324606D01*
X80498838Y-67337991D01*
X80525818Y-67370554D01*
X80546172Y-67407815D01*
X80558343Y-67443493D01*
X80565646Y-67482622D01*
X80568080Y-67525204D01*
X80566314Y-67561878D01*
X80559530Y-67602510D01*
X80547659Y-67639458D01*
X80530701Y-67672723D01*
X80508654Y-67702304D01*
X80495724Y-67715713D01*
X80466993Y-67738614D01*
X80433831Y-67757032D01*
X80409262Y-67766821D01*
X80372086Y-67776729D01*
X80334534Y-67782167D01*
X80297678Y-67784155D01*
X80289094Y-67784223D01*
G37*
G36*
X80680921Y-67010462D02*
G01*
X80787899Y-67010462D01*
X80967418Y-67686770D01*
X81147302Y-67010462D01*
X81254464Y-67010462D01*
X81030432Y-67772500D01*
X80904952Y-67772500D01*
X80680921Y-67010462D01*
G37*
G36*
X80268853Y-72184223D02*
G01*
X80228941Y-72182137D01*
X80191638Y-72175877D01*
X80153248Y-72164027D01*
X80138794Y-72157845D01*
X80105098Y-72138979D01*
X80074766Y-72115355D01*
X80047797Y-72086973D01*
X80042807Y-72080725D01*
X80019587Y-72046295D01*
X80000303Y-72007921D01*
X79984954Y-71965602D01*
X79975509Y-71928907D01*
X79968582Y-71889688D01*
X79964174Y-71847944D01*
X79962285Y-71803675D01*
X79962206Y-71792213D01*
X79963489Y-71746641D01*
X79967336Y-71703714D01*
X79973747Y-71663431D01*
X79982723Y-71625792D01*
X79994263Y-71590799D01*
X80012295Y-71550776D01*
X80034334Y-71514886D01*
X80044272Y-71501687D01*
X80071434Y-71472029D01*
X80101627Y-71447397D01*
X80134853Y-71427793D01*
X80171111Y-71413215D01*
X80210402Y-71403664D01*
X80252724Y-71399140D01*
X80270502Y-71398738D01*
X80307296Y-71400516D01*
X80345237Y-71406453D01*
X80364841Y-71411378D01*
X80400608Y-71424417D01*
X80434682Y-71441508D01*
X80449837Y-71450762D01*
X80449837Y-71556092D01*
X80421065Y-71531121D01*
X80406057Y-71520371D01*
X80373450Y-71501337D01*
X80364841Y-71497290D01*
X80328790Y-71485188D01*
X80318496Y-71483002D01*
X80282083Y-71478816D01*
X80271967Y-71478606D01*
X80230568Y-71482331D01*
X80193884Y-71493507D01*
X80161916Y-71512134D01*
X80134664Y-71538211D01*
X80121209Y-71556458D01*
X80101437Y-71594375D01*
X80088355Y-71633015D01*
X80080179Y-71669544D01*
X80074481Y-71710009D01*
X80071260Y-71754409D01*
X80070467Y-71792763D01*
X80071234Y-71831792D01*
X80073931Y-71872224D01*
X80078569Y-71908976D01*
X80082740Y-71931432D01*
X80092650Y-71968808D01*
X80106818Y-72004348D01*
X80119743Y-72027419D01*
X80143612Y-72057397D01*
X80172582Y-72080013D01*
X80206653Y-72095265D01*
X80245827Y-72103154D01*
X80270502Y-72104356D01*
X80307880Y-72101321D01*
X80330403Y-72095746D01*
X80354399Y-72085488D01*
X80377114Y-72070101D01*
X80377114Y-71853763D01*
X80265739Y-71853763D01*
X80265739Y-71773895D01*
X80476032Y-71773895D01*
X80476032Y-72110401D01*
X80446006Y-72133506D01*
X80413858Y-72152196D01*
X80382793Y-72165355D01*
X80345692Y-72176097D01*
X80306427Y-72182381D01*
X80268853Y-72184223D01*
G37*
G36*
X80612869Y-71410462D02*
G01*
X80744211Y-71410462D01*
X81002498Y-72039692D01*
X81002498Y-71410462D01*
X81102515Y-71410462D01*
X81102515Y-72172500D01*
X80971174Y-72172500D01*
X80712887Y-71554077D01*
X80712887Y-72172500D01*
X80612869Y-72172500D01*
X80612869Y-71410462D01*
G37*
G36*
X81441147Y-71411913D02*
G01*
X81480683Y-71416266D01*
X81517328Y-71423522D01*
X81559069Y-71436673D01*
X81596293Y-71454359D01*
X81629001Y-71476580D01*
X81657191Y-71503335D01*
X81681149Y-71534876D01*
X81701047Y-71571452D01*
X81716884Y-71613065D01*
X81726630Y-71649980D01*
X81733777Y-71690119D01*
X81738325Y-71733480D01*
X81740274Y-71780064D01*
X81740355Y-71792213D01*
X81739056Y-71839260D01*
X81735158Y-71883129D01*
X81728660Y-71923821D01*
X81719564Y-71961336D01*
X81704539Y-72003762D01*
X81685454Y-72041224D01*
X81662307Y-72073722D01*
X81657191Y-72079626D01*
X81629001Y-72106382D01*
X81596293Y-72128602D01*
X81559069Y-72146288D01*
X81517328Y-72159439D01*
X81480683Y-72166695D01*
X81441147Y-72171048D01*
X81398721Y-72172500D01*
X81243382Y-72172500D01*
X81243382Y-72092632D01*
X81347613Y-72092632D01*
X81396706Y-72092632D01*
X81435796Y-72091036D01*
X81477544Y-72084905D01*
X81513664Y-72074176D01*
X81548690Y-72055847D01*
X81576054Y-72031259D01*
X81579338Y-72027236D01*
X81599467Y-71993782D01*
X81612784Y-71957014D01*
X81621108Y-71920667D01*
X81626909Y-71879133D01*
X81629734Y-71842170D01*
X81630945Y-71801887D01*
X81630996Y-71791297D01*
X81630194Y-71750021D01*
X81627790Y-71712106D01*
X81622531Y-71669436D01*
X81614767Y-71632017D01*
X81602144Y-71594045D01*
X81582860Y-71559299D01*
X81579705Y-71555176D01*
X81553017Y-71529495D01*
X81518476Y-71510476D01*
X81507165Y-71506266D01*
X81469907Y-71496555D01*
X81431364Y-71491590D01*
X81396706Y-71490329D01*
X81347613Y-71490329D01*
X81347613Y-72092632D01*
X81243382Y-72092632D01*
X81243382Y-71410462D01*
X81398721Y-71410462D01*
X81441147Y-71411913D01*
G37*
G36*
X150216824Y-99345631D02*
G01*
X150163608Y-99342849D01*
X150113870Y-99334503D01*
X150062684Y-99318703D01*
X150043412Y-99310460D01*
X149998484Y-99285306D01*
X149958041Y-99253807D01*
X149922082Y-99215964D01*
X149915429Y-99207634D01*
X149884469Y-99161727D01*
X149858757Y-99110562D01*
X149838292Y-99054137D01*
X149825698Y-99005210D01*
X149816463Y-98952917D01*
X149810585Y-98897258D01*
X149808067Y-98838233D01*
X149807962Y-98822951D01*
X149809671Y-98762188D01*
X149814801Y-98704952D01*
X149823349Y-98651241D01*
X149835317Y-98601057D01*
X149850704Y-98554399D01*
X149874747Y-98501035D01*
X149904132Y-98453181D01*
X149917383Y-98435582D01*
X149953598Y-98396038D01*
X149993856Y-98363197D01*
X150038157Y-98337057D01*
X150086502Y-98317621D01*
X150138889Y-98304886D01*
X150195318Y-98298854D01*
X150219022Y-98298318D01*
X150268081Y-98300688D01*
X150318669Y-98308604D01*
X150344807Y-98315170D01*
X150392497Y-98332556D01*
X150437929Y-98355344D01*
X150458136Y-98367683D01*
X150458136Y-98508122D01*
X150419773Y-98474828D01*
X150399762Y-98460495D01*
X150356286Y-98435117D01*
X150344807Y-98429720D01*
X150296740Y-98413585D01*
X150283014Y-98410669D01*
X150234464Y-98405088D01*
X150220976Y-98404808D01*
X150165777Y-98409775D01*
X150116865Y-98424676D01*
X150074241Y-98449512D01*
X150037905Y-98484282D01*
X150019965Y-98508611D01*
X149993603Y-98559167D01*
X149976160Y-98610687D01*
X149965259Y-98659393D01*
X149957661Y-98713345D01*
X149953366Y-98772546D01*
X149952309Y-98823684D01*
X149953332Y-98875723D01*
X149956928Y-98929632D01*
X149963112Y-98978634D01*
X149968674Y-99008576D01*
X149981886Y-99058411D01*
X150000777Y-99105797D01*
X150018011Y-99136559D01*
X150049835Y-99176530D01*
X150088462Y-99206684D01*
X150133891Y-99227020D01*
X150186122Y-99237538D01*
X150219022Y-99239141D01*
X150268859Y-99235094D01*
X150298890Y-99227662D01*
X150330886Y-99213984D01*
X150361172Y-99193468D01*
X150361172Y-98905017D01*
X150212672Y-98905017D01*
X150212672Y-98798527D01*
X150493063Y-98798527D01*
X150493063Y-99247201D01*
X150453028Y-99278009D01*
X150410164Y-99302929D01*
X150368743Y-99320474D01*
X150319276Y-99334797D01*
X150266923Y-99343174D01*
X150216824Y-99345631D01*
G37*
G36*
X150675512Y-98313949D02*
G01*
X150850634Y-98313949D01*
X151195017Y-99152923D01*
X151195017Y-98313949D01*
X151328373Y-98313949D01*
X151328373Y-99330000D01*
X151153251Y-99330000D01*
X150808869Y-98505436D01*
X150808869Y-99330000D01*
X150675512Y-99330000D01*
X150675512Y-98313949D01*
G37*
G36*
X151779883Y-98315884D02*
G01*
X151832598Y-98321689D01*
X151881458Y-98331363D01*
X151937112Y-98348898D01*
X151986744Y-98372479D01*
X152030354Y-98402106D01*
X152067941Y-98437780D01*
X152099886Y-98479835D01*
X152126416Y-98528603D01*
X152147532Y-98584086D01*
X152160526Y-98633307D01*
X152170056Y-98686825D01*
X152176120Y-98744640D01*
X152178719Y-98806752D01*
X152178827Y-98822951D01*
X152177094Y-98885680D01*
X152171897Y-98944172D01*
X152163234Y-98998428D01*
X152151105Y-99048449D01*
X152131072Y-99105017D01*
X152105625Y-99154966D01*
X152074763Y-99198297D01*
X152067941Y-99206168D01*
X152030354Y-99241842D01*
X151986744Y-99271470D01*
X151937112Y-99295051D01*
X151881458Y-99312586D01*
X151832598Y-99322260D01*
X151779883Y-99328065D01*
X151723314Y-99330000D01*
X151516196Y-99330000D01*
X151516196Y-99223510D01*
X151655170Y-99223510D01*
X151720627Y-99223510D01*
X151772747Y-99221381D01*
X151828412Y-99213206D01*
X151876571Y-99198901D01*
X151923273Y-99174463D01*
X151959759Y-99141679D01*
X151964138Y-99136315D01*
X151990975Y-99091709D01*
X152008732Y-99042685D01*
X152019831Y-98994223D01*
X152027566Y-98938844D01*
X152031332Y-98889560D01*
X152032947Y-98835849D01*
X152033014Y-98821730D01*
X152031945Y-98766695D01*
X152028740Y-98716141D01*
X152021727Y-98659248D01*
X152011376Y-98609356D01*
X151994546Y-98558726D01*
X151968834Y-98512399D01*
X151964626Y-98506901D01*
X151929043Y-98472660D01*
X151882988Y-98447302D01*
X151867906Y-98441688D01*
X151818229Y-98428740D01*
X151766839Y-98422120D01*
X151720627Y-98420439D01*
X151655170Y-98420439D01*
X151655170Y-99223510D01*
X151516196Y-99223510D01*
X151516196Y-98313949D01*
X151723314Y-98313949D01*
X151779883Y-98315884D01*
G37*
G36*
X150939295Y-101945631D02*
G01*
X150889149Y-101944257D01*
X150870663Y-101943189D01*
X150820687Y-101938676D01*
X150799344Y-101935861D01*
X150749977Y-101927160D01*
X150734864Y-101923649D01*
X150686796Y-101909307D01*
X150678200Y-101906308D01*
X150678200Y-101770753D01*
X150722131Y-101792323D01*
X150769529Y-101811047D01*
X150804717Y-101821800D01*
X150856233Y-101833028D01*
X150907588Y-101838532D01*
X150931235Y-101839141D01*
X150980743Y-101836184D01*
X151030340Y-101825564D01*
X151077231Y-101804382D01*
X151110998Y-101777348D01*
X151140751Y-101738293D01*
X151160766Y-101691473D01*
X151170383Y-101643334D01*
X151172547Y-101603203D01*
X151169275Y-101553140D01*
X151157521Y-101504170D01*
X151155450Y-101498667D01*
X151132275Y-101454196D01*
X151108800Y-101426127D01*
X151069010Y-101396733D01*
X151035038Y-101381186D01*
X150985640Y-101368546D01*
X150935505Y-101364399D01*
X150927816Y-101364333D01*
X150878045Y-101367446D01*
X150829026Y-101376784D01*
X150822547Y-101378499D01*
X150773796Y-101395579D01*
X150727836Y-101418885D01*
X150721919Y-101422463D01*
X150721919Y-100913949D01*
X151238737Y-100913949D01*
X151238737Y-101020439D01*
X150847704Y-101020439D01*
X150847704Y-101278360D01*
X150896051Y-101264679D01*
X150907299Y-101262484D01*
X150956900Y-101257956D01*
X150967383Y-101257843D01*
X151017176Y-101260300D01*
X151067431Y-101268677D01*
X151112952Y-101283000D01*
X151157396Y-101304192D01*
X151199188Y-101332809D01*
X151218953Y-101350655D01*
X151254927Y-101394072D01*
X151282065Y-101443754D01*
X151298294Y-101491324D01*
X151308031Y-101543497D01*
X151311277Y-101600272D01*
X151308922Y-101649170D01*
X151299877Y-101703346D01*
X151284049Y-101752611D01*
X151261437Y-101796964D01*
X151232042Y-101836405D01*
X151214801Y-101854284D01*
X151176493Y-101884818D01*
X151132278Y-101909376D01*
X151099519Y-101922428D01*
X151049952Y-101935638D01*
X150999882Y-101942889D01*
X150950740Y-101945540D01*
X150939295Y-101945631D01*
G37*
G36*
X151461731Y-100913949D02*
G01*
X151604369Y-100913949D01*
X151843727Y-101815694D01*
X152083573Y-100913949D01*
X152226455Y-100913949D01*
X151927746Y-101930000D01*
X151760440Y-101930000D01*
X151461731Y-100913949D01*
G37*
G36*
X105359246Y-65123949D02*
G01*
X105960083Y-65123949D01*
X105960083Y-65230439D01*
X105497976Y-65230439D01*
X105497976Y-65564563D01*
X105917096Y-65564563D01*
X105917096Y-65671053D01*
X105497976Y-65671053D01*
X105497976Y-66140000D01*
X105359246Y-66140000D01*
X105359246Y-65123949D01*
G37*
G36*
X106536059Y-65361900D02*
G01*
X106586223Y-65372333D01*
X106638626Y-65393295D01*
X106684437Y-65423724D01*
X106718457Y-65457341D01*
X106747177Y-65497106D01*
X106769954Y-65542211D01*
X106786790Y-65592658D01*
X106797684Y-65648446D01*
X106802223Y-65699015D01*
X106802965Y-65731137D01*
X106802965Y-65793175D01*
X106258060Y-65793175D01*
X106258060Y-65797083D01*
X106261983Y-65851793D01*
X106273752Y-65900642D01*
X106296372Y-65948589D01*
X106320830Y-65980753D01*
X106361028Y-66013812D01*
X106410732Y-66036051D01*
X106462893Y-66046737D01*
X106506943Y-66049141D01*
X106559631Y-66046119D01*
X106611082Y-66037051D01*
X106644696Y-66027648D01*
X106694086Y-66010257D01*
X106742240Y-65990324D01*
X106773656Y-65975624D01*
X106773656Y-66097013D01*
X106724689Y-66115503D01*
X106675242Y-66131039D01*
X106642009Y-66139755D01*
X106591588Y-66149430D01*
X106540343Y-66154639D01*
X106505722Y-66155631D01*
X106452246Y-66153061D01*
X106402491Y-66145351D01*
X106347697Y-66129314D01*
X106298260Y-66105875D01*
X106254182Y-66075035D01*
X106227773Y-66050362D01*
X106193493Y-66008090D01*
X106166304Y-65960408D01*
X106146209Y-65907317D01*
X106134880Y-65858942D01*
X106128477Y-65806810D01*
X106126901Y-65762400D01*
X106129405Y-65707201D01*
X106132339Y-65686685D01*
X106262944Y-65686685D01*
X106677180Y-65686685D01*
X106673487Y-65634479D01*
X106662407Y-65586854D01*
X106657885Y-65574089D01*
X106633094Y-65529026D01*
X106596824Y-65494466D01*
X106551483Y-65473253D01*
X106502550Y-65465374D01*
X106485694Y-65464912D01*
X106436681Y-65469103D01*
X106387574Y-65484583D01*
X106369190Y-65494710D01*
X106329910Y-65527153D01*
X106299538Y-65568612D01*
X106296161Y-65574822D01*
X106276820Y-65620997D01*
X106264959Y-65671473D01*
X106262944Y-65686685D01*
X106132339Y-65686685D01*
X106136915Y-65654689D01*
X106149433Y-65604863D01*
X106166957Y-65557725D01*
X106189412Y-65514295D01*
X106220476Y-65471093D01*
X106257685Y-65433881D01*
X106285903Y-65412400D01*
X106333235Y-65386307D01*
X106380271Y-65370283D01*
X106431978Y-65361005D01*
X106481053Y-65358422D01*
X106536059Y-65361900D01*
G37*
G36*
X107090683Y-65374054D02*
G01*
X107204989Y-65374054D01*
X107217201Y-65525729D01*
X107240500Y-65478874D01*
X107270095Y-65439366D01*
X107309923Y-65404392D01*
X107313921Y-65401653D01*
X107361421Y-65377040D01*
X107409811Y-65363531D01*
X107463163Y-65358465D01*
X107468771Y-65358422D01*
X107519871Y-65361881D01*
X107572116Y-65373835D01*
X107619590Y-65394329D01*
X107632903Y-65402142D01*
X107632903Y-65534033D01*
X107594205Y-65503793D01*
X107546620Y-65480100D01*
X107494746Y-65467342D01*
X107457780Y-65464912D01*
X107403024Y-65469599D01*
X107355015Y-65483658D01*
X107309070Y-65510678D01*
X107279239Y-65539895D01*
X107252097Y-65581462D01*
X107232711Y-65631181D01*
X107222108Y-65681371D01*
X107217444Y-65737803D01*
X107217201Y-65755073D01*
X107217201Y-66140000D01*
X107090683Y-66140000D01*
X107090683Y-65374054D01*
G37*
G36*
X107932833Y-65374054D02*
G01*
X108047138Y-65374054D01*
X108059351Y-65525729D01*
X108082649Y-65478874D01*
X108112244Y-65439366D01*
X108152072Y-65404392D01*
X108156071Y-65401653D01*
X108203570Y-65377040D01*
X108251961Y-65363531D01*
X108305313Y-65358465D01*
X108310921Y-65358422D01*
X108362020Y-65361881D01*
X108414265Y-65373835D01*
X108461740Y-65394329D01*
X108475052Y-65402142D01*
X108475052Y-65534033D01*
X108436355Y-65503793D01*
X108388769Y-65480100D01*
X108336895Y-65467342D01*
X108299930Y-65464912D01*
X108245174Y-65469599D01*
X108197165Y-65483658D01*
X108151219Y-65510678D01*
X108121388Y-65539895D01*
X108094247Y-65581462D01*
X108074860Y-65631181D01*
X108064258Y-65681371D01*
X108059593Y-65737803D01*
X108059351Y-65755073D01*
X108059351Y-66140000D01*
X107932833Y-66140000D01*
X107932833Y-65374054D01*
G37*
G36*
X109062507Y-65361900D02*
G01*
X109112671Y-65372333D01*
X109165074Y-65393295D01*
X109210885Y-65423724D01*
X109244905Y-65457341D01*
X109273625Y-65497106D01*
X109296402Y-65542211D01*
X109313238Y-65592658D01*
X109324132Y-65648446D01*
X109328671Y-65699015D01*
X109329413Y-65731137D01*
X109329413Y-65793175D01*
X108784508Y-65793175D01*
X108784508Y-65797083D01*
X108788431Y-65851793D01*
X108800200Y-65900642D01*
X108822820Y-65948589D01*
X108847278Y-65980753D01*
X108887476Y-66013812D01*
X108937180Y-66036051D01*
X108989341Y-66046737D01*
X109033391Y-66049141D01*
X109086079Y-66046119D01*
X109137530Y-66037051D01*
X109171144Y-66027648D01*
X109220534Y-66010257D01*
X109268688Y-65990324D01*
X109300104Y-65975624D01*
X109300104Y-66097013D01*
X109251137Y-66115503D01*
X109201690Y-66131039D01*
X109168457Y-66139755D01*
X109118036Y-66149430D01*
X109066791Y-66154639D01*
X109032170Y-66155631D01*
X108978694Y-66153061D01*
X108928939Y-66145351D01*
X108874145Y-66129314D01*
X108824708Y-66105875D01*
X108780630Y-66075035D01*
X108754221Y-66050362D01*
X108719941Y-66008090D01*
X108692752Y-65960408D01*
X108672657Y-65907317D01*
X108661328Y-65858942D01*
X108654925Y-65806810D01*
X108653349Y-65762400D01*
X108655853Y-65707201D01*
X108658787Y-65686685D01*
X108789392Y-65686685D01*
X109203628Y-65686685D01*
X109199935Y-65634479D01*
X109188855Y-65586854D01*
X109184333Y-65574089D01*
X109159542Y-65529026D01*
X109123272Y-65494466D01*
X109077931Y-65473253D01*
X109028998Y-65465374D01*
X109012142Y-65464912D01*
X108963129Y-65469103D01*
X108914022Y-65484583D01*
X108895638Y-65494710D01*
X108856358Y-65527153D01*
X108825986Y-65568612D01*
X108822609Y-65574822D01*
X108803268Y-65620997D01*
X108791407Y-65671473D01*
X108789392Y-65686685D01*
X108658787Y-65686685D01*
X108663363Y-65654689D01*
X108675881Y-65604863D01*
X108693405Y-65557725D01*
X108715860Y-65514295D01*
X108746924Y-65471093D01*
X108784133Y-65433881D01*
X108812351Y-65412400D01*
X108859683Y-65386307D01*
X108906719Y-65370283D01*
X108958426Y-65361005D01*
X109007501Y-65358422D01*
X109062507Y-65361900D01*
G37*
G36*
X109962491Y-66140000D02*
G01*
X109912536Y-66138025D01*
X109861571Y-66130728D01*
X109812971Y-66115807D01*
X109770593Y-66090626D01*
X109762944Y-66083824D01*
X109732161Y-66040938D01*
X109714204Y-65989045D01*
X109706623Y-65939974D01*
X109704570Y-65891849D01*
X109704570Y-65480544D01*
X109500383Y-65480544D01*
X109500383Y-65374054D01*
X109704570Y-65374054D01*
X109704570Y-65174508D01*
X109830355Y-65119797D01*
X109830355Y-65374054D01*
X110116120Y-65374054D01*
X110116120Y-65480544D01*
X109830355Y-65480544D01*
X109830355Y-65886231D01*
X109834165Y-65936572D01*
X109850033Y-65984030D01*
X109862595Y-66000781D01*
X109906742Y-66025327D01*
X109955480Y-66032998D01*
X109974703Y-66033510D01*
X110116120Y-66033510D01*
X110116120Y-66140000D01*
X109962491Y-66140000D01*
G37*
G36*
X105406385Y-67054054D02*
G01*
X105520690Y-67054054D01*
X105532903Y-67205729D01*
X105556201Y-67158874D01*
X105585796Y-67119366D01*
X105625624Y-67084392D01*
X105629623Y-67081653D01*
X105677122Y-67057040D01*
X105725513Y-67043531D01*
X105778865Y-67038465D01*
X105784473Y-67038422D01*
X105835572Y-67041881D01*
X105887817Y-67053835D01*
X105935292Y-67074329D01*
X105948604Y-67082142D01*
X105948604Y-67214033D01*
X105909907Y-67183793D01*
X105862321Y-67160100D01*
X105810447Y-67147342D01*
X105773482Y-67144912D01*
X105718726Y-67149599D01*
X105670717Y-67163658D01*
X105624771Y-67190678D01*
X105594940Y-67219895D01*
X105567799Y-67261462D01*
X105548412Y-67311181D01*
X105537810Y-67361371D01*
X105533145Y-67417803D01*
X105532903Y-67435073D01*
X105532903Y-67820000D01*
X105406385Y-67820000D01*
X105406385Y-67054054D01*
G37*
G36*
X106536059Y-67041900D02*
G01*
X106586223Y-67052333D01*
X106638626Y-67073295D01*
X106684437Y-67103724D01*
X106718457Y-67137341D01*
X106747177Y-67177106D01*
X106769954Y-67222211D01*
X106786790Y-67272658D01*
X106797684Y-67328446D01*
X106802223Y-67379015D01*
X106802965Y-67411137D01*
X106802965Y-67473175D01*
X106258060Y-67473175D01*
X106258060Y-67477083D01*
X106261983Y-67531793D01*
X106273752Y-67580642D01*
X106296372Y-67628589D01*
X106320830Y-67660753D01*
X106361028Y-67693812D01*
X106410732Y-67716051D01*
X106462893Y-67726737D01*
X106506943Y-67729141D01*
X106559631Y-67726119D01*
X106611082Y-67717051D01*
X106644696Y-67707648D01*
X106694086Y-67690257D01*
X106742240Y-67670324D01*
X106773656Y-67655624D01*
X106773656Y-67777013D01*
X106724689Y-67795503D01*
X106675242Y-67811039D01*
X106642009Y-67819755D01*
X106591588Y-67829430D01*
X106540343Y-67834639D01*
X106505722Y-67835631D01*
X106452246Y-67833061D01*
X106402491Y-67825351D01*
X106347697Y-67809314D01*
X106298260Y-67785875D01*
X106254182Y-67755035D01*
X106227773Y-67730362D01*
X106193493Y-67688090D01*
X106166304Y-67640408D01*
X106146209Y-67587317D01*
X106134880Y-67538942D01*
X106128477Y-67486810D01*
X106126901Y-67442400D01*
X106129405Y-67387201D01*
X106132339Y-67366685D01*
X106262944Y-67366685D01*
X106677180Y-67366685D01*
X106673487Y-67314479D01*
X106662407Y-67266854D01*
X106657885Y-67254089D01*
X106633094Y-67209026D01*
X106596824Y-67174466D01*
X106551483Y-67153253D01*
X106502550Y-67145374D01*
X106485694Y-67144912D01*
X106436681Y-67149103D01*
X106387574Y-67164583D01*
X106369190Y-67174710D01*
X106329910Y-67207153D01*
X106299538Y-67248612D01*
X106296161Y-67254822D01*
X106276820Y-67300997D01*
X106264959Y-67351473D01*
X106262944Y-67366685D01*
X106132339Y-67366685D01*
X106136915Y-67334689D01*
X106149433Y-67284863D01*
X106166957Y-67237725D01*
X106189412Y-67194295D01*
X106220476Y-67151093D01*
X106257685Y-67113881D01*
X106285903Y-67092400D01*
X106333235Y-67066307D01*
X106380271Y-67050283D01*
X106431978Y-67041005D01*
X106481053Y-67038422D01*
X106536059Y-67041900D01*
G37*
G36*
X106952686Y-67054054D02*
G01*
X107083112Y-67054054D01*
X107305373Y-67697145D01*
X107528122Y-67054054D01*
X107658792Y-67054054D01*
X107386706Y-67820000D01*
X107224773Y-67820000D01*
X106952686Y-67054054D01*
G37*
G36*
X109020690Y-67096064D02*
G01*
X109037314Y-67142619D01*
X109043649Y-67170802D01*
X109051468Y-67219899D01*
X109054640Y-67248471D01*
X109058387Y-67298122D01*
X109058792Y-67314661D01*
X109056646Y-67364378D01*
X109056350Y-67369371D01*
X109051900Y-67418583D01*
X109047069Y-67453147D01*
X109035732Y-67502026D01*
X109011262Y-67546265D01*
X108991137Y-67554263D01*
X108957187Y-67524466D01*
X108942002Y-67476332D01*
X108937159Y-67454612D01*
X108928795Y-67404499D01*
X108925680Y-67377676D01*
X108921803Y-67327947D01*
X108921284Y-67309288D01*
X108923341Y-67260027D01*
X108923970Y-67249692D01*
X108929259Y-67200368D01*
X108934961Y-67168604D01*
X108947171Y-67120787D01*
X108970466Y-67077510D01*
X108988206Y-67069685D01*
X109020690Y-67096064D01*
G37*
G36*
X109038989Y-66791556D02*
G01*
X109092959Y-66803989D01*
X109141244Y-66825748D01*
X109183846Y-66856831D01*
X109220763Y-66897240D01*
X109237090Y-66920942D01*
X109260803Y-66964567D01*
X109280653Y-67014536D01*
X109295213Y-67064933D01*
X109299371Y-67082875D01*
X109308668Y-67133570D01*
X109315308Y-67188693D01*
X109318940Y-67240556D01*
X109320538Y-67295810D01*
X109320621Y-67312219D01*
X109319604Y-67368524D01*
X109316553Y-67421392D01*
X109311469Y-67470825D01*
X109303169Y-67523112D01*
X109299371Y-67541563D01*
X109285854Y-67593437D01*
X109269207Y-67640249D01*
X109247039Y-67686326D01*
X109237090Y-67703007D01*
X109202792Y-67748079D01*
X109162912Y-67783825D01*
X109117452Y-67810246D01*
X109066410Y-67827342D01*
X109009786Y-67835113D01*
X108989672Y-67835631D01*
X108940372Y-67832393D01*
X108886471Y-67819960D01*
X108838305Y-67798201D01*
X108795876Y-67767117D01*
X108759182Y-67726709D01*
X108742986Y-67703007D01*
X108718922Y-67658368D01*
X108698937Y-67607648D01*
X108683030Y-67550844D01*
X108673241Y-67501023D01*
X108666063Y-67447308D01*
X108661495Y-67389701D01*
X108659537Y-67328202D01*
X108659455Y-67312219D01*
X108798185Y-67312219D01*
X108798933Y-67363605D01*
X108801972Y-67422954D01*
X108807348Y-67476877D01*
X108815062Y-67525374D01*
X108827404Y-67576408D01*
X108846057Y-67626071D01*
X108872984Y-67671164D01*
X108910431Y-67706494D01*
X108955451Y-67725518D01*
X108989672Y-67729141D01*
X109040627Y-67720988D01*
X109083584Y-67696529D01*
X109118542Y-67655764D01*
X109134508Y-67626071D01*
X109152970Y-67575990D01*
X109165186Y-67524785D01*
X109172821Y-67476276D01*
X109178143Y-67422461D01*
X109181150Y-67363338D01*
X109181891Y-67312219D01*
X109181150Y-67260996D01*
X109178143Y-67201798D01*
X109172821Y-67147967D01*
X109165186Y-67099503D01*
X109152970Y-67048429D01*
X109134508Y-66998611D01*
X109107778Y-66953197D01*
X109070154Y-66917616D01*
X109024531Y-66898457D01*
X108989672Y-66894808D01*
X108939306Y-66902961D01*
X108896747Y-66927420D01*
X108861992Y-66968185D01*
X108846057Y-66997878D01*
X108828584Y-67043667D01*
X108815962Y-67093590D01*
X108810153Y-67126106D01*
X108803842Y-67177339D01*
X108800160Y-67228834D01*
X108798477Y-67278888D01*
X108798185Y-67312219D01*
X108659455Y-67312219D01*
X108660760Y-67249631D01*
X108664676Y-67190952D01*
X108671202Y-67136181D01*
X108680338Y-67085317D01*
X108695429Y-67027233D01*
X108714599Y-66975255D01*
X108737847Y-66929383D01*
X108742986Y-66920942D01*
X108776812Y-66875870D01*
X108816374Y-66840124D01*
X108861671Y-66813703D01*
X108912704Y-66796607D01*
X108969474Y-66788836D01*
X108989672Y-66788318D01*
X109038989Y-66791556D01*
G37*
G36*
X109829867Y-67835631D02*
G01*
X109781945Y-67825353D01*
X109750976Y-67803147D01*
X109725105Y-67760222D01*
X109718981Y-67718394D01*
X109728011Y-67668634D01*
X109750976Y-67633886D01*
X109794342Y-67606559D01*
X109829867Y-67601158D01*
X109879894Y-67612696D01*
X109908269Y-67633886D01*
X109934338Y-67676614D01*
X109940509Y-67718394D01*
X109931410Y-67768224D01*
X109908269Y-67803147D01*
X109865194Y-67830270D01*
X109829867Y-67835631D01*
G37*
G36*
X110356699Y-67728164D02*
G01*
X110373796Y-67685666D01*
X110407885Y-67649787D01*
X110443503Y-67612161D01*
X110466120Y-67588213D01*
X110500266Y-67551844D01*
X110535843Y-67513566D01*
X110569086Y-67477485D01*
X110580425Y-67465115D01*
X110614341Y-67427989D01*
X110648791Y-67390294D01*
X110650279Y-67388667D01*
X110683792Y-67351571D01*
X110686182Y-67348855D01*
X110711584Y-67319057D01*
X110742252Y-67280739D01*
X110769225Y-67244319D01*
X110795305Y-67202235D01*
X110804640Y-67183258D01*
X110821002Y-67136502D01*
X110828366Y-67086510D01*
X110828576Y-67076524D01*
X110823686Y-67027003D01*
X110807013Y-66980850D01*
X110778506Y-66943412D01*
X110735298Y-66913794D01*
X110686397Y-66898652D01*
X110639776Y-66894808D01*
X110584804Y-66899307D01*
X110535396Y-66910327D01*
X110483876Y-66927958D01*
X110430244Y-66952201D01*
X110383937Y-66977454D01*
X110365003Y-66988841D01*
X110365003Y-66851088D01*
X110412802Y-66831552D01*
X110460485Y-66815595D01*
X110503733Y-66804193D01*
X110554303Y-66794519D01*
X110604529Y-66789310D01*
X110637822Y-66788318D01*
X110689857Y-66791031D01*
X110739351Y-66799171D01*
X110770935Y-66807613D01*
X110818959Y-66826720D01*
X110861823Y-66853082D01*
X110879867Y-66867697D01*
X110914564Y-66905356D01*
X110940557Y-66946897D01*
X110945324Y-66956601D01*
X110962187Y-67005074D01*
X110969390Y-67054605D01*
X110969993Y-67074815D01*
X110965768Y-67125293D01*
X110953094Y-67175977D01*
X110939951Y-67209881D01*
X110916394Y-67254129D01*
X110901116Y-67276803D01*
X110870487Y-67317135D01*
X110840788Y-67353740D01*
X110808438Y-67391132D01*
X110793649Y-67407962D01*
X110760093Y-67445211D01*
X110730146Y-67477815D01*
X110696059Y-67513896D01*
X110681786Y-67528618D01*
X110647073Y-67563422D01*
X110634891Y-67575512D01*
X110599574Y-67610930D01*
X110578471Y-67632421D01*
X110543239Y-67668935D01*
X110509488Y-67704538D01*
X110501046Y-67713510D01*
X110976831Y-67713510D01*
X110976831Y-67820000D01*
X110356699Y-67820000D01*
X110356699Y-67728164D01*
G37*
G36*
X105293545Y-68483949D02*
G01*
X105432519Y-68483949D01*
X105432519Y-68943859D01*
X105863852Y-68483949D01*
X106025785Y-68483949D01*
X105628646Y-68907466D01*
X106037508Y-69500000D01*
X105870690Y-69500000D01*
X105537787Y-68998080D01*
X105432519Y-69107990D01*
X105432519Y-69500000D01*
X105293545Y-69500000D01*
X105293545Y-68483949D01*
G37*
G36*
X106500287Y-68721067D02*
G01*
X106549930Y-68729001D01*
X106582414Y-68737229D01*
X106628484Y-68754551D01*
X106672812Y-68780991D01*
X106694277Y-68798534D01*
X106727418Y-68837861D01*
X106748850Y-68882677D01*
X106757292Y-68912595D01*
X106764250Y-68962058D01*
X106767188Y-69011518D01*
X106768039Y-69064515D01*
X106768039Y-69220586D01*
X106769035Y-69270503D01*
X106771698Y-69319640D01*
X106775122Y-69362247D01*
X106782353Y-69413566D01*
X106795244Y-69464811D01*
X106808339Y-69500000D01*
X106682065Y-69500000D01*
X106666239Y-69452732D01*
X106663503Y-69441137D01*
X106654457Y-69392950D01*
X106652512Y-69379832D01*
X106621111Y-69423000D01*
X106582322Y-69457798D01*
X106540648Y-69482170D01*
X106490693Y-69501220D01*
X106438891Y-69512363D01*
X106390195Y-69515631D01*
X106337179Y-69511662D01*
X106289017Y-69499755D01*
X106240638Y-69476872D01*
X106207257Y-69452128D01*
X106172427Y-69412022D01*
X106148996Y-69363144D01*
X106137738Y-69312334D01*
X106135263Y-69270655D01*
X106260990Y-69270655D01*
X106268286Y-69321408D01*
X106294837Y-69365544D01*
X106305198Y-69374703D01*
X106349237Y-69398245D01*
X106399338Y-69408300D01*
X106420969Y-69409141D01*
X106471101Y-69404812D01*
X106517955Y-69390215D01*
X106547732Y-69372505D01*
X106585425Y-69335933D01*
X106611384Y-69294272D01*
X106619050Y-69276273D01*
X106633757Y-69226599D01*
X106640678Y-69178170D01*
X106641765Y-69148778D01*
X106641765Y-69121912D01*
X106482274Y-69121912D01*
X106432840Y-69124434D01*
X106384372Y-69132001D01*
X106377983Y-69133391D01*
X106331577Y-69150061D01*
X106293963Y-69177110D01*
X106268235Y-69219447D01*
X106260990Y-69270655D01*
X106135263Y-69270655D01*
X106135205Y-69269678D01*
X106138973Y-69217613D01*
X106151996Y-69167830D01*
X106177065Y-69122875D01*
X106182833Y-69115806D01*
X106219208Y-69081585D01*
X106262509Y-69055156D01*
X106307885Y-69037892D01*
X106357254Y-69026042D01*
X106408578Y-69018582D01*
X106461858Y-69015509D01*
X106472749Y-69015422D01*
X106641765Y-69015422D01*
X106641765Y-68995882D01*
X106637843Y-68946625D01*
X106622397Y-68898910D01*
X106592184Y-68862526D01*
X106545288Y-68838172D01*
X106495280Y-68827263D01*
X106452965Y-68824912D01*
X106401102Y-68827626D01*
X106349925Y-68835766D01*
X106316189Y-68844207D01*
X106267234Y-68860808D01*
X106220751Y-68881668D01*
X106191137Y-68897941D01*
X106191137Y-68771912D01*
X106238570Y-68755643D01*
X106286346Y-68741641D01*
X106318387Y-68733565D01*
X106366942Y-68724338D01*
X106416253Y-68719369D01*
X106449546Y-68718422D01*
X106500287Y-68721067D01*
G37*
G36*
X107287055Y-69515631D02*
G01*
X107237348Y-69513317D01*
X107183972Y-69506375D01*
X107135300Y-69496740D01*
X107083931Y-69483706D01*
X107029867Y-69467271D01*
X107029867Y-69337822D01*
X107082615Y-69362060D01*
X107133147Y-69381282D01*
X107181464Y-69395490D01*
X107235034Y-69405728D01*
X107285589Y-69409141D01*
X107336717Y-69405245D01*
X107383869Y-69392107D01*
X107413328Y-69376168D01*
X107447689Y-69340144D01*
X107461153Y-69290952D01*
X107461200Y-69287508D01*
X107448526Y-69239328D01*
X107421144Y-69210083D01*
X107377146Y-69186541D01*
X107329720Y-69170996D01*
X107293649Y-69162456D01*
X107241137Y-69151709D01*
X107190762Y-69139100D01*
X107142702Y-69120755D01*
X107099998Y-69095205D01*
X107082868Y-69080390D01*
X107052207Y-69037972D01*
X107036534Y-68990218D01*
X107032554Y-68944836D01*
X107037255Y-68893514D01*
X107053785Y-68843295D01*
X107082215Y-68801036D01*
X107107780Y-68777285D01*
X107149363Y-68751533D01*
X107198883Y-68733138D01*
X107248725Y-68723079D01*
X107304644Y-68718652D01*
X107321737Y-68718422D01*
X107372868Y-68720643D01*
X107423251Y-68727305D01*
X107472885Y-68738408D01*
X107521772Y-68753952D01*
X107549371Y-68764829D01*
X107549371Y-68888415D01*
X107501994Y-68863672D01*
X107453682Y-68845005D01*
X107404434Y-68832416D01*
X107354252Y-68825905D01*
X107325157Y-68824912D01*
X107268963Y-68828836D01*
X107218097Y-68843334D01*
X107175952Y-68877670D01*
X107159966Y-68929664D01*
X107159804Y-68936531D01*
X107169156Y-68985672D01*
X107173970Y-68994173D01*
X107214478Y-69024349D01*
X107228681Y-69030076D01*
X107278750Y-69044792D01*
X107328805Y-69056229D01*
X107347871Y-69060118D01*
X107398429Y-69069644D01*
X107453172Y-69084429D01*
X107498636Y-69105584D01*
X107540945Y-69139375D01*
X107569894Y-69182337D01*
X107585481Y-69234469D01*
X107588450Y-69274319D01*
X107583398Y-69327411D01*
X107568239Y-69374581D01*
X107539107Y-69420567D01*
X107507606Y-69451151D01*
X107463596Y-69479361D01*
X107412168Y-69499511D01*
X107361082Y-69510531D01*
X107304317Y-69515379D01*
X107287055Y-69515631D01*
G37*
G36*
X107859804Y-68437055D02*
G01*
X107985589Y-68437055D01*
X107985589Y-68851290D01*
X108014526Y-68806136D01*
X108049680Y-68770324D01*
X108091051Y-68743854D01*
X108138638Y-68726727D01*
X108192442Y-68718941D01*
X108211758Y-68718422D01*
X108261312Y-68721881D01*
X108312432Y-68735500D01*
X108356350Y-68762142D01*
X108389689Y-68798526D01*
X108414235Y-68842467D01*
X108425715Y-68875959D01*
X108436700Y-68925450D01*
X108443126Y-68977538D01*
X108445010Y-69027145D01*
X108445010Y-69500000D01*
X108318492Y-69500000D01*
X108318492Y-69025436D01*
X108315613Y-68971649D01*
X108305663Y-68922037D01*
X108284339Y-68876608D01*
X108282100Y-68873517D01*
X108242757Y-68840291D01*
X108192410Y-68826099D01*
X108169504Y-68824912D01*
X108120560Y-68829858D01*
X108074485Y-68848131D01*
X108058374Y-68860083D01*
X108026027Y-68897510D01*
X108004092Y-68943846D01*
X108001953Y-68950697D01*
X107990767Y-69000239D01*
X107985845Y-69051837D01*
X107985589Y-69066957D01*
X107985589Y-69500000D01*
X107859804Y-69500000D01*
X107859804Y-68437055D01*
G37*
G36*
X108926168Y-68593370D02*
G01*
X108905652Y-68573342D01*
X108905652Y-68457083D01*
X108926168Y-68437055D01*
X109024598Y-68437055D01*
X109045115Y-68457083D01*
X109045115Y-68573342D01*
X109024598Y-68593370D01*
X108926168Y-68593370D01*
G37*
G36*
X109155757Y-69500000D02*
G01*
X109102527Y-69495542D01*
X109050271Y-69479871D01*
X109006090Y-69452918D01*
X108981123Y-69428681D01*
X108951252Y-69383966D01*
X108932907Y-69336498D01*
X108922286Y-69281765D01*
X108919330Y-69227913D01*
X108919330Y-68840544D01*
X108751779Y-68840544D01*
X108751779Y-68734054D01*
X109045115Y-68734054D01*
X109045115Y-69224005D01*
X109048809Y-69276143D01*
X109062700Y-69325854D01*
X109076378Y-69350034D01*
X109115090Y-69382641D01*
X109164471Y-69393467D01*
X109168213Y-69393510D01*
X109315003Y-69393510D01*
X109315003Y-69500000D01*
X109155757Y-69500000D01*
G37*
G36*
X109813503Y-69515631D02*
G01*
X109763796Y-69513317D01*
X109710420Y-69506375D01*
X109661748Y-69496740D01*
X109610379Y-69483706D01*
X109556315Y-69467271D01*
X109556315Y-69337822D01*
X109609063Y-69362060D01*
X109659595Y-69381282D01*
X109707912Y-69395490D01*
X109761482Y-69405728D01*
X109812037Y-69409141D01*
X109863165Y-69405245D01*
X109910317Y-69392107D01*
X109939776Y-69376168D01*
X109974137Y-69340144D01*
X109987601Y-69290952D01*
X109987648Y-69287508D01*
X109974974Y-69239328D01*
X109947592Y-69210083D01*
X109903594Y-69186541D01*
X109856168Y-69170996D01*
X109820097Y-69162456D01*
X109767585Y-69151709D01*
X109717210Y-69139100D01*
X109669150Y-69120755D01*
X109626446Y-69095205D01*
X109609316Y-69080390D01*
X109578656Y-69037972D01*
X109562982Y-68990218D01*
X109559002Y-68944836D01*
X109563703Y-68893514D01*
X109580233Y-68843295D01*
X109608663Y-68801036D01*
X109634228Y-68777285D01*
X109675811Y-68751533D01*
X109725331Y-68733138D01*
X109775173Y-68723079D01*
X109831092Y-68718652D01*
X109848185Y-68718422D01*
X109899316Y-68720643D01*
X109949699Y-68727305D01*
X109999333Y-68738408D01*
X110048220Y-68753952D01*
X110075819Y-68764829D01*
X110075819Y-68888415D01*
X110028442Y-68863672D01*
X109980130Y-68845005D01*
X109930882Y-68832416D01*
X109880700Y-68825905D01*
X109851605Y-68824912D01*
X109795411Y-68828836D01*
X109744545Y-68843334D01*
X109702400Y-68877670D01*
X109686414Y-68929664D01*
X109686252Y-68936531D01*
X109695604Y-68985672D01*
X109700418Y-68994173D01*
X109740926Y-69024349D01*
X109755129Y-69030076D01*
X109805198Y-69044792D01*
X109855253Y-69056229D01*
X109874319Y-69060118D01*
X109924877Y-69069644D01*
X109979620Y-69084429D01*
X110025084Y-69105584D01*
X110067393Y-69139375D01*
X110096342Y-69182337D01*
X110111929Y-69234469D01*
X110114898Y-69274319D01*
X110109846Y-69327411D01*
X110094687Y-69374581D01*
X110065555Y-69420567D01*
X110034054Y-69451151D01*
X109990044Y-69479361D01*
X109938616Y-69499511D01*
X109887530Y-69510531D01*
X109830765Y-69515379D01*
X109813503Y-69515631D01*
G37*
G36*
X110386252Y-68437055D02*
G01*
X110512037Y-68437055D01*
X110512037Y-68851290D01*
X110540974Y-68806136D01*
X110576128Y-68770324D01*
X110617499Y-68743854D01*
X110665086Y-68726727D01*
X110718890Y-68718941D01*
X110738206Y-68718422D01*
X110787760Y-68721881D01*
X110838880Y-68735500D01*
X110882798Y-68762142D01*
X110916137Y-68798526D01*
X110940683Y-68842467D01*
X110952163Y-68875959D01*
X110963148Y-68925450D01*
X110969574Y-68977538D01*
X110971458Y-69027145D01*
X110971458Y-69500000D01*
X110844940Y-69500000D01*
X110844940Y-69025436D01*
X110842062Y-68971649D01*
X110832111Y-68922037D01*
X110810787Y-68876608D01*
X110808548Y-68873517D01*
X110769205Y-68840291D01*
X110718858Y-68826099D01*
X110695952Y-68824912D01*
X110647008Y-68829858D01*
X110600933Y-68848131D01*
X110584822Y-68860083D01*
X110552475Y-68897510D01*
X110530540Y-68943846D01*
X110528401Y-68950697D01*
X110517215Y-69000239D01*
X110512293Y-69051837D01*
X110512037Y-69066957D01*
X110512037Y-69500000D01*
X110386252Y-69500000D01*
X110386252Y-68437055D01*
G37*
G36*
X112415666Y-69515631D02*
G01*
X112362450Y-69512849D01*
X112312712Y-69504503D01*
X112261526Y-69488703D01*
X112242254Y-69480460D01*
X112197326Y-69455306D01*
X112156883Y-69423807D01*
X112120924Y-69385964D01*
X112114270Y-69377634D01*
X112083311Y-69331727D01*
X112057598Y-69280562D01*
X112037133Y-69224137D01*
X112024540Y-69175210D01*
X112015304Y-69122917D01*
X112009427Y-69067258D01*
X112006908Y-69008233D01*
X112006803Y-68992951D01*
X112008513Y-68932188D01*
X112013642Y-68874952D01*
X112022191Y-68821241D01*
X112034159Y-68771057D01*
X112049546Y-68724399D01*
X112073589Y-68671035D01*
X112102974Y-68623181D01*
X112116224Y-68605582D01*
X112152440Y-68566038D01*
X112192698Y-68533197D01*
X112236999Y-68507057D01*
X112285343Y-68487621D01*
X112337730Y-68474886D01*
X112394160Y-68468854D01*
X112417864Y-68468318D01*
X112466923Y-68470688D01*
X112517511Y-68478604D01*
X112543649Y-68485170D01*
X112591339Y-68502556D01*
X112636771Y-68525344D01*
X112656978Y-68537683D01*
X112656978Y-68678122D01*
X112618615Y-68644828D01*
X112598604Y-68630495D01*
X112555128Y-68605117D01*
X112543649Y-68599720D01*
X112495582Y-68583585D01*
X112481856Y-68580669D01*
X112433305Y-68575088D01*
X112419818Y-68574808D01*
X112364618Y-68579775D01*
X112315707Y-68594676D01*
X112273083Y-68619512D01*
X112236747Y-68654282D01*
X112218806Y-68678611D01*
X112192444Y-68729167D01*
X112175002Y-68780687D01*
X112164101Y-68829393D01*
X112156503Y-68883345D01*
X112152208Y-68942546D01*
X112151151Y-68993684D01*
X112152174Y-69045723D01*
X112155769Y-69099632D01*
X112161954Y-69148634D01*
X112167515Y-69178576D01*
X112180728Y-69228411D01*
X112199619Y-69275797D01*
X112216852Y-69306559D01*
X112248677Y-69346530D01*
X112287304Y-69376684D01*
X112332733Y-69397020D01*
X112384964Y-69407538D01*
X112417864Y-69409141D01*
X112467701Y-69405094D01*
X112497732Y-69397662D01*
X112529727Y-69383984D01*
X112560013Y-69363468D01*
X112560013Y-69075017D01*
X112411514Y-69075017D01*
X112411514Y-68968527D01*
X112691905Y-68968527D01*
X112691905Y-69417201D01*
X112651870Y-69448009D01*
X112609006Y-69472929D01*
X112567585Y-69490474D01*
X112518118Y-69504797D01*
X112465764Y-69513174D01*
X112415666Y-69515631D01*
G37*
G36*
X113237482Y-68721067D02*
G01*
X113287124Y-68729001D01*
X113319609Y-68737229D01*
X113365679Y-68754551D01*
X113410007Y-68780991D01*
X113431472Y-68798534D01*
X113464613Y-68837861D01*
X113486045Y-68882677D01*
X113494487Y-68912595D01*
X113501445Y-68962058D01*
X113504383Y-69011518D01*
X113505233Y-69064515D01*
X113505233Y-69220586D01*
X113506229Y-69270503D01*
X113508892Y-69319640D01*
X113512316Y-69362247D01*
X113519547Y-69413566D01*
X113532439Y-69464811D01*
X113545533Y-69500000D01*
X113419260Y-69500000D01*
X113403434Y-69452732D01*
X113400697Y-69441137D01*
X113391652Y-69392950D01*
X113389706Y-69379832D01*
X113358306Y-69423000D01*
X113319517Y-69457798D01*
X113277843Y-69482170D01*
X113227888Y-69501220D01*
X113176086Y-69512363D01*
X113127390Y-69515631D01*
X113074374Y-69511662D01*
X113026212Y-69499755D01*
X112977833Y-69476872D01*
X112944452Y-69452128D01*
X112909622Y-69412022D01*
X112886191Y-69363144D01*
X112874933Y-69312334D01*
X112872458Y-69270655D01*
X112998185Y-69270655D01*
X113005481Y-69321408D01*
X113032032Y-69365544D01*
X113042393Y-69374703D01*
X113086431Y-69398245D01*
X113136533Y-69408300D01*
X113158164Y-69409141D01*
X113208295Y-69404812D01*
X113255150Y-69390215D01*
X113284926Y-69372505D01*
X113322620Y-69335933D01*
X113348579Y-69294272D01*
X113356245Y-69276273D01*
X113370952Y-69226599D01*
X113377873Y-69178170D01*
X113378960Y-69148778D01*
X113378960Y-69121912D01*
X113219469Y-69121912D01*
X113170035Y-69124434D01*
X113121567Y-69132001D01*
X113115177Y-69133391D01*
X113068771Y-69150061D01*
X113031158Y-69177110D01*
X113005430Y-69219447D01*
X112998185Y-69270655D01*
X112872458Y-69270655D01*
X112872400Y-69269678D01*
X112876167Y-69217613D01*
X112889191Y-69167830D01*
X112914260Y-69122875D01*
X112920027Y-69115806D01*
X112956402Y-69081585D01*
X112999704Y-69055156D01*
X113045080Y-69037892D01*
X113094448Y-69026042D01*
X113145773Y-69018582D01*
X113199053Y-69015509D01*
X113209944Y-69015422D01*
X113378960Y-69015422D01*
X113378960Y-68995882D01*
X113375038Y-68946625D01*
X113359592Y-68898910D01*
X113329378Y-68862526D01*
X113282483Y-68838172D01*
X113232475Y-68827263D01*
X113190160Y-68824912D01*
X113138297Y-68827626D01*
X113087120Y-68835766D01*
X113053384Y-68844207D01*
X113004429Y-68860808D01*
X112957946Y-68881668D01*
X112928332Y-68897941D01*
X112928332Y-68771912D01*
X112975764Y-68755643D01*
X113023541Y-68741641D01*
X113055582Y-68733565D01*
X113104137Y-68724338D01*
X113153447Y-68719369D01*
X113186741Y-68718422D01*
X113237482Y-68721067D01*
G37*
G36*
X113827878Y-68734054D02*
G01*
X113942184Y-68734054D01*
X113954396Y-68885729D01*
X113977694Y-68838874D01*
X114007290Y-68799366D01*
X114047118Y-68764392D01*
X114051116Y-68761653D01*
X114098616Y-68737040D01*
X114147006Y-68723531D01*
X114200358Y-68718465D01*
X114205966Y-68718422D01*
X114257065Y-68721881D01*
X114309310Y-68733835D01*
X114356785Y-68754329D01*
X114370097Y-68762142D01*
X114370097Y-68894033D01*
X114331400Y-68863793D01*
X114283815Y-68840100D01*
X114231941Y-68827342D01*
X114194975Y-68824912D01*
X114140219Y-68829599D01*
X114092210Y-68843658D01*
X114046265Y-68870678D01*
X114016434Y-68899895D01*
X113989292Y-68941462D01*
X113969905Y-68991181D01*
X113959303Y-69041371D01*
X113954638Y-69097803D01*
X113954396Y-69115073D01*
X113954396Y-69500000D01*
X113827878Y-69500000D01*
X113827878Y-68734054D01*
G37*
G36*
X114913534Y-68722475D02*
G01*
X114961319Y-68736013D01*
X114984612Y-68747243D01*
X115026079Y-68779053D01*
X115058473Y-68820395D01*
X115069364Y-68839323D01*
X115081577Y-68734054D01*
X115195150Y-68734054D01*
X115195150Y-69452372D01*
X115193289Y-69501348D01*
X115186145Y-69555822D01*
X115173643Y-69605608D01*
X115152285Y-69657765D01*
X115123634Y-69703541D01*
X115118946Y-69709560D01*
X115081130Y-69746676D01*
X115034362Y-69774675D01*
X114987150Y-69791419D01*
X114933360Y-69801466D01*
X114883511Y-69804722D01*
X114872993Y-69804815D01*
X114821137Y-69802453D01*
X114772544Y-69795988D01*
X114762107Y-69794068D01*
X114713661Y-69783262D01*
X114665776Y-69769651D01*
X114652198Y-69765247D01*
X114652198Y-69636287D01*
X114698794Y-69656870D01*
X114747540Y-69675022D01*
X114761863Y-69679762D01*
X114809258Y-69691781D01*
X114861110Y-69697872D01*
X114879832Y-69698325D01*
X114930699Y-69694134D01*
X114978324Y-69678654D01*
X114994870Y-69668527D01*
X115029797Y-69632868D01*
X115051450Y-69588789D01*
X115052512Y-69585484D01*
X115064032Y-69536070D01*
X115068953Y-69484744D01*
X115069364Y-69463607D01*
X115069364Y-69371284D01*
X115043192Y-69416163D01*
X115007862Y-69453620D01*
X114985833Y-69468981D01*
X114940104Y-69489064D01*
X114888247Y-69498909D01*
X114862247Y-69500000D01*
X114809216Y-69495930D01*
X114757948Y-69482209D01*
X114724005Y-69465561D01*
X114684598Y-69436390D01*
X114648884Y-69397655D01*
X114632658Y-69373726D01*
X114609474Y-69329144D01*
X114591580Y-69281127D01*
X114582588Y-69247208D01*
X114573063Y-69195253D01*
X114567934Y-69143435D01*
X114566957Y-69108967D01*
X114567092Y-69105792D01*
X114699581Y-69105792D01*
X114701307Y-69155955D01*
X114707683Y-69208618D01*
X114720723Y-69261077D01*
X114742729Y-69310240D01*
X114748674Y-69319748D01*
X114783421Y-69358646D01*
X114825992Y-69383137D01*
X114876386Y-69393221D01*
X114887404Y-69393510D01*
X114939181Y-69386354D01*
X114986329Y-69361954D01*
X115020275Y-69324745D01*
X115023203Y-69320237D01*
X115045517Y-69273766D01*
X115059221Y-69223635D01*
X115066479Y-69172958D01*
X115069319Y-69115924D01*
X115069364Y-69107257D01*
X115067434Y-69058214D01*
X115062526Y-69013224D01*
X115051882Y-68962855D01*
X115036880Y-68921388D01*
X115010158Y-68878326D01*
X114981681Y-68851779D01*
X114936863Y-68830816D01*
X114886671Y-68824912D01*
X114834058Y-68831877D01*
X114789794Y-68852771D01*
X114753878Y-68887595D01*
X114747697Y-68896231D01*
X114724438Y-68941543D01*
X114710153Y-68990773D01*
X114702588Y-69040762D01*
X114699628Y-69097202D01*
X114699581Y-69105792D01*
X114567092Y-69105792D01*
X114569155Y-69057161D01*
X114575750Y-69005423D01*
X114582588Y-68970969D01*
X114597026Y-68920812D01*
X114616889Y-68874020D01*
X114633147Y-68844696D01*
X114662433Y-68805026D01*
X114701136Y-68769259D01*
X114724982Y-68753105D01*
X114771350Y-68731970D01*
X114820009Y-68721166D01*
X114864200Y-68718422D01*
X114913534Y-68722475D01*
G37*
G36*
X107008853Y-60184223D02*
G01*
X106968941Y-60182137D01*
X106931638Y-60175877D01*
X106893248Y-60164027D01*
X106878794Y-60157845D01*
X106845098Y-60138979D01*
X106814766Y-60115355D01*
X106787797Y-60086973D01*
X106782807Y-60080725D01*
X106759587Y-60046295D01*
X106740303Y-60007921D01*
X106724954Y-59965602D01*
X106715509Y-59928907D01*
X106708582Y-59889688D01*
X106704174Y-59847944D01*
X106702285Y-59803675D01*
X106702206Y-59792213D01*
X106703489Y-59746641D01*
X106707336Y-59703714D01*
X106713747Y-59663431D01*
X106722723Y-59625792D01*
X106734263Y-59590799D01*
X106752295Y-59550776D01*
X106774334Y-59514886D01*
X106784272Y-59501687D01*
X106811434Y-59472029D01*
X106841627Y-59447397D01*
X106874853Y-59427793D01*
X106911111Y-59413215D01*
X106950402Y-59403664D01*
X106992724Y-59399140D01*
X107010502Y-59398738D01*
X107047296Y-59400516D01*
X107085237Y-59406453D01*
X107104841Y-59411378D01*
X107140608Y-59424417D01*
X107174682Y-59441508D01*
X107189837Y-59450762D01*
X107189837Y-59556092D01*
X107161065Y-59531121D01*
X107146057Y-59520371D01*
X107113450Y-59501337D01*
X107104841Y-59497290D01*
X107068790Y-59485188D01*
X107058496Y-59483002D01*
X107022083Y-59478816D01*
X107011967Y-59478606D01*
X106970568Y-59482331D01*
X106933884Y-59493507D01*
X106901916Y-59512134D01*
X106874664Y-59538211D01*
X106861209Y-59556458D01*
X106841437Y-59594375D01*
X106828355Y-59633015D01*
X106820179Y-59669544D01*
X106814481Y-59710009D01*
X106811260Y-59754409D01*
X106810467Y-59792763D01*
X106811234Y-59831792D01*
X106813931Y-59872224D01*
X106818569Y-59908976D01*
X106822740Y-59931432D01*
X106832650Y-59968808D01*
X106846818Y-60004348D01*
X106859743Y-60027419D01*
X106883612Y-60057397D01*
X106912582Y-60080013D01*
X106946653Y-60095265D01*
X106985827Y-60103154D01*
X107010502Y-60104356D01*
X107047880Y-60101321D01*
X107070403Y-60095746D01*
X107094399Y-60085488D01*
X107117114Y-60070101D01*
X107117114Y-59853763D01*
X107005739Y-59853763D01*
X107005739Y-59773895D01*
X107216032Y-59773895D01*
X107216032Y-60110401D01*
X107186006Y-60133506D01*
X107153858Y-60152196D01*
X107122793Y-60165355D01*
X107085692Y-60176097D01*
X107046427Y-60182381D01*
X107008853Y-60184223D01*
G37*
G36*
X107352869Y-59410462D02*
G01*
X107484211Y-59410462D01*
X107742498Y-60039692D01*
X107742498Y-59410462D01*
X107842515Y-59410462D01*
X107842515Y-60172500D01*
X107711174Y-60172500D01*
X107452887Y-59554077D01*
X107452887Y-60172500D01*
X107352869Y-60172500D01*
X107352869Y-59410462D01*
G37*
G36*
X108181147Y-59411913D02*
G01*
X108220683Y-59416266D01*
X108257328Y-59423522D01*
X108299069Y-59436673D01*
X108336293Y-59454359D01*
X108369001Y-59476580D01*
X108397191Y-59503335D01*
X108421149Y-59534876D01*
X108441047Y-59571452D01*
X108456884Y-59613065D01*
X108466630Y-59649980D01*
X108473777Y-59690119D01*
X108478325Y-59733480D01*
X108480274Y-59780064D01*
X108480355Y-59792213D01*
X108479056Y-59839260D01*
X108475158Y-59883129D01*
X108468660Y-59923821D01*
X108459564Y-59961336D01*
X108444539Y-60003762D01*
X108425454Y-60041224D01*
X108402307Y-60073722D01*
X108397191Y-60079626D01*
X108369001Y-60106382D01*
X108336293Y-60128602D01*
X108299069Y-60146288D01*
X108257328Y-60159439D01*
X108220683Y-60166695D01*
X108181147Y-60171048D01*
X108138721Y-60172500D01*
X107983382Y-60172500D01*
X107983382Y-60092632D01*
X108087613Y-60092632D01*
X108136706Y-60092632D01*
X108175796Y-60091036D01*
X108217544Y-60084905D01*
X108253664Y-60074176D01*
X108288690Y-60055847D01*
X108316054Y-60031259D01*
X108319338Y-60027236D01*
X108339467Y-59993782D01*
X108352784Y-59957014D01*
X108361108Y-59920667D01*
X108366909Y-59879133D01*
X108369734Y-59842170D01*
X108370945Y-59801887D01*
X108370996Y-59791297D01*
X108370194Y-59750021D01*
X108367790Y-59712106D01*
X108362531Y-59669436D01*
X108354767Y-59632017D01*
X108342144Y-59594045D01*
X108322860Y-59559299D01*
X108319705Y-59555176D01*
X108293017Y-59529495D01*
X108258476Y-59510476D01*
X108247165Y-59506266D01*
X108209907Y-59496555D01*
X108171364Y-59491590D01*
X108136706Y-59490329D01*
X108087613Y-59490329D01*
X108087613Y-60092632D01*
X107983382Y-60092632D01*
X107983382Y-59410462D01*
X108138721Y-59410462D01*
X108181147Y-59411913D01*
G37*
G36*
X147644936Y-103365774D02*
G01*
X147700738Y-103372781D01*
X147750924Y-103385042D01*
X147802377Y-103405990D01*
X147846186Y-103434089D01*
X147851821Y-103438688D01*
X147886653Y-103474793D01*
X147912929Y-103516860D01*
X147930651Y-103564886D01*
X147939817Y-103618874D01*
X147941214Y-103652400D01*
X147937794Y-103702409D01*
X147927536Y-103745945D01*
X147906472Y-103790584D01*
X147886503Y-103817752D01*
X147848164Y-103852495D01*
X147800618Y-103877649D01*
X147749954Y-103892090D01*
X147731409Y-103895177D01*
X147778986Y-103913313D01*
X147820034Y-103944370D01*
X147822267Y-103946713D01*
X147852859Y-103985822D01*
X147863789Y-104002889D01*
X147889610Y-104047998D01*
X147912332Y-104091889D01*
X147916057Y-104099364D01*
X148054787Y-104380000D01*
X147906531Y-104380000D01*
X147784654Y-104118415D01*
X147761920Y-104072400D01*
X147737313Y-104030116D01*
X147734340Y-104025603D01*
X147703485Y-103986143D01*
X147690376Y-103974312D01*
X147646045Y-103951389D01*
X147640795Y-103949888D01*
X147592337Y-103942583D01*
X147580467Y-103942316D01*
X147448332Y-103942316D01*
X147448332Y-104380000D01*
X147309602Y-104380000D01*
X147309602Y-103835826D01*
X147448332Y-103835826D01*
X147599518Y-103835826D01*
X147651278Y-103832291D01*
X147699364Y-103820069D01*
X147743968Y-103793880D01*
X147747041Y-103791130D01*
X147776659Y-103750933D01*
X147791800Y-103702680D01*
X147795645Y-103655087D01*
X147790636Y-103602908D01*
X147773556Y-103555099D01*
X147744354Y-103517334D01*
X147702557Y-103490656D01*
X147682560Y-103482896D01*
X147633363Y-103472495D01*
X147594145Y-103470439D01*
X147448332Y-103470439D01*
X147448332Y-103835826D01*
X147309602Y-103835826D01*
X147309602Y-103363949D01*
X147594145Y-103363949D01*
X147644936Y-103365774D01*
G37*
G36*
X148520769Y-103365822D02*
G01*
X148576823Y-103373012D01*
X148627244Y-103385594D01*
X148678949Y-103407089D01*
X148722987Y-103435923D01*
X148728653Y-103440642D01*
X148764062Y-103479056D01*
X148789935Y-103524203D01*
X148795575Y-103538339D01*
X148809333Y-103587352D01*
X148815807Y-103636817D01*
X148816824Y-103667543D01*
X148813750Y-103721047D01*
X148804528Y-103769450D01*
X148785999Y-103819473D01*
X148759101Y-103862555D01*
X148729385Y-103893956D01*
X148687326Y-103923839D01*
X148637015Y-103946383D01*
X148587324Y-103959864D01*
X148531571Y-103967952D01*
X148480479Y-103970574D01*
X148469755Y-103970648D01*
X148309776Y-103970648D01*
X148309776Y-104380000D01*
X148171535Y-104380000D01*
X148171535Y-103864159D01*
X148309776Y-103864159D01*
X148469755Y-103864159D01*
X148520185Y-103860229D01*
X148557927Y-103850237D01*
X148602866Y-103826141D01*
X148619476Y-103812135D01*
X148649790Y-103771630D01*
X148667521Y-103721313D01*
X148672721Y-103667055D01*
X148668509Y-103617739D01*
X148653950Y-103570694D01*
X148625924Y-103528366D01*
X148619476Y-103521730D01*
X148578313Y-103492528D01*
X148531525Y-103476500D01*
X148481789Y-103470639D01*
X148469755Y-103470439D01*
X148309776Y-103470439D01*
X148309776Y-103864159D01*
X148171535Y-103864159D01*
X148171535Y-103363949D01*
X148469755Y-103363949D01*
X148520769Y-103365822D01*
G37*
G36*
X149033712Y-104273510D02*
G01*
X149247669Y-104273510D01*
X149247669Y-103470439D01*
X149033712Y-103470439D01*
X149033712Y-103363949D01*
X149600355Y-103363949D01*
X149600355Y-103470439D01*
X149386399Y-103470439D01*
X149386399Y-104273510D01*
X149600355Y-104273510D01*
X149600355Y-104380000D01*
X149033712Y-104380000D01*
X149033712Y-104273510D01*
G37*
G36*
X149802588Y-104520683D02*
G01*
X150516266Y-104520683D01*
X150516266Y-104598841D01*
X149802588Y-104598841D01*
X149802588Y-104520683D01*
G37*
G36*
X150933189Y-103470439D02*
G01*
X150612742Y-103470439D01*
X150612742Y-103363949D01*
X151391144Y-103363949D01*
X151391144Y-103470439D01*
X151071918Y-103470439D01*
X151071918Y-104380000D01*
X150933189Y-104380000D01*
X150933189Y-103470439D01*
G37*
G36*
X151776803Y-103841688D02*
G01*
X151481514Y-103363949D01*
X151629769Y-103363949D01*
X151853984Y-103756203D01*
X152082351Y-103363949D01*
X152230607Y-103363949D01*
X151925059Y-103849016D01*
X152252588Y-104380000D01*
X152104089Y-104380000D01*
X151853984Y-103948422D01*
X151584096Y-104380000D01*
X151434863Y-104380000D01*
X151776803Y-103841688D01*
G37*
D11*
X128054819Y-88533333D02*
X128769104Y-88533333D01*
X128769104Y-88533333D02*
X128911961Y-88580952D01*
X128911961Y-88580952D02*
X129007200Y-88676190D01*
X129007200Y-88676190D02*
X129054819Y-88819047D01*
X129054819Y-88819047D02*
X129054819Y-88914285D01*
X128054819Y-87628571D02*
X128054819Y-87819047D01*
X128054819Y-87819047D02*
X128102438Y-87914285D01*
X128102438Y-87914285D02*
X128150057Y-87961904D01*
X128150057Y-87961904D02*
X128292914Y-88057142D01*
X128292914Y-88057142D02*
X128483390Y-88104761D01*
X128483390Y-88104761D02*
X128864342Y-88104761D01*
X128864342Y-88104761D02*
X128959580Y-88057142D01*
X128959580Y-88057142D02*
X129007200Y-88009523D01*
X129007200Y-88009523D02*
X129054819Y-87914285D01*
X129054819Y-87914285D02*
X129054819Y-87723809D01*
X129054819Y-87723809D02*
X129007200Y-87628571D01*
X129007200Y-87628571D02*
X128959580Y-87580952D01*
X128959580Y-87580952D02*
X128864342Y-87533333D01*
X128864342Y-87533333D02*
X128626247Y-87533333D01*
X128626247Y-87533333D02*
X128531009Y-87580952D01*
X128531009Y-87580952D02*
X128483390Y-87628571D01*
X128483390Y-87628571D02*
X128435771Y-87723809D01*
X128435771Y-87723809D02*
X128435771Y-87914285D01*
X128435771Y-87914285D02*
X128483390Y-88009523D01*
X128483390Y-88009523D02*
X128531009Y-88057142D01*
X128531009Y-88057142D02*
X128626247Y-88104761D01*
D10*
G36*
X82136880Y-93795631D02*
G01*
X82086001Y-93793982D01*
X82068248Y-93792700D01*
X82018419Y-93787390D01*
X81995464Y-93783907D01*
X81947017Y-93774993D01*
X81926343Y-93770474D01*
X81877291Y-93757671D01*
X81851849Y-93749958D01*
X81851849Y-93612205D01*
X81897059Y-93634990D01*
X81920237Y-93645666D01*
X81967285Y-93663843D01*
X81989357Y-93670579D01*
X82037880Y-93681523D01*
X82056524Y-93684501D01*
X82106899Y-93688851D01*
X82123935Y-93689141D01*
X82177608Y-93685768D01*
X82229961Y-93673907D01*
X82278160Y-93650714D01*
X82298325Y-93635163D01*
X82330396Y-93596829D01*
X82350589Y-93549907D01*
X82358607Y-93500337D01*
X82359141Y-93482267D01*
X82354369Y-93431422D01*
X82337873Y-93382630D01*
X82309594Y-93341949D01*
X82298813Y-93331325D01*
X82256848Y-93302603D01*
X82206058Y-93284519D01*
X82152802Y-93277338D01*
X82133461Y-93276859D01*
X82028192Y-93276859D01*
X82028192Y-93170369D01*
X82133461Y-93170369D01*
X82184251Y-93167124D01*
X82232527Y-93155904D01*
X82279124Y-93131861D01*
X82282449Y-93129337D01*
X82316607Y-93090667D01*
X82332681Y-93044454D01*
X82335205Y-93012833D01*
X82328267Y-92960775D01*
X82305092Y-92915464D01*
X82285868Y-92895840D01*
X82243267Y-92870836D01*
X82192449Y-92858053D01*
X82142498Y-92854808D01*
X82090786Y-92857426D01*
X82039335Y-92864545D01*
X82018667Y-92868485D01*
X81968738Y-92880323D01*
X81921824Y-92894916D01*
X81882623Y-92909518D01*
X81882623Y-92789351D01*
X81932841Y-92777530D01*
X81983838Y-92766841D01*
X82030390Y-92758576D01*
X82078796Y-92751934D01*
X82128671Y-92748568D01*
X82145917Y-92748318D01*
X82198044Y-92750825D01*
X82247079Y-92758347D01*
X82278053Y-92766147D01*
X82324728Y-92783657D01*
X82369314Y-92809276D01*
X82383810Y-92820125D01*
X82422385Y-92858395D01*
X82449938Y-92902862D01*
X82466471Y-92953528D01*
X82471895Y-93002944D01*
X82471981Y-93010390D01*
X82467306Y-93060288D01*
X82460013Y-93086838D01*
X82437258Y-93131280D01*
X82425331Y-93146678D01*
X82388232Y-93179844D01*
X82345489Y-93203734D01*
X82294160Y-93221661D01*
X82288555Y-93223126D01*
X82335908Y-93239170D01*
X82382100Y-93263459D01*
X82420795Y-93294356D01*
X82442428Y-93318625D01*
X82469158Y-93361489D01*
X82483217Y-93398248D01*
X82493126Y-93446164D01*
X82495917Y-93491304D01*
X82492620Y-93542149D01*
X82480438Y-93596171D01*
X82459281Y-93644491D01*
X82429147Y-93687106D01*
X82402128Y-93714054D01*
X82361198Y-93743415D01*
X82313819Y-93766407D01*
X82289776Y-93774870D01*
X82241957Y-93786690D01*
X82189173Y-93793604D01*
X82136880Y-93795631D01*
G37*
G36*
X83011270Y-93795631D02*
G01*
X82963347Y-93785353D01*
X82932379Y-93763147D01*
X82906508Y-93720222D01*
X82900383Y-93678394D01*
X82909413Y-93628634D01*
X82932379Y-93593886D01*
X82975744Y-93566559D01*
X83011270Y-93561158D01*
X83061297Y-93572696D01*
X83089672Y-93593886D01*
X83115741Y-93636614D01*
X83121912Y-93678394D01*
X83112813Y-93728224D01*
X83089672Y-93763147D01*
X83046596Y-93790270D01*
X83011270Y-93795631D01*
G37*
G36*
X83821179Y-93795631D02*
G01*
X83770300Y-93793982D01*
X83752547Y-93792700D01*
X83702717Y-93787390D01*
X83679762Y-93783907D01*
X83631316Y-93774993D01*
X83610642Y-93770474D01*
X83561589Y-93757671D01*
X83536147Y-93749958D01*
X83536147Y-93612205D01*
X83581358Y-93634990D01*
X83604535Y-93645666D01*
X83651584Y-93663843D01*
X83673656Y-93670579D01*
X83722179Y-93681523D01*
X83740823Y-93684501D01*
X83791198Y-93688851D01*
X83808234Y-93689141D01*
X83861906Y-93685768D01*
X83914259Y-93673907D01*
X83962459Y-93650714D01*
X83982623Y-93635163D01*
X84014695Y-93596829D01*
X84034888Y-93549907D01*
X84042905Y-93500337D01*
X84043440Y-93482267D01*
X84038668Y-93431422D01*
X84022172Y-93382630D01*
X83993893Y-93341949D01*
X83983112Y-93331325D01*
X83941147Y-93302603D01*
X83890357Y-93284519D01*
X83837100Y-93277338D01*
X83817759Y-93276859D01*
X83712491Y-93276859D01*
X83712491Y-93170369D01*
X83817759Y-93170369D01*
X83868550Y-93167124D01*
X83916826Y-93155904D01*
X83963423Y-93131861D01*
X83966748Y-93129337D01*
X84000905Y-93090667D01*
X84016980Y-93044454D01*
X84019504Y-93012833D01*
X84012566Y-92960775D01*
X83989391Y-92915464D01*
X83970167Y-92895840D01*
X83927566Y-92870836D01*
X83876747Y-92858053D01*
X83826796Y-92854808D01*
X83775085Y-92857426D01*
X83723634Y-92864545D01*
X83702965Y-92868485D01*
X83653037Y-92880323D01*
X83606122Y-92894916D01*
X83566922Y-92909518D01*
X83566922Y-92789351D01*
X83617140Y-92777530D01*
X83668137Y-92766841D01*
X83714689Y-92758576D01*
X83763095Y-92751934D01*
X83812970Y-92748568D01*
X83830216Y-92748318D01*
X83882343Y-92750825D01*
X83931378Y-92758347D01*
X83962351Y-92766147D01*
X84009027Y-92783657D01*
X84053612Y-92809276D01*
X84068108Y-92820125D01*
X84106683Y-92858395D01*
X84134237Y-92902862D01*
X84150769Y-92953528D01*
X84156194Y-93002944D01*
X84156280Y-93010390D01*
X84151605Y-93060288D01*
X84144312Y-93086838D01*
X84121557Y-93131280D01*
X84109630Y-93146678D01*
X84072530Y-93179844D01*
X84029788Y-93203734D01*
X83978459Y-93221661D01*
X83972854Y-93223126D01*
X84020206Y-93239170D01*
X84066398Y-93263459D01*
X84105094Y-93294356D01*
X84126727Y-93318625D01*
X84153457Y-93361489D01*
X84167515Y-93398248D01*
X84177425Y-93446164D01*
X84180216Y-93491304D01*
X84176919Y-93542149D01*
X84164737Y-93596171D01*
X84143579Y-93644491D01*
X84113446Y-93687106D01*
X84086427Y-93714054D01*
X84045497Y-93743415D01*
X83998118Y-93766407D01*
X83974075Y-93774870D01*
X83926255Y-93786690D01*
X83873472Y-93793604D01*
X83821179Y-93795631D01*
G37*
G36*
X84315526Y-92763949D02*
G01*
X84458164Y-92763949D01*
X84697522Y-93665694D01*
X84937369Y-92763949D01*
X85080251Y-92763949D01*
X84781542Y-93780000D01*
X84614235Y-93780000D01*
X84315526Y-92763949D01*
G37*
G36*
X116374773Y-59411830D02*
G01*
X116416624Y-59417085D01*
X116454264Y-59426282D01*
X116492854Y-59441992D01*
X116525711Y-59463067D01*
X116529937Y-59466516D01*
X116556061Y-59493595D01*
X116575768Y-59525145D01*
X116589059Y-59561165D01*
X116595934Y-59601655D01*
X116596981Y-59626800D01*
X116594417Y-59664306D01*
X116586723Y-59696959D01*
X116570925Y-59730438D01*
X116555949Y-59750814D01*
X116527194Y-59776871D01*
X116491534Y-59795737D01*
X116453537Y-59806567D01*
X116439628Y-59808883D01*
X116475311Y-59822485D01*
X116506097Y-59845778D01*
X116507772Y-59847534D01*
X116530715Y-59876866D01*
X116538913Y-59889666D01*
X116558278Y-59923499D01*
X116575320Y-59956417D01*
X116578114Y-59962023D01*
X116682161Y-60172500D01*
X116570969Y-60172500D01*
X116479562Y-59976311D01*
X116462511Y-59941800D01*
X116444056Y-59910087D01*
X116441826Y-59906702D01*
X116418685Y-59877107D01*
X116408853Y-59868234D01*
X116375605Y-59851042D01*
X116371667Y-59849916D01*
X116335324Y-59844437D01*
X116326421Y-59844237D01*
X116227320Y-59844237D01*
X116227320Y-60172500D01*
X116123272Y-60172500D01*
X116123272Y-59764370D01*
X116227320Y-59764370D01*
X116340710Y-59764370D01*
X116379530Y-59761718D01*
X116415594Y-59752552D01*
X116449047Y-59732910D01*
X116451352Y-59730847D01*
X116473565Y-59700700D01*
X116484921Y-59664510D01*
X116487805Y-59628815D01*
X116484048Y-59589681D01*
X116471238Y-59553824D01*
X116449337Y-59525500D01*
X116417989Y-59505492D01*
X116402991Y-59499672D01*
X116366093Y-59491871D01*
X116336680Y-59490329D01*
X116227320Y-59490329D01*
X116227320Y-59764370D01*
X116123272Y-59764370D01*
X116123272Y-59410462D01*
X116336680Y-59410462D01*
X116374773Y-59411830D01*
G37*
G36*
X117062081Y-60184223D02*
G01*
X117022805Y-60182224D01*
X116985760Y-60176225D01*
X116947217Y-60164869D01*
X116932571Y-60158944D01*
X116898135Y-60140418D01*
X116866955Y-60116669D01*
X116839030Y-60087696D01*
X116833836Y-60081275D01*
X116810511Y-60046832D01*
X116791139Y-60008417D01*
X116775720Y-59966031D01*
X116766232Y-59929263D01*
X116759274Y-59889953D01*
X116754846Y-59848102D01*
X116752948Y-59803709D01*
X116752869Y-59792213D01*
X116753768Y-59754445D01*
X116757220Y-59711426D01*
X116763261Y-59670919D01*
X116771890Y-59632923D01*
X116783109Y-59597438D01*
X116789689Y-59580638D01*
X116807429Y-59544062D01*
X116828272Y-59511430D01*
X116852219Y-59482743D01*
X116879268Y-59458000D01*
X116896118Y-59445633D01*
X116932594Y-59425116D01*
X116967253Y-59411973D01*
X117004471Y-59403318D01*
X117044250Y-59399150D01*
X117062081Y-59398738D01*
X117100783Y-59400280D01*
X117138810Y-59405389D01*
X117151474Y-59408080D01*
X117188901Y-59419364D01*
X117224123Y-59434761D01*
X117231707Y-59438672D01*
X117231707Y-59544185D01*
X117200226Y-59520678D01*
X117166508Y-59502250D01*
X117150191Y-59495458D01*
X117114085Y-59484547D01*
X117075336Y-59479017D01*
X117061531Y-59478606D01*
X117020158Y-59482331D01*
X116983553Y-59493507D01*
X116951716Y-59512134D01*
X116924648Y-59538211D01*
X116911322Y-59556458D01*
X116891765Y-59594323D01*
X116878825Y-59632834D01*
X116870737Y-59669197D01*
X116865100Y-59709441D01*
X116861914Y-59753568D01*
X116861130Y-59791664D01*
X116861917Y-59829529D01*
X116866049Y-59881746D01*
X116873724Y-59928467D01*
X116884940Y-59969691D01*
X116899698Y-60005418D01*
X116924886Y-60044505D01*
X116956370Y-60073819D01*
X116994152Y-60093363D01*
X117038230Y-60103134D01*
X117062630Y-60104356D01*
X117101239Y-60101235D01*
X117137341Y-60092749D01*
X117151290Y-60088053D01*
X117185330Y-60072239D01*
X117217494Y-60051588D01*
X117231707Y-60040425D01*
X117231707Y-60144473D01*
X117196285Y-60159960D01*
X117160862Y-60171801D01*
X117150741Y-60174515D01*
X117113575Y-60181151D01*
X117076803Y-60183986D01*
X117062081Y-60184223D01*
G37*
G36*
X117361400Y-60278012D02*
G01*
X117896659Y-60278012D01*
X117896659Y-60336631D01*
X117361400Y-60336631D01*
X117361400Y-60278012D01*
G37*
G36*
X118269609Y-59411830D02*
G01*
X118311460Y-59417085D01*
X118349100Y-59426282D01*
X118387690Y-59441992D01*
X118420547Y-59463067D01*
X118424773Y-59466516D01*
X118450897Y-59493595D01*
X118470604Y-59525145D01*
X118483895Y-59561165D01*
X118490770Y-59601655D01*
X118491817Y-59626800D01*
X118489253Y-59664306D01*
X118481559Y-59696959D01*
X118465761Y-59730438D01*
X118450785Y-59750814D01*
X118422030Y-59776871D01*
X118386370Y-59795737D01*
X118348373Y-59806567D01*
X118334464Y-59808883D01*
X118370147Y-59822485D01*
X118400933Y-59845778D01*
X118402608Y-59847534D01*
X118425551Y-59876866D01*
X118433749Y-59889666D01*
X118453114Y-59923499D01*
X118470156Y-59956417D01*
X118472950Y-59962023D01*
X118576997Y-60172500D01*
X118465806Y-60172500D01*
X118374398Y-59976311D01*
X118357347Y-59941800D01*
X118338892Y-59910087D01*
X118336662Y-59906702D01*
X118313521Y-59877107D01*
X118303689Y-59868234D01*
X118270441Y-59851042D01*
X118266503Y-59849916D01*
X118230160Y-59844437D01*
X118221257Y-59844237D01*
X118122156Y-59844237D01*
X118122156Y-60172500D01*
X118018108Y-60172500D01*
X118018108Y-59764370D01*
X118122156Y-59764370D01*
X118235546Y-59764370D01*
X118274366Y-59761718D01*
X118310430Y-59752552D01*
X118343883Y-59732910D01*
X118346188Y-59730847D01*
X118368401Y-59700700D01*
X118379757Y-59664510D01*
X118382641Y-59628815D01*
X118378884Y-59589681D01*
X118366074Y-59553824D01*
X118344173Y-59525500D01*
X118312825Y-59505492D01*
X118297827Y-59499672D01*
X118260929Y-59491871D01*
X118231516Y-59490329D01*
X118122156Y-59490329D01*
X118122156Y-59764370D01*
X118018108Y-59764370D01*
X118018108Y-59410462D01*
X118231516Y-59410462D01*
X118269609Y-59411830D01*
G37*
G36*
X118842062Y-59768766D02*
G01*
X118620594Y-59410462D01*
X118731786Y-59410462D01*
X118899947Y-59704652D01*
X119071222Y-59410462D01*
X119182414Y-59410462D01*
X118953253Y-59774262D01*
X119198900Y-60172500D01*
X119087526Y-60172500D01*
X118899947Y-59848817D01*
X118697531Y-60172500D01*
X118585607Y-60172500D01*
X118842062Y-59768766D01*
G37*
G36*
X110469094Y-60184223D02*
G01*
X110431484Y-60183193D01*
X110417620Y-60182391D01*
X110380138Y-60179007D01*
X110364131Y-60176896D01*
X110327105Y-60170370D01*
X110315771Y-60167737D01*
X110279720Y-60156980D01*
X110273272Y-60154731D01*
X110273272Y-60053065D01*
X110306221Y-60069242D01*
X110341770Y-60083285D01*
X110368161Y-60091350D01*
X110406797Y-60099771D01*
X110445313Y-60103899D01*
X110463049Y-60104356D01*
X110500180Y-60102138D01*
X110537377Y-60094173D01*
X110572546Y-60078287D01*
X110597871Y-60058011D01*
X110620186Y-60028720D01*
X110635197Y-59993604D01*
X110642410Y-59957500D01*
X110644033Y-59927402D01*
X110641579Y-59889855D01*
X110632763Y-59853127D01*
X110631210Y-59849000D01*
X110613829Y-59815647D01*
X110596222Y-59794595D01*
X110566380Y-59772550D01*
X110540901Y-59760889D01*
X110503853Y-59751410D01*
X110466251Y-59748299D01*
X110460484Y-59748250D01*
X110423157Y-59750584D01*
X110386392Y-59757588D01*
X110381533Y-59758874D01*
X110344970Y-59771684D01*
X110310500Y-59789164D01*
X110306062Y-59791847D01*
X110306062Y-59410462D01*
X110693675Y-59410462D01*
X110693675Y-59490329D01*
X110400401Y-59490329D01*
X110400401Y-59683770D01*
X110436661Y-59673509D01*
X110445097Y-59671863D01*
X110482298Y-59668467D01*
X110490160Y-59668382D01*
X110527505Y-59670225D01*
X110565196Y-59676508D01*
X110599337Y-59687250D01*
X110632670Y-59703144D01*
X110664014Y-59724606D01*
X110678838Y-59737991D01*
X110705818Y-59770554D01*
X110726172Y-59807815D01*
X110738343Y-59843493D01*
X110745646Y-59882622D01*
X110748080Y-59925204D01*
X110746314Y-59961878D01*
X110739530Y-60002510D01*
X110727659Y-60039458D01*
X110710701Y-60072723D01*
X110688654Y-60102304D01*
X110675724Y-60115713D01*
X110646993Y-60138614D01*
X110613831Y-60157032D01*
X110589262Y-60166821D01*
X110552086Y-60176729D01*
X110514534Y-60182167D01*
X110477678Y-60184155D01*
X110469094Y-60184223D01*
G37*
G36*
X110860921Y-59410462D02*
G01*
X110967899Y-59410462D01*
X111147418Y-60086770D01*
X111327302Y-59410462D01*
X111434464Y-59410462D01*
X111210432Y-60172500D01*
X111084952Y-60172500D01*
X110860921Y-59410462D01*
G37*
G36*
X82149337Y-88628964D02*
G01*
X82099048Y-88627204D01*
X82048933Y-88621922D01*
X82003524Y-88614065D01*
X81953705Y-88602206D01*
X81903655Y-88587115D01*
X81857955Y-88570590D01*
X81857955Y-88426487D01*
X81900944Y-88452092D01*
X81947713Y-88475830D01*
X81993432Y-88494606D01*
X82006943Y-88499271D01*
X82054694Y-88512481D01*
X82107313Y-88520639D01*
X82147138Y-88522474D01*
X82196552Y-88519589D01*
X82245318Y-88509446D01*
X82291027Y-88489611D01*
X82310537Y-88476312D01*
X82343632Y-88439670D01*
X82362990Y-88393214D01*
X82368667Y-88342467D01*
X82363102Y-88292584D01*
X82342546Y-88246282D01*
X82329099Y-88230360D01*
X82289807Y-88201325D01*
X82273900Y-88193723D01*
X82225529Y-88176855D01*
X82189637Y-88167834D01*
X82115631Y-88150981D01*
X82066378Y-88138227D01*
X82018447Y-88122084D01*
X81994975Y-88112390D01*
X81950471Y-88088115D01*
X81911400Y-88056661D01*
X81909246Y-88054505D01*
X81878194Y-88014935D01*
X81857305Y-87968217D01*
X81846578Y-87914351D01*
X81845010Y-87881337D01*
X81848256Y-87831597D01*
X81860247Y-87778646D01*
X81881074Y-87731165D01*
X81910737Y-87689154D01*
X81937334Y-87662495D01*
X81978908Y-87631928D01*
X82023456Y-87609655D01*
X82042114Y-87602656D01*
X82090428Y-87589856D01*
X82143414Y-87582964D01*
X82181332Y-87581651D01*
X82230519Y-87583666D01*
X82281238Y-87589713D01*
X82305163Y-87593863D01*
X82353844Y-87605403D01*
X82370865Y-87609983D01*
X82419246Y-87624476D01*
X82441695Y-87632209D01*
X82441695Y-87771427D01*
X82399370Y-87745842D01*
X82377704Y-87734791D01*
X82331313Y-87714687D01*
X82315910Y-87709145D01*
X82268283Y-87696346D01*
X82216687Y-87689146D01*
X82188904Y-87688141D01*
X82137156Y-87691753D01*
X82087182Y-87704242D01*
X82041356Y-87728283D01*
X82034054Y-87733814D01*
X81999226Y-87772660D01*
X81980473Y-87821054D01*
X81976901Y-87858622D01*
X81983351Y-87907564D01*
X81986671Y-87916752D01*
X82014515Y-87957052D01*
X82056263Y-87984720D01*
X82101982Y-88002876D01*
X82153244Y-88016891D01*
X82225785Y-88033256D01*
X82276205Y-88046680D01*
X82328431Y-88065944D01*
X82373551Y-88089088D01*
X82416416Y-88120290D01*
X82434368Y-88137792D01*
X82466364Y-88181395D01*
X82486014Y-88227160D01*
X82497390Y-88279519D01*
X82500558Y-88330744D01*
X82497729Y-88381289D01*
X82488192Y-88430308D01*
X82476622Y-88462879D01*
X82452265Y-88507057D01*
X82418595Y-88546195D01*
X82410921Y-88553005D01*
X82367849Y-88582602D01*
X82316854Y-88604930D01*
X82266836Y-88618282D01*
X82210997Y-88626294D01*
X82160018Y-88628890D01*
X82149337Y-88628964D01*
G37*
G36*
X82592149Y-87597282D02*
G01*
X82726727Y-87597282D01*
X82824668Y-88424777D01*
X82940683Y-87876452D01*
X83085031Y-87876452D01*
X83202512Y-88425998D01*
X83300453Y-87597282D01*
X83435031Y-87597282D01*
X83282623Y-88613333D01*
X83151953Y-88613333D01*
X83013224Y-88018113D01*
X82875226Y-88613333D01*
X82744556Y-88613333D01*
X82592149Y-87597282D01*
G37*
G36*
X83791530Y-87599217D02*
G01*
X83844245Y-87605022D01*
X83893105Y-87614696D01*
X83948759Y-87632231D01*
X83998391Y-87655812D01*
X84042001Y-87685439D01*
X84079588Y-87721113D01*
X84111533Y-87763168D01*
X84138063Y-87811936D01*
X84159179Y-87867419D01*
X84172173Y-87916640D01*
X84181703Y-87970158D01*
X84187767Y-88027973D01*
X84190366Y-88090085D01*
X84190474Y-88106284D01*
X84188741Y-88169013D01*
X84183544Y-88227505D01*
X84174881Y-88281761D01*
X84162752Y-88331782D01*
X84142719Y-88388350D01*
X84117272Y-88438299D01*
X84086410Y-88481630D01*
X84079588Y-88489501D01*
X84042001Y-88525175D01*
X83998391Y-88554803D01*
X83948759Y-88578384D01*
X83893105Y-88595919D01*
X83844245Y-88605593D01*
X83791530Y-88611398D01*
X83734961Y-88613333D01*
X83527843Y-88613333D01*
X83527843Y-88506843D01*
X83666817Y-88506843D01*
X83732274Y-88506843D01*
X83784394Y-88504714D01*
X83840059Y-88496539D01*
X83888218Y-88482234D01*
X83934920Y-88457796D01*
X83971406Y-88425012D01*
X83975785Y-88419648D01*
X84002622Y-88375042D01*
X84020379Y-88326018D01*
X84031478Y-88277556D01*
X84039213Y-88222177D01*
X84042979Y-88172893D01*
X84044594Y-88119182D01*
X84044661Y-88105063D01*
X84043592Y-88050028D01*
X84040387Y-87999474D01*
X84033374Y-87942581D01*
X84023023Y-87892689D01*
X84006193Y-87842059D01*
X83980481Y-87795732D01*
X83976273Y-87790234D01*
X83940690Y-87755993D01*
X83894635Y-87730635D01*
X83879553Y-87725021D01*
X83829876Y-87712073D01*
X83778486Y-87705453D01*
X83732274Y-87703772D01*
X83666817Y-87703772D01*
X83666817Y-88506843D01*
X83527843Y-88506843D01*
X83527843Y-87597282D01*
X83734961Y-87597282D01*
X83791530Y-87599217D01*
G37*
G36*
X84413956Y-88506843D02*
G01*
X84627913Y-88506843D01*
X84627913Y-87703772D01*
X84413956Y-87703772D01*
X84413956Y-87597282D01*
X84980600Y-87597282D01*
X84980600Y-87703772D01*
X84766643Y-87703772D01*
X84766643Y-88506843D01*
X84980600Y-88506843D01*
X84980600Y-88613333D01*
X84413956Y-88613333D01*
X84413956Y-88506843D01*
G37*
G36*
X85590323Y-87584704D02*
G01*
X85641743Y-87595115D01*
X85688660Y-87612914D01*
X85730815Y-87638568D01*
X85767948Y-87672881D01*
X85797348Y-87711588D01*
X85821553Y-87755403D01*
X85841655Y-87805788D01*
X85857655Y-87862745D01*
X85867501Y-87913042D01*
X85874721Y-87967545D01*
X85879316Y-88026253D01*
X85881285Y-88089166D01*
X85881367Y-88105552D01*
X85880054Y-88169402D01*
X85876116Y-88229062D01*
X85869552Y-88284532D01*
X85860362Y-88335812D01*
X85845183Y-88394018D01*
X85825901Y-88445678D01*
X85802517Y-88490790D01*
X85797348Y-88499027D01*
X85764780Y-88541240D01*
X85727190Y-88574852D01*
X85688660Y-88597945D01*
X85641743Y-88615605D01*
X85590323Y-88625935D01*
X85539672Y-88628964D01*
X85487803Y-88625810D01*
X85431292Y-88613697D01*
X85381031Y-88592499D01*
X85337022Y-88562217D01*
X85299263Y-88522850D01*
X85282728Y-88499760D01*
X85258453Y-88456261D01*
X85238292Y-88406060D01*
X85222246Y-88349157D01*
X85212371Y-88298808D01*
X85205130Y-88244170D01*
X85200521Y-88185243D01*
X85198547Y-88122026D01*
X85198464Y-88105552D01*
X85342812Y-88105552D01*
X85343537Y-88159182D01*
X85345712Y-88208943D01*
X85350471Y-88265702D01*
X85357495Y-88316414D01*
X85368915Y-88369288D01*
X85386363Y-88419970D01*
X85389218Y-88426242D01*
X85416115Y-88468344D01*
X85454914Y-88501330D01*
X85502755Y-88519091D01*
X85539672Y-88522474D01*
X85588627Y-88516460D01*
X85634907Y-88495315D01*
X85671875Y-88458946D01*
X85691346Y-88426242D01*
X85709238Y-88378840D01*
X85721076Y-88328070D01*
X85728475Y-88278612D01*
X85733632Y-88222654D01*
X85736143Y-88173209D01*
X85737219Y-88119603D01*
X85737264Y-88105552D01*
X85736547Y-88050952D01*
X85734394Y-88000481D01*
X85729686Y-87943200D01*
X85722735Y-87892371D01*
X85711435Y-87839892D01*
X85694171Y-87790409D01*
X85691346Y-87784372D01*
X85664464Y-87742271D01*
X85625427Y-87709285D01*
X85577078Y-87691524D01*
X85539672Y-87688141D01*
X85485803Y-87695753D01*
X85440976Y-87718589D01*
X85405192Y-87756649D01*
X85389218Y-87784372D01*
X85371136Y-87833384D01*
X85359172Y-87884864D01*
X85351694Y-87934441D01*
X85346483Y-87990089D01*
X85343945Y-88038978D01*
X85342857Y-88091751D01*
X85342812Y-88105552D01*
X85198464Y-88105552D01*
X85199792Y-88041266D01*
X85203777Y-87981278D01*
X85210417Y-87925587D01*
X85219713Y-87874193D01*
X85235069Y-87815993D01*
X85254575Y-87764508D01*
X85278231Y-87719736D01*
X85283461Y-87711588D01*
X85318440Y-87667430D01*
X85359447Y-87632407D01*
X85406482Y-87606522D01*
X85459545Y-87589772D01*
X85508368Y-87582793D01*
X85539672Y-87581651D01*
X85590323Y-87584704D01*
G37*
G36*
X82228471Y-86045631D02*
G01*
X82175255Y-86042849D01*
X82125517Y-86034503D01*
X82074331Y-86018703D01*
X82055059Y-86010460D01*
X82010131Y-85985306D01*
X81969688Y-85953807D01*
X81933729Y-85915964D01*
X81927076Y-85907634D01*
X81896116Y-85861727D01*
X81870404Y-85810562D01*
X81849939Y-85754137D01*
X81837345Y-85705210D01*
X81828110Y-85652917D01*
X81822232Y-85597258D01*
X81819714Y-85538233D01*
X81819609Y-85522951D01*
X81821318Y-85462188D01*
X81826448Y-85404952D01*
X81834996Y-85351241D01*
X81846964Y-85301057D01*
X81862351Y-85254399D01*
X81886394Y-85201035D01*
X81915779Y-85153181D01*
X81929030Y-85135582D01*
X81965245Y-85096038D01*
X82005503Y-85063197D01*
X82049804Y-85037057D01*
X82098149Y-85017621D01*
X82150536Y-85004886D01*
X82206965Y-84998854D01*
X82230669Y-84998318D01*
X82279728Y-85000688D01*
X82330316Y-85008604D01*
X82356454Y-85015170D01*
X82404144Y-85032556D01*
X82449576Y-85055344D01*
X82469783Y-85067683D01*
X82469783Y-85208122D01*
X82431420Y-85174828D01*
X82411409Y-85160495D01*
X82367933Y-85135117D01*
X82356454Y-85129720D01*
X82308387Y-85113585D01*
X82294661Y-85110669D01*
X82246111Y-85105088D01*
X82232623Y-85104808D01*
X82177424Y-85109775D01*
X82128512Y-85124676D01*
X82085888Y-85149512D01*
X82049552Y-85184282D01*
X82031612Y-85208611D01*
X82005250Y-85259167D01*
X81987807Y-85310687D01*
X81976906Y-85359393D01*
X81969308Y-85413345D01*
X81965013Y-85472546D01*
X81963956Y-85523684D01*
X81964979Y-85575723D01*
X81968575Y-85629632D01*
X81974759Y-85678634D01*
X81980321Y-85708576D01*
X81993533Y-85758411D01*
X82012424Y-85805797D01*
X82029658Y-85836559D01*
X82061482Y-85876530D01*
X82100109Y-85906684D01*
X82145538Y-85927020D01*
X82197769Y-85937538D01*
X82230669Y-85939141D01*
X82280506Y-85935094D01*
X82310537Y-85927662D01*
X82342533Y-85913984D01*
X82372819Y-85893468D01*
X82372819Y-85605017D01*
X82224319Y-85605017D01*
X82224319Y-85498527D01*
X82504710Y-85498527D01*
X82504710Y-85947201D01*
X82464675Y-85978009D01*
X82421811Y-86002929D01*
X82380390Y-86020474D01*
X82330923Y-86034797D01*
X82278570Y-86043174D01*
X82228471Y-86045631D01*
G37*
G36*
X82687159Y-85013949D02*
G01*
X82862281Y-85013949D01*
X83206664Y-85852923D01*
X83206664Y-85013949D01*
X83340020Y-85013949D01*
X83340020Y-86030000D01*
X83164898Y-86030000D01*
X82820516Y-85205436D01*
X82820516Y-86030000D01*
X82687159Y-86030000D01*
X82687159Y-85013949D01*
G37*
G36*
X83791530Y-85015884D02*
G01*
X83844245Y-85021689D01*
X83893105Y-85031363D01*
X83948759Y-85048898D01*
X83998391Y-85072479D01*
X84042001Y-85102106D01*
X84079588Y-85137780D01*
X84111533Y-85179835D01*
X84138063Y-85228603D01*
X84159179Y-85284086D01*
X84172173Y-85333307D01*
X84181703Y-85386825D01*
X84187767Y-85444640D01*
X84190366Y-85506752D01*
X84190474Y-85522951D01*
X84188741Y-85585680D01*
X84183544Y-85644172D01*
X84174881Y-85698428D01*
X84162752Y-85748449D01*
X84142719Y-85805017D01*
X84117272Y-85854966D01*
X84086410Y-85898297D01*
X84079588Y-85906168D01*
X84042001Y-85941842D01*
X83998391Y-85971470D01*
X83948759Y-85995051D01*
X83893105Y-86012586D01*
X83844245Y-86022260D01*
X83791530Y-86028065D01*
X83734961Y-86030000D01*
X83527843Y-86030000D01*
X83527843Y-85923510D01*
X83666817Y-85923510D01*
X83732274Y-85923510D01*
X83784394Y-85921381D01*
X83840059Y-85913206D01*
X83888218Y-85898901D01*
X83934920Y-85874463D01*
X83971406Y-85841679D01*
X83975785Y-85836315D01*
X84002622Y-85791709D01*
X84020379Y-85742685D01*
X84031478Y-85694223D01*
X84039213Y-85638844D01*
X84042979Y-85589560D01*
X84044594Y-85535849D01*
X84044661Y-85521730D01*
X84043592Y-85466695D01*
X84040387Y-85416141D01*
X84033374Y-85359248D01*
X84023023Y-85309356D01*
X84006193Y-85258726D01*
X83980481Y-85212399D01*
X83976273Y-85206901D01*
X83940690Y-85172660D01*
X83894635Y-85147302D01*
X83879553Y-85141688D01*
X83829876Y-85128740D01*
X83778486Y-85122120D01*
X83732274Y-85120439D01*
X83666817Y-85120439D01*
X83666817Y-85923510D01*
X83527843Y-85923510D01*
X83527843Y-85013949D01*
X83734961Y-85013949D01*
X83791530Y-85015884D01*
G37*
G36*
X112874773Y-59411830D02*
G01*
X112916624Y-59417085D01*
X112954264Y-59426282D01*
X112992854Y-59441992D01*
X113025711Y-59463067D01*
X113029937Y-59466516D01*
X113056061Y-59493595D01*
X113075768Y-59525145D01*
X113089059Y-59561165D01*
X113095934Y-59601655D01*
X113096981Y-59626800D01*
X113094417Y-59664306D01*
X113086723Y-59696959D01*
X113070925Y-59730438D01*
X113055949Y-59750814D01*
X113027194Y-59776871D01*
X112991534Y-59795737D01*
X112953537Y-59806567D01*
X112939628Y-59808883D01*
X112975311Y-59822485D01*
X113006097Y-59845778D01*
X113007772Y-59847534D01*
X113030715Y-59876866D01*
X113038913Y-59889666D01*
X113058278Y-59923499D01*
X113075320Y-59956417D01*
X113078114Y-59962023D01*
X113182161Y-60172500D01*
X113070969Y-60172500D01*
X112979562Y-59976311D01*
X112962511Y-59941800D01*
X112944056Y-59910087D01*
X112941826Y-59906702D01*
X112918685Y-59877107D01*
X112908853Y-59868234D01*
X112875605Y-59851042D01*
X112871667Y-59849916D01*
X112835324Y-59844437D01*
X112826421Y-59844237D01*
X112727320Y-59844237D01*
X112727320Y-60172500D01*
X112623272Y-60172500D01*
X112623272Y-59764370D01*
X112727320Y-59764370D01*
X112840710Y-59764370D01*
X112879530Y-59761718D01*
X112915594Y-59752552D01*
X112949047Y-59732910D01*
X112951352Y-59730847D01*
X112973565Y-59700700D01*
X112984921Y-59664510D01*
X112987805Y-59628815D01*
X112984048Y-59589681D01*
X112971238Y-59553824D01*
X112949337Y-59525500D01*
X112917989Y-59505492D01*
X112902991Y-59499672D01*
X112866093Y-59491871D01*
X112836680Y-59490329D01*
X112727320Y-59490329D01*
X112727320Y-59764370D01*
X112623272Y-59764370D01*
X112623272Y-59410462D01*
X112836680Y-59410462D01*
X112874773Y-59411830D01*
G37*
G36*
X113562081Y-60184223D02*
G01*
X113522805Y-60182224D01*
X113485760Y-60176225D01*
X113447217Y-60164869D01*
X113432571Y-60158944D01*
X113398135Y-60140418D01*
X113366955Y-60116669D01*
X113339030Y-60087696D01*
X113333836Y-60081275D01*
X113310511Y-60046832D01*
X113291139Y-60008417D01*
X113275720Y-59966031D01*
X113266232Y-59929263D01*
X113259274Y-59889953D01*
X113254846Y-59848102D01*
X113252948Y-59803709D01*
X113252869Y-59792213D01*
X113253768Y-59754445D01*
X113257220Y-59711426D01*
X113263261Y-59670919D01*
X113271890Y-59632923D01*
X113283109Y-59597438D01*
X113289689Y-59580638D01*
X113307429Y-59544062D01*
X113328272Y-59511430D01*
X113352219Y-59482743D01*
X113379268Y-59458000D01*
X113396118Y-59445633D01*
X113432594Y-59425116D01*
X113467253Y-59411973D01*
X113504471Y-59403318D01*
X113544250Y-59399150D01*
X113562081Y-59398738D01*
X113600783Y-59400280D01*
X113638810Y-59405389D01*
X113651474Y-59408080D01*
X113688901Y-59419364D01*
X113724123Y-59434761D01*
X113731707Y-59438672D01*
X113731707Y-59544185D01*
X113700226Y-59520678D01*
X113666508Y-59502250D01*
X113650191Y-59495458D01*
X113614085Y-59484547D01*
X113575336Y-59479017D01*
X113561531Y-59478606D01*
X113520158Y-59482331D01*
X113483553Y-59493507D01*
X113451716Y-59512134D01*
X113424648Y-59538211D01*
X113411322Y-59556458D01*
X113391765Y-59594323D01*
X113378825Y-59632834D01*
X113370737Y-59669197D01*
X113365100Y-59709441D01*
X113361914Y-59753568D01*
X113361130Y-59791664D01*
X113361917Y-59829529D01*
X113366049Y-59881746D01*
X113373724Y-59928467D01*
X113384940Y-59969691D01*
X113399698Y-60005418D01*
X113424886Y-60044505D01*
X113456370Y-60073819D01*
X113494152Y-60093363D01*
X113538230Y-60103134D01*
X113562630Y-60104356D01*
X113601239Y-60101235D01*
X113637341Y-60092749D01*
X113651290Y-60088053D01*
X113685330Y-60072239D01*
X113717494Y-60051588D01*
X113731707Y-60040425D01*
X113731707Y-60144473D01*
X113696285Y-60159960D01*
X113660862Y-60171801D01*
X113650741Y-60174515D01*
X113613575Y-60181151D01*
X113576803Y-60183986D01*
X113562081Y-60184223D01*
G37*
G36*
X113861400Y-60278012D02*
G01*
X114396659Y-60278012D01*
X114396659Y-60336631D01*
X113861400Y-60336631D01*
X113861400Y-60278012D01*
G37*
G36*
X114709351Y-59490329D02*
G01*
X114469016Y-59490329D01*
X114469016Y-59410462D01*
X115052817Y-59410462D01*
X115052817Y-59490329D01*
X114813398Y-59490329D01*
X114813398Y-60172500D01*
X114709351Y-60172500D01*
X114709351Y-59490329D01*
G37*
G36*
X115342062Y-59768766D02*
G01*
X115120594Y-59410462D01*
X115231786Y-59410462D01*
X115399947Y-59704652D01*
X115571222Y-59410462D01*
X115682414Y-59410462D01*
X115453253Y-59774262D01*
X115698900Y-60172500D01*
X115587526Y-60172500D01*
X115399947Y-59848817D01*
X115197531Y-60172500D01*
X115085607Y-60172500D01*
X115342062Y-59768766D01*
G37*
G36*
X147644936Y-105915774D02*
G01*
X147700738Y-105922781D01*
X147750924Y-105935042D01*
X147802377Y-105955990D01*
X147846186Y-105984089D01*
X147851821Y-105988688D01*
X147886653Y-106024793D01*
X147912929Y-106066860D01*
X147930651Y-106114886D01*
X147939817Y-106168874D01*
X147941214Y-106202400D01*
X147937794Y-106252409D01*
X147927536Y-106295945D01*
X147906472Y-106340584D01*
X147886503Y-106367752D01*
X147848164Y-106402495D01*
X147800618Y-106427649D01*
X147749954Y-106442090D01*
X147731409Y-106445177D01*
X147778986Y-106463313D01*
X147820034Y-106494370D01*
X147822267Y-106496713D01*
X147852859Y-106535822D01*
X147863789Y-106552889D01*
X147889610Y-106597998D01*
X147912332Y-106641889D01*
X147916057Y-106649364D01*
X148054787Y-106930000D01*
X147906531Y-106930000D01*
X147784654Y-106668415D01*
X147761920Y-106622400D01*
X147737313Y-106580116D01*
X147734340Y-106575603D01*
X147703485Y-106536143D01*
X147690376Y-106524312D01*
X147646045Y-106501389D01*
X147640795Y-106499888D01*
X147592337Y-106492583D01*
X147580467Y-106492316D01*
X147448332Y-106492316D01*
X147448332Y-106930000D01*
X147309602Y-106930000D01*
X147309602Y-106385826D01*
X147448332Y-106385826D01*
X147599518Y-106385826D01*
X147651278Y-106382291D01*
X147699364Y-106370069D01*
X147743968Y-106343880D01*
X147747041Y-106341130D01*
X147776659Y-106300933D01*
X147791800Y-106252680D01*
X147795645Y-106205087D01*
X147790636Y-106152908D01*
X147773556Y-106105099D01*
X147744354Y-106067334D01*
X147702557Y-106040656D01*
X147682560Y-106032896D01*
X147633363Y-106022495D01*
X147594145Y-106020439D01*
X147448332Y-106020439D01*
X147448332Y-106385826D01*
X147309602Y-106385826D01*
X147309602Y-105913949D01*
X147594145Y-105913949D01*
X147644936Y-105915774D01*
G37*
G36*
X148520769Y-105915822D02*
G01*
X148576823Y-105923012D01*
X148627244Y-105935594D01*
X148678949Y-105957089D01*
X148722987Y-105985923D01*
X148728653Y-105990642D01*
X148764062Y-106029056D01*
X148789935Y-106074203D01*
X148795575Y-106088339D01*
X148809333Y-106137352D01*
X148815807Y-106186817D01*
X148816824Y-106217543D01*
X148813750Y-106271047D01*
X148804528Y-106319450D01*
X148785999Y-106369473D01*
X148759101Y-106412555D01*
X148729385Y-106443956D01*
X148687326Y-106473839D01*
X148637015Y-106496383D01*
X148587324Y-106509864D01*
X148531571Y-106517952D01*
X148480479Y-106520574D01*
X148469755Y-106520648D01*
X148309776Y-106520648D01*
X148309776Y-106930000D01*
X148171535Y-106930000D01*
X148171535Y-106414159D01*
X148309776Y-106414159D01*
X148469755Y-106414159D01*
X148520185Y-106410229D01*
X148557927Y-106400237D01*
X148602866Y-106376141D01*
X148619476Y-106362135D01*
X148649790Y-106321630D01*
X148667521Y-106271313D01*
X148672721Y-106217055D01*
X148668509Y-106167739D01*
X148653950Y-106120694D01*
X148625924Y-106078366D01*
X148619476Y-106071730D01*
X148578313Y-106042528D01*
X148531525Y-106026500D01*
X148481789Y-106020639D01*
X148469755Y-106020439D01*
X148309776Y-106020439D01*
X148309776Y-106414159D01*
X148171535Y-106414159D01*
X148171535Y-105913949D01*
X148469755Y-105913949D01*
X148520769Y-105915822D01*
G37*
G36*
X149033712Y-106823510D02*
G01*
X149247669Y-106823510D01*
X149247669Y-106020439D01*
X149033712Y-106020439D01*
X149033712Y-105913949D01*
X149600355Y-105913949D01*
X149600355Y-106020439D01*
X149386399Y-106020439D01*
X149386399Y-106823510D01*
X149600355Y-106823510D01*
X149600355Y-106930000D01*
X149033712Y-106930000D01*
X149033712Y-106823510D01*
G37*
G36*
X149802588Y-107070683D02*
G01*
X150516266Y-107070683D01*
X150516266Y-107148841D01*
X149802588Y-107148841D01*
X149802588Y-107070683D01*
G37*
G36*
X151013533Y-105915774D02*
G01*
X151069335Y-105922781D01*
X151119521Y-105935042D01*
X151170974Y-105955990D01*
X151214784Y-105984089D01*
X151220418Y-105988688D01*
X151255250Y-106024793D01*
X151281527Y-106066860D01*
X151299248Y-106114886D01*
X151308414Y-106168874D01*
X151309811Y-106202400D01*
X151306392Y-106252409D01*
X151296133Y-106295945D01*
X151275069Y-106340584D01*
X151255101Y-106367752D01*
X151216761Y-106402495D01*
X151169215Y-106427649D01*
X151118551Y-106442090D01*
X151100006Y-106445177D01*
X151147584Y-106463313D01*
X151188632Y-106494370D01*
X151190865Y-106496713D01*
X151221456Y-106535822D01*
X151232386Y-106552889D01*
X151258207Y-106597998D01*
X151280929Y-106641889D01*
X151284654Y-106649364D01*
X151423384Y-106930000D01*
X151275129Y-106930000D01*
X151153251Y-106668415D01*
X151130518Y-106622400D01*
X151105910Y-106580116D01*
X151102937Y-106575603D01*
X151072083Y-106536143D01*
X151058974Y-106524312D01*
X151014642Y-106501389D01*
X151009392Y-106499888D01*
X150960934Y-106492583D01*
X150949064Y-106492316D01*
X150816929Y-106492316D01*
X150816929Y-106930000D01*
X150678199Y-106930000D01*
X150678199Y-106385826D01*
X150816929Y-106385826D01*
X150968115Y-106385826D01*
X151019876Y-106382291D01*
X151067961Y-106370069D01*
X151112566Y-106343880D01*
X151115638Y-106341130D01*
X151145256Y-106300933D01*
X151160398Y-106252680D01*
X151164242Y-106205087D01*
X151159233Y-106152908D01*
X151142153Y-106105099D01*
X151112951Y-106067334D01*
X151071154Y-106040656D01*
X151051158Y-106032896D01*
X151001960Y-106022495D01*
X150962742Y-106020439D01*
X150816929Y-106020439D01*
X150816929Y-106385826D01*
X150678199Y-106385826D01*
X150678199Y-105913949D01*
X150962742Y-105913949D01*
X151013533Y-105915774D01*
G37*
G36*
X151776803Y-106391688D02*
G01*
X151481514Y-105913949D01*
X151629769Y-105913949D01*
X151853984Y-106306203D01*
X152082351Y-105913949D01*
X152230607Y-105913949D01*
X151925059Y-106399016D01*
X152252588Y-106930000D01*
X152104089Y-106930000D01*
X151853984Y-106498422D01*
X151584096Y-106930000D01*
X151434863Y-106930000D01*
X151776803Y-106391688D01*
G37*
G36*
X82149337Y-91212297D02*
G01*
X82099048Y-91210537D01*
X82048933Y-91205255D01*
X82003524Y-91197398D01*
X81953705Y-91185539D01*
X81903655Y-91170448D01*
X81857955Y-91153923D01*
X81857955Y-91009820D01*
X81900944Y-91035425D01*
X81947713Y-91059163D01*
X81993432Y-91077939D01*
X82006943Y-91082604D01*
X82054694Y-91095814D01*
X82107313Y-91103972D01*
X82147138Y-91105807D01*
X82196552Y-91102922D01*
X82245318Y-91092779D01*
X82291027Y-91072944D01*
X82310537Y-91059645D01*
X82343632Y-91023003D01*
X82362990Y-90976547D01*
X82368667Y-90925800D01*
X82363102Y-90875917D01*
X82342546Y-90829615D01*
X82329099Y-90813693D01*
X82289807Y-90784658D01*
X82273900Y-90777056D01*
X82225529Y-90760188D01*
X82189637Y-90751167D01*
X82115631Y-90734314D01*
X82066378Y-90721560D01*
X82018447Y-90705417D01*
X81994975Y-90695723D01*
X81950471Y-90671448D01*
X81911400Y-90639994D01*
X81909246Y-90637838D01*
X81878194Y-90598268D01*
X81857305Y-90551550D01*
X81846578Y-90497684D01*
X81845010Y-90464670D01*
X81848256Y-90414930D01*
X81860247Y-90361979D01*
X81881074Y-90314498D01*
X81910737Y-90272487D01*
X81937334Y-90245828D01*
X81978908Y-90215261D01*
X82023456Y-90192988D01*
X82042114Y-90185989D01*
X82090428Y-90173189D01*
X82143414Y-90166297D01*
X82181332Y-90164984D01*
X82230519Y-90166999D01*
X82281238Y-90173046D01*
X82305163Y-90177196D01*
X82353844Y-90188736D01*
X82370865Y-90193316D01*
X82419246Y-90207809D01*
X82441695Y-90215542D01*
X82441695Y-90354760D01*
X82399370Y-90329175D01*
X82377704Y-90318124D01*
X82331313Y-90298020D01*
X82315910Y-90292478D01*
X82268283Y-90279679D01*
X82216687Y-90272479D01*
X82188904Y-90271474D01*
X82137156Y-90275086D01*
X82087182Y-90287575D01*
X82041356Y-90311616D01*
X82034054Y-90317147D01*
X81999226Y-90355993D01*
X81980473Y-90404387D01*
X81976901Y-90441955D01*
X81983351Y-90490897D01*
X81986671Y-90500085D01*
X82014515Y-90540385D01*
X82056263Y-90568053D01*
X82101982Y-90586209D01*
X82153244Y-90600224D01*
X82225785Y-90616589D01*
X82276205Y-90630013D01*
X82328431Y-90649277D01*
X82373551Y-90672421D01*
X82416416Y-90703623D01*
X82434368Y-90721125D01*
X82466364Y-90764728D01*
X82486014Y-90810493D01*
X82497390Y-90862852D01*
X82500558Y-90914077D01*
X82497729Y-90964622D01*
X82488192Y-91013641D01*
X82476622Y-91046212D01*
X82452265Y-91090390D01*
X82418595Y-91129528D01*
X82410921Y-91136338D01*
X82367849Y-91165935D01*
X82316854Y-91188263D01*
X82266836Y-91201615D01*
X82210997Y-91209627D01*
X82160018Y-91212223D01*
X82149337Y-91212297D01*
G37*
G36*
X82592149Y-90180615D02*
G01*
X82726727Y-90180615D01*
X82824668Y-91008110D01*
X82940683Y-90459785D01*
X83085031Y-90459785D01*
X83202512Y-91009331D01*
X83300453Y-90180615D01*
X83435031Y-90180615D01*
X83282623Y-91196666D01*
X83151953Y-91196666D01*
X83013224Y-90601446D01*
X82875226Y-91196666D01*
X82744556Y-91196666D01*
X82592149Y-90180615D01*
G37*
G36*
X83941591Y-91212297D02*
G01*
X83889223Y-91209631D01*
X83839830Y-91201632D01*
X83788439Y-91186491D01*
X83768911Y-91178592D01*
X83722996Y-91153891D01*
X83681422Y-91122225D01*
X83644190Y-91083594D01*
X83637264Y-91075033D01*
X83606164Y-91029108D01*
X83580334Y-90977889D01*
X83559777Y-90921374D01*
X83547125Y-90872350D01*
X83537848Y-90819937D01*
X83531944Y-90764135D01*
X83529414Y-90704945D01*
X83529309Y-90689617D01*
X83530507Y-90639260D01*
X83535110Y-90581901D01*
X83543164Y-90527891D01*
X83554670Y-90477230D01*
X83569628Y-90429917D01*
X83578401Y-90407517D01*
X83602055Y-90358749D01*
X83629846Y-90315240D01*
X83661774Y-90276990D01*
X83697840Y-90244000D01*
X83720307Y-90227510D01*
X83768941Y-90200155D01*
X83815153Y-90182630D01*
X83864778Y-90171090D01*
X83917816Y-90165533D01*
X83941591Y-90164984D01*
X83993193Y-90167040D01*
X84043896Y-90173852D01*
X84060781Y-90177440D01*
X84110684Y-90192485D01*
X84157647Y-90213014D01*
X84167759Y-90218229D01*
X84167759Y-90358913D01*
X84125785Y-90327570D01*
X84080827Y-90303000D01*
X84059071Y-90293944D01*
X84010929Y-90279395D01*
X83959264Y-90272022D01*
X83940858Y-90271474D01*
X83885693Y-90276441D01*
X83836887Y-90291342D01*
X83794438Y-90316178D01*
X83758347Y-90350948D01*
X83740579Y-90375277D01*
X83714502Y-90425763D01*
X83697249Y-90477111D01*
X83686466Y-90525595D01*
X83678950Y-90579254D01*
X83674702Y-90638090D01*
X83673656Y-90688885D01*
X83674706Y-90739371D01*
X83680215Y-90808994D01*
X83690448Y-90871288D01*
X83705403Y-90926254D01*
X83725081Y-90973890D01*
X83758664Y-91026006D01*
X83800643Y-91065092D01*
X83851018Y-91091150D01*
X83909789Y-91104179D01*
X83942323Y-91105807D01*
X83993801Y-91101646D01*
X84041937Y-91090332D01*
X84060537Y-91084070D01*
X84105922Y-91062985D01*
X84148809Y-91035450D01*
X84167759Y-91020566D01*
X84167759Y-91159296D01*
X84120529Y-91179946D01*
X84073299Y-91195734D01*
X84059804Y-91199352D01*
X84010250Y-91208201D01*
X83961221Y-91211981D01*
X83941591Y-91212297D01*
G37*
G36*
X84423482Y-90180615D02*
G01*
X84562212Y-90180615D01*
X84562212Y-91090176D01*
X85055094Y-91090176D01*
X85055094Y-91196666D01*
X84423482Y-91196666D01*
X84423482Y-90180615D01*
G37*
G36*
X85212142Y-90180615D02*
G01*
X85351116Y-90180615D01*
X85351116Y-90640525D01*
X85782449Y-90180615D01*
X85944382Y-90180615D01*
X85547243Y-90604132D01*
X85956106Y-91196666D01*
X85789288Y-91196666D01*
X85456385Y-90694746D01*
X85351116Y-90804656D01*
X85351116Y-91196666D01*
X85212142Y-91196666D01*
X85212142Y-90180615D01*
G37*
D12*
X138547736Y-65466817D02*
X138547736Y-64196817D01*
X139878213Y-65345864D02*
X139817737Y-65406341D01*
X139817737Y-65406341D02*
X139636308Y-65466817D01*
X139636308Y-65466817D02*
X139515356Y-65466817D01*
X139515356Y-65466817D02*
X139333927Y-65406341D01*
X139333927Y-65406341D02*
X139212975Y-65285388D01*
X139212975Y-65285388D02*
X139152498Y-65164436D01*
X139152498Y-65164436D02*
X139092022Y-64922531D01*
X139092022Y-64922531D02*
X139092022Y-64741102D01*
X139092022Y-64741102D02*
X139152498Y-64499198D01*
X139152498Y-64499198D02*
X139212975Y-64378245D01*
X139212975Y-64378245D02*
X139333927Y-64257293D01*
X139333927Y-64257293D02*
X139515356Y-64196817D01*
X139515356Y-64196817D02*
X139636308Y-64196817D01*
X139636308Y-64196817D02*
X139817737Y-64257293D01*
X139817737Y-64257293D02*
X139878213Y-64317769D01*
X140362022Y-64317769D02*
X140422498Y-64257293D01*
X140422498Y-64257293D02*
X140543451Y-64196817D01*
X140543451Y-64196817D02*
X140845832Y-64196817D01*
X140845832Y-64196817D02*
X140966784Y-64257293D01*
X140966784Y-64257293D02*
X141027260Y-64317769D01*
X141027260Y-64317769D02*
X141087737Y-64438721D01*
X141087737Y-64438721D02*
X141087737Y-64559674D01*
X141087737Y-64559674D02*
X141027260Y-64741102D01*
X141027260Y-64741102D02*
X140301546Y-65466817D01*
X140301546Y-65466817D02*
X141087737Y-65466817D01*
X138547737Y-75049321D02*
X138547737Y-73779321D01*
X139878214Y-74928368D02*
X139817738Y-74988845D01*
X139817738Y-74988845D02*
X139636309Y-75049321D01*
X139636309Y-75049321D02*
X139515357Y-75049321D01*
X139515357Y-75049321D02*
X139333928Y-74988845D01*
X139333928Y-74988845D02*
X139212976Y-74867892D01*
X139212976Y-74867892D02*
X139152499Y-74746940D01*
X139152499Y-74746940D02*
X139092023Y-74505035D01*
X139092023Y-74505035D02*
X139092023Y-74323606D01*
X139092023Y-74323606D02*
X139152499Y-74081702D01*
X139152499Y-74081702D02*
X139212976Y-73960749D01*
X139212976Y-73960749D02*
X139333928Y-73839797D01*
X139333928Y-73839797D02*
X139515357Y-73779321D01*
X139515357Y-73779321D02*
X139636309Y-73779321D01*
X139636309Y-73779321D02*
X139817738Y-73839797D01*
X139817738Y-73839797D02*
X139878214Y-73900273D01*
X141087738Y-75049321D02*
X140362023Y-75049321D01*
X140724880Y-75049321D02*
X140724880Y-73779321D01*
X140724880Y-73779321D02*
X140603928Y-73960749D01*
X140603928Y-73960749D02*
X140482976Y-74081702D01*
X140482976Y-74081702D02*
X140362023Y-74142178D01*
D11*
X155109580Y-129917857D02*
X155157200Y-129965476D01*
X155157200Y-129965476D02*
X155204819Y-130108333D01*
X155204819Y-130108333D02*
X155204819Y-130203571D01*
X155204819Y-130203571D02*
X155157200Y-130346428D01*
X155157200Y-130346428D02*
X155061961Y-130441666D01*
X155061961Y-130441666D02*
X154966723Y-130489285D01*
X154966723Y-130489285D02*
X154776247Y-130536904D01*
X154776247Y-130536904D02*
X154633390Y-130536904D01*
X154633390Y-130536904D02*
X154442914Y-130489285D01*
X154442914Y-130489285D02*
X154347676Y-130441666D01*
X154347676Y-130441666D02*
X154252438Y-130346428D01*
X154252438Y-130346428D02*
X154204819Y-130203571D01*
X154204819Y-130203571D02*
X154204819Y-130108333D01*
X154204819Y-130108333D02*
X154252438Y-129965476D01*
X154252438Y-129965476D02*
X154300057Y-129917857D01*
X155204819Y-128965476D02*
X155204819Y-129536904D01*
X155204819Y-129251190D02*
X154204819Y-129251190D01*
X154204819Y-129251190D02*
X154347676Y-129346428D01*
X154347676Y-129346428D02*
X154442914Y-129441666D01*
X154442914Y-129441666D02*
X154490533Y-129536904D01*
X154538152Y-128108333D02*
X155204819Y-128108333D01*
X154157200Y-128346428D02*
X154871485Y-128584523D01*
X154871485Y-128584523D02*
X154871485Y-127965476D01*
X130620831Y-58867081D02*
X130573212Y-58914701D01*
X130573212Y-58914701D02*
X130430355Y-58962320D01*
X130430355Y-58962320D02*
X130335117Y-58962320D01*
X130335117Y-58962320D02*
X130192260Y-58914701D01*
X130192260Y-58914701D02*
X130097022Y-58819462D01*
X130097022Y-58819462D02*
X130049403Y-58724224D01*
X130049403Y-58724224D02*
X130001784Y-58533748D01*
X130001784Y-58533748D02*
X130001784Y-58390891D01*
X130001784Y-58390891D02*
X130049403Y-58200415D01*
X130049403Y-58200415D02*
X130097022Y-58105177D01*
X130097022Y-58105177D02*
X130192260Y-58009939D01*
X130192260Y-58009939D02*
X130335117Y-57962320D01*
X130335117Y-57962320D02*
X130430355Y-57962320D01*
X130430355Y-57962320D02*
X130573212Y-58009939D01*
X130573212Y-58009939D02*
X130620831Y-58057558D01*
X131192260Y-58390891D02*
X131097022Y-58343272D01*
X131097022Y-58343272D02*
X131049403Y-58295653D01*
X131049403Y-58295653D02*
X131001784Y-58200415D01*
X131001784Y-58200415D02*
X131001784Y-58152796D01*
X131001784Y-58152796D02*
X131049403Y-58057558D01*
X131049403Y-58057558D02*
X131097022Y-58009939D01*
X131097022Y-58009939D02*
X131192260Y-57962320D01*
X131192260Y-57962320D02*
X131382736Y-57962320D01*
X131382736Y-57962320D02*
X131477974Y-58009939D01*
X131477974Y-58009939D02*
X131525593Y-58057558D01*
X131525593Y-58057558D02*
X131573212Y-58152796D01*
X131573212Y-58152796D02*
X131573212Y-58200415D01*
X131573212Y-58200415D02*
X131525593Y-58295653D01*
X131525593Y-58295653D02*
X131477974Y-58343272D01*
X131477974Y-58343272D02*
X131382736Y-58390891D01*
X131382736Y-58390891D02*
X131192260Y-58390891D01*
X131192260Y-58390891D02*
X131097022Y-58438510D01*
X131097022Y-58438510D02*
X131049403Y-58486129D01*
X131049403Y-58486129D02*
X131001784Y-58581367D01*
X131001784Y-58581367D02*
X131001784Y-58771843D01*
X131001784Y-58771843D02*
X131049403Y-58867081D01*
X131049403Y-58867081D02*
X131097022Y-58914701D01*
X131097022Y-58914701D02*
X131192260Y-58962320D01*
X131192260Y-58962320D02*
X131382736Y-58962320D01*
X131382736Y-58962320D02*
X131477974Y-58914701D01*
X131477974Y-58914701D02*
X131525593Y-58867081D01*
X131525593Y-58867081D02*
X131573212Y-58771843D01*
X131573212Y-58771843D02*
X131573212Y-58581367D01*
X131573212Y-58581367D02*
X131525593Y-58486129D01*
X131525593Y-58486129D02*
X131477974Y-58438510D01*
X131477974Y-58438510D02*
X131382736Y-58390891D01*
X106804819Y-104966904D02*
X107614342Y-104966904D01*
X107614342Y-104966904D02*
X107709580Y-104919285D01*
X107709580Y-104919285D02*
X107757200Y-104871666D01*
X107757200Y-104871666D02*
X107804819Y-104776428D01*
X107804819Y-104776428D02*
X107804819Y-104585952D01*
X107804819Y-104585952D02*
X107757200Y-104490714D01*
X107757200Y-104490714D02*
X107709580Y-104443095D01*
X107709580Y-104443095D02*
X107614342Y-104395476D01*
X107614342Y-104395476D02*
X106804819Y-104395476D01*
X106804819Y-104014523D02*
X106804819Y-103395476D01*
X106804819Y-103395476D02*
X107185771Y-103728809D01*
X107185771Y-103728809D02*
X107185771Y-103585952D01*
X107185771Y-103585952D02*
X107233390Y-103490714D01*
X107233390Y-103490714D02*
X107281009Y-103443095D01*
X107281009Y-103443095D02*
X107376247Y-103395476D01*
X107376247Y-103395476D02*
X107614342Y-103395476D01*
X107614342Y-103395476D02*
X107709580Y-103443095D01*
X107709580Y-103443095D02*
X107757200Y-103490714D01*
X107757200Y-103490714D02*
X107804819Y-103585952D01*
X107804819Y-103585952D02*
X107804819Y-103871666D01*
X107804819Y-103871666D02*
X107757200Y-103966904D01*
X107757200Y-103966904D02*
X107709580Y-104014523D01*
X129517318Y-65329167D02*
X129041127Y-65662500D01*
X129517318Y-65900595D02*
X128517318Y-65900595D01*
X128517318Y-65900595D02*
X128517318Y-65519643D01*
X128517318Y-65519643D02*
X128564937Y-65424405D01*
X128564937Y-65424405D02*
X128612556Y-65376786D01*
X128612556Y-65376786D02*
X128707794Y-65329167D01*
X128707794Y-65329167D02*
X128850651Y-65329167D01*
X128850651Y-65329167D02*
X128945889Y-65376786D01*
X128945889Y-65376786D02*
X128993508Y-65424405D01*
X128993508Y-65424405D02*
X129041127Y-65519643D01*
X129041127Y-65519643D02*
X129041127Y-65900595D01*
X128517318Y-64995833D02*
X128517318Y-64376786D01*
X128517318Y-64376786D02*
X128898270Y-64710119D01*
X128898270Y-64710119D02*
X128898270Y-64567262D01*
X128898270Y-64567262D02*
X128945889Y-64472024D01*
X128945889Y-64472024D02*
X128993508Y-64424405D01*
X128993508Y-64424405D02*
X129088746Y-64376786D01*
X129088746Y-64376786D02*
X129326841Y-64376786D01*
X129326841Y-64376786D02*
X129422079Y-64424405D01*
X129422079Y-64424405D02*
X129469699Y-64472024D01*
X129469699Y-64472024D02*
X129517318Y-64567262D01*
X129517318Y-64567262D02*
X129517318Y-64852976D01*
X129517318Y-64852976D02*
X129469699Y-64948214D01*
X129469699Y-64948214D02*
X129422079Y-64995833D01*
X100854819Y-104333333D02*
X101569104Y-104333333D01*
X101569104Y-104333333D02*
X101711961Y-104380952D01*
X101711961Y-104380952D02*
X101807200Y-104476190D01*
X101807200Y-104476190D02*
X101854819Y-104619047D01*
X101854819Y-104619047D02*
X101854819Y-104714285D01*
X101188152Y-103428571D02*
X101854819Y-103428571D01*
X100807200Y-103666666D02*
X101521485Y-103904761D01*
X101521485Y-103904761D02*
X101521485Y-103285714D01*
X79466666Y-94984819D02*
X79466666Y-95699104D01*
X79466666Y-95699104D02*
X79419047Y-95841961D01*
X79419047Y-95841961D02*
X79323809Y-95937200D01*
X79323809Y-95937200D02*
X79180952Y-95984819D01*
X79180952Y-95984819D02*
X79085714Y-95984819D01*
X80419047Y-94984819D02*
X79942857Y-94984819D01*
X79942857Y-94984819D02*
X79895238Y-95461009D01*
X79895238Y-95461009D02*
X79942857Y-95413390D01*
X79942857Y-95413390D02*
X80038095Y-95365771D01*
X80038095Y-95365771D02*
X80276190Y-95365771D01*
X80276190Y-95365771D02*
X80371428Y-95413390D01*
X80371428Y-95413390D02*
X80419047Y-95461009D01*
X80419047Y-95461009D02*
X80466666Y-95556247D01*
X80466666Y-95556247D02*
X80466666Y-95794342D01*
X80466666Y-95794342D02*
X80419047Y-95889580D01*
X80419047Y-95889580D02*
X80371428Y-95937200D01*
X80371428Y-95937200D02*
X80276190Y-95984819D01*
X80276190Y-95984819D02*
X80038095Y-95984819D01*
X80038095Y-95984819D02*
X79942857Y-95937200D01*
X79942857Y-95937200D02*
X79895238Y-95889580D01*
X153490476Y-95804819D02*
X153490476Y-96519104D01*
X153490476Y-96519104D02*
X153442857Y-96661961D01*
X153442857Y-96661961D02*
X153347619Y-96757200D01*
X153347619Y-96757200D02*
X153204762Y-96804819D01*
X153204762Y-96804819D02*
X153109524Y-96804819D01*
X154490476Y-96804819D02*
X153919048Y-96804819D01*
X154204762Y-96804819D02*
X154204762Y-95804819D01*
X154204762Y-95804819D02*
X154109524Y-95947676D01*
X154109524Y-95947676D02*
X154014286Y-96042914D01*
X154014286Y-96042914D02*
X153919048Y-96090533D01*
X155395238Y-95804819D02*
X154919048Y-95804819D01*
X154919048Y-95804819D02*
X154871429Y-96281009D01*
X154871429Y-96281009D02*
X154919048Y-96233390D01*
X154919048Y-96233390D02*
X155014286Y-96185771D01*
X155014286Y-96185771D02*
X155252381Y-96185771D01*
X155252381Y-96185771D02*
X155347619Y-96233390D01*
X155347619Y-96233390D02*
X155395238Y-96281009D01*
X155395238Y-96281009D02*
X155442857Y-96376247D01*
X155442857Y-96376247D02*
X155442857Y-96614342D01*
X155442857Y-96614342D02*
X155395238Y-96709580D01*
X155395238Y-96709580D02*
X155347619Y-96757200D01*
X155347619Y-96757200D02*
X155252381Y-96804819D01*
X155252381Y-96804819D02*
X155014286Y-96804819D01*
X155014286Y-96804819D02*
X154919048Y-96757200D01*
X154919048Y-96757200D02*
X154871429Y-96709580D01*
X132147079Y-74911669D02*
X132194699Y-74959288D01*
X132194699Y-74959288D02*
X132242318Y-75102145D01*
X132242318Y-75102145D02*
X132242318Y-75197383D01*
X132242318Y-75197383D02*
X132194699Y-75340240D01*
X132194699Y-75340240D02*
X132099460Y-75435478D01*
X132099460Y-75435478D02*
X132004222Y-75483097D01*
X132004222Y-75483097D02*
X131813746Y-75530716D01*
X131813746Y-75530716D02*
X131670889Y-75530716D01*
X131670889Y-75530716D02*
X131480413Y-75483097D01*
X131480413Y-75483097D02*
X131385175Y-75435478D01*
X131385175Y-75435478D02*
X131289937Y-75340240D01*
X131289937Y-75340240D02*
X131242318Y-75197383D01*
X131242318Y-75197383D02*
X131242318Y-75102145D01*
X131242318Y-75102145D02*
X131289937Y-74959288D01*
X131289937Y-74959288D02*
X131337556Y-74911669D01*
X131575651Y-74054526D02*
X132242318Y-74054526D01*
X131194699Y-74292621D02*
X131908984Y-74530716D01*
X131908984Y-74530716D02*
X131908984Y-73911669D01*
X107857142Y-132859580D02*
X107809523Y-132907200D01*
X107809523Y-132907200D02*
X107666666Y-132954819D01*
X107666666Y-132954819D02*
X107571428Y-132954819D01*
X107571428Y-132954819D02*
X107428571Y-132907200D01*
X107428571Y-132907200D02*
X107333333Y-132811961D01*
X107333333Y-132811961D02*
X107285714Y-132716723D01*
X107285714Y-132716723D02*
X107238095Y-132526247D01*
X107238095Y-132526247D02*
X107238095Y-132383390D01*
X107238095Y-132383390D02*
X107285714Y-132192914D01*
X107285714Y-132192914D02*
X107333333Y-132097676D01*
X107333333Y-132097676D02*
X107428571Y-132002438D01*
X107428571Y-132002438D02*
X107571428Y-131954819D01*
X107571428Y-131954819D02*
X107666666Y-131954819D01*
X107666666Y-131954819D02*
X107809523Y-132002438D01*
X107809523Y-132002438D02*
X107857142Y-132050057D01*
X108809523Y-132954819D02*
X108238095Y-132954819D01*
X108523809Y-132954819D02*
X108523809Y-131954819D01*
X108523809Y-131954819D02*
X108428571Y-132097676D01*
X108428571Y-132097676D02*
X108333333Y-132192914D01*
X108333333Y-132192914D02*
X108238095Y-132240533D01*
X109666666Y-131954819D02*
X109476190Y-131954819D01*
X109476190Y-131954819D02*
X109380952Y-132002438D01*
X109380952Y-132002438D02*
X109333333Y-132050057D01*
X109333333Y-132050057D02*
X109238095Y-132192914D01*
X109238095Y-132192914D02*
X109190476Y-132383390D01*
X109190476Y-132383390D02*
X109190476Y-132764342D01*
X109190476Y-132764342D02*
X109238095Y-132859580D01*
X109238095Y-132859580D02*
X109285714Y-132907200D01*
X109285714Y-132907200D02*
X109380952Y-132954819D01*
X109380952Y-132954819D02*
X109571428Y-132954819D01*
X109571428Y-132954819D02*
X109666666Y-132907200D01*
X109666666Y-132907200D02*
X109714285Y-132859580D01*
X109714285Y-132859580D02*
X109761904Y-132764342D01*
X109761904Y-132764342D02*
X109761904Y-132526247D01*
X109761904Y-132526247D02*
X109714285Y-132431009D01*
X109714285Y-132431009D02*
X109666666Y-132383390D01*
X109666666Y-132383390D02*
X109571428Y-132335771D01*
X109571428Y-132335771D02*
X109380952Y-132335771D01*
X109380952Y-132335771D02*
X109285714Y-132383390D01*
X109285714Y-132383390D02*
X109238095Y-132431009D01*
X109238095Y-132431009D02*
X109190476Y-132526247D01*
X78749820Y-124751904D02*
X79559343Y-124751904D01*
X79559343Y-124751904D02*
X79654581Y-124704285D01*
X79654581Y-124704285D02*
X79702201Y-124656666D01*
X79702201Y-124656666D02*
X79749820Y-124561428D01*
X79749820Y-124561428D02*
X79749820Y-124370952D01*
X79749820Y-124370952D02*
X79702201Y-124275714D01*
X79702201Y-124275714D02*
X79654581Y-124228095D01*
X79654581Y-124228095D02*
X79559343Y-124180476D01*
X79559343Y-124180476D02*
X78749820Y-124180476D01*
X78845058Y-123751904D02*
X78797439Y-123704285D01*
X78797439Y-123704285D02*
X78749820Y-123609047D01*
X78749820Y-123609047D02*
X78749820Y-123370952D01*
X78749820Y-123370952D02*
X78797439Y-123275714D01*
X78797439Y-123275714D02*
X78845058Y-123228095D01*
X78845058Y-123228095D02*
X78940296Y-123180476D01*
X78940296Y-123180476D02*
X79035534Y-123180476D01*
X79035534Y-123180476D02*
X79178391Y-123228095D01*
X79178391Y-123228095D02*
X79749820Y-123799523D01*
X79749820Y-123799523D02*
X79749820Y-123180476D01*
X102082142Y-126929580D02*
X102034523Y-126977200D01*
X102034523Y-126977200D02*
X101891666Y-127024819D01*
X101891666Y-127024819D02*
X101796428Y-127024819D01*
X101796428Y-127024819D02*
X101653571Y-126977200D01*
X101653571Y-126977200D02*
X101558333Y-126881961D01*
X101558333Y-126881961D02*
X101510714Y-126786723D01*
X101510714Y-126786723D02*
X101463095Y-126596247D01*
X101463095Y-126596247D02*
X101463095Y-126453390D01*
X101463095Y-126453390D02*
X101510714Y-126262914D01*
X101510714Y-126262914D02*
X101558333Y-126167676D01*
X101558333Y-126167676D02*
X101653571Y-126072438D01*
X101653571Y-126072438D02*
X101796428Y-126024819D01*
X101796428Y-126024819D02*
X101891666Y-126024819D01*
X101891666Y-126024819D02*
X102034523Y-126072438D01*
X102034523Y-126072438D02*
X102082142Y-126120057D01*
X103034523Y-127024819D02*
X102463095Y-127024819D01*
X102748809Y-127024819D02*
X102748809Y-126024819D01*
X102748809Y-126024819D02*
X102653571Y-126167676D01*
X102653571Y-126167676D02*
X102558333Y-126262914D01*
X102558333Y-126262914D02*
X102463095Y-126310533D01*
X103653571Y-126024819D02*
X103748809Y-126024819D01*
X103748809Y-126024819D02*
X103844047Y-126072438D01*
X103844047Y-126072438D02*
X103891666Y-126120057D01*
X103891666Y-126120057D02*
X103939285Y-126215295D01*
X103939285Y-126215295D02*
X103986904Y-126405771D01*
X103986904Y-126405771D02*
X103986904Y-126643866D01*
X103986904Y-126643866D02*
X103939285Y-126834342D01*
X103939285Y-126834342D02*
X103891666Y-126929580D01*
X103891666Y-126929580D02*
X103844047Y-126977200D01*
X103844047Y-126977200D02*
X103748809Y-127024819D01*
X103748809Y-127024819D02*
X103653571Y-127024819D01*
X103653571Y-127024819D02*
X103558333Y-126977200D01*
X103558333Y-126977200D02*
X103510714Y-126929580D01*
X103510714Y-126929580D02*
X103463095Y-126834342D01*
X103463095Y-126834342D02*
X103415476Y-126643866D01*
X103415476Y-126643866D02*
X103415476Y-126405771D01*
X103415476Y-126405771D02*
X103463095Y-126215295D01*
X103463095Y-126215295D02*
X103510714Y-126120057D01*
X103510714Y-126120057D02*
X103558333Y-126072438D01*
X103558333Y-126072438D02*
X103653571Y-126024819D01*
X159404819Y-86583333D02*
X160119104Y-86583333D01*
X160119104Y-86583333D02*
X160261961Y-86630952D01*
X160261961Y-86630952D02*
X160357200Y-86726190D01*
X160357200Y-86726190D02*
X160404819Y-86869047D01*
X160404819Y-86869047D02*
X160404819Y-86964285D01*
X159404819Y-86202380D02*
X159404819Y-85535714D01*
X159404819Y-85535714D02*
X160404819Y-85964285D01*
X145564700Y-81321428D02*
X145564700Y-80178571D01*
X146136128Y-80749999D02*
X144993271Y-80749999D01*
X145564700Y-92321428D02*
X145564700Y-91178571D01*
X143492080Y-63330356D02*
X143539700Y-63377975D01*
X143539700Y-63377975D02*
X143587319Y-63520832D01*
X143587319Y-63520832D02*
X143587319Y-63616070D01*
X143587319Y-63616070D02*
X143539700Y-63758927D01*
X143539700Y-63758927D02*
X143444461Y-63854165D01*
X143444461Y-63854165D02*
X143349223Y-63901784D01*
X143349223Y-63901784D02*
X143158747Y-63949403D01*
X143158747Y-63949403D02*
X143015890Y-63949403D01*
X143015890Y-63949403D02*
X142825414Y-63901784D01*
X142825414Y-63901784D02*
X142730176Y-63854165D01*
X142730176Y-63854165D02*
X142634938Y-63758927D01*
X142634938Y-63758927D02*
X142587319Y-63616070D01*
X142587319Y-63616070D02*
X142587319Y-63520832D01*
X142587319Y-63520832D02*
X142634938Y-63377975D01*
X142634938Y-63377975D02*
X142682557Y-63330356D01*
X143587319Y-62377975D02*
X143587319Y-62949403D01*
X143587319Y-62663689D02*
X142587319Y-62663689D01*
X142587319Y-62663689D02*
X142730176Y-62758927D01*
X142730176Y-62758927D02*
X142825414Y-62854165D01*
X142825414Y-62854165D02*
X142873033Y-62949403D01*
X143587319Y-61425594D02*
X143587319Y-61997022D01*
X143587319Y-61711308D02*
X142587319Y-61711308D01*
X142587319Y-61711308D02*
X142730176Y-61806546D01*
X142730176Y-61806546D02*
X142825414Y-61901784D01*
X142825414Y-61901784D02*
X142873033Y-61997022D01*
X124359580Y-100666666D02*
X124407200Y-100714285D01*
X124407200Y-100714285D02*
X124454819Y-100857142D01*
X124454819Y-100857142D02*
X124454819Y-100952380D01*
X124454819Y-100952380D02*
X124407200Y-101095237D01*
X124407200Y-101095237D02*
X124311961Y-101190475D01*
X124311961Y-101190475D02*
X124216723Y-101238094D01*
X124216723Y-101238094D02*
X124026247Y-101285713D01*
X124026247Y-101285713D02*
X123883390Y-101285713D01*
X123883390Y-101285713D02*
X123692914Y-101238094D01*
X123692914Y-101238094D02*
X123597676Y-101190475D01*
X123597676Y-101190475D02*
X123502438Y-101095237D01*
X123502438Y-101095237D02*
X123454819Y-100952380D01*
X123454819Y-100952380D02*
X123454819Y-100857142D01*
X123454819Y-100857142D02*
X123502438Y-100714285D01*
X123502438Y-100714285D02*
X123550057Y-100666666D01*
X124454819Y-99714285D02*
X124454819Y-100285713D01*
X124454819Y-99999999D02*
X123454819Y-99999999D01*
X123454819Y-99999999D02*
X123597676Y-100095237D01*
X123597676Y-100095237D02*
X123692914Y-100190475D01*
X123692914Y-100190475D02*
X123740533Y-100285713D01*
X144822200Y-75228333D02*
X144869819Y-75085476D01*
X144869819Y-75085476D02*
X144869819Y-74847381D01*
X144869819Y-74847381D02*
X144822200Y-74752143D01*
X144822200Y-74752143D02*
X144774580Y-74704524D01*
X144774580Y-74704524D02*
X144679342Y-74656905D01*
X144679342Y-74656905D02*
X144584104Y-74656905D01*
X144584104Y-74656905D02*
X144488866Y-74704524D01*
X144488866Y-74704524D02*
X144441247Y-74752143D01*
X144441247Y-74752143D02*
X144393628Y-74847381D01*
X144393628Y-74847381D02*
X144346009Y-75037857D01*
X144346009Y-75037857D02*
X144298390Y-75133095D01*
X144298390Y-75133095D02*
X144250771Y-75180714D01*
X144250771Y-75180714D02*
X144155533Y-75228333D01*
X144155533Y-75228333D02*
X144060295Y-75228333D01*
X144060295Y-75228333D02*
X143965057Y-75180714D01*
X143965057Y-75180714D02*
X143917438Y-75133095D01*
X143917438Y-75133095D02*
X143869819Y-75037857D01*
X143869819Y-75037857D02*
X143869819Y-74799762D01*
X143869819Y-74799762D02*
X143917438Y-74656905D01*
X143869819Y-74323571D02*
X144869819Y-74085476D01*
X144869819Y-74085476D02*
X144155533Y-73895000D01*
X144155533Y-73895000D02*
X144869819Y-73704524D01*
X144869819Y-73704524D02*
X143869819Y-73466429D01*
X144869819Y-72561667D02*
X144869819Y-73133095D01*
X144869819Y-72847381D02*
X143869819Y-72847381D01*
X143869819Y-72847381D02*
X144012676Y-72942619D01*
X144012676Y-72942619D02*
X144107914Y-73037857D01*
X144107914Y-73037857D02*
X144155533Y-73133095D01*
X132147079Y-65329167D02*
X132194699Y-65376786D01*
X132194699Y-65376786D02*
X132242318Y-65519643D01*
X132242318Y-65519643D02*
X132242318Y-65614881D01*
X132242318Y-65614881D02*
X132194699Y-65757738D01*
X132194699Y-65757738D02*
X132099460Y-65852976D01*
X132099460Y-65852976D02*
X132004222Y-65900595D01*
X132004222Y-65900595D02*
X131813746Y-65948214D01*
X131813746Y-65948214D02*
X131670889Y-65948214D01*
X131670889Y-65948214D02*
X131480413Y-65900595D01*
X131480413Y-65900595D02*
X131385175Y-65852976D01*
X131385175Y-65852976D02*
X131289937Y-65757738D01*
X131289937Y-65757738D02*
X131242318Y-65614881D01*
X131242318Y-65614881D02*
X131242318Y-65519643D01*
X131242318Y-65519643D02*
X131289937Y-65376786D01*
X131289937Y-65376786D02*
X131337556Y-65329167D01*
X132242318Y-64852976D02*
X132242318Y-64662500D01*
X132242318Y-64662500D02*
X132194699Y-64567262D01*
X132194699Y-64567262D02*
X132147079Y-64519643D01*
X132147079Y-64519643D02*
X132004222Y-64424405D01*
X132004222Y-64424405D02*
X131813746Y-64376786D01*
X131813746Y-64376786D02*
X131432794Y-64376786D01*
X131432794Y-64376786D02*
X131337556Y-64424405D01*
X131337556Y-64424405D02*
X131289937Y-64472024D01*
X131289937Y-64472024D02*
X131242318Y-64567262D01*
X131242318Y-64567262D02*
X131242318Y-64757738D01*
X131242318Y-64757738D02*
X131289937Y-64852976D01*
X131289937Y-64852976D02*
X131337556Y-64900595D01*
X131337556Y-64900595D02*
X131432794Y-64948214D01*
X131432794Y-64948214D02*
X131670889Y-64948214D01*
X131670889Y-64948214D02*
X131766127Y-64900595D01*
X131766127Y-64900595D02*
X131813746Y-64852976D01*
X131813746Y-64852976D02*
X131861365Y-64757738D01*
X131861365Y-64757738D02*
X131861365Y-64567262D01*
X131861365Y-64567262D02*
X131813746Y-64472024D01*
X131813746Y-64472024D02*
X131766127Y-64424405D01*
X131766127Y-64424405D02*
X131670889Y-64376786D01*
X137172319Y-71641666D02*
X137172319Y-72117856D01*
X137172319Y-72117856D02*
X136172319Y-72117856D01*
X137172319Y-70784523D02*
X137172319Y-71355951D01*
X137172319Y-71070237D02*
X136172319Y-71070237D01*
X136172319Y-71070237D02*
X136315176Y-71165475D01*
X136315176Y-71165475D02*
X136410414Y-71260713D01*
X136410414Y-71260713D02*
X136458033Y-71355951D01*
X136922081Y-74911666D02*
X136969701Y-74959285D01*
X136969701Y-74959285D02*
X137017320Y-75102142D01*
X137017320Y-75102142D02*
X137017320Y-75197380D01*
X137017320Y-75197380D02*
X136969701Y-75340237D01*
X136969701Y-75340237D02*
X136874462Y-75435475D01*
X136874462Y-75435475D02*
X136779224Y-75483094D01*
X136779224Y-75483094D02*
X136588748Y-75530713D01*
X136588748Y-75530713D02*
X136445891Y-75530713D01*
X136445891Y-75530713D02*
X136255415Y-75483094D01*
X136255415Y-75483094D02*
X136160177Y-75435475D01*
X136160177Y-75435475D02*
X136064939Y-75340237D01*
X136064939Y-75340237D02*
X136017320Y-75197380D01*
X136017320Y-75197380D02*
X136017320Y-75102142D01*
X136017320Y-75102142D02*
X136064939Y-74959285D01*
X136064939Y-74959285D02*
X136112558Y-74911666D01*
X136017320Y-74578332D02*
X136017320Y-73959285D01*
X136017320Y-73959285D02*
X136398272Y-74292618D01*
X136398272Y-74292618D02*
X136398272Y-74149761D01*
X136398272Y-74149761D02*
X136445891Y-74054523D01*
X136445891Y-74054523D02*
X136493510Y-74006904D01*
X136493510Y-74006904D02*
X136588748Y-73959285D01*
X136588748Y-73959285D02*
X136826843Y-73959285D01*
X136826843Y-73959285D02*
X136922081Y-74006904D01*
X136922081Y-74006904D02*
X136969701Y-74054523D01*
X136969701Y-74054523D02*
X137017320Y-74149761D01*
X137017320Y-74149761D02*
X137017320Y-74435475D01*
X137017320Y-74435475D02*
X136969701Y-74530713D01*
X136969701Y-74530713D02*
X136922081Y-74578332D01*
X130620832Y-68367080D02*
X130573213Y-68414700D01*
X130573213Y-68414700D02*
X130430356Y-68462319D01*
X130430356Y-68462319D02*
X130335118Y-68462319D01*
X130335118Y-68462319D02*
X130192261Y-68414700D01*
X130192261Y-68414700D02*
X130097023Y-68319461D01*
X130097023Y-68319461D02*
X130049404Y-68224223D01*
X130049404Y-68224223D02*
X130001785Y-68033747D01*
X130001785Y-68033747D02*
X130001785Y-67890890D01*
X130001785Y-67890890D02*
X130049404Y-67700414D01*
X130049404Y-67700414D02*
X130097023Y-67605176D01*
X130097023Y-67605176D02*
X130192261Y-67509938D01*
X130192261Y-67509938D02*
X130335118Y-67462319D01*
X130335118Y-67462319D02*
X130430356Y-67462319D01*
X130430356Y-67462319D02*
X130573213Y-67509938D01*
X130573213Y-67509938D02*
X130620832Y-67557557D01*
X131477975Y-67462319D02*
X131287499Y-67462319D01*
X131287499Y-67462319D02*
X131192261Y-67509938D01*
X131192261Y-67509938D02*
X131144642Y-67557557D01*
X131144642Y-67557557D02*
X131049404Y-67700414D01*
X131049404Y-67700414D02*
X131001785Y-67890890D01*
X131001785Y-67890890D02*
X131001785Y-68271842D01*
X131001785Y-68271842D02*
X131049404Y-68367080D01*
X131049404Y-68367080D02*
X131097023Y-68414700D01*
X131097023Y-68414700D02*
X131192261Y-68462319D01*
X131192261Y-68462319D02*
X131382737Y-68462319D01*
X131382737Y-68462319D02*
X131477975Y-68414700D01*
X131477975Y-68414700D02*
X131525594Y-68367080D01*
X131525594Y-68367080D02*
X131573213Y-68271842D01*
X131573213Y-68271842D02*
X131573213Y-68033747D01*
X131573213Y-68033747D02*
X131525594Y-67938509D01*
X131525594Y-67938509D02*
X131477975Y-67890890D01*
X131477975Y-67890890D02*
X131382737Y-67843271D01*
X131382737Y-67843271D02*
X131192261Y-67843271D01*
X131192261Y-67843271D02*
X131097023Y-67890890D01*
X131097023Y-67890890D02*
X131049404Y-67938509D01*
X131049404Y-67938509D02*
X131001785Y-68033747D01*
X130620833Y-72727082D02*
X130573214Y-72774702D01*
X130573214Y-72774702D02*
X130430357Y-72822321D01*
X130430357Y-72822321D02*
X130335119Y-72822321D01*
X130335119Y-72822321D02*
X130192262Y-72774702D01*
X130192262Y-72774702D02*
X130097024Y-72679463D01*
X130097024Y-72679463D02*
X130049405Y-72584225D01*
X130049405Y-72584225D02*
X130001786Y-72393749D01*
X130001786Y-72393749D02*
X130001786Y-72250892D01*
X130001786Y-72250892D02*
X130049405Y-72060416D01*
X130049405Y-72060416D02*
X130097024Y-71965178D01*
X130097024Y-71965178D02*
X130192262Y-71869940D01*
X130192262Y-71869940D02*
X130335119Y-71822321D01*
X130335119Y-71822321D02*
X130430357Y-71822321D01*
X130430357Y-71822321D02*
X130573214Y-71869940D01*
X130573214Y-71869940D02*
X130620833Y-71917559D01*
X131525595Y-71822321D02*
X131049405Y-71822321D01*
X131049405Y-71822321D02*
X131001786Y-72298511D01*
X131001786Y-72298511D02*
X131049405Y-72250892D01*
X131049405Y-72250892D02*
X131144643Y-72203273D01*
X131144643Y-72203273D02*
X131382738Y-72203273D01*
X131382738Y-72203273D02*
X131477976Y-72250892D01*
X131477976Y-72250892D02*
X131525595Y-72298511D01*
X131525595Y-72298511D02*
X131573214Y-72393749D01*
X131573214Y-72393749D02*
X131573214Y-72631844D01*
X131573214Y-72631844D02*
X131525595Y-72727082D01*
X131525595Y-72727082D02*
X131477976Y-72774702D01*
X131477976Y-72774702D02*
X131382738Y-72822321D01*
X131382738Y-72822321D02*
X131144643Y-72822321D01*
X131144643Y-72822321D02*
X131049405Y-72774702D01*
X131049405Y-72774702D02*
X131001786Y-72727082D01*
X126242318Y-74911670D02*
X125766127Y-75245003D01*
X126242318Y-75483098D02*
X125242318Y-75483098D01*
X125242318Y-75483098D02*
X125242318Y-75102146D01*
X125242318Y-75102146D02*
X125289937Y-75006908D01*
X125289937Y-75006908D02*
X125337556Y-74959289D01*
X125337556Y-74959289D02*
X125432794Y-74911670D01*
X125432794Y-74911670D02*
X125575651Y-74911670D01*
X125575651Y-74911670D02*
X125670889Y-74959289D01*
X125670889Y-74959289D02*
X125718508Y-75006908D01*
X125718508Y-75006908D02*
X125766127Y-75102146D01*
X125766127Y-75102146D02*
X125766127Y-75483098D01*
X125337556Y-74530717D02*
X125289937Y-74483098D01*
X125289937Y-74483098D02*
X125242318Y-74387860D01*
X125242318Y-74387860D02*
X125242318Y-74149765D01*
X125242318Y-74149765D02*
X125289937Y-74054527D01*
X125289937Y-74054527D02*
X125337556Y-74006908D01*
X125337556Y-74006908D02*
X125432794Y-73959289D01*
X125432794Y-73959289D02*
X125528032Y-73959289D01*
X125528032Y-73959289D02*
X125670889Y-74006908D01*
X125670889Y-74006908D02*
X126242318Y-74578336D01*
X126242318Y-74578336D02*
X126242318Y-73959289D01*
X105145366Y-109541666D02*
X105192986Y-109589285D01*
X105192986Y-109589285D02*
X105240605Y-109732142D01*
X105240605Y-109732142D02*
X105240605Y-109827380D01*
X105240605Y-109827380D02*
X105192986Y-109970237D01*
X105192986Y-109970237D02*
X105097747Y-110065475D01*
X105097747Y-110065475D02*
X105002509Y-110113094D01*
X105002509Y-110113094D02*
X104812033Y-110160713D01*
X104812033Y-110160713D02*
X104669176Y-110160713D01*
X104669176Y-110160713D02*
X104478700Y-110113094D01*
X104478700Y-110113094D02*
X104383462Y-110065475D01*
X104383462Y-110065475D02*
X104288224Y-109970237D01*
X104288224Y-109970237D02*
X104240605Y-109827380D01*
X104240605Y-109827380D02*
X104240605Y-109732142D01*
X104240605Y-109732142D02*
X104288224Y-109589285D01*
X104288224Y-109589285D02*
X104335843Y-109541666D01*
X104335843Y-109160713D02*
X104288224Y-109113094D01*
X104288224Y-109113094D02*
X104240605Y-109017856D01*
X104240605Y-109017856D02*
X104240605Y-108779761D01*
X104240605Y-108779761D02*
X104288224Y-108684523D01*
X104288224Y-108684523D02*
X104335843Y-108636904D01*
X104335843Y-108636904D02*
X104431081Y-108589285D01*
X104431081Y-108589285D02*
X104526319Y-108589285D01*
X104526319Y-108589285D02*
X104669176Y-108636904D01*
X104669176Y-108636904D02*
X105240605Y-109208332D01*
X105240605Y-109208332D02*
X105240605Y-108589285D01*
X130620834Y-63227080D02*
X130573215Y-63274700D01*
X130573215Y-63274700D02*
X130430358Y-63322319D01*
X130430358Y-63322319D02*
X130335120Y-63322319D01*
X130335120Y-63322319D02*
X130192263Y-63274700D01*
X130192263Y-63274700D02*
X130097025Y-63179461D01*
X130097025Y-63179461D02*
X130049406Y-63084223D01*
X130049406Y-63084223D02*
X130001787Y-62893747D01*
X130001787Y-62893747D02*
X130001787Y-62750890D01*
X130001787Y-62750890D02*
X130049406Y-62560414D01*
X130049406Y-62560414D02*
X130097025Y-62465176D01*
X130097025Y-62465176D02*
X130192263Y-62369938D01*
X130192263Y-62369938D02*
X130335120Y-62322319D01*
X130335120Y-62322319D02*
X130430358Y-62322319D01*
X130430358Y-62322319D02*
X130573215Y-62369938D01*
X130573215Y-62369938D02*
X130620834Y-62417557D01*
X130954168Y-62322319D02*
X131620834Y-62322319D01*
X131620834Y-62322319D02*
X131192263Y-63322319D01*
X129517318Y-74911669D02*
X129041127Y-75245002D01*
X129517318Y-75483097D02*
X128517318Y-75483097D01*
X128517318Y-75483097D02*
X128517318Y-75102145D01*
X128517318Y-75102145D02*
X128564937Y-75006907D01*
X128564937Y-75006907D02*
X128612556Y-74959288D01*
X128612556Y-74959288D02*
X128707794Y-74911669D01*
X128707794Y-74911669D02*
X128850651Y-74911669D01*
X128850651Y-74911669D02*
X128945889Y-74959288D01*
X128945889Y-74959288D02*
X128993508Y-75006907D01*
X128993508Y-75006907D02*
X129041127Y-75102145D01*
X129041127Y-75102145D02*
X129041127Y-75483097D01*
X129517318Y-73959288D02*
X129517318Y-74530716D01*
X129517318Y-74245002D02*
X128517318Y-74245002D01*
X128517318Y-74245002D02*
X128660175Y-74340240D01*
X128660175Y-74340240D02*
X128755413Y-74435478D01*
X128755413Y-74435478D02*
X128803032Y-74530716D01*
X128054819Y-104333332D02*
X128769104Y-104333332D01*
X128769104Y-104333332D02*
X128911961Y-104380951D01*
X128911961Y-104380951D02*
X129007200Y-104476189D01*
X129007200Y-104476189D02*
X129054819Y-104619046D01*
X129054819Y-104619046D02*
X129054819Y-104714284D01*
X128150057Y-103904760D02*
X128102438Y-103857141D01*
X128102438Y-103857141D02*
X128054819Y-103761903D01*
X128054819Y-103761903D02*
X128054819Y-103523808D01*
X128054819Y-103523808D02*
X128102438Y-103428570D01*
X128102438Y-103428570D02*
X128150057Y-103380951D01*
X128150057Y-103380951D02*
X128245295Y-103333332D01*
X128245295Y-103333332D02*
X128340533Y-103333332D01*
X128340533Y-103333332D02*
X128483390Y-103380951D01*
X128483390Y-103380951D02*
X129054819Y-103952379D01*
X129054819Y-103952379D02*
X129054819Y-103333332D01*
X137172317Y-62059168D02*
X137172317Y-62535358D01*
X137172317Y-62535358D02*
X136172317Y-62535358D01*
X136267555Y-61773453D02*
X136219936Y-61725834D01*
X136219936Y-61725834D02*
X136172317Y-61630596D01*
X136172317Y-61630596D02*
X136172317Y-61392501D01*
X136172317Y-61392501D02*
X136219936Y-61297263D01*
X136219936Y-61297263D02*
X136267555Y-61249644D01*
X136267555Y-61249644D02*
X136362793Y-61202025D01*
X136362793Y-61202025D02*
X136458031Y-61202025D01*
X136458031Y-61202025D02*
X136600888Y-61249644D01*
X136600888Y-61249644D02*
X137172317Y-61821072D01*
X137172317Y-61821072D02*
X137172317Y-61202025D01*
X83359580Y-117642857D02*
X83407200Y-117690476D01*
X83407200Y-117690476D02*
X83454819Y-117833333D01*
X83454819Y-117833333D02*
X83454819Y-117928571D01*
X83454819Y-117928571D02*
X83407200Y-118071428D01*
X83407200Y-118071428D02*
X83311961Y-118166666D01*
X83311961Y-118166666D02*
X83216723Y-118214285D01*
X83216723Y-118214285D02*
X83026247Y-118261904D01*
X83026247Y-118261904D02*
X82883390Y-118261904D01*
X82883390Y-118261904D02*
X82692914Y-118214285D01*
X82692914Y-118214285D02*
X82597676Y-118166666D01*
X82597676Y-118166666D02*
X82502438Y-118071428D01*
X82502438Y-118071428D02*
X82454819Y-117928571D01*
X82454819Y-117928571D02*
X82454819Y-117833333D01*
X82454819Y-117833333D02*
X82502438Y-117690476D01*
X82502438Y-117690476D02*
X82550057Y-117642857D01*
X83454819Y-116690476D02*
X83454819Y-117261904D01*
X83454819Y-116976190D02*
X82454819Y-116976190D01*
X82454819Y-116976190D02*
X82597676Y-117071428D01*
X82597676Y-117071428D02*
X82692914Y-117166666D01*
X82692914Y-117166666D02*
X82740533Y-117261904D01*
X82454819Y-116357142D02*
X82454819Y-115738095D01*
X82454819Y-115738095D02*
X82835771Y-116071428D01*
X82835771Y-116071428D02*
X82835771Y-115928571D01*
X82835771Y-115928571D02*
X82883390Y-115833333D01*
X82883390Y-115833333D02*
X82931009Y-115785714D01*
X82931009Y-115785714D02*
X83026247Y-115738095D01*
X83026247Y-115738095D02*
X83264342Y-115738095D01*
X83264342Y-115738095D02*
X83359580Y-115785714D01*
X83359580Y-115785714D02*
X83407200Y-115833333D01*
X83407200Y-115833333D02*
X83454819Y-115928571D01*
X83454819Y-115928571D02*
X83454819Y-116214285D01*
X83454819Y-116214285D02*
X83407200Y-116309523D01*
X83407200Y-116309523D02*
X83359580Y-116357142D01*
X126242317Y-65279168D02*
X125766126Y-65612501D01*
X126242317Y-65850596D02*
X125242317Y-65850596D01*
X125242317Y-65850596D02*
X125242317Y-65469644D01*
X125242317Y-65469644D02*
X125289936Y-65374406D01*
X125289936Y-65374406D02*
X125337555Y-65326787D01*
X125337555Y-65326787D02*
X125432793Y-65279168D01*
X125432793Y-65279168D02*
X125575650Y-65279168D01*
X125575650Y-65279168D02*
X125670888Y-65326787D01*
X125670888Y-65326787D02*
X125718507Y-65374406D01*
X125718507Y-65374406D02*
X125766126Y-65469644D01*
X125766126Y-65469644D02*
X125766126Y-65850596D01*
X125575650Y-64422025D02*
X126242317Y-64422025D01*
X125194698Y-64660120D02*
X125908983Y-64898215D01*
X125908983Y-64898215D02*
X125908983Y-64279168D01*
X115951904Y-126925180D02*
X115951904Y-126115657D01*
X115951904Y-126115657D02*
X115904285Y-126020419D01*
X115904285Y-126020419D02*
X115856666Y-125972800D01*
X115856666Y-125972800D02*
X115761428Y-125925180D01*
X115761428Y-125925180D02*
X115570952Y-125925180D01*
X115570952Y-125925180D02*
X115475714Y-125972800D01*
X115475714Y-125972800D02*
X115428095Y-126020419D01*
X115428095Y-126020419D02*
X115380476Y-126115657D01*
X115380476Y-126115657D02*
X115380476Y-126925180D01*
X114475714Y-126591847D02*
X114475714Y-125925180D01*
X114713809Y-126972800D02*
X114951904Y-126258514D01*
X114951904Y-126258514D02*
X114332857Y-126258514D01*
X118999999Y-135954880D02*
X118999999Y-135716785D01*
X119238094Y-135812023D02*
X118999999Y-135716785D01*
X118999999Y-135716785D02*
X118761904Y-135812023D01*
X119142856Y-135526309D02*
X118999999Y-135716785D01*
X118999999Y-135716785D02*
X118857142Y-135526309D01*
X119000000Y-134864519D02*
X119000000Y-135102614D01*
X118761905Y-135007376D02*
X119000000Y-135102614D01*
X119000000Y-135102614D02*
X119238095Y-135007376D01*
X118857143Y-135293090D02*
X119000000Y-135102614D01*
X119000000Y-135102614D02*
X119142857Y-135293090D01*
X155159819Y-121581904D02*
X155969342Y-121581904D01*
X155969342Y-121581904D02*
X156064580Y-121534285D01*
X156064580Y-121534285D02*
X156112200Y-121486666D01*
X156112200Y-121486666D02*
X156159819Y-121391428D01*
X156159819Y-121391428D02*
X156159819Y-121200952D01*
X156159819Y-121200952D02*
X156112200Y-121105714D01*
X156112200Y-121105714D02*
X156064580Y-121058095D01*
X156064580Y-121058095D02*
X155969342Y-121010476D01*
X155969342Y-121010476D02*
X155159819Y-121010476D01*
X156159819Y-120010476D02*
X156159819Y-120581904D01*
X156159819Y-120296190D02*
X155159819Y-120296190D01*
X155159819Y-120296190D02*
X155302676Y-120391428D01*
X155302676Y-120391428D02*
X155397914Y-120486666D01*
X155397914Y-120486666D02*
X155445533Y-120581904D01*
X131859580Y-123392857D02*
X131907200Y-123440476D01*
X131907200Y-123440476D02*
X131954819Y-123583333D01*
X131954819Y-123583333D02*
X131954819Y-123678571D01*
X131954819Y-123678571D02*
X131907200Y-123821428D01*
X131907200Y-123821428D02*
X131811961Y-123916666D01*
X131811961Y-123916666D02*
X131716723Y-123964285D01*
X131716723Y-123964285D02*
X131526247Y-124011904D01*
X131526247Y-124011904D02*
X131383390Y-124011904D01*
X131383390Y-124011904D02*
X131192914Y-123964285D01*
X131192914Y-123964285D02*
X131097676Y-123916666D01*
X131097676Y-123916666D02*
X131002438Y-123821428D01*
X131002438Y-123821428D02*
X130954819Y-123678571D01*
X130954819Y-123678571D02*
X130954819Y-123583333D01*
X130954819Y-123583333D02*
X131002438Y-123440476D01*
X131002438Y-123440476D02*
X131050057Y-123392857D01*
X131954819Y-122440476D02*
X131954819Y-123011904D01*
X131954819Y-122726190D02*
X130954819Y-122726190D01*
X130954819Y-122726190D02*
X131097676Y-122821428D01*
X131097676Y-122821428D02*
X131192914Y-122916666D01*
X131192914Y-122916666D02*
X131240533Y-123011904D01*
X130954819Y-121535714D02*
X130954819Y-122011904D01*
X130954819Y-122011904D02*
X131431009Y-122059523D01*
X131431009Y-122059523D02*
X131383390Y-122011904D01*
X131383390Y-122011904D02*
X131335771Y-121916666D01*
X131335771Y-121916666D02*
X131335771Y-121678571D01*
X131335771Y-121678571D02*
X131383390Y-121583333D01*
X131383390Y-121583333D02*
X131431009Y-121535714D01*
X131431009Y-121535714D02*
X131526247Y-121488095D01*
X131526247Y-121488095D02*
X131764342Y-121488095D01*
X131764342Y-121488095D02*
X131859580Y-121535714D01*
X131859580Y-121535714D02*
X131907200Y-121583333D01*
X131907200Y-121583333D02*
X131954819Y-121678571D01*
X131954819Y-121678571D02*
X131954819Y-121916666D01*
X131954819Y-121916666D02*
X131907200Y-122011904D01*
X131907200Y-122011904D02*
X131859580Y-122059523D01*
X100854819Y-87133333D02*
X101569104Y-87133333D01*
X101569104Y-87133333D02*
X101711961Y-87180952D01*
X101711961Y-87180952D02*
X101807200Y-87276190D01*
X101807200Y-87276190D02*
X101854819Y-87419047D01*
X101854819Y-87419047D02*
X101854819Y-87514285D01*
X100854819Y-86752380D02*
X100854819Y-86133333D01*
X100854819Y-86133333D02*
X101235771Y-86466666D01*
X101235771Y-86466666D02*
X101235771Y-86323809D01*
X101235771Y-86323809D02*
X101283390Y-86228571D01*
X101283390Y-86228571D02*
X101331009Y-86180952D01*
X101331009Y-86180952D02*
X101426247Y-86133333D01*
X101426247Y-86133333D02*
X101664342Y-86133333D01*
X101664342Y-86133333D02*
X101759580Y-86180952D01*
X101759580Y-86180952D02*
X101807200Y-86228571D01*
X101807200Y-86228571D02*
X101854819Y-86323809D01*
X101854819Y-86323809D02*
X101854819Y-86609523D01*
X101854819Y-86609523D02*
X101807200Y-86704761D01*
X101807200Y-86704761D02*
X101759580Y-86752380D01*
X137077079Y-65805357D02*
X137124699Y-65852976D01*
X137124699Y-65852976D02*
X137172318Y-65995833D01*
X137172318Y-65995833D02*
X137172318Y-66091071D01*
X137172318Y-66091071D02*
X137124699Y-66233928D01*
X137124699Y-66233928D02*
X137029460Y-66329166D01*
X137029460Y-66329166D02*
X136934222Y-66376785D01*
X136934222Y-66376785D02*
X136743746Y-66424404D01*
X136743746Y-66424404D02*
X136600889Y-66424404D01*
X136600889Y-66424404D02*
X136410413Y-66376785D01*
X136410413Y-66376785D02*
X136315175Y-66329166D01*
X136315175Y-66329166D02*
X136219937Y-66233928D01*
X136219937Y-66233928D02*
X136172318Y-66091071D01*
X136172318Y-66091071D02*
X136172318Y-65995833D01*
X136172318Y-65995833D02*
X136219937Y-65852976D01*
X136219937Y-65852976D02*
X136267556Y-65805357D01*
X137172318Y-64852976D02*
X137172318Y-65424404D01*
X137172318Y-65138690D02*
X136172318Y-65138690D01*
X136172318Y-65138690D02*
X136315175Y-65233928D01*
X136315175Y-65233928D02*
X136410413Y-65329166D01*
X136410413Y-65329166D02*
X136458032Y-65424404D01*
X136267556Y-64472023D02*
X136219937Y-64424404D01*
X136219937Y-64424404D02*
X136172318Y-64329166D01*
X136172318Y-64329166D02*
X136172318Y-64091071D01*
X136172318Y-64091071D02*
X136219937Y-63995833D01*
X136219937Y-63995833D02*
X136267556Y-63948214D01*
X136267556Y-63948214D02*
X136362794Y-63900595D01*
X136362794Y-63900595D02*
X136458032Y-63900595D01*
X136458032Y-63900595D02*
X136600889Y-63948214D01*
X136600889Y-63948214D02*
X137172318Y-64519642D01*
X137172318Y-64519642D02*
X137172318Y-63900595D01*
X112357142Y-95634580D02*
X112309523Y-95682200D01*
X112309523Y-95682200D02*
X112166666Y-95729819D01*
X112166666Y-95729819D02*
X112071428Y-95729819D01*
X112071428Y-95729819D02*
X111928571Y-95682200D01*
X111928571Y-95682200D02*
X111833333Y-95586961D01*
X111833333Y-95586961D02*
X111785714Y-95491723D01*
X111785714Y-95491723D02*
X111738095Y-95301247D01*
X111738095Y-95301247D02*
X111738095Y-95158390D01*
X111738095Y-95158390D02*
X111785714Y-94967914D01*
X111785714Y-94967914D02*
X111833333Y-94872676D01*
X111833333Y-94872676D02*
X111928571Y-94777438D01*
X111928571Y-94777438D02*
X112071428Y-94729819D01*
X112071428Y-94729819D02*
X112166666Y-94729819D01*
X112166666Y-94729819D02*
X112309523Y-94777438D01*
X112309523Y-94777438D02*
X112357142Y-94825057D01*
X113309523Y-95729819D02*
X112738095Y-95729819D01*
X113023809Y-95729819D02*
X113023809Y-94729819D01*
X113023809Y-94729819D02*
X112928571Y-94872676D01*
X112928571Y-94872676D02*
X112833333Y-94967914D01*
X112833333Y-94967914D02*
X112738095Y-95015533D01*
X113642857Y-94729819D02*
X114309523Y-94729819D01*
X114309523Y-94729819D02*
X113880952Y-95729819D01*
X116225704Y-88885180D02*
X116225704Y-88075657D01*
X116225704Y-88075657D02*
X116178085Y-87980419D01*
X116178085Y-87980419D02*
X116130466Y-87932800D01*
X116130466Y-87932800D02*
X116035228Y-87885180D01*
X116035228Y-87885180D02*
X115844752Y-87885180D01*
X115844752Y-87885180D02*
X115749514Y-87932800D01*
X115749514Y-87932800D02*
X115701895Y-87980419D01*
X115701895Y-87980419D02*
X115654276Y-88075657D01*
X115654276Y-88075657D02*
X115654276Y-88885180D01*
X114749514Y-88885180D02*
X114939990Y-88885180D01*
X114939990Y-88885180D02*
X115035228Y-88837561D01*
X115035228Y-88837561D02*
X115082847Y-88789942D01*
X115082847Y-88789942D02*
X115178085Y-88647085D01*
X115178085Y-88647085D02*
X115225704Y-88456609D01*
X115225704Y-88456609D02*
X115225704Y-88075657D01*
X115225704Y-88075657D02*
X115178085Y-87980419D01*
X115178085Y-87980419D02*
X115130466Y-87932800D01*
X115130466Y-87932800D02*
X115035228Y-87885180D01*
X115035228Y-87885180D02*
X114844752Y-87885180D01*
X114844752Y-87885180D02*
X114749514Y-87932800D01*
X114749514Y-87932800D02*
X114701895Y-87980419D01*
X114701895Y-87980419D02*
X114654276Y-88075657D01*
X114654276Y-88075657D02*
X114654276Y-88313752D01*
X114654276Y-88313752D02*
X114701895Y-88408990D01*
X114701895Y-88408990D02*
X114749514Y-88456609D01*
X114749514Y-88456609D02*
X114844752Y-88504228D01*
X114844752Y-88504228D02*
X115035228Y-88504228D01*
X115035228Y-88504228D02*
X115130466Y-88456609D01*
X115130466Y-88456609D02*
X115178085Y-88408990D01*
X115178085Y-88408990D02*
X115225704Y-88313752D01*
X115503800Y-91331019D02*
X115503800Y-91569114D01*
X115265705Y-91473876D02*
X115503800Y-91569114D01*
X115503800Y-91569114D02*
X115741895Y-91473876D01*
X115360943Y-91759590D02*
X115503800Y-91569114D01*
X115503800Y-91569114D02*
X115646657Y-91759590D01*
D13*
%TO.C,IC2*%
X140212499Y-66342499D02*
X139362499Y-66342499D01*
X139362499Y-66342499D02*
X139362499Y-63442499D01*
X139362499Y-63442499D02*
X140212499Y-63442499D01*
X140212499Y-63442499D02*
X140212499Y-66342499D01*
X141612499Y-66467499D02*
X140562499Y-66467499D01*
%TO.C,IC1*%
X140212500Y-75925003D02*
X139362500Y-75925003D01*
X139362500Y-75925003D02*
X139362500Y-73025003D01*
X139362500Y-73025003D02*
X140212500Y-73025003D01*
X140212500Y-73025003D02*
X140212500Y-75925003D01*
X141612500Y-76050003D02*
X140562500Y-76050003D01*
D14*
%TO.C,C14*%
X152740000Y-129134419D02*
X152740000Y-129415581D01*
X153760000Y-129134419D02*
X153760000Y-129415581D01*
%TO.C,C8*%
X130646917Y-59427501D02*
X130928079Y-59427501D01*
X130646917Y-60447501D02*
X130928079Y-60447501D01*
%TO.C,J13*%
X79680000Y-70316666D02*
X78280000Y-70316666D01*
X79680000Y-68916666D02*
X79680000Y-70316666D01*
X78280000Y-70316666D02*
X78280000Y-68916666D01*
X78280000Y-68916666D02*
X79680000Y-68916666D01*
%TO.C,U3*%
X109640000Y-99095000D02*
X110590000Y-99095000D01*
X109640000Y-100045000D02*
X109640000Y-99095000D01*
X109640000Y-108365000D02*
X109640000Y-109315000D01*
X109640000Y-109315000D02*
X110590000Y-109315000D01*
X119860000Y-99095000D02*
X118910000Y-99095000D01*
X119860000Y-100045000D02*
X119860000Y-99095000D01*
X119860000Y-108365000D02*
X119860000Y-109315000D01*
X119860000Y-109315000D02*
X118910000Y-109315000D01*
X110590000Y-109930000D02*
X110120000Y-110270000D01*
X110120001Y-109590000D01*
X110590000Y-109930000D01*
G36*
X110590000Y-109930000D02*
G01*
X110120000Y-110270000D01*
X110120001Y-109590000D01*
X110590000Y-109930000D01*
G37*
%TO.C,R3*%
X130039999Y-64925243D02*
X130039999Y-65399759D01*
X131084999Y-64925243D02*
X131084999Y-65399759D01*
%TO.C,J4*%
X95590000Y-96940000D02*
X95590000Y-111060000D01*
X95590000Y-111060000D02*
X100310000Y-111060000D01*
X96199999Y-104000000D02*
X96700000Y-104000000D01*
X96199999Y-108000000D02*
X96700000Y-108000000D01*
X96200000Y-97550000D02*
X96200000Y-110450000D01*
X96200000Y-99900001D02*
X96700000Y-99900000D01*
X96200000Y-100000000D02*
X96700000Y-100000000D01*
X96200000Y-101900000D02*
X96700000Y-101900000D01*
X96200000Y-102000000D02*
X96700000Y-102000000D01*
X96200000Y-103900000D02*
X96700000Y-103900000D01*
X96200000Y-105900000D02*
X96700000Y-105900000D01*
X96200000Y-106000000D02*
X96700000Y-106000000D01*
X96200000Y-107900000D02*
X96700000Y-107900000D01*
X96200000Y-110450000D02*
X99700000Y-110450001D01*
X96700000Y-99900000D02*
X96700000Y-100100000D01*
X96700000Y-100100000D02*
X96200000Y-100100000D01*
X96700000Y-101900000D02*
X96700000Y-102100000D01*
X96700000Y-102100000D02*
X96199999Y-102100000D01*
X96700000Y-103900000D02*
X96700000Y-104100000D01*
X96700000Y-104100000D02*
X96200000Y-104100000D01*
X96700000Y-105900000D02*
X96700000Y-106100000D01*
X96700000Y-106100000D02*
X96200000Y-106100001D01*
X96700000Y-107900000D02*
X96700000Y-108100000D01*
X96700000Y-108100000D02*
X96200000Y-108100000D01*
X97700000Y-111060000D02*
X97700000Y-110450000D01*
X97700001Y-96940000D02*
X97700000Y-97550000D01*
X98999999Y-96940000D02*
X99000000Y-97550000D01*
X99000000Y-111060000D02*
X99000000Y-110450000D01*
X99700000Y-97550000D02*
X96200000Y-97550000D01*
X99700000Y-110450001D02*
X99700001Y-108500000D01*
X99700001Y-99500000D02*
X99700000Y-97550000D01*
X99700001Y-108500000D02*
X100310000Y-108500000D01*
X100310000Y-96940000D02*
X95590000Y-96940000D01*
X100310000Y-98700000D02*
X100510001Y-98700000D01*
X100310000Y-99500000D02*
X99700001Y-99500000D01*
X100310000Y-111060000D02*
X100310000Y-96940000D01*
X100410000Y-98700000D02*
X100410000Y-98400000D01*
X100510001Y-98400000D02*
X100310000Y-98400000D01*
X100510001Y-98700000D02*
X100510001Y-98400000D01*
X100610000Y-96640000D02*
X99360000Y-96640000D01*
X100610000Y-97890000D02*
X100610000Y-96640000D01*
%TO.C,J5*%
X78470000Y-91929999D02*
X78470000Y-84250000D01*
X81130000Y-84250000D02*
X78470000Y-84250000D01*
X81130000Y-91929999D02*
X78470000Y-91929999D01*
X81130000Y-91929999D02*
X81130000Y-84250000D01*
X81130000Y-93200000D02*
X81130000Y-94530000D01*
X81130000Y-94530000D02*
X79800000Y-94530000D01*
%TO.C,J15*%
X152920000Y-105229999D02*
X152920000Y-97550000D01*
X155580000Y-97550000D02*
X152920000Y-97550000D01*
X155580000Y-105229999D02*
X152920000Y-105229999D01*
X155580000Y-105229999D02*
X155580000Y-97550000D01*
X155580000Y-106500000D02*
X155580000Y-107830000D01*
X155580000Y-107830000D02*
X154250000Y-107830000D01*
%TO.C,C4*%
X132777499Y-74604422D02*
X132777499Y-74885584D01*
X133797499Y-74604422D02*
X133797499Y-74885584D01*
%TO.C,C16*%
X108640581Y-133740000D02*
X108359419Y-133740000D01*
X108640581Y-134760000D02*
X108359419Y-134760000D01*
%TO.C,J11*%
X106500000Y-56450000D02*
X108900000Y-56450000D01*
X106500000Y-58850000D02*
X106500000Y-56450000D01*
X108900000Y-56450000D02*
X108900000Y-58850000D01*
X108900000Y-58850000D02*
X106500000Y-58850000D01*
%TO.C,J10*%
X109750000Y-56450000D02*
X112150000Y-56450000D01*
X109750000Y-58850000D02*
X109750000Y-56450000D01*
X112150000Y-56450000D02*
X112150000Y-58850000D01*
X112150000Y-58850000D02*
X109750000Y-58850000D01*
%TO.C,J14*%
X78280000Y-71100000D02*
X79680000Y-71100000D01*
X78280000Y-72500000D02*
X78280000Y-71100000D01*
X79680000Y-71100000D02*
X79680000Y-72500000D01*
X79680000Y-72500000D02*
X78280000Y-72500000D01*
%TO.C,U2*%
X80295001Y-121340000D02*
X80295001Y-122989999D01*
X80295001Y-124990000D02*
X80295001Y-126640000D01*
X80295001Y-126640000D02*
X100735001Y-126640001D01*
X100735001Y-121340000D02*
X80295001Y-121340000D01*
X100735001Y-126640001D02*
X100735001Y-121340000D01*
X80295001Y-122989999D02*
G75*
G02*
X80295001Y-124990001I-7J-1000001D01*
G01*
%TO.C,C10*%
X102584419Y-127490000D02*
X102865581Y-127490000D01*
X102584419Y-128510000D02*
X102865581Y-128510000D01*
%TO.C,J7*%
X149440000Y-81190000D02*
X149440000Y-91310000D01*
X154340000Y-80600000D02*
X154340000Y-81190000D01*
X154340000Y-81190000D02*
X149440000Y-81190000D01*
X154340000Y-91310000D02*
X149440000Y-91310000D01*
X154340000Y-91310000D02*
X154340000Y-91900000D01*
X156560000Y-80600000D02*
X156560000Y-81190000D01*
X156560000Y-91310000D02*
X156560000Y-91900000D01*
X158660000Y-81190000D02*
X156560000Y-81190000D01*
X158660000Y-81190000D02*
X158660000Y-91310000D01*
X158660000Y-91310000D02*
X156560000Y-91310000D01*
X154340000Y-80600000D02*
G75*
G02*
X156560000Y-80600000I1110000J0D01*
G01*
X156560000Y-91900000D02*
G75*
G02*
X154340000Y-91900000I-1110000J0D01*
G01*
%TO.C,C11*%
X144052500Y-62828080D02*
X144052500Y-62546918D01*
X145072500Y-62828080D02*
X145072500Y-62546918D01*
%TO.C,C1*%
X121990000Y-100640581D02*
X121990000Y-100359419D01*
X123010000Y-100640581D02*
X123010000Y-100359419D01*
%TO.C,J12*%
X79680000Y-68133333D02*
X78280000Y-68133333D01*
X79680000Y-66733333D02*
X79680000Y-68133333D01*
X78280000Y-68133333D02*
X78280000Y-66733333D01*
X78280000Y-66733333D02*
X79680000Y-66733333D01*
%TO.C,J6*%
X129390000Y-94180000D02*
X129390000Y-95430000D01*
X129390000Y-95430000D02*
X130640000Y-95430000D01*
X129489999Y-93370000D02*
X129489999Y-93670000D01*
X129489999Y-93670000D02*
X129690000Y-93670000D01*
X129590000Y-93370000D02*
X129590000Y-93670000D01*
X129690000Y-81010000D02*
X129690000Y-95130000D01*
X129690000Y-92570000D02*
X130299999Y-92570000D01*
X129690000Y-93370000D02*
X129489999Y-93370000D01*
X129690000Y-95130000D02*
X134410000Y-95130000D01*
X130299999Y-83570000D02*
X129690000Y-83570000D01*
X130299999Y-92570000D02*
X130300000Y-94520000D01*
X130300000Y-81619999D02*
X130299999Y-83570000D01*
X130300000Y-94520000D02*
X133800000Y-94520000D01*
X131000000Y-81010000D02*
X131000000Y-81620000D01*
X131000001Y-95130000D02*
X131000000Y-94520000D01*
X132299999Y-95130000D02*
X132300000Y-94520000D01*
X132300000Y-81010000D02*
X132300000Y-81620000D01*
X133300000Y-83970000D02*
X133800000Y-83970000D01*
X133300000Y-84170000D02*
X133300000Y-83970000D01*
X133300000Y-85970000D02*
X133800000Y-85969999D01*
X133300000Y-86170000D02*
X133300000Y-85970000D01*
X133300000Y-87970000D02*
X133800000Y-87970000D01*
X133300000Y-88170000D02*
X133300000Y-87970000D01*
X133300000Y-89970000D02*
X133800001Y-89970000D01*
X133300000Y-90170000D02*
X133300000Y-89970000D01*
X133300000Y-91970000D02*
X133800000Y-91970000D01*
X133300000Y-92170000D02*
X133300000Y-91970000D01*
X133800000Y-81620000D02*
X130300000Y-81619999D01*
X133800000Y-84170000D02*
X133300000Y-84170000D01*
X133800000Y-86070000D02*
X133300000Y-86070000D01*
X133800000Y-86170000D02*
X133300000Y-86170000D01*
X133800000Y-88170000D02*
X133300000Y-88170000D01*
X133800000Y-90070000D02*
X133300000Y-90070000D01*
X133800000Y-90170000D02*
X133300000Y-90170000D01*
X133800000Y-92070000D02*
X133300000Y-92070000D01*
X133800000Y-92169999D02*
X133300000Y-92170000D01*
X133800000Y-94520000D02*
X133800000Y-81620000D01*
X133800001Y-84070000D02*
X133300000Y-84070000D01*
X133800001Y-88070000D02*
X133300000Y-88070000D01*
X134410000Y-81010000D02*
X129690000Y-81010000D01*
X134410000Y-95130000D02*
X134410000Y-81010000D01*
D15*
%TO.C,SW1*%
X146320000Y-61220000D02*
X146320000Y-77680000D01*
X146320000Y-61220000D02*
X156480000Y-61220000D01*
X148100000Y-61220000D02*
X149650000Y-61220000D01*
X156480000Y-61220000D02*
X156480000Y-77680000D01*
X156480000Y-77680000D02*
X146320000Y-77680000D01*
D13*
X149930000Y-78490000D02*
G75*
G02*
X149730000Y-78490000I-100000J0D01*
G01*
X149730000Y-78490000D02*
G75*
G02*
X149930000Y-78490000I100000J0D01*
G01*
D14*
%TO.C,J9*%
X113000000Y-56450000D02*
X115400000Y-56450000D01*
X113000000Y-58850000D02*
X113000000Y-56450000D01*
X115400000Y-56450000D02*
X115400000Y-58850000D01*
X115400000Y-58850000D02*
X113000000Y-58850000D01*
%TO.C,C9*%
X132777499Y-65021920D02*
X132777499Y-65303082D01*
X133797499Y-65021920D02*
X133797499Y-65303082D01*
%TO.C,L1*%
X134777500Y-71312220D02*
X134777500Y-71637780D01*
X135797500Y-71312220D02*
X135797500Y-71637780D01*
%TO.C,C3*%
X134777501Y-74604419D02*
X134777501Y-74885581D01*
X135797501Y-74604419D02*
X135797501Y-74885581D01*
%TO.C,C6*%
X130646918Y-68927500D02*
X130928080Y-68927500D01*
X130646918Y-69947500D02*
X130928080Y-69947500D01*
%TO.C,J1*%
X79680000Y-65950000D02*
X78280000Y-65950000D01*
X79680000Y-64550000D02*
X79680000Y-65950000D01*
X78280000Y-65950000D02*
X78280000Y-64550000D01*
X78280000Y-64550000D02*
X79680000Y-64550000D01*
%TO.C,C5*%
X130928081Y-70427502D02*
X130646919Y-70427502D01*
X130928081Y-71447502D02*
X130646919Y-71447502D01*
%TO.C,J8*%
X116150000Y-56450000D02*
X118550000Y-56450000D01*
X116150000Y-58850000D02*
X116150000Y-56450000D01*
X118550000Y-56450000D02*
X118550000Y-58850000D01*
X118550000Y-58850000D02*
X116150000Y-58850000D01*
%TO.C,R2*%
X126764999Y-74982262D02*
X126764999Y-74507746D01*
X127809999Y-74982262D02*
X127809999Y-74507746D01*
%TO.C,C2*%
X105690000Y-109234419D02*
X105690000Y-109515581D01*
X106710000Y-109234419D02*
X106710000Y-109515581D01*
D16*
%TO.C,G\u002A\u002A\u002A*%
G36*
X77811124Y-80779638D02*
G01*
X77814634Y-80814446D01*
X77811124Y-80818745D01*
X77793687Y-80814719D01*
X77791570Y-80799191D01*
X77802301Y-80775049D01*
X77811124Y-80779638D01*
G37*
G36*
X96907563Y-70109465D02*
G01*
X96960398Y-70204616D01*
X96973156Y-70307928D01*
X96969255Y-70428672D01*
X96951715Y-70503632D01*
X96910330Y-70545585D01*
X96834897Y-70567307D01*
X96758161Y-70577125D01*
X96621090Y-70593042D01*
X96472699Y-70612112D01*
X96401616Y-70622028D01*
X96243500Y-70645023D01*
X96133974Y-70659665D01*
X96063488Y-70665399D01*
X96022493Y-70661669D01*
X96001438Y-70647921D01*
X95990774Y-70623600D01*
X95983752Y-70597736D01*
X95968283Y-70509951D01*
X95961900Y-70402561D01*
X95963972Y-70293091D01*
X95973868Y-70199067D01*
X95990957Y-70138013D01*
X96000746Y-70126014D01*
X96042694Y-70115034D01*
X96131200Y-70101295D01*
X96254320Y-70086366D01*
X96400114Y-70071816D01*
X96440115Y-70068301D01*
X96841570Y-70034019D01*
X96907563Y-70109465D01*
G37*
G36*
X95278543Y-70275314D02*
G01*
X95319081Y-70285207D01*
X95349066Y-70304924D01*
X95369698Y-70324561D01*
X95406622Y-70373155D01*
X95424864Y-70436189D01*
X95429215Y-70533120D01*
X95428710Y-70564228D01*
X95421419Y-70665442D01*
X95406728Y-70745478D01*
X95392401Y-70779682D01*
X95346635Y-70802042D01*
X95256166Y-70821875D01*
X95134951Y-70836136D01*
X95132963Y-70836292D01*
X94983926Y-70848436D01*
X94821665Y-70862410D01*
X94697048Y-70873731D01*
X94488322Y-70893416D01*
X94468454Y-70760927D01*
X94463685Y-70635674D01*
X94479585Y-70506199D01*
X94482767Y-70492693D01*
X94497225Y-70436116D01*
X94513634Y-70395283D01*
X94541156Y-70366525D01*
X94588951Y-70346175D01*
X94666180Y-70330564D01*
X94782006Y-70316025D01*
X94945588Y-70298890D01*
X94974214Y-70295931D01*
X95118050Y-70281540D01*
X95215513Y-70274379D01*
X95278543Y-70275314D01*
G37*
G36*
X93815769Y-70543015D02*
G01*
X93878606Y-70580989D01*
X93917762Y-70648134D01*
X93920244Y-70655023D01*
X93933834Y-70729219D01*
X93935567Y-70823859D01*
X93927265Y-70920229D01*
X93910749Y-70999614D01*
X93887842Y-71043300D01*
X93882153Y-71046254D01*
X93842632Y-71052827D01*
X93756361Y-71064794D01*
X93634841Y-71080630D01*
X93489573Y-71098812D01*
X93439261Y-71104961D01*
X93287106Y-71123924D01*
X93153371Y-71141485D01*
X93050108Y-71155996D01*
X92989366Y-71165809D01*
X92981128Y-71167620D01*
X92942231Y-71158292D01*
X92917558Y-71099336D01*
X92915135Y-71087975D01*
X92899112Y-70965392D01*
X92896722Y-70841038D01*
X92906972Y-70732471D01*
X92928874Y-70657245D01*
X92940378Y-70640716D01*
X92994869Y-70613720D01*
X93091431Y-70591353D01*
X93182353Y-70580044D01*
X93326200Y-70566724D01*
X93484061Y-70550595D01*
X93576407Y-70540354D01*
X93718590Y-70530655D01*
X93815769Y-70543015D01*
G37*
G36*
X88822889Y-59233406D02*
G01*
X88893168Y-59254598D01*
X89015032Y-59327284D01*
X89100964Y-59432126D01*
X89140803Y-59555624D01*
X89142378Y-59585685D01*
X89136751Y-59642636D01*
X89108871Y-59671629D01*
X89042242Y-59687014D01*
X89022781Y-59689726D01*
X88916541Y-59718723D01*
X88835108Y-59768527D01*
X88793128Y-59829134D01*
X88790415Y-59848439D01*
X88808930Y-59918034D01*
X88859183Y-60017159D01*
X88933233Y-60132139D01*
X89023069Y-60249209D01*
X89093315Y-60336043D01*
X89129744Y-60394210D01*
X89137611Y-60438797D01*
X89122172Y-60484893D01*
X89112016Y-60504584D01*
X89060579Y-60543814D01*
X88970832Y-60560694D01*
X88858722Y-60555178D01*
X88740196Y-60527216D01*
X88685842Y-60505870D01*
X88501796Y-60394137D01*
X88361221Y-60248709D01*
X88268263Y-60075730D01*
X88227070Y-59881344D01*
X88225379Y-59823694D01*
X88249217Y-59638697D01*
X88312473Y-59480576D01*
X88408307Y-59355159D01*
X88529880Y-59268272D01*
X88670354Y-59225745D01*
X88822889Y-59233406D01*
G37*
G36*
X97391459Y-70882902D02*
G01*
X97397457Y-70916223D01*
X97403878Y-71000839D01*
X97410415Y-71129384D01*
X97416761Y-71294497D01*
X97422609Y-71488816D01*
X97427651Y-71704976D01*
X97429248Y-71788883D01*
X97445094Y-72674711D01*
X94760249Y-72674711D01*
X92075404Y-72674711D01*
X92075404Y-72224106D01*
X92075404Y-71773501D01*
X92317378Y-71725705D01*
X92413198Y-71707607D01*
X92555962Y-71681736D01*
X92734760Y-71650017D01*
X92938685Y-71614372D01*
X93156825Y-71576724D01*
X93336605Y-71546055D01*
X93640620Y-71494519D01*
X93895413Y-71451441D01*
X94109584Y-71415405D01*
X94291735Y-71384999D01*
X94450469Y-71358809D01*
X94594384Y-71335419D01*
X94732085Y-71313418D01*
X94872171Y-71291389D01*
X95023244Y-71267921D01*
X95111085Y-71254357D01*
X95549423Y-71185998D01*
X95934721Y-71124235D01*
X96272122Y-71068201D01*
X96566771Y-71017033D01*
X96823811Y-70969866D01*
X96958891Y-70943764D01*
X97107260Y-70916120D01*
X97234929Y-70895406D01*
X97331005Y-70883157D01*
X97384592Y-70880904D01*
X97391459Y-70882902D01*
G37*
G36*
X91744212Y-59252609D02*
G01*
X91838317Y-59274957D01*
X91902311Y-59297458D01*
X92009584Y-59347610D01*
X92107248Y-59409007D01*
X92151618Y-59446396D01*
X92210081Y-59500838D01*
X92252787Y-59531517D01*
X92260309Y-59533942D01*
X92294245Y-59515938D01*
X92351810Y-59469676D01*
X92377630Y-59446090D01*
X92492982Y-59360693D01*
X92602374Y-59330444D01*
X92652356Y-59334421D01*
X92695367Y-59362078D01*
X92712734Y-59426437D01*
X92704119Y-59531270D01*
X92669182Y-59680348D01*
X92607583Y-59877440D01*
X92601978Y-59893973D01*
X92479581Y-60253348D01*
X92651453Y-60587704D01*
X92823325Y-60922060D01*
X92818131Y-61171874D01*
X92799591Y-61384242D01*
X92749783Y-61555419D01*
X92662651Y-61697180D01*
X92532141Y-61821300D01*
X92456291Y-61875435D01*
X92358012Y-61941624D01*
X92273997Y-61999941D01*
X92220525Y-62039057D01*
X92216418Y-62042345D01*
X92140301Y-62085974D01*
X92027109Y-62129427D01*
X91898032Y-62165724D01*
X91774761Y-62187828D01*
X91713069Y-62193082D01*
X91696461Y-62190645D01*
X91708776Y-62186327D01*
X91769046Y-62169393D01*
X91861198Y-62142491D01*
X91928752Y-62122386D01*
X92090069Y-62073983D01*
X91835689Y-62057627D01*
X91708985Y-62047819D01*
X91619097Y-62033046D01*
X91544233Y-62005901D01*
X91462601Y-61958972D01*
X91376952Y-61901640D01*
X91226249Y-61781033D01*
X91126337Y-61654005D01*
X91069816Y-61506724D01*
X91049288Y-61325356D01*
X91048845Y-61288248D01*
X91048845Y-61102152D01*
X90885465Y-60985718D01*
X90749752Y-60871192D01*
X90744769Y-60864546D01*
X92141081Y-60864546D01*
X92141537Y-60896003D01*
X92168096Y-60939590D01*
X92223101Y-61007930D01*
X92289702Y-61072616D01*
X92345614Y-61099639D01*
X92380910Y-61088253D01*
X92385663Y-61037715D01*
X92381191Y-61019794D01*
X92339508Y-60920724D01*
X92285667Y-60846981D01*
X92229280Y-60806917D01*
X92179959Y-60808884D01*
X92160883Y-60828347D01*
X92141081Y-60864546D01*
X90744769Y-60864546D01*
X90654886Y-60744660D01*
X90594697Y-60593476D01*
X90563016Y-60404997D01*
X90556742Y-60312009D01*
X90560407Y-60108634D01*
X91375748Y-60108634D01*
X91401630Y-60200988D01*
X91445858Y-60263917D01*
X91531289Y-60336811D01*
X91614756Y-60351688D01*
X91694174Y-60308448D01*
X91722738Y-60276909D01*
X91771932Y-60178073D01*
X91776274Y-60076554D01*
X91737614Y-59989336D01*
X91686709Y-59946302D01*
X91630134Y-59920354D01*
X91581657Y-59920966D01*
X91515037Y-59950031D01*
X91496062Y-59960046D01*
X91407198Y-60028488D01*
X91375748Y-60108634D01*
X90560407Y-60108634D01*
X90560823Y-60085561D01*
X90598898Y-59897149D01*
X90675452Y-59734112D01*
X90794966Y-59583790D01*
X90825472Y-59553111D01*
X91000837Y-59410025D01*
X91188562Y-59315671D01*
X91403615Y-59263447D01*
X91507560Y-59252349D01*
X91642289Y-59246025D01*
X91744212Y-59252609D01*
G37*
G36*
X98565657Y-59525587D02*
G01*
X98670490Y-59568342D01*
X98689288Y-59577424D01*
X98798395Y-59639997D01*
X98887863Y-59716092D01*
X98969221Y-59818479D01*
X99054000Y-59959924D01*
X99082057Y-60012325D01*
X99143955Y-60112487D01*
X99240250Y-60246157D01*
X99364061Y-60405164D01*
X99508506Y-60581337D01*
X99666703Y-60766506D01*
X99831772Y-60952501D01*
X99996829Y-61131150D01*
X100154994Y-61294283D01*
X100196394Y-61335366D01*
X100336781Y-61476694D01*
X100436734Y-61585636D01*
X100500716Y-61667559D01*
X100533195Y-61727826D01*
X100538173Y-61745989D01*
X100542029Y-61797235D01*
X100545012Y-61899228D01*
X100547062Y-62044063D01*
X100548117Y-62223832D01*
X100548117Y-62430629D01*
X100547000Y-62656547D01*
X100546060Y-62768437D01*
X100537182Y-63699692D01*
X101214519Y-63699672D01*
X101438751Y-63700202D01*
X101613269Y-63702201D01*
X101747016Y-63706267D01*
X101848931Y-63712997D01*
X101927957Y-63722987D01*
X101993032Y-63736832D01*
X102053100Y-63755131D01*
X102054860Y-63755735D01*
X102304423Y-63871776D01*
X102522708Y-64034851D01*
X102703653Y-64239029D01*
X102841198Y-64478379D01*
X102873185Y-64556403D01*
X102942261Y-64740877D01*
X102950208Y-68707794D01*
X102958155Y-72674711D01*
X100797989Y-72674711D01*
X98637823Y-72674711D01*
X98657950Y-72522986D01*
X98675685Y-72422804D01*
X98698136Y-72338777D01*
X98709602Y-72310342D01*
X98789682Y-72189252D01*
X98905846Y-72056858D01*
X99042592Y-71929776D01*
X99124714Y-71865423D01*
X99302383Y-71736143D01*
X100434170Y-71736143D01*
X101565957Y-71736143D01*
X101667505Y-71651295D01*
X101769053Y-71566447D01*
X101769624Y-68314978D01*
X101769612Y-67794854D01*
X101769360Y-67330388D01*
X101768833Y-66918579D01*
X101767994Y-66556426D01*
X101766809Y-66240927D01*
X101765243Y-65969082D01*
X101763259Y-65737888D01*
X101760823Y-65544344D01*
X101757899Y-65385449D01*
X101754451Y-65258201D01*
X101750445Y-65159599D01*
X101745846Y-65086641D01*
X101740616Y-65036326D01*
X101734722Y-65005652D01*
X101730488Y-64994773D01*
X101679208Y-64940306D01*
X101598677Y-64886779D01*
X101568600Y-64872022D01*
X101514508Y-64851093D01*
X101456305Y-64837176D01*
X101382626Y-64829537D01*
X101282109Y-64827441D01*
X101143386Y-64830155D01*
X100999134Y-64835223D01*
X100551847Y-64852439D01*
X100551847Y-65341898D01*
X100550593Y-65549458D01*
X100547141Y-65790854D01*
X100541961Y-66041325D01*
X100535519Y-66276107D01*
X100532493Y-66365676D01*
X100513139Y-66899994D01*
X100429355Y-66943321D01*
X100369700Y-66985129D01*
X100276644Y-67064199D01*
X100156326Y-67174464D01*
X100014886Y-67309855D01*
X99858465Y-67464303D01*
X99693201Y-67631740D01*
X99525234Y-67806098D01*
X99360704Y-67981309D01*
X99205752Y-68151304D01*
X99195034Y-68163286D01*
X99035708Y-68338593D01*
X98905106Y-68473506D01*
X98795464Y-68573562D01*
X98699016Y-68644295D01*
X98607999Y-68691244D01*
X98514646Y-68719944D01*
X98411194Y-68735932D01*
X98388908Y-68738065D01*
X98298369Y-68743200D01*
X98237633Y-68732356D01*
X98182627Y-68696317D01*
X98117604Y-68634205D01*
X98000115Y-68516716D01*
X97999171Y-65455586D01*
X97998861Y-65002656D01*
X97998225Y-64542759D01*
X97997287Y-64082273D01*
X97996076Y-63627575D01*
X97994615Y-63185042D01*
X97992931Y-62761050D01*
X97991051Y-62361976D01*
X97989000Y-61994198D01*
X97986804Y-61664092D01*
X97984490Y-61378034D01*
X97982082Y-61142403D01*
X97981367Y-61084157D01*
X97964507Y-59773858D01*
X98080246Y-59649780D01*
X98154276Y-59576770D01*
X98218413Y-59537233D01*
X98298807Y-59518360D01*
X98361690Y-59511960D01*
X98473154Y-59508877D01*
X98565657Y-59525587D01*
G37*
G36*
X90220831Y-57205063D02*
G01*
X90522566Y-57245149D01*
X90829968Y-57317472D01*
X91130382Y-57419711D01*
X91405529Y-57546543D01*
X91691458Y-57716889D01*
X91949137Y-57906636D01*
X92170813Y-58108822D01*
X92348737Y-58316486D01*
X92461009Y-58494460D01*
X92530413Y-58630054D01*
X92572857Y-58722997D01*
X92589201Y-58782283D01*
X92580308Y-58816903D01*
X92547040Y-58835849D01*
X92494827Y-58847311D01*
X92408355Y-58875842D01*
X92341810Y-58920118D01*
X92335391Y-58927357D01*
X92305611Y-58960751D01*
X92277733Y-58967858D01*
X92235694Y-58945256D01*
X92165471Y-58891136D01*
X91995366Y-58790432D01*
X91788629Y-58722509D01*
X91557476Y-58687670D01*
X91314126Y-58686220D01*
X91070795Y-58718460D01*
X90839700Y-58784694D01*
X90686212Y-58854432D01*
X90532118Y-58961400D01*
X90383279Y-59106090D01*
X90254958Y-59270816D01*
X90162417Y-59437896D01*
X90145692Y-59480700D01*
X90065663Y-59750515D01*
X90013588Y-60018249D01*
X89993557Y-60262541D01*
X89993465Y-60275346D01*
X89992011Y-60380244D01*
X89985093Y-60439496D01*
X89967859Y-60466113D01*
X89935457Y-60473106D01*
X89919630Y-60473325D01*
X89840655Y-60456924D01*
X89777069Y-60404673D01*
X89727071Y-60312004D01*
X89688858Y-60174345D01*
X89660628Y-59987128D01*
X89642068Y-59769399D01*
X89630707Y-59616318D01*
X89617125Y-59504313D01*
X89597242Y-59415827D01*
X89566980Y-59333304D01*
X89522257Y-59239189D01*
X89515983Y-59226789D01*
X89392699Y-59024356D01*
X89252407Y-58875334D01*
X89088125Y-58775339D01*
X88892867Y-58719985D01*
X88684600Y-58704711D01*
X88499753Y-58716105D01*
X88347611Y-58755327D01*
X88211570Y-58829937D01*
X88075027Y-58947497D01*
X88015493Y-59009381D01*
X87876650Y-59193378D01*
X87786431Y-59396621D01*
X87741498Y-59628271D01*
X87734874Y-59779821D01*
X87746319Y-59980508D01*
X87783095Y-60165416D01*
X87849928Y-60345888D01*
X87951540Y-60533267D01*
X88092654Y-60738895D01*
X88183549Y-60857224D01*
X88485318Y-61196784D01*
X88821480Y-61497933D01*
X89183456Y-61753588D01*
X89450346Y-61903061D01*
X89768330Y-62045890D01*
X90088022Y-62153417D01*
X90434148Y-62233690D01*
X90506235Y-62246750D01*
X90658600Y-62273504D01*
X90762181Y-62293297D01*
X90825983Y-62309259D01*
X90859009Y-62324523D01*
X90870262Y-62342218D01*
X90868745Y-62365476D01*
X90867455Y-62372370D01*
X90836310Y-62412492D01*
X90757281Y-62432039D01*
X90747966Y-62432890D01*
X90671383Y-62447404D01*
X90638498Y-62470820D01*
X90655542Y-62496932D01*
X90674884Y-62505717D01*
X90676441Y-62520278D01*
X90631603Y-62537950D01*
X90623556Y-62539942D01*
X90545481Y-62560530D01*
X90491570Y-62577956D01*
X90431889Y-62593275D01*
X90352990Y-62605282D01*
X90245335Y-62621676D01*
X90174204Y-62651440D01*
X90126979Y-62706892D01*
X90091039Y-62800352D01*
X90068948Y-62882548D01*
X90027847Y-63024754D01*
X89967972Y-63204232D01*
X89895226Y-63405037D01*
X89815512Y-63611226D01*
X89734733Y-63806853D01*
X89684983Y-63919630D01*
X89603081Y-64097718D01*
X89535880Y-64238029D01*
X89474692Y-64356582D01*
X89410832Y-64469398D01*
X89335611Y-64592496D01*
X89240343Y-64741897D01*
X89232523Y-64754027D01*
X89111016Y-64949717D01*
X89025688Y-65103748D01*
X88976984Y-65215182D01*
X88965353Y-65283080D01*
X88972841Y-65299708D01*
X89004846Y-65298915D01*
X89080019Y-65286502D01*
X89184573Y-65264895D01*
X89232272Y-65254049D01*
X89357998Y-65226522D01*
X89532113Y-65190975D01*
X89745160Y-65149141D01*
X89987686Y-65102754D01*
X90250233Y-65053547D01*
X90523346Y-65003252D01*
X90797571Y-64953605D01*
X91063451Y-64906337D01*
X91311531Y-64863182D01*
X91532356Y-64825874D01*
X91716470Y-64796146D01*
X91796766Y-64783933D01*
X91911160Y-64765412D01*
X92061565Y-64738749D01*
X92226579Y-64707829D01*
X92354041Y-64682777D01*
X92708753Y-64617162D01*
X93052147Y-64564886D01*
X93376509Y-64526592D01*
X93674129Y-64502926D01*
X93937293Y-64494532D01*
X94158288Y-64502052D01*
X94300895Y-64520216D01*
X94512140Y-64580139D01*
X94748654Y-64681427D01*
X95001644Y-64817685D01*
X95262316Y-64982520D01*
X95521877Y-65169539D01*
X95771533Y-65372348D01*
X96002491Y-65584553D01*
X96205958Y-65799761D01*
X96373141Y-66011578D01*
X96394321Y-66042330D01*
X96542321Y-66281072D01*
X96645585Y-66496562D01*
X96707142Y-66699601D01*
X96730017Y-66900995D01*
X96717240Y-67111545D01*
X96709066Y-67165471D01*
X96649222Y-67402499D01*
X96551224Y-67604897D01*
X96407112Y-67788328D01*
X96376652Y-67819552D01*
X96219181Y-67952120D01*
X96052288Y-68049638D01*
X95885944Y-68108767D01*
X95730117Y-68126169D01*
X95594775Y-68098507D01*
X95573393Y-68088502D01*
X95492597Y-68026571D01*
X95420472Y-67937913D01*
X95372081Y-67843955D01*
X95360392Y-67785547D01*
X95377407Y-67737057D01*
X95422790Y-67657281D01*
X95488047Y-67560566D01*
X95515940Y-67522817D01*
X95633530Y-67358387D01*
X95714334Y-67220878D01*
X95764551Y-67097295D01*
X95790384Y-66974647D01*
X95793955Y-66940331D01*
X95797533Y-66866046D01*
X95789569Y-66805205D01*
X95764052Y-66741509D01*
X95714974Y-66658659D01*
X95658790Y-66573703D01*
X95550096Y-66424226D01*
X95435387Y-66287484D01*
X95323061Y-66171828D01*
X95221518Y-66085604D01*
X95139156Y-66037163D01*
X95111895Y-66030047D01*
X95057267Y-66030244D01*
X95044357Y-66059406D01*
X95051148Y-66099786D01*
X95093307Y-66333255D01*
X95107101Y-66522657D01*
X95091681Y-66675728D01*
X95046201Y-66800208D01*
X94969811Y-66903835D01*
X94962161Y-66911634D01*
X94836031Y-67007211D01*
X94704926Y-67050367D01*
X94576660Y-67038849D01*
X94552197Y-67029853D01*
X94472901Y-66984409D01*
X94423899Y-66920044D01*
X94399122Y-66823793D01*
X94392494Y-66688637D01*
X94386666Y-66580764D01*
X94370975Y-66437622D01*
X94348107Y-66281245D01*
X94331129Y-66185355D01*
X94307363Y-66051018D01*
X94290354Y-65934719D01*
X94281933Y-65850452D01*
X94282697Y-65815158D01*
X94282617Y-65757842D01*
X94243931Y-65718106D01*
X94161342Y-65694000D01*
X94029552Y-65683575D01*
X93923705Y-65683088D01*
X93784381Y-65688537D01*
X93651569Y-65702961D01*
X93507512Y-65729287D01*
X93334456Y-65770444D01*
X93233949Y-65796844D01*
X93081714Y-65837433D01*
X92945160Y-65873409D01*
X92836536Y-65901576D01*
X92768089Y-65918738D01*
X92756059Y-65921517D01*
X92692157Y-65915606D01*
X92586901Y-65882372D01*
X92449219Y-65824700D01*
X92432293Y-65816902D01*
X92260672Y-65740814D01*
X92105146Y-65681715D01*
X91954147Y-65637550D01*
X91796107Y-65606262D01*
X91619459Y-65585795D01*
X91412634Y-65574093D01*
X91164065Y-65569099D01*
X91034871Y-65568491D01*
X90764473Y-65569943D01*
X90535767Y-65575786D01*
X90331888Y-65586963D01*
X90135970Y-65604415D01*
X89931147Y-65629084D01*
X89917769Y-65630874D01*
X89374971Y-65683201D01*
X88935205Y-65698304D01*
X88750156Y-65699824D01*
X88569144Y-65701368D01*
X88407195Y-65702804D01*
X88279337Y-65704000D01*
X88222696Y-65704574D01*
X88109496Y-65702823D01*
X88039485Y-65692315D01*
X87997438Y-65669667D01*
X87980721Y-65650819D01*
X87950599Y-65602824D01*
X87936279Y-65555397D01*
X87941129Y-65501978D01*
X87968517Y-65436008D01*
X88021810Y-65350925D01*
X88104375Y-65240170D01*
X88219578Y-65097183D01*
X88338236Y-64954301D01*
X88471760Y-64785203D01*
X88615273Y-64587554D01*
X88757936Y-64377563D01*
X88888907Y-64171438D01*
X88997344Y-63985388D01*
X89038586Y-63907221D01*
X89117774Y-63742177D01*
X89198809Y-63559558D01*
X89277806Y-63369608D01*
X89350882Y-63182572D01*
X89414152Y-63008695D01*
X89463731Y-62858223D01*
X89495736Y-62741400D01*
X89506302Y-62673611D01*
X89509006Y-62542143D01*
X89333025Y-62478715D01*
X89205571Y-62432534D01*
X89070336Y-62383167D01*
X88999135Y-62356992D01*
X88874675Y-62322599D01*
X88762441Y-62321899D01*
X88645603Y-62357782D01*
X88507331Y-62433139D01*
X88489103Y-62444588D01*
X88359770Y-62540113D01*
X88239399Y-62659269D01*
X88123852Y-62808301D01*
X88008992Y-62993456D01*
X87890681Y-63220978D01*
X87764783Y-63497114D01*
X87715949Y-63611662D01*
X87655365Y-63755173D01*
X87599186Y-63886174D01*
X87542811Y-64014905D01*
X87481639Y-64151610D01*
X87411069Y-64306528D01*
X87326501Y-64489901D01*
X87223333Y-64711970D01*
X87175699Y-64814203D01*
X87087661Y-65004226D01*
X86995907Y-65204316D01*
X86908150Y-65397512D01*
X86832106Y-65566854D01*
X86788810Y-65664780D01*
X86732513Y-65797677D01*
X86672125Y-65947358D01*
X86611237Y-66104039D01*
X86553439Y-66257935D01*
X86502323Y-66399262D01*
X86461479Y-66518235D01*
X86434500Y-66605070D01*
X86424975Y-66649983D01*
X86425874Y-66653665D01*
X86456257Y-66650360D01*
X86522047Y-66631441D01*
X86553552Y-66620753D01*
X86632333Y-66600440D01*
X86751507Y-66578603D01*
X86892985Y-66558268D01*
X86999522Y-66546153D01*
X87170301Y-66526165D01*
X87355578Y-66499826D01*
X87526276Y-66471439D01*
X87598361Y-66457557D01*
X87769735Y-66425036D01*
X87984353Y-66388516D01*
X88227131Y-66350224D01*
X88482982Y-66312388D01*
X88736824Y-66277235D01*
X88973569Y-66246992D01*
X89178135Y-66223889D01*
X89186374Y-66223049D01*
X89322876Y-66208457D01*
X89500843Y-66188312D01*
X89703564Y-66164565D01*
X89914326Y-66139169D01*
X90083545Y-66118219D01*
X90455651Y-66078247D01*
X90808924Y-66053545D01*
X91135652Y-66044173D01*
X91428121Y-66050195D01*
X91678616Y-66071673D01*
X91860075Y-66103854D01*
X92161288Y-66198324D01*
X92470339Y-66336116D01*
X92779338Y-66510744D01*
X93080396Y-66715721D01*
X93365621Y-66944560D01*
X93627124Y-67190775D01*
X93857016Y-67447879D01*
X94047406Y-67709385D01*
X94190404Y-67968807D01*
X94223554Y-68046967D01*
X94268690Y-68222869D01*
X94284462Y-68431942D01*
X94272306Y-68657435D01*
X94233661Y-68882595D01*
X94169963Y-69090671D01*
X94125479Y-69190375D01*
X94045817Y-69311200D01*
X93931023Y-69441722D01*
X93798380Y-69565300D01*
X93665169Y-69665290D01*
X93585912Y-69710009D01*
X93424066Y-69763759D01*
X93282587Y-69782038D01*
X93186456Y-69780502D01*
X93126406Y-69764846D01*
X93080169Y-69726982D01*
X93057811Y-69700385D01*
X93007679Y-69631054D01*
X92979701Y-69568168D01*
X92976195Y-69502312D01*
X92999481Y-69424074D01*
X93051879Y-69324039D01*
X93135708Y-69192793D01*
X93209675Y-69084073D01*
X93326139Y-68884791D01*
X93397062Y-68694272D01*
X93420048Y-68520141D01*
X93412341Y-68439022D01*
X93369942Y-68319004D01*
X93288559Y-68177311D01*
X93177618Y-68025396D01*
X93046544Y-67874715D01*
X92904760Y-67736724D01*
X92761693Y-67622879D01*
X92716052Y-67592715D01*
X92653817Y-67565918D01*
X92622815Y-67584191D01*
X92622333Y-67649479D01*
X92651659Y-67763728D01*
X92652498Y-67766378D01*
X92675144Y-67866965D01*
X92692656Y-67999159D01*
X92701542Y-68135926D01*
X92701812Y-68148268D01*
X92701543Y-68275900D01*
X92693372Y-68361783D01*
X92674342Y-68422621D01*
X92644647Y-68470901D01*
X92524871Y-68592747D01*
X92385681Y-68665919D01*
X92261713Y-68685796D01*
X92166276Y-68678269D01*
X92099003Y-68649824D01*
X92053986Y-68591664D01*
X92025320Y-68494991D01*
X92007096Y-68351010D01*
X92003026Y-68300552D01*
X91988665Y-68154086D01*
X91968509Y-68006441D01*
X91946250Y-67883574D01*
X91939653Y-67855181D01*
X91919110Y-67754279D01*
X91910479Y-67670414D01*
X91913504Y-67631744D01*
X91926078Y-67566669D01*
X91926994Y-67556582D01*
X92574018Y-67556582D01*
X92588683Y-67571247D01*
X92603348Y-67556582D01*
X92588683Y-67541916D01*
X92574018Y-67556582D01*
X91926994Y-67556582D01*
X91933941Y-67480048D01*
X91934208Y-67473642D01*
X91942008Y-67408690D01*
X91956307Y-67381047D01*
X91960055Y-67381819D01*
X91971729Y-67370296D01*
X91967415Y-67339792D01*
X91943056Y-67301600D01*
X91888233Y-67274970D01*
X91795419Y-67258342D01*
X91657088Y-67250156D01*
X91527435Y-67248614D01*
X91362848Y-67255970D01*
X91170130Y-67278814D01*
X90942602Y-67318313D01*
X90673582Y-67375629D01*
X90356388Y-67451930D01*
X90344919Y-67454811D01*
X90192878Y-67492159D01*
X90003918Y-67537236D01*
X89798428Y-67585249D01*
X89596797Y-67631405D01*
X89523672Y-67647854D01*
X89342641Y-67688369D01*
X89162719Y-67728698D01*
X88999814Y-67765274D01*
X88869828Y-67794525D01*
X88819746Y-67805832D01*
X88669647Y-67841760D01*
X88466721Y-67893491D01*
X88214369Y-67960121D01*
X87915994Y-68040745D01*
X87574999Y-68134458D01*
X87382563Y-68187895D01*
X86977372Y-68299085D01*
X86621884Y-68392706D01*
X86310200Y-68469881D01*
X86036422Y-68531735D01*
X85794649Y-68579391D01*
X85578983Y-68613974D01*
X85383525Y-68636607D01*
X85202375Y-68648415D01*
X85029635Y-68650522D01*
X84962817Y-68648941D01*
X84764635Y-68637525D01*
X84609725Y-68615078D01*
X84483040Y-68576879D01*
X84369533Y-68518203D01*
X84254155Y-68434330D01*
X84238639Y-68421664D01*
X84129473Y-68311508D01*
X84051684Y-68183057D01*
X84004069Y-68029588D01*
X83985425Y-67844380D01*
X83994547Y-67620711D01*
X84030232Y-67351861D01*
X84038406Y-67303741D01*
X84065024Y-67155159D01*
X84090709Y-67024005D01*
X84118244Y-66899853D01*
X84150409Y-66772279D01*
X84189986Y-66630856D01*
X84239758Y-66465160D01*
X84302506Y-66264766D01*
X84381012Y-66019248D01*
X84381818Y-66016743D01*
X84631186Y-65296111D01*
X84916412Y-64569463D01*
X85227755Y-63860668D01*
X85447857Y-63404174D01*
X85622268Y-63056247D01*
X85448136Y-62937996D01*
X85355625Y-62879302D01*
X85277326Y-62836983D01*
X85229513Y-62819789D01*
X85228206Y-62819746D01*
X85188200Y-62844629D01*
X85129632Y-62912609D01*
X85058864Y-63013680D01*
X84982258Y-63137836D01*
X84906176Y-63275071D01*
X84836981Y-63415380D01*
X84808591Y-63479676D01*
X84752234Y-63608775D01*
X84680737Y-63766496D01*
X84605042Y-63928915D01*
X84560488Y-64022128D01*
X84433887Y-64298431D01*
X84300178Y-64616604D01*
X84163322Y-64965228D01*
X84027282Y-65332886D01*
X83896020Y-65708156D01*
X83773498Y-66079622D01*
X83663678Y-66435864D01*
X83570521Y-66765463D01*
X83497991Y-67057000D01*
X83481698Y-67131293D01*
X83466474Y-67227064D01*
X83451537Y-67362106D01*
X83438787Y-67517051D01*
X83431297Y-67645358D01*
X83430197Y-67908126D01*
X83456421Y-68132384D01*
X83514472Y-68333663D01*
X83608852Y-68527492D01*
X83744067Y-68729402D01*
X83746640Y-68732854D01*
X83877965Y-68878186D01*
X84039137Y-68997237D01*
X84241304Y-69097380D01*
X84371679Y-69146272D01*
X84466598Y-69177554D01*
X84548520Y-69199700D01*
X84630896Y-69214258D01*
X84727177Y-69222780D01*
X84850813Y-69226813D01*
X85015254Y-69227909D01*
X85080138Y-69227890D01*
X85253663Y-69227095D01*
X85389945Y-69223765D01*
X85504950Y-69215837D01*
X85614644Y-69201246D01*
X85734992Y-69177926D01*
X85881959Y-69143813D01*
X86048037Y-69102715D01*
X86274766Y-69045957D01*
X86457974Y-68999828D01*
X86611074Y-68960818D01*
X86747474Y-68925415D01*
X86880585Y-68890106D01*
X87023817Y-68851381D01*
X87190582Y-68805729D01*
X87353233Y-68760954D01*
X87542893Y-68709262D01*
X87741011Y-68656256D01*
X87928800Y-68606898D01*
X88087476Y-68566151D01*
X88145150Y-68551756D01*
X88305644Y-68510904D01*
X88476489Y-68465259D01*
X88630427Y-68422179D01*
X88689735Y-68404744D01*
X88816989Y-68369637D01*
X88979318Y-68329411D01*
X89154092Y-68289488D01*
X89291005Y-68260740D01*
X89472552Y-68222585D01*
X89673247Y-68177370D01*
X89864659Y-68131633D01*
X89978291Y-68102703D01*
X90121460Y-68065949D01*
X90256163Y-68033245D01*
X90364963Y-68008725D01*
X90419586Y-67998108D01*
X90538248Y-67978738D01*
X90515773Y-68235078D01*
X90468351Y-68567847D01*
X90384268Y-68927278D01*
X90268096Y-69298307D01*
X90124407Y-69665871D01*
X90001277Y-69930316D01*
X89774121Y-70347562D01*
X89529143Y-70724077D01*
X89253796Y-71077553D01*
X88954558Y-71406177D01*
X88747888Y-71618822D01*
X89497021Y-71618822D01*
X89792667Y-71620164D01*
X90037085Y-71625295D01*
X90237669Y-71635872D01*
X90401814Y-71653551D01*
X90536914Y-71679989D01*
X90650364Y-71716843D01*
X90749556Y-71765769D01*
X90841886Y-71828425D01*
X90934747Y-71906466D01*
X90983891Y-71951966D01*
X91140340Y-72126968D01*
X91239219Y-72302293D01*
X91281593Y-72479987D01*
X91283487Y-72527154D01*
X91283487Y-72674849D01*
X89011202Y-72673623D01*
X88590658Y-72673320D01*
X88224928Y-72672842D01*
X87910164Y-72672104D01*
X87642519Y-72671023D01*
X87418147Y-72669516D01*
X87233200Y-72667500D01*
X87083832Y-72664890D01*
X86966195Y-72661605D01*
X86876442Y-72657559D01*
X86810727Y-72652670D01*
X86765202Y-72646855D01*
X86736020Y-72640030D01*
X86719335Y-72632111D01*
X86711704Y-72623769D01*
X86697911Y-72576719D01*
X86709073Y-72520256D01*
X86749288Y-72447897D01*
X86822654Y-72353160D01*
X86933265Y-72229565D01*
X87016238Y-72141959D01*
X87155559Y-71990889D01*
X87284189Y-71837437D01*
X87408658Y-71672272D01*
X87535496Y-71486059D01*
X87671234Y-71269467D01*
X87822403Y-71013163D01*
X87895397Y-70885565D01*
X88055001Y-70600519D01*
X88187962Y-70354572D01*
X88293156Y-70149952D01*
X88369459Y-69988888D01*
X88415749Y-69873608D01*
X88428387Y-69828676D01*
X88432646Y-69764345D01*
X88409215Y-69707607D01*
X88349001Y-69636762D01*
X88347152Y-69634837D01*
X88258219Y-69547336D01*
X88193072Y-69502671D01*
X88137824Y-69498713D01*
X88078590Y-69533334D01*
X88021539Y-69584928D01*
X87933916Y-69691433D01*
X87838958Y-69847119D01*
X87766133Y-69990993D01*
X87612254Y-70297152D01*
X87433849Y-70613214D01*
X87224796Y-70949511D01*
X86992892Y-71296189D01*
X86836891Y-71514805D01*
X86689620Y-71701796D01*
X86533611Y-71878023D01*
X86351400Y-72064349D01*
X86342167Y-72073441D01*
X86152829Y-72254358D01*
X85992007Y-72394695D01*
X85851441Y-72499572D01*
X85722868Y-72574110D01*
X85598028Y-72623428D01*
X85468659Y-72652646D01*
X85392545Y-72662008D01*
X85275159Y-72668363D01*
X85114152Y-72670659D01*
X84924393Y-72669293D01*
X84720752Y-72664659D01*
X84518099Y-72657153D01*
X84331305Y-72647171D01*
X84175238Y-72635108D01*
X84108933Y-72627863D01*
X83958976Y-72608833D01*
X83938873Y-73177049D01*
X83932302Y-73524311D01*
X83937430Y-73848836D01*
X83953760Y-74142136D01*
X83980792Y-74395722D01*
X84018028Y-74601105D01*
X84023936Y-74625173D01*
X84119916Y-74903105D01*
X84259214Y-75167935D01*
X84434827Y-75412827D01*
X84639754Y-75630943D01*
X84866993Y-75815447D01*
X85109542Y-75959501D01*
X85360399Y-76056270D01*
X85524741Y-76090594D01*
X85707956Y-76091176D01*
X85903175Y-76051005D01*
X86087072Y-75976154D01*
X86177318Y-75920706D01*
X86321387Y-75785133D01*
X86416076Y-75619160D01*
X86462809Y-75420176D01*
X86465370Y-75392589D01*
X86464324Y-75256664D01*
X86431172Y-75153158D01*
X86357809Y-75068987D01*
X86236135Y-74991064D01*
X86207513Y-74976203D01*
X86085421Y-74898606D01*
X86019287Y-74813621D01*
X86006411Y-74713450D01*
X86044091Y-74590294D01*
X86061416Y-74554368D01*
X86159321Y-74416763D01*
X86292396Y-74304964D01*
X86444779Y-74229262D01*
X86600610Y-74199948D01*
X86607793Y-74199884D01*
X86779326Y-74226963D01*
X86958989Y-74304904D01*
X87136834Y-74428764D01*
X87219343Y-74503776D01*
X87400356Y-74719329D01*
X87526087Y-74954214D01*
X87596290Y-75207777D01*
X87610717Y-75479364D01*
X87607099Y-75533344D01*
X87552906Y-75832558D01*
X87445848Y-76120449D01*
X87291551Y-76390159D01*
X87095639Y-76634832D01*
X86863738Y-76847612D01*
X86601474Y-77021643D01*
X86314470Y-77150067D01*
X86268013Y-77165488D01*
X86148956Y-77193629D01*
X85994668Y-77216840D01*
X85824196Y-77233619D01*
X85656584Y-77242461D01*
X85510879Y-77241863D01*
X85417436Y-77232621D01*
X85185580Y-77186185D01*
X84997218Y-77139019D01*
X84837299Y-77086738D01*
X84690770Y-77024960D01*
X84669515Y-77014844D01*
X84518791Y-76932394D01*
X84342123Y-76820400D01*
X84155552Y-76690287D01*
X83975117Y-76553479D01*
X83816859Y-76421401D01*
X83750894Y-76360548D01*
X83561461Y-76150050D01*
X83378334Y-75893858D01*
X83209055Y-75604924D01*
X83061163Y-75296203D01*
X82942201Y-74980647D01*
X82935615Y-74960102D01*
X82908557Y-74875628D01*
X82884132Y-74799406D01*
X82862197Y-74728181D01*
X82842607Y-74658699D01*
X82825219Y-74587707D01*
X82809889Y-74511949D01*
X82796472Y-74428172D01*
X82784826Y-74333122D01*
X82774805Y-74223544D01*
X82766265Y-74096184D01*
X82759064Y-73947788D01*
X82753057Y-73775101D01*
X82748100Y-73574870D01*
X82744049Y-73343840D01*
X82740760Y-73078757D01*
X82738090Y-72776367D01*
X82735893Y-72433416D01*
X82734027Y-72046648D01*
X82732347Y-71612811D01*
X82730710Y-71128650D01*
X82728971Y-70590911D01*
X82727896Y-70264287D01*
X82726053Y-69707125D01*
X82724463Y-69205411D01*
X82723160Y-68755934D01*
X82722181Y-68355482D01*
X82721560Y-68000843D01*
X82721332Y-67688807D01*
X82721533Y-67416160D01*
X82722197Y-67179691D01*
X82723359Y-66976190D01*
X82725055Y-66802443D01*
X82727319Y-66655240D01*
X82730187Y-66531368D01*
X82733694Y-66427617D01*
X82737875Y-66340773D01*
X82742764Y-66267627D01*
X82748397Y-66204965D01*
X82754810Y-66149577D01*
X82762036Y-66098251D01*
X82770112Y-66047774D01*
X82774210Y-66023437D01*
X82917243Y-65324508D01*
X83102961Y-64658016D01*
X83330347Y-64025943D01*
X83598380Y-63430269D01*
X83906041Y-62872976D01*
X84252313Y-62356043D01*
X84636174Y-61881454D01*
X85056607Y-61451187D01*
X85186784Y-61333618D01*
X85405388Y-61150276D01*
X85660719Y-60950187D01*
X85937793Y-60744299D01*
X86221625Y-60543563D01*
X86497232Y-60358926D01*
X86671970Y-60248360D01*
X86803216Y-60165247D01*
X86917215Y-60088528D01*
X87004047Y-60025218D01*
X87053792Y-59982335D01*
X87060596Y-59973467D01*
X87076356Y-59915538D01*
X87086767Y-59822677D01*
X87089261Y-59748159D01*
X87108442Y-59546476D01*
X87162980Y-59315106D01*
X87248360Y-59067396D01*
X87360070Y-58816688D01*
X87475525Y-58605921D01*
X87627498Y-58392248D01*
X87824218Y-58175352D01*
X88053469Y-57966019D01*
X88303035Y-57775035D01*
X88560699Y-57613185D01*
X88658632Y-57561346D01*
X88822606Y-57489177D01*
X89028782Y-57413741D01*
X89261300Y-57340143D01*
X89504302Y-57273490D01*
X89684988Y-57230891D01*
X89937419Y-57199536D01*
X90220831Y-57205063D01*
G37*
D14*
%TO.C,C7*%
X130928082Y-60927500D02*
X130646920Y-60927500D01*
X130928082Y-61947500D02*
X130646920Y-61947500D01*
%TO.C,R1*%
X130039999Y-74507745D02*
X130039999Y-74982261D01*
X131084999Y-74507745D02*
X131084999Y-74982261D01*
%TO.C,J2*%
X129390000Y-110109999D02*
X129390000Y-111359999D01*
X129390000Y-111359999D02*
X130640000Y-111359999D01*
X129489999Y-109299999D02*
X129489999Y-109599999D01*
X129489999Y-109599999D02*
X129690000Y-109599999D01*
X129590000Y-109299999D02*
X129590000Y-109599999D01*
X129690000Y-96939999D02*
X129690000Y-111059999D01*
X129690000Y-108499999D02*
X130299999Y-108499999D01*
X129690000Y-109299999D02*
X129489999Y-109299999D01*
X129690000Y-111059999D02*
X134410000Y-111059999D01*
X130299999Y-99499999D02*
X129690000Y-99499999D01*
X130299999Y-108499999D02*
X130300000Y-110449999D01*
X130300000Y-97549998D02*
X130299999Y-99499999D01*
X130300000Y-110449999D02*
X133800000Y-110449999D01*
X131000000Y-96939999D02*
X131000000Y-97549999D01*
X131000001Y-111059999D02*
X131000000Y-110449999D01*
X132299999Y-111059999D02*
X132300000Y-110449999D01*
X132300000Y-96939999D02*
X132300000Y-97549999D01*
X133300000Y-99899999D02*
X133800000Y-99899999D01*
X133300000Y-100099999D02*
X133300000Y-99899999D01*
X133300000Y-101899999D02*
X133800000Y-101899998D01*
X133300000Y-102099999D02*
X133300000Y-101899999D01*
X133300000Y-103899999D02*
X133800000Y-103899999D01*
X133300000Y-104099999D02*
X133300000Y-103899999D01*
X133300000Y-105899999D02*
X133800001Y-105899999D01*
X133300000Y-106099999D02*
X133300000Y-105899999D01*
X133300000Y-107899999D02*
X133800000Y-107899999D01*
X133300000Y-108099999D02*
X133300000Y-107899999D01*
X133800000Y-97549999D02*
X130300000Y-97549998D01*
X133800000Y-100099999D02*
X133300000Y-100099999D01*
X133800000Y-101999999D02*
X133300000Y-101999999D01*
X133800000Y-102099999D02*
X133300000Y-102099999D01*
X133800000Y-104099999D02*
X133300000Y-104099999D01*
X133800000Y-105999999D02*
X133300000Y-105999999D01*
X133800000Y-106099999D02*
X133300000Y-106099999D01*
X133800000Y-107999999D02*
X133300000Y-107999999D01*
X133800000Y-108099998D02*
X133300000Y-108099999D01*
X133800000Y-110449999D02*
X133800000Y-97549999D01*
X133800001Y-99999999D02*
X133300000Y-99999999D01*
X133800001Y-103999999D02*
X133300000Y-103999999D01*
X134410000Y-96939999D02*
X129690000Y-96939999D01*
X134410000Y-111059999D02*
X134410000Y-96939999D01*
%TO.C,L2*%
X134777498Y-61729722D02*
X134777498Y-62055282D01*
X135797498Y-61729722D02*
X135797498Y-62055282D01*
%TO.C,C13*%
X80990000Y-117140581D02*
X80990000Y-116859419D01*
X82010000Y-117140581D02*
X82010000Y-116859419D01*
%TO.C,R4*%
X126764998Y-65349760D02*
X126764998Y-64875244D01*
X127809998Y-65349760D02*
X127809998Y-64875244D01*
D17*
%TO.C,U4*%
X111888000Y-116537500D02*
X111888000Y-117921431D01*
X111888000Y-119598569D02*
X111888000Y-120461431D01*
X111888000Y-122138569D02*
X111888000Y-123001431D01*
X111888000Y-124678569D02*
X111888000Y-125541431D01*
X111888000Y-127218569D02*
X111888000Y-128081431D01*
X111888000Y-129758569D02*
X111888000Y-130621431D01*
X111888000Y-132298569D02*
X111888000Y-133161431D01*
X111888000Y-134838569D02*
X111888000Y-136222500D01*
X111888000Y-136222500D02*
X118492000Y-136222500D01*
X118491999Y-128081431D02*
X118492000Y-127218569D01*
X118492000Y-116537500D02*
X111888000Y-116537500D01*
X118492000Y-117921431D02*
X118492000Y-116537500D01*
X118492000Y-120461431D02*
X118492000Y-119598569D01*
X118492000Y-123001431D02*
X118491999Y-122138569D01*
X118492000Y-125541431D02*
X118492000Y-124678569D01*
X118492000Y-130621431D02*
X118492000Y-129758569D01*
X118492000Y-133019560D02*
X118491999Y-132298569D01*
X118492000Y-136222500D02*
X118492000Y-134980441D01*
X114885200Y-136222500D02*
G75*
G02*
X115494800Y-136222500I304800J0D01*
G01*
D14*
%TO.C,U1*%
X134265000Y-119859999D02*
X134265000Y-125160000D01*
X134265000Y-125160000D02*
X154705000Y-125160000D01*
X154705000Y-119860000D02*
X134265000Y-119859999D01*
X154705000Y-121510000D02*
X154705000Y-119860000D01*
X154705000Y-125160000D02*
X154705000Y-123510001D01*
X154705000Y-123510001D02*
G75*
G02*
X154705000Y-121509999I7J1000001D01*
G01*
%TO.C,C15*%
X132490000Y-122609419D02*
X132490000Y-122890581D01*
X133510000Y-122609419D02*
X133510000Y-122890581D01*
%TO.C,J3*%
X95590000Y-79740000D02*
X95590000Y-93860000D01*
X95590000Y-93860000D02*
X100310000Y-93860000D01*
X96199999Y-86800000D02*
X96700000Y-86800000D01*
X96199999Y-90800000D02*
X96700000Y-90800000D01*
X96200000Y-80350000D02*
X96200000Y-93250000D01*
X96200000Y-82700001D02*
X96700000Y-82700000D01*
X96200000Y-82800000D02*
X96700000Y-82800000D01*
X96200000Y-84700000D02*
X96700000Y-84700000D01*
X96200000Y-84800000D02*
X96700000Y-84800000D01*
X96200000Y-86700000D02*
X96700000Y-86700000D01*
X96200000Y-88700000D02*
X96700000Y-88700000D01*
X96200000Y-88800000D02*
X96700000Y-88800000D01*
X96200000Y-90700000D02*
X96700000Y-90700000D01*
X96200000Y-93250000D02*
X99700000Y-93250001D01*
X96700000Y-82700000D02*
X96700000Y-82900000D01*
X96700000Y-82900000D02*
X96200000Y-82900000D01*
X96700000Y-84700000D02*
X96700000Y-84900000D01*
X96700000Y-84900000D02*
X96199999Y-84900000D01*
X96700000Y-86700000D02*
X96700000Y-86900000D01*
X96700000Y-86900000D02*
X96200000Y-86900000D01*
X96700000Y-88700000D02*
X96700000Y-88900000D01*
X96700000Y-88900000D02*
X96200000Y-88900001D01*
X96700000Y-90700000D02*
X96700000Y-90900000D01*
X96700000Y-90900000D02*
X96200000Y-90900000D01*
X97700000Y-93860000D02*
X97700000Y-93250000D01*
X97700001Y-79740000D02*
X97700000Y-80350000D01*
X98999999Y-79740000D02*
X99000000Y-80350000D01*
X99000000Y-93860000D02*
X99000000Y-93250000D01*
X99700000Y-80350000D02*
X96200000Y-80350000D01*
X99700000Y-93250001D02*
X99700001Y-91300000D01*
X99700001Y-82300000D02*
X99700000Y-80350000D01*
X99700001Y-91300000D02*
X100310000Y-91300000D01*
X100310000Y-79740000D02*
X95590000Y-79740000D01*
X100310000Y-81500000D02*
X100510001Y-81500000D01*
X100310000Y-82300000D02*
X99700001Y-82300000D01*
X100310000Y-93860000D02*
X100310000Y-79740000D01*
X100410000Y-81500000D02*
X100410000Y-81200000D01*
X100510001Y-81200000D02*
X100310000Y-81200000D01*
X100510001Y-81500000D02*
X100510001Y-81200000D01*
X100610000Y-79440000D02*
X99360000Y-79440000D01*
X100610000Y-80690000D02*
X100610000Y-79440000D01*
%TO.C,C12*%
X134777499Y-65021919D02*
X134777499Y-65303081D01*
X135797499Y-65021919D02*
X135797499Y-65303081D01*
%TO.C,C17*%
X112859419Y-93240000D02*
X113140581Y-93240000D01*
X112859419Y-94260000D02*
X113140581Y-94260000D01*
D17*
%TO.C,U6*%
X114171296Y-92708800D02*
X116756304Y-92708800D01*
X116756304Y-83971200D02*
X114171296Y-83971200D01*
X115159000Y-92708800D02*
G75*
G02*
X115768600Y-92708800I304800J0D01*
G01*
D16*
G36*
X111755400Y-87260500D02*
G01*
X111501400Y-87260500D01*
X111501401Y-86879500D01*
X111755400Y-86879500D01*
X111755400Y-87260500D01*
G37*
%TD*%
M02*
