M48
; DRILL file {KiCad 8.0.6} date 2025-01-05T12:11:00-0500
; FORMAT={-:-/ absolute / inch / decimal}
; #@! TF.CreationDate,2025-01-05T12:11:00-05:00
; #@! TF.GenerationSoftware,Kicad,Pcbnew,8.0.6
; #@! TF.FileFunction,Plated,1,2,PTH
FMAT,2
INCH
; #@! TA.AperFunction,Plated,PTH,ViaDrill
T1C0.0118
; #@! TA.AperFunction,Plated,PTH,ComponentDrill
T2C0.0197
; #@! TA.AperFunction,Plated,PTH,ComponentDrill
T3C0.0295
; #@! TA.AperFunction,Plated,PTH,ComponentDrill
T4C0.0310
; #@! TA.AperFunction,Plated,PTH,ComponentDrill
T5C0.0315
; #@! TA.AperFunction,Plated,PTH,ComponentDrill
T6C0.0394
; #@! TA.AperFunction,Plated,PTH,ComponentDrill
T7C0.0689
; #@! TA.AperFunction,Plated,PTH,ComponentDrill
T8C0.0748
%
G90
G05
T1
X3.2185Y-4.5079
X3.3287Y-3.2087
X3.4252Y-3.2205
X3.4941Y-3.9272
X3.6319Y-3.2874
X3.6516Y-3.6909
X3.9136Y-5.1711
X4.0846Y-4.6358
X4.1181Y-4.2362
X4.124Y-5.0295
X4.2224Y-4.2028
X4.2323Y-5.3346
X4.2992Y-3.8504
X4.3465Y-3.7874
X4.4488Y-3.815
X4.4783Y-3.75
X4.5Y-3.8228
X4.7244Y-3.322
X4.7736Y-3.8484
X4.8031Y-4.1732
X4.8228Y-4.0354
X4.8273Y-4.1531
X4.872Y-5.0886
X4.9646Y-3.9724
X5.0Y-4.311
X5.0Y-5.0591
X5.0113Y-2.8706
X5.0113Y-2.4779
X5.0492Y-3.8583
X5.0615Y-2.7042
X5.0901Y-2.3007
X5.1181Y-4.7539
X5.2067Y-4.9213
X5.3346Y-3.2705
X5.3543Y-3.9764
X5.4641Y-2.4582
X5.4749Y-2.842
X5.5315Y-3.7008
X5.6718Y-2.3893
X5.7421Y-4.4213
X5.8071Y-4.4646
X6.0236Y-5.1772
T2
X3.1094Y-2.5689
X3.1094Y-2.6549
X3.1094Y-2.7408
X3.1094Y-2.8268
T3
X3.878Y-3.2205
X3.878Y-3.2992
X3.878Y-3.378
X3.878Y-3.4567
X3.878Y-3.5354
X3.878Y-3.6142
X3.878Y-3.8976
X3.878Y-3.9764
X3.878Y-4.0551
X3.878Y-4.1339
X3.878Y-4.2126
X3.878Y-4.2913
X5.1772Y-3.2705
X5.1772Y-3.3492
X5.1772Y-3.428
X5.1772Y-3.5067
X5.1772Y-3.5854
X5.1772Y-3.6642
X5.1772Y-3.8976
X5.1772Y-3.9764
X5.1772Y-4.0551
X5.1772Y-4.1339
X5.1772Y-4.2126
X5.1772Y-4.2913
T4
X4.385Y-4.6756
X4.385Y-4.7756
X4.385Y-4.8756
X4.385Y-4.9756
X4.385Y-5.0756
X4.385Y-5.1756
X4.385Y-5.2756
X4.685Y-4.6756
X4.685Y-4.7756
X4.685Y-4.8756
X4.685Y-4.9756
X4.685Y-5.0756
X4.685Y-5.1756
X4.685Y-5.2756
T5
X3.2136Y-4.7315
X3.2136Y-5.0315
X3.3136Y-4.7315
X3.3136Y-5.0315
X3.4136Y-5.0315
X3.4136Y-4.7315
X3.5136Y-4.7315
X3.5136Y-5.0315
X3.6136Y-4.7315
X3.6136Y-5.0315
X3.7136Y-4.7315
X3.7136Y-5.0315
X3.8136Y-4.7315
X3.8136Y-5.0315
X3.9136Y-4.7315
X3.9136Y-5.0315
X5.3384Y-4.6732
X5.3384Y-4.9732
X5.4384Y-4.6732
X5.4384Y-4.9732
X5.5384Y-4.6732
X5.5384Y-4.9732
X5.6384Y-4.6732
X5.6384Y-4.9732
X5.7384Y-4.6732
X5.7384Y-4.9732
X5.8384Y-4.9732
X5.8384Y-4.6732
X5.9384Y-4.6732
X5.9384Y-4.9732
X6.0384Y-4.6732
X6.0384Y-4.9732
T6
X3.1417Y-3.3693
X3.1417Y-3.4693
X3.1417Y-3.5693
X3.1417Y-3.6693
X4.2402Y-2.2697
X4.3681Y-2.2697
X4.4961Y-2.2697
X4.6201Y-2.2697
X6.0728Y-3.8929
X6.0728Y-3.9929
X6.0728Y-4.0929
X6.0728Y-4.1929
X6.1201Y-3.1791
X6.1201Y-3.6122
T7
X5.9177Y-2.9154
X5.9177Y-2.7343
T8
X5.7264Y-3.2972
X5.7264Y-3.4941
M30
