%TF.GenerationSoftware,KiCad,Pcbnew,8.0.6*%
%TF.CreationDate,2025-01-05T12:11:02-05:00*%
%TF.ProjectId,omni-wheel,6f6d6e69-2d77-4686-9565-6c2e6b696361,rev?*%
%TF.SameCoordinates,Original*%
%TF.FileFunction,Copper,L2,Bot*%
%TF.FilePolarity,Positive*%
%FSLAX46Y46*%
G04 Gerber Fmt 4.6, Leading zero omitted, Abs format (unit mm)*
G04 Created by KiCad (PCBNEW 8.0.6) date 2025-01-05 12:11:02*
%MOMM*%
%LPD*%
G01*
G04 APERTURE LIST*
G04 Aperture macros list*
%AMRoundRect*
0 Rectangle with rounded corners*
0 $1 Rounding radius*
0 $2 $3 $4 $5 $6 $7 $8 $9 X,Y pos of 4 corners*
0 Add a 4 corners polygon primitive as box body*
4,1,4,$2,$3,$4,$5,$6,$7,$8,$9,$2,$3,0*
0 Add four circle primitives for the rounded corners*
1,1,$1+$1,$2,$3*
1,1,$1+$1,$4,$5*
1,1,$1+$1,$6,$7*
1,1,$1+$1,$8,$9*
0 Add four rect primitives between the rounded corners*
20,1,$1+$1,$2,$3,$4,$5,0*
20,1,$1+$1,$4,$5,$6,$7,0*
20,1,$1+$1,$6,$7,$8,$9,0*
20,1,$1+$1,$8,$9,$2,$3,0*%
G04 Aperture macros list end*
%ADD10C,0.300000*%
%TA.AperFunction,NonConductor*%
%ADD11C,0.300000*%
%TD*%
%TA.AperFunction,NonConductor*%
%ADD12C,0.200000*%
%TD*%
%TA.AperFunction,ComponentPad*%
%ADD13R,1.000000X1.000000*%
%TD*%
%TA.AperFunction,ComponentPad*%
%ADD14RoundRect,0.250000X-0.625000X0.350000X-0.625000X-0.350000X0.625000X-0.350000X0.625000X0.350000X0*%
%TD*%
%TA.AperFunction,ComponentPad*%
%ADD15O,1.750000X1.200000*%
%TD*%
%TA.AperFunction,ComponentPad*%
%ADD16R,1.700000X1.700000*%
%TD*%
%TA.AperFunction,ComponentPad*%
%ADD17O,1.700000X1.700000*%
%TD*%
%TA.AperFunction,ComponentPad*%
%ADD18R,2.000000X2.000000*%
%TD*%
%TA.AperFunction,ComponentPad*%
%ADD19R,1.600000X1.600000*%
%TD*%
%TA.AperFunction,ComponentPad*%
%ADD20O,1.600000X1.600000*%
%TD*%
%TA.AperFunction,ComponentPad*%
%ADD21C,1.400000*%
%TD*%
%TA.AperFunction,ComponentPad*%
%ADD22RoundRect,0.770000X-0.980000X0.980000X-0.980000X-0.980000X0.980000X-0.980000X0.980000X0.980000X0*%
%TD*%
%TA.AperFunction,ComponentPad*%
%ADD23C,3.500000*%
%TD*%
%TA.AperFunction,ComponentPad*%
%ADD24RoundRect,0.250000X0.625000X-0.350000X0.625000X0.350000X-0.625000X0.350000X-0.625000X-0.350000X0*%
%TD*%
%TA.AperFunction,ComponentPad*%
%ADD25R,2.625000X2.625000*%
%TD*%
%TA.AperFunction,ComponentPad*%
%ADD26C,2.625000*%
%TD*%
%TA.AperFunction,ComponentPad*%
%ADD27R,1.295400X1.295400*%
%TD*%
%TA.AperFunction,ComponentPad*%
%ADD28C,1.295400*%
%TD*%
%TA.AperFunction,ViaPad*%
%ADD29C,0.600000*%
%TD*%
%TA.AperFunction,Conductor*%
%ADD30C,0.200000*%
%TD*%
%TA.AperFunction,Conductor*%
%ADD31C,0.400000*%
%TD*%
G04 APERTURE END LIST*
D10*
D11*
X110607144Y-143021185D02*
X110464287Y-142949757D01*
X110464287Y-142949757D02*
X110392858Y-142878328D01*
X110392858Y-142878328D02*
X110321430Y-142735471D01*
X110321430Y-142735471D02*
X110321430Y-142664042D01*
X110321430Y-142664042D02*
X110392858Y-142521185D01*
X110392858Y-142521185D02*
X110464287Y-142449757D01*
X110464287Y-142449757D02*
X110607144Y-142378328D01*
X110607144Y-142378328D02*
X110892858Y-142378328D01*
X110892858Y-142378328D02*
X111035716Y-142449757D01*
X111035716Y-142449757D02*
X111107144Y-142521185D01*
X111107144Y-142521185D02*
X111178573Y-142664042D01*
X111178573Y-142664042D02*
X111178573Y-142735471D01*
X111178573Y-142735471D02*
X111107144Y-142878328D01*
X111107144Y-142878328D02*
X111035716Y-142949757D01*
X111035716Y-142949757D02*
X110892858Y-143021185D01*
X110892858Y-143021185D02*
X110607144Y-143021185D01*
X110607144Y-143021185D02*
X110464287Y-143092614D01*
X110464287Y-143092614D02*
X110392858Y-143164042D01*
X110392858Y-143164042D02*
X110321430Y-143306900D01*
X110321430Y-143306900D02*
X110321430Y-143592614D01*
X110321430Y-143592614D02*
X110392858Y-143735471D01*
X110392858Y-143735471D02*
X110464287Y-143806900D01*
X110464287Y-143806900D02*
X110607144Y-143878328D01*
X110607144Y-143878328D02*
X110892858Y-143878328D01*
X110892858Y-143878328D02*
X111035716Y-143806900D01*
X111035716Y-143806900D02*
X111107144Y-143735471D01*
X111107144Y-143735471D02*
X111178573Y-143592614D01*
X111178573Y-143592614D02*
X111178573Y-143306900D01*
X111178573Y-143306900D02*
X111107144Y-143164042D01*
X111107144Y-143164042D02*
X111035716Y-143092614D01*
X111035716Y-143092614D02*
X110892858Y-143021185D01*
X112107144Y-142378328D02*
X112250001Y-142378328D01*
X112250001Y-142378328D02*
X112392858Y-142449757D01*
X112392858Y-142449757D02*
X112464287Y-142521185D01*
X112464287Y-142521185D02*
X112535715Y-142664042D01*
X112535715Y-142664042D02*
X112607144Y-142949757D01*
X112607144Y-142949757D02*
X112607144Y-143306900D01*
X112607144Y-143306900D02*
X112535715Y-143592614D01*
X112535715Y-143592614D02*
X112464287Y-143735471D01*
X112464287Y-143735471D02*
X112392858Y-143806900D01*
X112392858Y-143806900D02*
X112250001Y-143878328D01*
X112250001Y-143878328D02*
X112107144Y-143878328D01*
X112107144Y-143878328D02*
X111964287Y-143806900D01*
X111964287Y-143806900D02*
X111892858Y-143735471D01*
X111892858Y-143735471D02*
X111821429Y-143592614D01*
X111821429Y-143592614D02*
X111750001Y-143306900D01*
X111750001Y-143306900D02*
X111750001Y-142949757D01*
X111750001Y-142949757D02*
X111821429Y-142664042D01*
X111821429Y-142664042D02*
X111892858Y-142521185D01*
X111892858Y-142521185D02*
X111964287Y-142449757D01*
X111964287Y-142449757D02*
X112107144Y-142378328D01*
X113250000Y-143735471D02*
X113321429Y-143806900D01*
X113321429Y-143806900D02*
X113250000Y-143878328D01*
X113250000Y-143878328D02*
X113178572Y-143806900D01*
X113178572Y-143806900D02*
X113250000Y-143735471D01*
X113250000Y-143735471D02*
X113250000Y-143878328D01*
X114250001Y-142378328D02*
X114392858Y-142378328D01*
X114392858Y-142378328D02*
X114535715Y-142449757D01*
X114535715Y-142449757D02*
X114607144Y-142521185D01*
X114607144Y-142521185D02*
X114678572Y-142664042D01*
X114678572Y-142664042D02*
X114750001Y-142949757D01*
X114750001Y-142949757D02*
X114750001Y-143306900D01*
X114750001Y-143306900D02*
X114678572Y-143592614D01*
X114678572Y-143592614D02*
X114607144Y-143735471D01*
X114607144Y-143735471D02*
X114535715Y-143806900D01*
X114535715Y-143806900D02*
X114392858Y-143878328D01*
X114392858Y-143878328D02*
X114250001Y-143878328D01*
X114250001Y-143878328D02*
X114107144Y-143806900D01*
X114107144Y-143806900D02*
X114035715Y-143735471D01*
X114035715Y-143735471D02*
X113964286Y-143592614D01*
X113964286Y-143592614D02*
X113892858Y-143306900D01*
X113892858Y-143306900D02*
X113892858Y-142949757D01*
X113892858Y-142949757D02*
X113964286Y-142664042D01*
X113964286Y-142664042D02*
X114035715Y-142521185D01*
X114035715Y-142521185D02*
X114107144Y-142449757D01*
X114107144Y-142449757D02*
X114250001Y-142378328D01*
X115678572Y-142378328D02*
X115821429Y-142378328D01*
X115821429Y-142378328D02*
X115964286Y-142449757D01*
X115964286Y-142449757D02*
X116035715Y-142521185D01*
X116035715Y-142521185D02*
X116107143Y-142664042D01*
X116107143Y-142664042D02*
X116178572Y-142949757D01*
X116178572Y-142949757D02*
X116178572Y-143306900D01*
X116178572Y-143306900D02*
X116107143Y-143592614D01*
X116107143Y-143592614D02*
X116035715Y-143735471D01*
X116035715Y-143735471D02*
X115964286Y-143806900D01*
X115964286Y-143806900D02*
X115821429Y-143878328D01*
X115821429Y-143878328D02*
X115678572Y-143878328D01*
X115678572Y-143878328D02*
X115535715Y-143806900D01*
X115535715Y-143806900D02*
X115464286Y-143735471D01*
X115464286Y-143735471D02*
X115392857Y-143592614D01*
X115392857Y-143592614D02*
X115321429Y-143306900D01*
X115321429Y-143306900D02*
X115321429Y-142949757D01*
X115321429Y-142949757D02*
X115392857Y-142664042D01*
X115392857Y-142664042D02*
X115464286Y-142521185D01*
X115464286Y-142521185D02*
X115535715Y-142449757D01*
X115535715Y-142449757D02*
X115678572Y-142378328D01*
X117107143Y-142378328D02*
X117250000Y-142378328D01*
X117250000Y-142378328D02*
X117392857Y-142449757D01*
X117392857Y-142449757D02*
X117464286Y-142521185D01*
X117464286Y-142521185D02*
X117535714Y-142664042D01*
X117535714Y-142664042D02*
X117607143Y-142949757D01*
X117607143Y-142949757D02*
X117607143Y-143306900D01*
X117607143Y-143306900D02*
X117535714Y-143592614D01*
X117535714Y-143592614D02*
X117464286Y-143735471D01*
X117464286Y-143735471D02*
X117392857Y-143806900D01*
X117392857Y-143806900D02*
X117250000Y-143878328D01*
X117250000Y-143878328D02*
X117107143Y-143878328D01*
X117107143Y-143878328D02*
X116964286Y-143806900D01*
X116964286Y-143806900D02*
X116892857Y-143735471D01*
X116892857Y-143735471D02*
X116821428Y-143592614D01*
X116821428Y-143592614D02*
X116750000Y-143306900D01*
X116750000Y-143306900D02*
X116750000Y-142949757D01*
X116750000Y-142949757D02*
X116821428Y-142664042D01*
X116821428Y-142664042D02*
X116892857Y-142521185D01*
X116892857Y-142521185D02*
X116964286Y-142449757D01*
X116964286Y-142449757D02*
X117107143Y-142378328D01*
X118535714Y-142378328D02*
X118678571Y-142378328D01*
X118678571Y-142378328D02*
X118821428Y-142449757D01*
X118821428Y-142449757D02*
X118892857Y-142521185D01*
X118892857Y-142521185D02*
X118964285Y-142664042D01*
X118964285Y-142664042D02*
X119035714Y-142949757D01*
X119035714Y-142949757D02*
X119035714Y-143306900D01*
X119035714Y-143306900D02*
X118964285Y-143592614D01*
X118964285Y-143592614D02*
X118892857Y-143735471D01*
X118892857Y-143735471D02*
X118821428Y-143806900D01*
X118821428Y-143806900D02*
X118678571Y-143878328D01*
X118678571Y-143878328D02*
X118535714Y-143878328D01*
X118535714Y-143878328D02*
X118392857Y-143806900D01*
X118392857Y-143806900D02*
X118321428Y-143735471D01*
X118321428Y-143735471D02*
X118249999Y-143592614D01*
X118249999Y-143592614D02*
X118178571Y-143306900D01*
X118178571Y-143306900D02*
X118178571Y-142949757D01*
X118178571Y-142949757D02*
X118249999Y-142664042D01*
X118249999Y-142664042D02*
X118321428Y-142521185D01*
X118321428Y-142521185D02*
X118392857Y-142449757D01*
X118392857Y-142449757D02*
X118535714Y-142378328D01*
X120821427Y-143878328D02*
X120821427Y-142878328D01*
X120821427Y-143021185D02*
X120892856Y-142949757D01*
X120892856Y-142949757D02*
X121035713Y-142878328D01*
X121035713Y-142878328D02*
X121249999Y-142878328D01*
X121249999Y-142878328D02*
X121392856Y-142949757D01*
X121392856Y-142949757D02*
X121464285Y-143092614D01*
X121464285Y-143092614D02*
X121464285Y-143878328D01*
X121464285Y-143092614D02*
X121535713Y-142949757D01*
X121535713Y-142949757D02*
X121678570Y-142878328D01*
X121678570Y-142878328D02*
X121892856Y-142878328D01*
X121892856Y-142878328D02*
X122035713Y-142949757D01*
X122035713Y-142949757D02*
X122107142Y-143092614D01*
X122107142Y-143092614D02*
X122107142Y-143878328D01*
X122821427Y-143878328D02*
X122821427Y-142878328D01*
X122821427Y-143021185D02*
X122892856Y-142949757D01*
X122892856Y-142949757D02*
X123035713Y-142878328D01*
X123035713Y-142878328D02*
X123249999Y-142878328D01*
X123249999Y-142878328D02*
X123392856Y-142949757D01*
X123392856Y-142949757D02*
X123464285Y-143092614D01*
X123464285Y-143092614D02*
X123464285Y-143878328D01*
X123464285Y-143092614D02*
X123535713Y-142949757D01*
X123535713Y-142949757D02*
X123678570Y-142878328D01*
X123678570Y-142878328D02*
X123892856Y-142878328D01*
X123892856Y-142878328D02*
X124035713Y-142949757D01*
X124035713Y-142949757D02*
X124107142Y-143092614D01*
X124107142Y-143092614D02*
X124107142Y-143878328D01*
D12*
X157250000Y-140000000D02*
X157250000Y-145586420D01*
X77250001Y-140000000D02*
X77250001Y-145586420D01*
X157250000Y-145000000D02*
X77250001Y-145000000D01*
X157250000Y-145000000D02*
X77250001Y-145000000D01*
X157250000Y-145000000D02*
X156123496Y-145586421D01*
X157250000Y-145000000D02*
X156123496Y-144413579D01*
X77250001Y-145000000D02*
X78376505Y-144413579D01*
X77250001Y-145000000D02*
X78376505Y-145586421D01*
D10*
D11*
X66074792Y-90790726D02*
X66146137Y-90647827D01*
X66146137Y-90647827D02*
X66217524Y-90576357D01*
X66217524Y-90576357D02*
X66360339Y-90504844D01*
X66360339Y-90504844D02*
X66431768Y-90504802D01*
X66431768Y-90504802D02*
X66574667Y-90576147D01*
X66574667Y-90576147D02*
X66646137Y-90647534D01*
X66646137Y-90647534D02*
X66717649Y-90790349D01*
X66717649Y-90790349D02*
X66717817Y-91076063D01*
X66717817Y-91076063D02*
X66646472Y-91218962D01*
X66646472Y-91218962D02*
X66575086Y-91290433D01*
X66575086Y-91290433D02*
X66432271Y-91361945D01*
X66432271Y-91361945D02*
X66360842Y-91361987D01*
X66360842Y-91361987D02*
X66217943Y-91290642D01*
X66217943Y-91290642D02*
X66146472Y-91219256D01*
X66146472Y-91219256D02*
X66074960Y-91076441D01*
X66074960Y-91076441D02*
X66074792Y-90790726D01*
X66074792Y-90790726D02*
X66003280Y-90647911D01*
X66003280Y-90647911D02*
X65931810Y-90576524D01*
X65931810Y-90576524D02*
X65788910Y-90505180D01*
X65788910Y-90505180D02*
X65503196Y-90505347D01*
X65503196Y-90505347D02*
X65360381Y-90576860D01*
X65360381Y-90576860D02*
X65288994Y-90648330D01*
X65288994Y-90648330D02*
X65217650Y-90791229D01*
X65217650Y-90791229D02*
X65217817Y-91076944D01*
X65217817Y-91076944D02*
X65289330Y-91219759D01*
X65289330Y-91219759D02*
X65360800Y-91291145D01*
X65360800Y-91291145D02*
X65503699Y-91362490D01*
X65503699Y-91362490D02*
X65789413Y-91362322D01*
X65789413Y-91362322D02*
X65932229Y-91290810D01*
X65932229Y-91290810D02*
X66003615Y-91219340D01*
X66003615Y-91219340D02*
X66074960Y-91076441D01*
X66718781Y-92718920D02*
X66718362Y-92004634D01*
X66718362Y-92004634D02*
X66004035Y-91933625D01*
X66004035Y-91933625D02*
X66075505Y-92005011D01*
X66075505Y-92005011D02*
X66147017Y-92147827D01*
X66147017Y-92147827D02*
X66147227Y-92504969D01*
X66147227Y-92504969D02*
X66075882Y-92647868D01*
X66075882Y-92647868D02*
X66004496Y-92719339D01*
X66004496Y-92719339D02*
X65861680Y-92790851D01*
X65861680Y-92790851D02*
X65504538Y-92791061D01*
X65504538Y-92791061D02*
X65361639Y-92719716D01*
X65361639Y-92719716D02*
X65290168Y-92648329D01*
X65290168Y-92648329D02*
X65218656Y-92505514D01*
X65218656Y-92505514D02*
X65218446Y-92148371D01*
X65218446Y-92148371D02*
X65289791Y-92005472D01*
X65289791Y-92005472D02*
X65361177Y-91934002D01*
X65362058Y-93434001D02*
X65290671Y-93505472D01*
X65290671Y-93505472D02*
X65219201Y-93434085D01*
X65219201Y-93434085D02*
X65290587Y-93362615D01*
X65290587Y-93362615D02*
X65362058Y-93434001D01*
X65362058Y-93434001D02*
X65219201Y-93434085D01*
X66576721Y-94076146D02*
X66648191Y-94147533D01*
X66648191Y-94147533D02*
X66719703Y-94290348D01*
X66719703Y-94290348D02*
X66719913Y-94647491D01*
X66719913Y-94647491D02*
X66648568Y-94790390D01*
X66648568Y-94790390D02*
X66577182Y-94861860D01*
X66577182Y-94861860D02*
X66434366Y-94933373D01*
X66434366Y-94933373D02*
X66291509Y-94933456D01*
X66291509Y-94933456D02*
X66077182Y-94862154D01*
X66077182Y-94862154D02*
X65219536Y-94005514D01*
X65219536Y-94005514D02*
X65220081Y-94934085D01*
X66720626Y-95861776D02*
X66720709Y-96004633D01*
X66720709Y-96004633D02*
X66649365Y-96147532D01*
X66649365Y-96147532D02*
X66577978Y-96219002D01*
X66577978Y-96219002D02*
X66435163Y-96290515D01*
X66435163Y-96290515D02*
X66149491Y-96362111D01*
X66149491Y-96362111D02*
X65792348Y-96362321D01*
X65792348Y-96362321D02*
X65506592Y-96291060D01*
X65506592Y-96291060D02*
X65363693Y-96219715D01*
X65363693Y-96219715D02*
X65292222Y-96148328D01*
X65292222Y-96148328D02*
X65220710Y-96005513D01*
X65220710Y-96005513D02*
X65220626Y-95862656D01*
X65220626Y-95862656D02*
X65291971Y-95719757D01*
X65291971Y-95719757D02*
X65363357Y-95648286D01*
X65363357Y-95648286D02*
X65506172Y-95576774D01*
X65506172Y-95576774D02*
X65791845Y-95505178D01*
X65791845Y-95505178D02*
X66148988Y-95504968D01*
X66148988Y-95504968D02*
X66434744Y-95576229D01*
X66434744Y-95576229D02*
X66577643Y-95647574D01*
X66577643Y-95647574D02*
X66649113Y-95718961D01*
X66649113Y-95718961D02*
X66720626Y-95861776D01*
X66721464Y-97290346D02*
X66721548Y-97433204D01*
X66721548Y-97433204D02*
X66650203Y-97576103D01*
X66650203Y-97576103D02*
X66578816Y-97647573D01*
X66578816Y-97647573D02*
X66436001Y-97719085D01*
X66436001Y-97719085D02*
X66150329Y-97790682D01*
X66150329Y-97790682D02*
X65793186Y-97790891D01*
X65793186Y-97790891D02*
X65507430Y-97719630D01*
X65507430Y-97719630D02*
X65364531Y-97648286D01*
X65364531Y-97648286D02*
X65293060Y-97576899D01*
X65293060Y-97576899D02*
X65221548Y-97434084D01*
X65221548Y-97434084D02*
X65221464Y-97291227D01*
X65221464Y-97291227D02*
X65292809Y-97148328D01*
X65292809Y-97148328D02*
X65364196Y-97076857D01*
X65364196Y-97076857D02*
X65507011Y-97005345D01*
X65507011Y-97005345D02*
X65792683Y-96933749D01*
X65792683Y-96933749D02*
X66149826Y-96933539D01*
X66149826Y-96933539D02*
X66435582Y-97004800D01*
X66435582Y-97004800D02*
X66578481Y-97076145D01*
X66578481Y-97076145D02*
X66649952Y-97147531D01*
X66649952Y-97147531D02*
X66721464Y-97290346D01*
X66722051Y-98290346D02*
X66722596Y-99218917D01*
X66722596Y-99218917D02*
X66150874Y-98719253D01*
X66150874Y-98719253D02*
X66151000Y-98933538D01*
X66151000Y-98933538D02*
X66079655Y-99076437D01*
X66079655Y-99076437D02*
X66008268Y-99147908D01*
X66008268Y-99147908D02*
X65865453Y-99219420D01*
X65865453Y-99219420D02*
X65508310Y-99219630D01*
X65508310Y-99219630D02*
X65365411Y-99148285D01*
X65365411Y-99148285D02*
X65293941Y-99076898D01*
X65293941Y-99076898D02*
X65222428Y-98934083D01*
X65222428Y-98934083D02*
X65222177Y-98505512D01*
X65222177Y-98505512D02*
X65293522Y-98362613D01*
X65293522Y-98362613D02*
X65364908Y-98291142D01*
X65223644Y-101005511D02*
X66223644Y-101004924D01*
X66080787Y-101005008D02*
X66152257Y-101076394D01*
X66152257Y-101076394D02*
X66223770Y-101219210D01*
X66223770Y-101219210D02*
X66223895Y-101433495D01*
X66223895Y-101433495D02*
X66152551Y-101576394D01*
X66152551Y-101576394D02*
X66009735Y-101647907D01*
X66009735Y-101647907D02*
X65224021Y-101648368D01*
X66009735Y-101647907D02*
X66152634Y-101719251D01*
X66152634Y-101719251D02*
X66224147Y-101862067D01*
X66224147Y-101862067D02*
X66224273Y-102076352D01*
X66224273Y-102076352D02*
X66152928Y-102219251D01*
X66152928Y-102219251D02*
X66010113Y-102290764D01*
X66010113Y-102290764D02*
X65224398Y-102291225D01*
X65224818Y-103005510D02*
X66224817Y-103004924D01*
X66081960Y-103005007D02*
X66153431Y-103076394D01*
X66153431Y-103076394D02*
X66224943Y-103219209D01*
X66224943Y-103219209D02*
X66225069Y-103433495D01*
X66225069Y-103433495D02*
X66153724Y-103576394D01*
X66153724Y-103576394D02*
X66010909Y-103647906D01*
X66010909Y-103647906D02*
X65225195Y-103648368D01*
X66010909Y-103647906D02*
X66153808Y-103719251D01*
X66153808Y-103719251D02*
X66225320Y-103862066D01*
X66225320Y-103862066D02*
X66225446Y-104076352D01*
X66225446Y-104076352D02*
X66154102Y-104219251D01*
X66154102Y-104219251D02*
X66011286Y-104290763D01*
X66011286Y-104290763D02*
X65225572Y-104291225D01*
D12*
X80174874Y-54825167D02*
X63488457Y-54834959D01*
X80224874Y-140025419D02*
X63538457Y-140035211D01*
X64074877Y-54834616D02*
X64124877Y-140034868D01*
X64074877Y-54834616D02*
X64124877Y-140034868D01*
X64074877Y-54834616D02*
X64661959Y-55960775D01*
X64074877Y-54834616D02*
X63489117Y-55961464D01*
X64124877Y-140034868D02*
X63537795Y-138908709D01*
X64124877Y-140034868D02*
X64710637Y-138908020D01*
D13*
%TO.P,J13,1,Pin_1*%
%TO.N,+3.3V*%
X78980000Y-69616666D03*
%TD*%
D14*
%TO.P,J4,1,Pin_1*%
%TO.N,/Motor3_M1*%
X98500000Y-99000000D03*
D15*
%TO.P,J4,2,Pin_2*%
%TO.N,GND*%
X98500000Y-101000001D03*
%TO.P,J4,3,Pin_3*%
%TO.N,/Motor3_ENCA*%
X98500000Y-103000000D03*
%TO.P,J4,4,Pin_4*%
%TO.N,/Motor3_ENCB*%
X98500000Y-105000000D03*
%TO.P,J4,5,Pin_5*%
%TO.N,+3.3V*%
X98500000Y-107000000D03*
%TO.P,J4,6,Pin_6*%
%TO.N,/Motor3_M2*%
X98500000Y-109000000D03*
%TD*%
D16*
%TO.P,J5,1,Pin_1*%
%TO.N,Net-(J5-Pin_1)*%
X79800000Y-93200000D03*
D17*
%TO.P,J5,2,Pin_2*%
%TO.N,Net-(J5-Pin_2)*%
X79800000Y-90660000D03*
%TO.P,J5,3,Pin_3*%
%TO.N,Net-(J5-Pin_3)*%
X79800000Y-88120001D03*
%TO.P,J5,4,Pin_4*%
%TO.N,GND*%
X79800000Y-85580000D03*
%TD*%
D16*
%TO.P,J15,1,Pin_1*%
%TO.N,/UART_RPI_RX*%
X154250000Y-106500000D03*
D17*
%TO.P,J15,2,Pin_2*%
%TO.N,/UART_RPI_TX*%
X154250000Y-103960000D03*
%TO.P,J15,3,Pin_3*%
%TO.N,+5V*%
X154250000Y-101420001D03*
%TO.P,J15,4,Pin_4*%
%TO.N,GND*%
X154250000Y-98880000D03*
%TD*%
D18*
%TO.P,J11,1,Pin_1*%
%TO.N,GND*%
X107700000Y-57650000D03*
%TD*%
%TO.P,J10,1,Pin_1*%
%TO.N,+5V*%
X110950000Y-57650000D03*
%TD*%
D13*
%TO.P,J14,1,Pin_1*%
%TO.N,GND*%
X78980000Y-71800000D03*
%TD*%
D19*
%TO.P,U2,1,1\u002C2EN*%
%TO.N,/Motor3_EN*%
X81625001Y-127800000D03*
D20*
%TO.P,U2,2,1A*%
%TO.N,/Motor3_1A*%
X84165001Y-127800000D03*
%TO.P,U2,3,1Y*%
%TO.N,/Motor3_M1*%
X86705000Y-127800000D03*
%TO.P,U2,4,GND*%
%TO.N,GND*%
X89245001Y-127800000D03*
%TO.P,U2,5,GND*%
X91785001Y-127800000D03*
%TO.P,U2,6,2Y*%
%TO.N,/Motor3_M2*%
X94325001Y-127800000D03*
%TO.P,U2,7,2A*%
%TO.N,/Motor3_2A*%
X96865001Y-127800000D03*
%TO.P,U2,8,VCC2*%
%TO.N,+12V*%
X99405002Y-127800000D03*
%TO.P,U2,9,3\u002C4EN*%
%TO.N,/Motor4_EN*%
X99405001Y-120180000D03*
%TO.P,U2,10,3A*%
%TO.N,/Motor4_3A*%
X96865001Y-120180000D03*
%TO.P,U2,11,3Y*%
%TO.N,/Motor4_M1*%
X94325001Y-120180000D03*
%TO.P,U2,12,GND*%
%TO.N,GND*%
X91785001Y-120180000D03*
%TO.P,U2,13,GND*%
X89245001Y-120180000D03*
%TO.P,U2,14,4Y*%
%TO.N,/Motor4_M2*%
X86705001Y-120180000D03*
%TO.P,U2,15,4A*%
%TO.N,/Motor4_4A*%
X84165001Y-120180000D03*
%TO.P,U2,16,VCC1*%
%TO.N,+5V*%
X81625001Y-120180000D03*
%TD*%
D21*
%TO.P,J7,*%
%TO.N,*%
X155450000Y-80750000D03*
X155450000Y-91750000D03*
D22*
%TO.P,J7,1,Pin_1*%
%TO.N,GND*%
X145450000Y-88750000D03*
D23*
%TO.P,J7,2,Pin_2*%
%TO.N,Net-(J7-Pin_2)*%
X145450000Y-83750000D03*
%TD*%
D13*
%TO.P,J12,1,Pin_1*%
%TO.N,+5V*%
X78980000Y-67433333D03*
%TD*%
D24*
%TO.P,J6,1,Pin_1*%
%TO.N,/Motor1_M1*%
X131500000Y-93070000D03*
D15*
%TO.P,J6,2,Pin_2*%
%TO.N,GND*%
X131500000Y-91069999D03*
%TO.P,J6,3,Pin_3*%
%TO.N,/Motor1_ENCA*%
X131500000Y-89070000D03*
%TO.P,J6,4,Pin_4*%
%TO.N,/Motor1_ENCB*%
X131500000Y-87070000D03*
%TO.P,J6,5,Pin_5*%
%TO.N,+3.3V*%
X131500000Y-85070000D03*
%TO.P,J6,6,Pin_6*%
%TO.N,/Motor1_M2*%
X131500000Y-83070000D03*
%TD*%
D25*
%TO.P,SW1,1,A*%
%TO.N,Net-(J7-Pin_2)*%
X150310000Y-74050000D03*
D26*
%TO.P,SW1,2,B*%
%TO.N,+12V*%
X150310001Y-69450000D03*
%TD*%
D18*
%TO.P,J9,1,Pin_1*%
%TO.N,/UART_RC_TX*%
X114200000Y-57650000D03*
%TD*%
D13*
%TO.P,J1,1,Pin_1*%
%TO.N,+12V*%
X78980000Y-65250000D03*
%TD*%
D18*
%TO.P,J8,1,Pin_1*%
%TO.N,/UART_RC_RX*%
X117350000Y-57650000D03*
%TD*%
D24*
%TO.P,J2,1,Pin_1*%
%TO.N,/Motor2_M1*%
X131500000Y-108999999D03*
D15*
%TO.P,J2,2,Pin_2*%
%TO.N,GND*%
X131500000Y-106999998D03*
%TO.P,J2,3,Pin_3*%
%TO.N,/Motor2_ENCA*%
X131500000Y-104999999D03*
%TO.P,J2,4,Pin_4*%
%TO.N,/Motor2_ENCB*%
X131500000Y-102999999D03*
%TO.P,J2,5,Pin_5*%
%TO.N,+3.3V*%
X131500000Y-100999999D03*
%TO.P,J2,6,Pin_6*%
%TO.N,/Motor2_M2*%
X131500000Y-98999999D03*
%TD*%
D27*
%TO.P,U4,1,1A*%
%TO.N,unconnected-(U4-1A-Pad1)*%
X119000000Y-134000000D03*
D28*
%TO.P,U4,2,\u002A1Y*%
%TO.N,unconnected-(U4-\u002A1Y-Pad2)*%
X119000000Y-131460000D03*
%TO.P,U4,3,2A*%
%TO.N,/Motor2_3A*%
X119000000Y-128920000D03*
%TO.P,U4,4,\u002A2Y*%
%TO.N,/Motor2_4A*%
X119000000Y-126380000D03*
%TO.P,U4,5,3A*%
%TO.N,/Motor1_1A*%
X119000000Y-123840000D03*
%TO.P,U4,6,\u002A3Y*%
%TO.N,/Motor1_2A*%
X119000000Y-121300000D03*
%TO.P,U4,7,GND*%
%TO.N,GND*%
X119000000Y-118760000D03*
%TO.P,U4,8,\u002A4Y*%
%TO.N,/Motor4_4A*%
X111380000Y-118760000D03*
%TO.P,U4,9,4A*%
%TO.N,/Motor4_3A*%
X111380000Y-121300000D03*
%TO.P,U4,10,\u002A5Y*%
%TO.N,/Motor3_2A*%
X111380000Y-123839999D03*
%TO.P,U4,11,5A*%
%TO.N,/Motor3_1A*%
X111380000Y-126380000D03*
%TO.P,U4,12,\u002A6Y*%
%TO.N,unconnected-(U4-\u002A6Y-Pad12)*%
X111380000Y-128920000D03*
%TO.P,U4,13,6A*%
%TO.N,unconnected-(U4-6A-Pad13)*%
X111380000Y-131460000D03*
%TO.P,U4,14,VCC*%
%TO.N,+5V*%
X111380000Y-134000000D03*
%TD*%
D19*
%TO.P,U1,1,1\u002C2EN*%
%TO.N,/Motor1_EN*%
X153375000Y-118700000D03*
D20*
%TO.P,U1,2,1A*%
%TO.N,/Motor1_1A*%
X150835000Y-118700000D03*
%TO.P,U1,3,1Y*%
%TO.N,/Motor1_M1*%
X148295001Y-118700000D03*
%TO.P,U1,4,GND*%
%TO.N,GND*%
X145755000Y-118700000D03*
%TO.P,U1,5,GND*%
X143215000Y-118700000D03*
%TO.P,U1,6,2Y*%
%TO.N,/Motor1_M2*%
X140675000Y-118700000D03*
%TO.P,U1,7,2A*%
%TO.N,/Motor1_2A*%
X138135000Y-118700000D03*
%TO.P,U1,8,VCC2*%
%TO.N,+12V*%
X135594999Y-118700000D03*
%TO.P,U1,9,3\u002C4EN*%
%TO.N,/Motor2_EN*%
X135595000Y-126320000D03*
%TO.P,U1,10,3A*%
%TO.N,/Motor2_3A*%
X138135000Y-126320000D03*
%TO.P,U1,11,3Y*%
%TO.N,/Motor2_M1*%
X140675000Y-126320000D03*
%TO.P,U1,12,GND*%
%TO.N,GND*%
X143215000Y-126320000D03*
%TO.P,U1,13,GND*%
X145755000Y-126320000D03*
%TO.P,U1,14,4Y*%
%TO.N,/Motor2_M2*%
X148295000Y-126320000D03*
%TO.P,U1,15,4A*%
%TO.N,/Motor2_4A*%
X150835000Y-126320000D03*
%TO.P,U1,16,VCC1*%
%TO.N,+5V*%
X153375000Y-126320000D03*
%TD*%
D14*
%TO.P,J3,1,Pin_1*%
%TO.N,/Motor4_M1*%
X98500000Y-81800000D03*
D15*
%TO.P,J3,2,Pin_2*%
%TO.N,GND*%
X98500000Y-83800001D03*
%TO.P,J3,3,Pin_3*%
%TO.N,/Motor4_ENCA*%
X98500000Y-85800000D03*
%TO.P,J3,4,Pin_4*%
%TO.N,/Motor4_ENCB*%
X98500000Y-87800000D03*
%TO.P,J3,5,Pin_5*%
%TO.N,+3.3V*%
X98500000Y-89800000D03*
%TO.P,J3,6,Pin_6*%
%TO.N,/Motor4_M2*%
X98500000Y-91800000D03*
%TD*%
D29*
%TO.N,/Motor2_4A*%
X123750000Y-129250000D03*
%TO.N,/Motor1_1A*%
X130000000Y-120750000D03*
%TO.N,GND*%
X138787500Y-62437501D03*
X122500000Y-102500000D03*
X127287499Y-62937503D03*
X113750000Y-95250000D03*
X104750000Y-127750000D03*
X120000000Y-84380000D03*
X81750000Y-114500000D03*
X128562499Y-68687502D03*
X107500000Y-135500000D03*
X153000000Y-131500000D03*
X129287499Y-58437502D03*
X139062500Y-72187501D03*
X144062500Y-60687502D03*
X127287497Y-72912501D03*
X107250000Y-106750000D03*
X132250000Y-125000000D03*
%TO.N,/Motor2_3A*%
X127000000Y-128500000D03*
%TO.N,/Motor2_M2*%
X128250000Y-98000000D03*
%TO.N,/Motor1_M1*%
X140500000Y-94000000D03*
%TO.N,+12V*%
X99405002Y-131344998D03*
%TO.N,/Motor2_EN*%
X126100000Y-100900000D03*
%TO.N,/Motor1_M2*%
X135500000Y-83070000D03*
%TO.N,/Motor2_M1*%
X127000000Y-109500000D03*
%TO.N,/Motor3_M1*%
X88750000Y-99750000D03*
%TO.N,/Motor3_EN*%
X122614579Y-105487851D03*
%TO.N,/Motor4_EN*%
X122000000Y-106000000D03*
%TO.N,/Motor4_M2*%
X92750000Y-93750000D03*
%TO.N,/Motor4_M1*%
X92250000Y-83500000D03*
%TO.N,/Motor3_M2*%
X103750000Y-117750000D03*
%TO.N,/UART_RC_RX*%
X114300000Y-97100000D03*
%TO.N,Net-(J5-Pin_2)*%
X109200000Y-97800000D03*
%TO.N,+3.3V*%
X84550000Y-81500000D03*
X136000000Y-100999999D03*
X87000000Y-81800000D03*
X121250000Y-97750000D03*
%TO.N,/UART_RC_TX*%
X113000000Y-96900000D03*
%TO.N,Net-(J5-Pin_3)*%
X110400000Y-96200000D03*
%TO.N,Net-(J5-Pin_1)*%
X104600000Y-107600000D03*
%TO.N,/UART_RPI_RX*%
X147500000Y-113400000D03*
%TO.N,/UART_RPI_TX*%
X145850000Y-112300000D03*
%TD*%
D30*
%TO.N,/Motor2_4A*%
X145500000Y-133250000D02*
X150835000Y-127915000D01*
X127750000Y-129250000D02*
X131750000Y-133250000D01*
X131750000Y-133250000D02*
X145500000Y-133250000D01*
X123750000Y-129250000D02*
X127750000Y-129250000D01*
X150835000Y-127915000D02*
X150835000Y-126320000D01*
%TO.N,/Motor1_1A*%
X130000000Y-120750000D02*
X148785000Y-120750000D01*
X148785000Y-120750000D02*
X150835000Y-118700000D01*
%TO.N,/Motor2_3A*%
X119420000Y-128500000D02*
X127000000Y-128500000D01*
X119000000Y-128920000D02*
X119420000Y-128500000D01*
D31*
%TO.N,/Motor2_M2*%
X124500000Y-100500000D02*
X124500000Y-124000000D01*
X127000000Y-98000000D02*
X124500000Y-100500000D01*
X143625000Y-132250000D02*
X148295000Y-127580000D01*
X124500000Y-124000000D02*
X132750000Y-132250000D01*
X148295000Y-127580000D02*
X148295000Y-126955000D01*
D30*
X148295000Y-126955000D02*
X148295000Y-126320000D01*
D31*
X128250000Y-98000000D02*
X127000000Y-98000000D01*
X132750000Y-132250000D02*
X143625000Y-132250000D01*
%TO.N,/Motor1_M1*%
X140500000Y-109750000D02*
X148295001Y-117545001D01*
X148295001Y-117545001D02*
X148295001Y-118700000D01*
X140500000Y-94000000D02*
X140500000Y-109750000D01*
%TO.N,+12V*%
X99405002Y-131344998D02*
X99405002Y-127800000D01*
D30*
%TO.N,/Motor2_EN*%
X131070000Y-126320000D02*
X135595000Y-126320000D01*
X127750000Y-123000000D02*
X131070000Y-126320000D01*
X126200000Y-100900000D02*
X127750000Y-102450000D01*
X126100000Y-100900000D02*
X126200000Y-100900000D01*
X127750000Y-102450000D02*
X127750000Y-123000000D01*
D31*
%TO.N,/Motor1_M2*%
X138000000Y-85000000D02*
X138000000Y-113750000D01*
X136070000Y-83070000D02*
X138000000Y-85000000D01*
X135500000Y-83070000D02*
X136070000Y-83070000D01*
X140675000Y-116425000D02*
X140675000Y-118700000D01*
X138000000Y-113750000D02*
X140675000Y-116425000D01*
%TO.N,/Motor2_M1*%
X126000000Y-110500000D02*
X126000000Y-123750000D01*
X138250000Y-130750000D02*
X140675000Y-128325000D01*
X140675000Y-128325000D02*
X140675000Y-126320000D01*
X126000000Y-123750000D02*
X133000000Y-130750000D01*
X133000000Y-130750000D02*
X138250000Y-130750000D01*
X127000000Y-109500000D02*
X126000000Y-110500000D01*
%TO.N,/Motor3_M1*%
X88750000Y-99750000D02*
X78250000Y-110250000D01*
X78250000Y-119345000D02*
X86705000Y-127800000D01*
X78250000Y-110250000D02*
X78250000Y-119345000D01*
D30*
%TO.N,/Motor3_EN*%
X105000000Y-132500000D02*
X86325001Y-132500000D01*
X107000000Y-114000000D02*
X107000000Y-130500000D01*
X120500000Y-112500000D02*
X108500000Y-112500000D01*
X122600000Y-105502430D02*
X122600000Y-110400000D01*
X122614579Y-105487851D02*
X122600000Y-105502430D01*
X107000000Y-130500000D02*
X105000000Y-132500000D01*
X122600000Y-110400000D02*
X120500000Y-112500000D01*
X108500000Y-112500000D02*
X107000000Y-114000000D01*
X86325001Y-132500000D02*
X81625001Y-127800000D01*
%TO.N,/Motor4_EN*%
X120500000Y-111500000D02*
X108085001Y-111500000D01*
X122000000Y-106000000D02*
X122000000Y-110000000D01*
X108085001Y-111500000D02*
X99405001Y-120180000D01*
X122000000Y-110000000D02*
X120500000Y-111500000D01*
D31*
%TO.N,/Motor4_M2*%
X92250000Y-94250000D02*
X92250000Y-113750000D01*
X92250000Y-113750000D02*
X86705001Y-119294999D01*
X92750000Y-93750000D02*
X92250000Y-94250000D01*
X86705001Y-119294999D02*
X86705001Y-120180000D01*
%TO.N,/Motor4_M1*%
X94325001Y-85575001D02*
X94325001Y-120180000D01*
X92250000Y-83500000D02*
X94325001Y-85575001D01*
%TO.N,/Motor3_M2*%
X101250000Y-124000000D02*
X98125001Y-124000000D01*
X98125001Y-124000000D02*
X94325001Y-127800000D01*
X103750000Y-117750000D02*
X103750000Y-121500000D01*
X103750000Y-121500000D02*
X101250000Y-124000000D01*
D30*
%TO.N,/UART_RC_RX*%
X114300000Y-97100000D02*
X116800000Y-97100000D01*
X116800000Y-97100000D02*
X125700000Y-88200000D01*
X117450000Y-57750000D02*
X117350000Y-57750000D01*
X125700000Y-88200000D02*
X125700000Y-66000000D01*
X125700000Y-66000000D02*
X117450000Y-57750000D01*
X117350000Y-58400000D02*
X117350000Y-57650000D01*
%TO.N,Net-(J5-Pin_2)*%
X109200000Y-97800000D02*
X109200000Y-81400000D01*
X105400000Y-77600000D02*
X92600000Y-77600000D01*
X79800000Y-90400000D02*
X79800000Y-90660000D01*
X109200000Y-81400000D02*
X105400000Y-77600000D01*
X92600000Y-77600000D02*
X79800000Y-90400000D01*
%TO.N,+3.3V*%
X84850000Y-81800000D02*
X84550000Y-81500000D01*
X87000000Y-81800000D02*
X84850000Y-81800000D01*
X136000000Y-97000000D02*
X135000000Y-96000000D01*
X135000000Y-96000000D02*
X123000000Y-96000000D01*
X136000000Y-100999999D02*
X136000000Y-97000000D01*
X123000000Y-96000000D02*
X121250000Y-97750000D01*
%TO.N,/UART_RC_TX*%
X116200000Y-96200000D02*
X124500000Y-87900000D01*
X124500000Y-69500000D02*
X114200000Y-59200000D01*
X124500000Y-87900000D02*
X124500000Y-69500000D01*
X113700000Y-96200000D02*
X116200000Y-96200000D01*
X113000000Y-96900000D02*
X113700000Y-96200000D01*
X114200000Y-59200000D02*
X114200000Y-57600000D01*
X114200000Y-58250000D02*
X114200000Y-57650000D01*
%TO.N,Net-(J5-Pin_3)*%
X106000000Y-75600000D02*
X89350000Y-75600000D01*
X83000000Y-81950000D02*
X83000000Y-84920001D01*
X89350000Y-75600000D02*
X83000000Y-81950000D01*
X83000000Y-84920001D02*
X79800000Y-88120001D01*
X110400000Y-80000000D02*
X106000000Y-75600000D01*
X110400000Y-96200000D02*
X110400000Y-80000000D01*
%TO.N,Net-(J5-Pin_1)*%
X104600000Y-80400000D02*
X103800000Y-79600000D01*
X80800000Y-93200000D02*
X79800000Y-93200000D01*
X103800000Y-79600000D02*
X94400000Y-79600000D01*
X94400000Y-79600000D02*
X80800000Y-93200000D01*
X104600000Y-107600000D02*
X104600000Y-80400000D01*
%TO.N,/UART_RPI_RX*%
X154250000Y-106500000D02*
X154400000Y-106500000D01*
X147500000Y-113400000D02*
X147500000Y-113250000D01*
X147500000Y-113250000D02*
X154250000Y-106500000D01*
%TO.N,/UART_RPI_TX*%
X154000000Y-104150000D02*
X154000000Y-103960000D01*
X145850000Y-112300000D02*
X154000000Y-104150000D01*
%TD*%
%TA.AperFunction,Conductor*%
%TO.N,GND*%
G36*
X146005000Y-127598872D02*
G01*
X146201317Y-127546269D01*
X146201326Y-127546265D01*
X146407482Y-127450134D01*
X146593820Y-127319657D01*
X146754657Y-127158820D01*
X146885132Y-126972484D01*
X146912341Y-126914134D01*
X146958513Y-126861695D01*
X147025707Y-126842542D01*
X147092588Y-126862757D01*
X147137105Y-126914132D01*
X147158894Y-126960858D01*
X147164431Y-126972732D01*
X147164432Y-126972734D01*
X147294954Y-127159141D01*
X147422397Y-127286584D01*
X147455882Y-127347907D01*
X147450898Y-127417599D01*
X147422397Y-127461946D01*
X143371162Y-131513181D01*
X143309839Y-131546666D01*
X143283481Y-131549500D01*
X138723104Y-131549500D01*
X138656065Y-131529815D01*
X138610310Y-131477011D01*
X138600366Y-131407853D01*
X138629391Y-131344297D01*
X138654214Y-131322397D01*
X138696543Y-131294114D01*
X141219114Y-128771543D01*
X141295775Y-128656811D01*
X141299479Y-128647870D01*
X141348578Y-128529332D01*
X141348580Y-128529328D01*
X141363817Y-128452728D01*
X141375500Y-128393996D01*
X141375500Y-127481672D01*
X141395185Y-127414633D01*
X141428375Y-127380098D01*
X141514139Y-127320047D01*
X141675047Y-127159139D01*
X141805568Y-126972734D01*
X141832895Y-126914129D01*
X141879064Y-126861695D01*
X141946257Y-126842542D01*
X142013139Y-126862757D01*
X142057657Y-126914133D01*
X142084865Y-126972482D01*
X142215342Y-127158820D01*
X142376179Y-127319657D01*
X142562517Y-127450134D01*
X142768673Y-127546265D01*
X142768682Y-127546269D01*
X142964999Y-127598872D01*
X142965000Y-127598871D01*
X142965000Y-126635686D01*
X142969394Y-126640080D01*
X143060606Y-126692741D01*
X143162339Y-126720000D01*
X143267661Y-126720000D01*
X143369394Y-126692741D01*
X143460606Y-126640080D01*
X143465000Y-126635686D01*
X143465000Y-127598872D01*
X143661317Y-127546269D01*
X143661326Y-127546265D01*
X143867482Y-127450134D01*
X144053820Y-127319657D01*
X144214657Y-127158820D01*
X144345134Y-126972481D01*
X144345135Y-126972479D01*
X144372618Y-126913543D01*
X144418790Y-126861103D01*
X144485983Y-126841951D01*
X144552864Y-126862166D01*
X144597382Y-126913543D01*
X144624864Y-126972479D01*
X144624865Y-126972481D01*
X144755342Y-127158820D01*
X144916179Y-127319657D01*
X145102517Y-127450134D01*
X145308673Y-127546265D01*
X145308682Y-127546269D01*
X145504999Y-127598872D01*
X145505000Y-127598871D01*
X145505000Y-126635686D01*
X145509394Y-126640080D01*
X145600606Y-126692741D01*
X145702339Y-126720000D01*
X145807661Y-126720000D01*
X145909394Y-126692741D01*
X146000606Y-126640080D01*
X146005000Y-126635686D01*
X146005000Y-127598872D01*
G37*
%TD.AperFunction*%
%TA.AperFunction,Conductor*%
G36*
X145434920Y-126074394D02*
G01*
X145382259Y-126165606D01*
X145355000Y-126267339D01*
X145355000Y-126372661D01*
X145382259Y-126474394D01*
X145434920Y-126565606D01*
X145439314Y-126570000D01*
X143530686Y-126570000D01*
X143535080Y-126565606D01*
X143587741Y-126474394D01*
X143615000Y-126372661D01*
X143615000Y-126267339D01*
X143587741Y-126165606D01*
X143535080Y-126074394D01*
X143530686Y-126070000D01*
X145439314Y-126070000D01*
X145434920Y-126074394D01*
G37*
%TD.AperFunction*%
%TA.AperFunction,Conductor*%
G36*
X145434920Y-118454394D02*
G01*
X145382259Y-118545606D01*
X145355000Y-118647339D01*
X145355000Y-118752661D01*
X145382259Y-118854394D01*
X145434920Y-118945606D01*
X145439314Y-118950000D01*
X143530686Y-118950000D01*
X143535080Y-118945606D01*
X143587741Y-118854394D01*
X143615000Y-118752661D01*
X143615000Y-118647339D01*
X143587741Y-118545606D01*
X143535080Y-118454394D01*
X143530686Y-118450000D01*
X145439314Y-118450000D01*
X145434920Y-118454394D01*
G37*
%TD.AperFunction*%
%TA.AperFunction,Conductor*%
G36*
X153625662Y-55350474D02*
G01*
X153626048Y-55350500D01*
X153634108Y-55350500D01*
X153696761Y-55350500D01*
X153703251Y-55350670D01*
X154007046Y-55366592D01*
X154019953Y-55367949D01*
X154125136Y-55384608D01*
X154317209Y-55415028D01*
X154329896Y-55417724D01*
X154620625Y-55495625D01*
X154632965Y-55499635D01*
X154913938Y-55607490D01*
X154925790Y-55612767D01*
X155193968Y-55749411D01*
X155205199Y-55755896D01*
X155457608Y-55919812D01*
X155468109Y-55927441D01*
X155702010Y-56116850D01*
X155711655Y-56125535D01*
X155924464Y-56338344D01*
X155933149Y-56347989D01*
X156122558Y-56581890D01*
X156130187Y-56592391D01*
X156294101Y-56844796D01*
X156300591Y-56856036D01*
X156437231Y-57124206D01*
X156442510Y-57136064D01*
X156550363Y-57417033D01*
X156554374Y-57429376D01*
X156632273Y-57720097D01*
X156634971Y-57732794D01*
X156682050Y-58030046D01*
X156683407Y-58042953D01*
X156699330Y-58346756D01*
X156699500Y-58353246D01*
X156699500Y-58423334D01*
X156699570Y-58424411D01*
X156720382Y-80080653D01*
X156700762Y-80147711D01*
X156648002Y-80193517D01*
X156578853Y-80203527D01*
X156515269Y-80174563D01*
X156485381Y-80136043D01*
X156475058Y-80115311D01*
X156475056Y-80115308D01*
X156340979Y-79937761D01*
X156176562Y-79787876D01*
X156176560Y-79787874D01*
X155987404Y-79670754D01*
X155987398Y-79670752D01*
X155779940Y-79590382D01*
X155561243Y-79549500D01*
X155338757Y-79549500D01*
X155120060Y-79590382D01*
X155014485Y-79631282D01*
X154912601Y-79670752D01*
X154912595Y-79670754D01*
X154723439Y-79787874D01*
X154723437Y-79787876D01*
X154559020Y-79937761D01*
X154424943Y-80115308D01*
X154424938Y-80115316D01*
X154325775Y-80314461D01*
X154325769Y-80314476D01*
X154264885Y-80528462D01*
X154264884Y-80528464D01*
X154244357Y-80749999D01*
X154244357Y-80750000D01*
X154264884Y-80971535D01*
X154264885Y-80971537D01*
X154325769Y-81185523D01*
X154325775Y-81185538D01*
X154424938Y-81384683D01*
X154424943Y-81384691D01*
X154559020Y-81562238D01*
X154723437Y-81712123D01*
X154723439Y-81712125D01*
X154912595Y-81829245D01*
X154912596Y-81829245D01*
X154912599Y-81829247D01*
X155120060Y-81909618D01*
X155338757Y-81950500D01*
X155338759Y-81950500D01*
X155561241Y-81950500D01*
X155561243Y-81950500D01*
X155779940Y-81909618D01*
X155987401Y-81829247D01*
X156176562Y-81712124D01*
X156340981Y-81562236D01*
X156475058Y-81384689D01*
X156486665Y-81361378D01*
X156534167Y-81310141D01*
X156601830Y-81292719D01*
X156668171Y-81314644D01*
X156712127Y-81368954D01*
X156721666Y-81416530D01*
X156730974Y-91101924D01*
X156711354Y-91168982D01*
X156658594Y-91214788D01*
X156589445Y-91224798D01*
X156525861Y-91195834D01*
X156495974Y-91157315D01*
X156475061Y-91115316D01*
X156475056Y-91115308D01*
X156340979Y-90937761D01*
X156176562Y-90787876D01*
X156176560Y-90787874D01*
X155987404Y-90670754D01*
X155987398Y-90670752D01*
X155959644Y-90660000D01*
X155779940Y-90590382D01*
X155561243Y-90549500D01*
X155338757Y-90549500D01*
X155120060Y-90590382D01*
X154993502Y-90639411D01*
X154912601Y-90670752D01*
X154912595Y-90670754D01*
X154723439Y-90787874D01*
X154723437Y-90787876D01*
X154559020Y-90937761D01*
X154424943Y-91115308D01*
X154424938Y-91115316D01*
X154325775Y-91314461D01*
X154325769Y-91314476D01*
X154264885Y-91528462D01*
X154264884Y-91528464D01*
X154244357Y-91749999D01*
X154244357Y-91750000D01*
X154264884Y-91971535D01*
X154264885Y-91971537D01*
X154325769Y-92185523D01*
X154325775Y-92185538D01*
X154424938Y-92384683D01*
X154424943Y-92384691D01*
X154559020Y-92562238D01*
X154723437Y-92712123D01*
X154723439Y-92712125D01*
X154912595Y-92829245D01*
X154912596Y-92829245D01*
X154912599Y-92829247D01*
X155120060Y-92909618D01*
X155338757Y-92950500D01*
X155338759Y-92950500D01*
X155561241Y-92950500D01*
X155561243Y-92950500D01*
X155779940Y-92909618D01*
X155987401Y-92829247D01*
X156176562Y-92712124D01*
X156316282Y-92584751D01*
X156340979Y-92562238D01*
X156375196Y-92516928D01*
X156475058Y-92384689D01*
X156497217Y-92340187D01*
X156544719Y-92288952D01*
X156612382Y-92271530D01*
X156678722Y-92293455D01*
X156722678Y-92347766D01*
X156732217Y-92395341D01*
X156774623Y-136521811D01*
X156774453Y-136528421D01*
X156758531Y-136832169D01*
X156757174Y-136845076D01*
X156710093Y-137142328D01*
X156707395Y-137155024D01*
X156629496Y-137445740D01*
X156625485Y-137458084D01*
X156517628Y-137739059D01*
X156512349Y-137750916D01*
X156375710Y-138019082D01*
X156369220Y-138030322D01*
X156205306Y-138282727D01*
X156197677Y-138293228D01*
X156008267Y-138527129D01*
X155999582Y-138536774D01*
X155786774Y-138749582D01*
X155777129Y-138758267D01*
X155543228Y-138947677D01*
X155532727Y-138955306D01*
X155280322Y-139119220D01*
X155269082Y-139125710D01*
X155000916Y-139262349D01*
X154989059Y-139267628D01*
X154708084Y-139375485D01*
X154695740Y-139379496D01*
X154405024Y-139457395D01*
X154392328Y-139460093D01*
X154095076Y-139507174D01*
X154082169Y-139508531D01*
X153778365Y-139524456D01*
X153771874Y-139524626D01*
X80728126Y-139524626D01*
X80721635Y-139524456D01*
X80571575Y-139516590D01*
X80516130Y-139500184D01*
X80456330Y-139465706D01*
X80456329Y-139465705D01*
X80303578Y-139424872D01*
X79990686Y-139425056D01*
X79958519Y-139420831D01*
X79804258Y-139379496D01*
X79791914Y-139375485D01*
X79510940Y-139267628D01*
X79499083Y-139262349D01*
X79230917Y-139125710D01*
X79219677Y-139119220D01*
X78967272Y-138955306D01*
X78956771Y-138947677D01*
X78722870Y-138758267D01*
X78713225Y-138749582D01*
X78500417Y-138536774D01*
X78491732Y-138527129D01*
X78302322Y-138293228D01*
X78294693Y-138282727D01*
X78130779Y-138030322D01*
X78124289Y-138019082D01*
X78076606Y-137925500D01*
X77987645Y-137750905D01*
X77982375Y-137739070D01*
X77874514Y-137458084D01*
X77870503Y-137445740D01*
X77792602Y-137155017D01*
X77789906Y-137142328D01*
X77782158Y-137093412D01*
X77742824Y-136845075D01*
X77741468Y-136832169D01*
X77725544Y-136528365D01*
X77725374Y-136521874D01*
X77725374Y-136468713D01*
X80199500Y-136468713D01*
X80199500Y-136681286D01*
X80232753Y-136891239D01*
X80298444Y-137093414D01*
X80394951Y-137282820D01*
X80519890Y-137454786D01*
X80670213Y-137605109D01*
X80842179Y-137730048D01*
X80842181Y-137730049D01*
X80842184Y-137730051D01*
X81031588Y-137826557D01*
X81233757Y-137892246D01*
X81443713Y-137925500D01*
X81443714Y-137925500D01*
X81656286Y-137925500D01*
X81656287Y-137925500D01*
X81866243Y-137892246D01*
X82068412Y-137826557D01*
X82257816Y-137730051D01*
X82279789Y-137714086D01*
X82429786Y-137605109D01*
X82429788Y-137605106D01*
X82429792Y-137605104D01*
X82580104Y-137454792D01*
X82580106Y-137454788D01*
X82580109Y-137454786D01*
X82705048Y-137282820D01*
X82705047Y-137282820D01*
X82705051Y-137282816D01*
X82801557Y-137093412D01*
X82867246Y-136891243D01*
X82900500Y-136681287D01*
X82900500Y-136468713D01*
X152199500Y-136468713D01*
X152199500Y-136681286D01*
X152232753Y-136891239D01*
X152298444Y-137093414D01*
X152394951Y-137282820D01*
X152519890Y-137454786D01*
X152670213Y-137605109D01*
X152842179Y-137730048D01*
X152842181Y-137730049D01*
X152842184Y-137730051D01*
X153031588Y-137826557D01*
X153233757Y-137892246D01*
X153443713Y-137925500D01*
X153443714Y-137925500D01*
X153656286Y-137925500D01*
X153656287Y-137925500D01*
X153866243Y-137892246D01*
X154068412Y-137826557D01*
X154257816Y-137730051D01*
X154279789Y-137714086D01*
X154429786Y-137605109D01*
X154429788Y-137605106D01*
X154429792Y-137605104D01*
X154580104Y-137454792D01*
X154580106Y-137454788D01*
X154580109Y-137454786D01*
X154705048Y-137282820D01*
X154705047Y-137282820D01*
X154705051Y-137282816D01*
X154801557Y-137093412D01*
X154867246Y-136891243D01*
X154900500Y-136681287D01*
X154900500Y-136468713D01*
X154867246Y-136258757D01*
X154801557Y-136056588D01*
X154705051Y-135867184D01*
X154705049Y-135867181D01*
X154705048Y-135867179D01*
X154580109Y-135695213D01*
X154429786Y-135544890D01*
X154257820Y-135419951D01*
X154068414Y-135323444D01*
X154068413Y-135323443D01*
X154068412Y-135323443D01*
X153866243Y-135257754D01*
X153866241Y-135257753D01*
X153866240Y-135257753D01*
X153704957Y-135232208D01*
X153656287Y-135224500D01*
X153443713Y-135224500D01*
X153395042Y-135232208D01*
X153233760Y-135257753D01*
X153031585Y-135323444D01*
X152842179Y-135419951D01*
X152670213Y-135544890D01*
X152519890Y-135695213D01*
X152394951Y-135867179D01*
X152298444Y-136056585D01*
X152232753Y-136258760D01*
X152199500Y-136468713D01*
X82900500Y-136468713D01*
X82867246Y-136258757D01*
X82801557Y-136056588D01*
X82705051Y-135867184D01*
X82705049Y-135867181D01*
X82705048Y-135867179D01*
X82580109Y-135695213D01*
X82429786Y-135544890D01*
X82257820Y-135419951D01*
X82068414Y-135323444D01*
X82068413Y-135323443D01*
X82068412Y-135323443D01*
X81866243Y-135257754D01*
X81866241Y-135257753D01*
X81866240Y-135257753D01*
X81704957Y-135232208D01*
X81656287Y-135224500D01*
X81443713Y-135224500D01*
X81395042Y-135232208D01*
X81233760Y-135257753D01*
X81031585Y-135323444D01*
X80842179Y-135419951D01*
X80670213Y-135544890D01*
X80519890Y-135695213D01*
X80394951Y-135867179D01*
X80298444Y-136056585D01*
X80232753Y-136258760D01*
X80199500Y-136468713D01*
X77725374Y-136468713D01*
X77725374Y-136451421D01*
X77725325Y-136450707D01*
X77714871Y-120099967D01*
X77734513Y-120032917D01*
X77787287Y-119987129D01*
X77856440Y-119977141D01*
X77920014Y-120006125D01*
X77926552Y-120012209D01*
X84201222Y-126286879D01*
X84234707Y-126348202D01*
X84229723Y-126417894D01*
X84187851Y-126473827D01*
X84124349Y-126498088D01*
X83938313Y-126514364D01*
X83938303Y-126514366D01*
X83718512Y-126573258D01*
X83718503Y-126573261D01*
X83512268Y-126669431D01*
X83512266Y-126669432D01*
X83325859Y-126799954D01*
X83164955Y-126960858D01*
X83147726Y-126985464D01*
X83093148Y-127029088D01*
X83023649Y-127036280D01*
X82961295Y-127004757D01*
X82925883Y-126944526D01*
X82922862Y-126927591D01*
X82921415Y-126914133D01*
X82919092Y-126892517D01*
X82907992Y-126862757D01*
X82868798Y-126757671D01*
X82868794Y-126757664D01*
X82782548Y-126642455D01*
X82782545Y-126642452D01*
X82667336Y-126556206D01*
X82667329Y-126556202D01*
X82532483Y-126505908D01*
X82532484Y-126505908D01*
X82472884Y-126499501D01*
X82472882Y-126499500D01*
X82472874Y-126499500D01*
X82472865Y-126499500D01*
X80777130Y-126499500D01*
X80777124Y-126499501D01*
X80717517Y-126505908D01*
X80582672Y-126556202D01*
X80582665Y-126556206D01*
X80467456Y-126642452D01*
X80467453Y-126642455D01*
X80381207Y-126757664D01*
X80381203Y-126757671D01*
X80330909Y-126892517D01*
X80324502Y-126952116D01*
X80324501Y-126952135D01*
X80324501Y-128647870D01*
X80324502Y-128647876D01*
X80330909Y-128707483D01*
X80381203Y-128842328D01*
X80381207Y-128842335D01*
X80467453Y-128957544D01*
X80467456Y-128957547D01*
X80582665Y-129043793D01*
X80582672Y-129043797D01*
X80717518Y-129094091D01*
X80717517Y-129094091D01*
X80724445Y-129094835D01*
X80777128Y-129100500D01*
X82024903Y-129100499D01*
X82091942Y-129120184D01*
X82112583Y-129136817D01*
X85956285Y-132980520D01*
X85956287Y-132980521D01*
X85956291Y-132980524D01*
X86093210Y-133059573D01*
X86093213Y-133059575D01*
X86093217Y-133059577D01*
X86245944Y-133100501D01*
X86245946Y-133100501D01*
X86411655Y-133100501D01*
X86411671Y-133100500D01*
X104913331Y-133100500D01*
X104913347Y-133100501D01*
X104920943Y-133100501D01*
X105079054Y-133100501D01*
X105079057Y-133100501D01*
X105231785Y-133059577D01*
X105303424Y-133018216D01*
X105368716Y-132980520D01*
X105480520Y-132868716D01*
X105480520Y-132868714D01*
X105490724Y-132858511D01*
X105490728Y-132858506D01*
X107358506Y-130990728D01*
X107358511Y-130990724D01*
X107368714Y-130980520D01*
X107368716Y-130980520D01*
X107480520Y-130868716D01*
X107540152Y-130765429D01*
X107559577Y-130731785D01*
X107600500Y-130579057D01*
X107600500Y-130420943D01*
X107600500Y-118759999D01*
X110226881Y-118759999D01*
X110226881Y-118760000D01*
X110246514Y-118971884D01*
X110304750Y-119176559D01*
X110304750Y-119176560D01*
X110399596Y-119367037D01*
X110472607Y-119463718D01*
X110520600Y-119527271D01*
X110527836Y-119536852D01*
X110685090Y-119680208D01*
X110685092Y-119680210D01*
X110866007Y-119792228D01*
X110866013Y-119792231D01*
X110904806Y-119807259D01*
X111064434Y-119869099D01*
X111273129Y-119908111D01*
X111335410Y-119939779D01*
X111370683Y-120000092D01*
X111367749Y-120069900D01*
X111327540Y-120127040D01*
X111273129Y-120151888D01*
X111064434Y-120190901D01*
X111064431Y-120190901D01*
X111064431Y-120190902D01*
X110866013Y-120267768D01*
X110866007Y-120267771D01*
X110685092Y-120379789D01*
X110685090Y-120379791D01*
X110527836Y-120523147D01*
X110399596Y-120692962D01*
X110304750Y-120883439D01*
X110304750Y-120883440D01*
X110246514Y-121088115D01*
X110226881Y-121299999D01*
X110226881Y-121300000D01*
X110246514Y-121511884D01*
X110304750Y-121716559D01*
X110304750Y-121716560D01*
X110399596Y-121907037D01*
X110527836Y-122076852D01*
X110685090Y-122220208D01*
X110685092Y-122220210D01*
X110866007Y-122332228D01*
X110866013Y-122332231D01*
X110908048Y-122348515D01*
X111064434Y-122409099D01*
X111273129Y-122448111D01*
X111335408Y-122479778D01*
X111370681Y-122540091D01*
X111367747Y-122609899D01*
X111327538Y-122667039D01*
X111273128Y-122691887D01*
X111064434Y-122730900D01*
X111064432Y-122730900D01*
X111064430Y-122730901D01*
X110866013Y-122807767D01*
X110866007Y-122807770D01*
X110685092Y-122919788D01*
X110685090Y-122919790D01*
X110527836Y-123063146D01*
X110399596Y-123232961D01*
X110304750Y-123423438D01*
X110304750Y-123423439D01*
X110246514Y-123628114D01*
X110226881Y-123839998D01*
X110226881Y-123839999D01*
X110246514Y-124051883D01*
X110304750Y-124256558D01*
X110304750Y-124256559D01*
X110399596Y-124447036D01*
X110527836Y-124616851D01*
X110685090Y-124760207D01*
X110685092Y-124760209D01*
X110866007Y-124872227D01*
X110866013Y-124872230D01*
X110866016Y-124872231D01*
X111064434Y-124949098D01*
X111273134Y-124988111D01*
X111335413Y-125019778D01*
X111370686Y-125080091D01*
X111367752Y-125149899D01*
X111327543Y-125207039D01*
X111273132Y-125231888D01*
X111064434Y-125270901D01*
X111064432Y-125270901D01*
X111064430Y-125270902D01*
X110866013Y-125347768D01*
X110866007Y-125347771D01*
X110685092Y-125459789D01*
X110685090Y-125459791D01*
X110527836Y-125603147D01*
X110399596Y-125772962D01*
X110304750Y-125963439D01*
X110304750Y-125963440D01*
X110246514Y-126168115D01*
X110226881Y-126379999D01*
X110226881Y-126380000D01*
X110246514Y-126591884D01*
X110304750Y-126796559D01*
X110304750Y-126796560D01*
X110399596Y-126987037D01*
X110399598Y-126987039D01*
X110520600Y-127147271D01*
X110527836Y-127156852D01*
X110580956Y-127205277D01*
X110638478Y-127257716D01*
X110685090Y-127300208D01*
X110685092Y-127300210D01*
X110866007Y-127412228D01*
X110866013Y-127412231D01*
X110879870Y-127417599D01*
X111064434Y-127489099D01*
X111273129Y-127528111D01*
X111335410Y-127559779D01*
X111370683Y-127620092D01*
X111367749Y-127689900D01*
X111327540Y-127747040D01*
X111273129Y-127771888D01*
X111064434Y-127810901D01*
X111064431Y-127810901D01*
X111064431Y-127810902D01*
X110866013Y-127887768D01*
X110866007Y-127887771D01*
X110685092Y-127999789D01*
X110685090Y-127999791D01*
X110527836Y-128143147D01*
X110399596Y-128312962D01*
X110304750Y-128503439D01*
X110304750Y-128503440D01*
X110246514Y-128708115D01*
X110226881Y-128919999D01*
X110226881Y-128920000D01*
X110246514Y-129131884D01*
X110304750Y-129336559D01*
X110304750Y-129336560D01*
X110399596Y-129527037D01*
X110527836Y-129696852D01*
X110685090Y-129840208D01*
X110685092Y-129840210D01*
X110866007Y-129952228D01*
X110866013Y-129952231D01*
X110908048Y-129968515D01*
X111064434Y-130029099D01*
X111273129Y-130068111D01*
X111335410Y-130099779D01*
X111370683Y-130160092D01*
X111367749Y-130229900D01*
X111327540Y-130287040D01*
X111273129Y-130311888D01*
X111064434Y-130350901D01*
X111064431Y-130350901D01*
X111064431Y-130350902D01*
X110866013Y-130427768D01*
X110866007Y-130427771D01*
X110685092Y-130539789D01*
X110685090Y-130539791D01*
X110527836Y-130683147D01*
X110399596Y-130852962D01*
X110304750Y-131043439D01*
X110304750Y-131043440D01*
X110246514Y-131248115D01*
X110226881Y-131459999D01*
X110226881Y-131460000D01*
X110246514Y-131671884D01*
X110304750Y-131876559D01*
X110304750Y-131876560D01*
X110399596Y-132067037D01*
X110527836Y-132236852D01*
X110685090Y-132380208D01*
X110685092Y-132380210D01*
X110866007Y-132492228D01*
X110866013Y-132492231D01*
X110906339Y-132507853D01*
X111064434Y-132569099D01*
X111273129Y-132608111D01*
X111335410Y-132639779D01*
X111370683Y-132700092D01*
X111367749Y-132769900D01*
X111327540Y-132827040D01*
X111273129Y-132851888D01*
X111064434Y-132890901D01*
X111064431Y-132890901D01*
X111064431Y-132890902D01*
X110866013Y-132967768D01*
X110866007Y-132967771D01*
X110685092Y-133079789D01*
X110685090Y-133079791D01*
X110527836Y-133223147D01*
X110399596Y-133392962D01*
X110304750Y-133583439D01*
X110304750Y-133583440D01*
X110246514Y-133788115D01*
X110226881Y-133999999D01*
X110226881Y-134000000D01*
X110246514Y-134211884D01*
X110304750Y-134416559D01*
X110304750Y-134416560D01*
X110399596Y-134607037D01*
X110527836Y-134776852D01*
X110685090Y-134920208D01*
X110685092Y-134920210D01*
X110866007Y-135032228D01*
X110866013Y-135032231D01*
X110908048Y-135048515D01*
X111064434Y-135109099D01*
X111273604Y-135148200D01*
X111273606Y-135148200D01*
X111486394Y-135148200D01*
X111486396Y-135148200D01*
X111695566Y-135109099D01*
X111893989Y-135032230D01*
X112074909Y-134920209D01*
X112232165Y-134776851D01*
X112360402Y-134607039D01*
X112455251Y-134416555D01*
X112513485Y-134211885D01*
X112533119Y-134000000D01*
X112513485Y-133788115D01*
X112455251Y-133583445D01*
X112455249Y-133583440D01*
X112455249Y-133583439D01*
X112360403Y-133392962D01*
X112232163Y-133223147D01*
X112074909Y-133079791D01*
X112074907Y-133079789D01*
X111893992Y-132967771D01*
X111893986Y-132967768D01*
X111737603Y-132907186D01*
X111695566Y-132890901D01*
X111486868Y-132851888D01*
X111424589Y-132820221D01*
X111389316Y-132759908D01*
X111392250Y-132690100D01*
X111432459Y-132632960D01*
X111486868Y-132608111D01*
X111695566Y-132569099D01*
X111893989Y-132492230D01*
X112074909Y-132380209D01*
X112232165Y-132236851D01*
X112360402Y-132067039D01*
X112455251Y-131876555D01*
X112513485Y-131671885D01*
X112533119Y-131460000D01*
X112513485Y-131248115D01*
X112455251Y-131043445D01*
X112455249Y-131043440D01*
X112455249Y-131043439D01*
X112360403Y-130852962D01*
X112232163Y-130683147D01*
X112074909Y-130539791D01*
X112074907Y-130539789D01*
X111893992Y-130427771D01*
X111893986Y-130427768D01*
X111737603Y-130367186D01*
X111695566Y-130350901D01*
X111486868Y-130311888D01*
X111424589Y-130280221D01*
X111389316Y-130219908D01*
X111392250Y-130150100D01*
X111432459Y-130092960D01*
X111486868Y-130068111D01*
X111695566Y-130029099D01*
X111893989Y-129952230D01*
X112074909Y-129840209D01*
X112232165Y-129696851D01*
X112360402Y-129527039D01*
X112360403Y-129527037D01*
X112455249Y-129336560D01*
X112455249Y-129336559D01*
X112455248Y-129336559D01*
X112455251Y-129336555D01*
X112513485Y-129131885D01*
X112533119Y-128920000D01*
X112529531Y-128881284D01*
X112513485Y-128708115D01*
X112498888Y-128656811D01*
X112455251Y-128503445D01*
X112455249Y-128503440D01*
X112455249Y-128503439D01*
X112360403Y-128312962D01*
X112254512Y-128172741D01*
X112232165Y-128143149D01*
X112103439Y-128025800D01*
X112074909Y-127999791D01*
X112074907Y-127999789D01*
X111893992Y-127887771D01*
X111893986Y-127887768D01*
X111737603Y-127827186D01*
X111695566Y-127810901D01*
X111486868Y-127771888D01*
X111424589Y-127740221D01*
X111389316Y-127679908D01*
X111392250Y-127610100D01*
X111432459Y-127552960D01*
X111486868Y-127528111D01*
X111695566Y-127489099D01*
X111893989Y-127412230D01*
X112074909Y-127300209D01*
X112232165Y-127156851D01*
X112360402Y-126987039D01*
X112367528Y-126972728D01*
X112455249Y-126796560D01*
X112455249Y-126796559D01*
X112455248Y-126796559D01*
X112455251Y-126796555D01*
X112513485Y-126591885D01*
X112533119Y-126380000D01*
X112530172Y-126348202D01*
X112513485Y-126168115D01*
X112486819Y-126074394D01*
X112455251Y-125963445D01*
X112455249Y-125963440D01*
X112455249Y-125963439D01*
X112360403Y-125772962D01*
X112280776Y-125667520D01*
X112232165Y-125603149D01*
X112098370Y-125481179D01*
X112074909Y-125459791D01*
X112074907Y-125459789D01*
X111893992Y-125347771D01*
X111893986Y-125347768D01*
X111695569Y-125270902D01*
X111695568Y-125270901D01*
X111695566Y-125270901D01*
X111486865Y-125231887D01*
X111424586Y-125200219D01*
X111389313Y-125139907D01*
X111392247Y-125070099D01*
X111432456Y-125012959D01*
X111486863Y-124988111D01*
X111695566Y-124949098D01*
X111893989Y-124872229D01*
X112074909Y-124760208D01*
X112232165Y-124616850D01*
X112360402Y-124447038D01*
X112417780Y-124331807D01*
X112455249Y-124256559D01*
X112455249Y-124256558D01*
X112455248Y-124256558D01*
X112455251Y-124256554D01*
X112513485Y-124051884D01*
X112533119Y-123839999D01*
X112513485Y-123628114D01*
X112455251Y-123423444D01*
X112455249Y-123423439D01*
X112455249Y-123423438D01*
X112360403Y-123232961D01*
X112244179Y-123079057D01*
X112232165Y-123063148D01*
X112074909Y-122919790D01*
X112074907Y-122919788D01*
X111893992Y-122807770D01*
X111893986Y-122807767D01*
X111695571Y-122730902D01*
X111695566Y-122730900D01*
X111486871Y-122691887D01*
X111424591Y-122660219D01*
X111389318Y-122599907D01*
X111392252Y-122530099D01*
X111432461Y-122472959D01*
X111486868Y-122448111D01*
X111695566Y-122409099D01*
X111893989Y-122332230D01*
X112074909Y-122220209D01*
X112232165Y-122076851D01*
X112360402Y-121907039D01*
X112455251Y-121716555D01*
X112513485Y-121511885D01*
X112533119Y-121300000D01*
X112533119Y-121299999D01*
X117846881Y-121299999D01*
X117846881Y-121300000D01*
X117866514Y-121511884D01*
X117924750Y-121716559D01*
X117924750Y-121716560D01*
X118019596Y-121907037D01*
X118147836Y-122076852D01*
X118305090Y-122220208D01*
X118305092Y-122220210D01*
X118486007Y-122332228D01*
X118486013Y-122332231D01*
X118528048Y-122348515D01*
X118684434Y-122409099D01*
X118893129Y-122448111D01*
X118955410Y-122479779D01*
X118990683Y-122540092D01*
X118987749Y-122609900D01*
X118947540Y-122667040D01*
X118893129Y-122691888D01*
X118684434Y-122730901D01*
X118684431Y-122730901D01*
X118684431Y-122730902D01*
X118486013Y-122807768D01*
X118486007Y-122807771D01*
X118305092Y-122919789D01*
X118305090Y-122919791D01*
X118147836Y-123063147D01*
X118019596Y-123232962D01*
X117924750Y-123423439D01*
X117924750Y-123423440D01*
X117866514Y-123628115D01*
X117846881Y-123839999D01*
X117846881Y-123840000D01*
X117866514Y-124051884D01*
X117924750Y-124256559D01*
X117924750Y-124256560D01*
X118019596Y-124447037D01*
X118147836Y-124616852D01*
X118305090Y-124760208D01*
X118305092Y-124760210D01*
X118486007Y-124872228D01*
X118486013Y-124872231D01*
X118528048Y-124888515D01*
X118684434Y-124949099D01*
X118893129Y-124988111D01*
X118955410Y-125019779D01*
X118990683Y-125080092D01*
X118987749Y-125149900D01*
X118947540Y-125207040D01*
X118893129Y-125231888D01*
X118684434Y-125270901D01*
X118684431Y-125270901D01*
X118684431Y-125270902D01*
X118486013Y-125347768D01*
X118486007Y-125347771D01*
X118305092Y-125459789D01*
X118305090Y-125459791D01*
X118147836Y-125603147D01*
X118019596Y-125772962D01*
X117924750Y-125963439D01*
X117924750Y-125963440D01*
X117866514Y-126168115D01*
X117846881Y-126379999D01*
X117846881Y-126380000D01*
X117866514Y-126591884D01*
X117924750Y-126796559D01*
X117924750Y-126796560D01*
X118019596Y-126987037D01*
X118019598Y-126987039D01*
X118140600Y-127147271D01*
X118147836Y-127156852D01*
X118200956Y-127205277D01*
X118258478Y-127257716D01*
X118305090Y-127300208D01*
X118305092Y-127300210D01*
X118486007Y-127412228D01*
X118486013Y-127412231D01*
X118499870Y-127417599D01*
X118684434Y-127489099D01*
X118893129Y-127528111D01*
X118955410Y-127559779D01*
X118990683Y-127620092D01*
X118987749Y-127689900D01*
X118947540Y-127747040D01*
X118893129Y-127771888D01*
X118684434Y-127810901D01*
X118684431Y-127810901D01*
X118684431Y-127810902D01*
X118486013Y-127887768D01*
X118486007Y-127887771D01*
X118305092Y-127999789D01*
X118305090Y-127999791D01*
X118147836Y-128143147D01*
X118019596Y-128312962D01*
X117924750Y-128503439D01*
X117924750Y-128503440D01*
X117866514Y-128708115D01*
X117846881Y-128919999D01*
X117846881Y-128920000D01*
X117866514Y-129131884D01*
X117924750Y-129336559D01*
X117924750Y-129336560D01*
X118019596Y-129527037D01*
X118147836Y-129696852D01*
X118305090Y-129840208D01*
X118305092Y-129840210D01*
X118486007Y-129952228D01*
X118486013Y-129952231D01*
X118528048Y-129968515D01*
X118684434Y-130029099D01*
X118893129Y-130068111D01*
X118955410Y-130099779D01*
X118990683Y-130160092D01*
X118987749Y-130229900D01*
X118947540Y-130287040D01*
X118893129Y-130311888D01*
X118684434Y-130350901D01*
X118684431Y-130350901D01*
X118684431Y-130350902D01*
X118486013Y-130427768D01*
X118486007Y-130427771D01*
X118305092Y-130539789D01*
X118305090Y-130539791D01*
X118147836Y-130683147D01*
X118019596Y-130852962D01*
X117924750Y-131043439D01*
X117924750Y-131043440D01*
X117866514Y-131248115D01*
X117846881Y-131459999D01*
X117846881Y-131460000D01*
X117866514Y-131671884D01*
X117924750Y-131876559D01*
X117924750Y-131876560D01*
X118019596Y-132067037D01*
X118147836Y-132236852D01*
X118305090Y-132380208D01*
X118305092Y-132380210D01*
X118486007Y-132492228D01*
X118486013Y-132492231D01*
X118526339Y-132507853D01*
X118684434Y-132569099D01*
X118881366Y-132605912D01*
X118943645Y-132637579D01*
X118978918Y-132697892D01*
X118975984Y-132767700D01*
X118935775Y-132824840D01*
X118871057Y-132851171D01*
X118858579Y-132851800D01*
X118304429Y-132851800D01*
X118304423Y-132851801D01*
X118244816Y-132858208D01*
X118109971Y-132908502D01*
X118109964Y-132908506D01*
X117994755Y-132994752D01*
X117994752Y-132994755D01*
X117908506Y-133109964D01*
X117908502Y-133109971D01*
X117858208Y-133244817D01*
X117851801Y-133304416D01*
X117851801Y-133304423D01*
X117851800Y-133304435D01*
X117851800Y-134695570D01*
X117851801Y-134695576D01*
X117858208Y-134755183D01*
X117908502Y-134890028D01*
X117908506Y-134890035D01*
X117994752Y-135005244D01*
X117994755Y-135005247D01*
X118109964Y-135091493D01*
X118109971Y-135091497D01*
X118244817Y-135141791D01*
X118244816Y-135141791D01*
X118251744Y-135142535D01*
X118304427Y-135148200D01*
X119695572Y-135148199D01*
X119755183Y-135141791D01*
X119890031Y-135091496D01*
X120005246Y-135005246D01*
X120091496Y-134890031D01*
X120141791Y-134755183D01*
X120148200Y-134695573D01*
X120148199Y-133304428D01*
X120141791Y-133244817D01*
X120133709Y-133223149D01*
X120091497Y-133109971D01*
X120091493Y-133109964D01*
X120005247Y-132994755D01*
X120005244Y-132994752D01*
X119890035Y-132908506D01*
X119890028Y-132908502D01*
X119755182Y-132858208D01*
X119755183Y-132858208D01*
X119695583Y-132851801D01*
X119695581Y-132851800D01*
X119695573Y-132851800D01*
X119695565Y-132851800D01*
X119141421Y-132851800D01*
X119074382Y-132832115D01*
X119028627Y-132779311D01*
X119018683Y-132710153D01*
X119047708Y-132646597D01*
X119106486Y-132608823D01*
X119118618Y-132605915D01*
X119315566Y-132569099D01*
X119513989Y-132492230D01*
X119694909Y-132380209D01*
X119852165Y-132236851D01*
X119980402Y-132067039D01*
X120075251Y-131876555D01*
X120133485Y-131671885D01*
X120153119Y-131460000D01*
X120133485Y-131248115D01*
X120075251Y-131043445D01*
X120075249Y-131043440D01*
X120075249Y-131043439D01*
X119980403Y-130852962D01*
X119852163Y-130683147D01*
X119694909Y-130539791D01*
X119694907Y-130539789D01*
X119513992Y-130427771D01*
X119513986Y-130427768D01*
X119357603Y-130367186D01*
X119315566Y-130350901D01*
X119106868Y-130311888D01*
X119044589Y-130280221D01*
X119009316Y-130219908D01*
X119012250Y-130150100D01*
X119052459Y-130092960D01*
X119106868Y-130068111D01*
X119315566Y-130029099D01*
X119513989Y-129952230D01*
X119694909Y-129840209D01*
X119852165Y-129696851D01*
X119980402Y-129527039D01*
X119980403Y-129527037D01*
X120075249Y-129336560D01*
X120075249Y-129336559D01*
X120075251Y-129336555D01*
X120116789Y-129190565D01*
X120154068Y-129131472D01*
X120217378Y-129101915D01*
X120236055Y-129100500D01*
X122822524Y-129100500D01*
X122889563Y-129120185D01*
X122935318Y-129172989D01*
X122945744Y-129238386D01*
X122944435Y-129250001D01*
X122944435Y-129250003D01*
X122964630Y-129429249D01*
X122964631Y-129429254D01*
X123024211Y-129599523D01*
X123120184Y-129752262D01*
X123247738Y-129879816D01*
X123400478Y-129975789D01*
X123570745Y-130035368D01*
X123570750Y-130035369D01*
X123749996Y-130055565D01*
X123750000Y-130055565D01*
X123750004Y-130055565D01*
X123929249Y-130035369D01*
X123929252Y-130035368D01*
X123929255Y-130035368D01*
X124099522Y-129975789D01*
X124252262Y-129879816D01*
X124252267Y-129879810D01*
X124255097Y-129877555D01*
X124257275Y-129876665D01*
X124258158Y-129876111D01*
X124258255Y-129876265D01*
X124319783Y-129851145D01*
X124332412Y-129850500D01*
X127449903Y-129850500D01*
X127516942Y-129870185D01*
X127537584Y-129886819D01*
X131265139Y-133614374D01*
X131265149Y-133614385D01*
X131269479Y-133618715D01*
X131269480Y-133618716D01*
X131381284Y-133730520D01*
X131468095Y-133780639D01*
X131468097Y-133780641D01*
X131518213Y-133809576D01*
X131518215Y-133809577D01*
X131670942Y-133850500D01*
X131670943Y-133850500D01*
X145413331Y-133850500D01*
X145413347Y-133850501D01*
X145420943Y-133850501D01*
X145579054Y-133850501D01*
X145579057Y-133850501D01*
X145731785Y-133809577D01*
X145781904Y-133780639D01*
X145868716Y-133730520D01*
X145980520Y-133618716D01*
X145980520Y-133618714D01*
X145990728Y-133608507D01*
X145990730Y-133608504D01*
X151193506Y-128405728D01*
X151193511Y-128405724D01*
X151203714Y-128395520D01*
X151203716Y-128395520D01*
X151315520Y-128283716D01*
X151394577Y-128146784D01*
X151425391Y-128031785D01*
X151435500Y-127994058D01*
X151435500Y-127835943D01*
X151435500Y-127551692D01*
X151455185Y-127484653D01*
X151488374Y-127450119D01*
X151674139Y-127320047D01*
X151835047Y-127159139D01*
X151965568Y-126972734D01*
X151992618Y-126914724D01*
X152038790Y-126862285D01*
X152105983Y-126843133D01*
X152172865Y-126863348D01*
X152217382Y-126914725D01*
X152244429Y-126972728D01*
X152244432Y-126972734D01*
X152374954Y-127159141D01*
X152535858Y-127320045D01*
X152535861Y-127320047D01*
X152722266Y-127450568D01*
X152928504Y-127546739D01*
X153148308Y-127605635D01*
X153310230Y-127619801D01*
X153374998Y-127625468D01*
X153375000Y-127625468D01*
X153375002Y-127625468D01*
X153436448Y-127620092D01*
X153601692Y-127605635D01*
X153821496Y-127546739D01*
X154027734Y-127450568D01*
X154214139Y-127320047D01*
X154375047Y-127159139D01*
X154505568Y-126972734D01*
X154601739Y-126766496D01*
X154660635Y-126546692D01*
X154680468Y-126320000D01*
X154660635Y-126093308D01*
X154601739Y-125873504D01*
X154505568Y-125667266D01*
X154375047Y-125480861D01*
X154375045Y-125480858D01*
X154214141Y-125319954D01*
X154027734Y-125189432D01*
X154027732Y-125189431D01*
X153821497Y-125093261D01*
X153821488Y-125093258D01*
X153601697Y-125034366D01*
X153601693Y-125034365D01*
X153601692Y-125034365D01*
X153601691Y-125034364D01*
X153601686Y-125034364D01*
X153375002Y-125014532D01*
X153374998Y-125014532D01*
X153148313Y-125034364D01*
X153148302Y-125034366D01*
X152928511Y-125093258D01*
X152928502Y-125093261D01*
X152722267Y-125189431D01*
X152722265Y-125189432D01*
X152535858Y-125319954D01*
X152374954Y-125480858D01*
X152244432Y-125667265D01*
X152244431Y-125667267D01*
X152217382Y-125725275D01*
X152171209Y-125777714D01*
X152104016Y-125796866D01*
X152037135Y-125776650D01*
X151992618Y-125725275D01*
X151965686Y-125667520D01*
X151965568Y-125667266D01*
X151835047Y-125480861D01*
X151835045Y-125480858D01*
X151674141Y-125319954D01*
X151487734Y-125189432D01*
X151487732Y-125189431D01*
X151281497Y-125093261D01*
X151281488Y-125093258D01*
X151061697Y-125034366D01*
X151061693Y-125034365D01*
X151061692Y-125034365D01*
X151061691Y-125034364D01*
X151061686Y-125034364D01*
X150835002Y-125014532D01*
X150834998Y-125014532D01*
X150608313Y-125034364D01*
X150608302Y-125034366D01*
X150388511Y-125093258D01*
X150388502Y-125093261D01*
X150182267Y-125189431D01*
X150182265Y-125189432D01*
X149995858Y-125319954D01*
X149834954Y-125480858D01*
X149704432Y-125667265D01*
X149704431Y-125667267D01*
X149677382Y-125725275D01*
X149631209Y-125777714D01*
X149564016Y-125796866D01*
X149497135Y-125776650D01*
X149452618Y-125725275D01*
X149425686Y-125667520D01*
X149425568Y-125667266D01*
X149295047Y-125480861D01*
X149295045Y-125480858D01*
X149134141Y-125319954D01*
X148947734Y-125189432D01*
X148947732Y-125189431D01*
X148741497Y-125093261D01*
X148741488Y-125093258D01*
X148521697Y-125034366D01*
X148521693Y-125034365D01*
X148521692Y-125034365D01*
X148521691Y-125034364D01*
X148521686Y-125034364D01*
X148295002Y-125014532D01*
X148294998Y-125014532D01*
X148068313Y-125034364D01*
X148068302Y-125034366D01*
X147848511Y-125093258D01*
X147848502Y-125093261D01*
X147642267Y-125189431D01*
X147642265Y-125189432D01*
X147455858Y-125319954D01*
X147294954Y-125480858D01*
X147164882Y-125666623D01*
X147164432Y-125667266D01*
X147164315Y-125667518D01*
X147137106Y-125725867D01*
X147090933Y-125778306D01*
X147023739Y-125797457D01*
X146956858Y-125777241D01*
X146912342Y-125725865D01*
X146885135Y-125667520D01*
X146885134Y-125667518D01*
X146754657Y-125481179D01*
X146593820Y-125320342D01*
X146407482Y-125189865D01*
X146201328Y-125093734D01*
X146005000Y-125041127D01*
X146005000Y-126004314D01*
X146000606Y-125999920D01*
X145909394Y-125947259D01*
X145807661Y-125920000D01*
X145702339Y-125920000D01*
X145600606Y-125947259D01*
X145509394Y-125999920D01*
X145505000Y-126004314D01*
X145505000Y-125041127D01*
X145308671Y-125093734D01*
X145102517Y-125189865D01*
X144916179Y-125320342D01*
X144755342Y-125481179D01*
X144624865Y-125667517D01*
X144597382Y-125726457D01*
X144551210Y-125778896D01*
X144484016Y-125798048D01*
X144417135Y-125777832D01*
X144372618Y-125726457D01*
X144345134Y-125667517D01*
X144214657Y-125481179D01*
X144053820Y-125320342D01*
X143867482Y-125189865D01*
X143661328Y-125093734D01*
X143465000Y-125041127D01*
X143465000Y-126004314D01*
X143460606Y-125999920D01*
X143369394Y-125947259D01*
X143267661Y-125920000D01*
X143162339Y-125920000D01*
X143060606Y-125947259D01*
X142969394Y-125999920D01*
X142965000Y-126004314D01*
X142965000Y-125041127D01*
X142768671Y-125093734D01*
X142562517Y-125189865D01*
X142376179Y-125320342D01*
X142215342Y-125481179D01*
X142084867Y-125667515D01*
X142057657Y-125725867D01*
X142011484Y-125778306D01*
X141944290Y-125797457D01*
X141877409Y-125777241D01*
X141832893Y-125725865D01*
X141805685Y-125667518D01*
X141805568Y-125667266D01*
X141675047Y-125480861D01*
X141675045Y-125480858D01*
X141514141Y-125319954D01*
X141327734Y-125189432D01*
X141327732Y-125189431D01*
X141121497Y-125093261D01*
X141121488Y-125093258D01*
X140901697Y-125034366D01*
X140901693Y-125034365D01*
X140901692Y-125034365D01*
X140901691Y-125034364D01*
X140901686Y-125034364D01*
X140675002Y-125014532D01*
X140674998Y-125014532D01*
X140448313Y-125034364D01*
X140448302Y-125034366D01*
X140228511Y-125093258D01*
X140228502Y-125093261D01*
X140022267Y-125189431D01*
X140022265Y-125189432D01*
X139835858Y-125319954D01*
X139674954Y-125480858D01*
X139544432Y-125667265D01*
X139544431Y-125667267D01*
X139517382Y-125725275D01*
X139471209Y-125777714D01*
X139404016Y-125796866D01*
X139337135Y-125776650D01*
X139292618Y-125725275D01*
X139265686Y-125667520D01*
X139265568Y-125667266D01*
X139135047Y-125480861D01*
X139135045Y-125480858D01*
X138974141Y-125319954D01*
X138787734Y-125189432D01*
X138787732Y-125189431D01*
X138581497Y-125093261D01*
X138581488Y-125093258D01*
X138361697Y-125034366D01*
X138361693Y-125034365D01*
X138361692Y-125034365D01*
X138361691Y-125034364D01*
X138361686Y-125034364D01*
X138135002Y-125014532D01*
X138134998Y-125014532D01*
X137908313Y-125034364D01*
X137908302Y-125034366D01*
X137688511Y-125093258D01*
X137688502Y-125093261D01*
X137482267Y-125189431D01*
X137482265Y-125189432D01*
X137295858Y-125319954D01*
X137134954Y-125480858D01*
X137004432Y-125667265D01*
X137004431Y-125667267D01*
X136977382Y-125725275D01*
X136931209Y-125777714D01*
X136864016Y-125796866D01*
X136797135Y-125776650D01*
X136752618Y-125725275D01*
X136725686Y-125667520D01*
X136725568Y-125667266D01*
X136595047Y-125480861D01*
X136595045Y-125480858D01*
X136434141Y-125319954D01*
X136247734Y-125189432D01*
X136247732Y-125189431D01*
X136041497Y-125093261D01*
X136041488Y-125093258D01*
X135821697Y-125034366D01*
X135821693Y-125034365D01*
X135821692Y-125034365D01*
X135821691Y-125034364D01*
X135821686Y-125034364D01*
X135595002Y-125014532D01*
X135594998Y-125014532D01*
X135368313Y-125034364D01*
X135368302Y-125034366D01*
X135148511Y-125093258D01*
X135148502Y-125093261D01*
X134942267Y-125189431D01*
X134942265Y-125189432D01*
X134755858Y-125319954D01*
X134594954Y-125480858D01*
X134518450Y-125590118D01*
X134464881Y-125666624D01*
X134410307Y-125710248D01*
X134363308Y-125719500D01*
X131370097Y-125719500D01*
X131303058Y-125699815D01*
X131282416Y-125683181D01*
X128386819Y-122787584D01*
X128353334Y-122726261D01*
X128350500Y-122699903D01*
X128350500Y-120749996D01*
X129194435Y-120749996D01*
X129194435Y-120750003D01*
X129214630Y-120929249D01*
X129214631Y-120929254D01*
X129274211Y-121099523D01*
X129366351Y-121246162D01*
X129370184Y-121252262D01*
X129497738Y-121379816D01*
X129650478Y-121475789D01*
X129820745Y-121535368D01*
X129820750Y-121535369D01*
X129999996Y-121555565D01*
X130000000Y-121555565D01*
X130000004Y-121555565D01*
X130179249Y-121535369D01*
X130179252Y-121535368D01*
X130179255Y-121535368D01*
X130349522Y-121475789D01*
X130502262Y-121379816D01*
X130502267Y-121379810D01*
X130505097Y-121377555D01*
X130507275Y-121376665D01*
X130508158Y-121376111D01*
X130508255Y-121376265D01*
X130569783Y-121351145D01*
X130582412Y-121350500D01*
X148698331Y-121350500D01*
X148698347Y-121350501D01*
X148705943Y-121350501D01*
X148864054Y-121350501D01*
X148864057Y-121350501D01*
X149016785Y-121309577D01*
X149066904Y-121280639D01*
X149153716Y-121230520D01*
X149265520Y-121118716D01*
X149265520Y-121118714D01*
X149275728Y-121108507D01*
X149275730Y-121108504D01*
X150392294Y-119991939D01*
X150453615Y-119958456D01*
X150512066Y-119959847D01*
X150529917Y-119964630D01*
X150608308Y-119985635D01*
X150770230Y-119999801D01*
X150834998Y-120005468D01*
X150835000Y-120005468D01*
X150835002Y-120005468D01*
X150899374Y-119999836D01*
X151061692Y-119985635D01*
X151281496Y-119926739D01*
X151487734Y-119830568D01*
X151674139Y-119700047D01*
X151835047Y-119539139D01*
X151852272Y-119514539D01*
X151906848Y-119470913D01*
X151976346Y-119463718D01*
X152038701Y-119495239D01*
X152074116Y-119555468D01*
X152077138Y-119572406D01*
X152080908Y-119607483D01*
X152131202Y-119742328D01*
X152131206Y-119742335D01*
X152217452Y-119857544D01*
X152217455Y-119857547D01*
X152332664Y-119943793D01*
X152332671Y-119943797D01*
X152467517Y-119994091D01*
X152467516Y-119994091D01*
X152474444Y-119994835D01*
X152527127Y-120000500D01*
X154222872Y-120000499D01*
X154282483Y-119994091D01*
X154417331Y-119943796D01*
X154532546Y-119857546D01*
X154618796Y-119742331D01*
X154669091Y-119607483D01*
X154675500Y-119547873D01*
X154675499Y-117852128D01*
X154669091Y-117792517D01*
X154668565Y-117791108D01*
X154618797Y-117657671D01*
X154618793Y-117657664D01*
X154532547Y-117542455D01*
X154532544Y-117542452D01*
X154417335Y-117456206D01*
X154417328Y-117456202D01*
X154282482Y-117405908D01*
X154282483Y-117405908D01*
X154222883Y-117399501D01*
X154222881Y-117399500D01*
X154222873Y-117399500D01*
X154222864Y-117399500D01*
X152527129Y-117399500D01*
X152527123Y-117399501D01*
X152467516Y-117405908D01*
X152332671Y-117456202D01*
X152332664Y-117456206D01*
X152217455Y-117542452D01*
X152217452Y-117542455D01*
X152131206Y-117657664D01*
X152131202Y-117657671D01*
X152080908Y-117792516D01*
X152077137Y-117827596D01*
X152050398Y-117892146D01*
X151993006Y-117931994D01*
X151923180Y-117934487D01*
X151863092Y-117898834D01*
X151852273Y-117885462D01*
X151835045Y-117860858D01*
X151674141Y-117699954D01*
X151487734Y-117569432D01*
X151487732Y-117569431D01*
X151281497Y-117473261D01*
X151281488Y-117473258D01*
X151061697Y-117414366D01*
X151061693Y-117414365D01*
X151061692Y-117414365D01*
X151061691Y-117414364D01*
X151061686Y-117414364D01*
X150835002Y-117394532D01*
X150834998Y-117394532D01*
X150608313Y-117414364D01*
X150608302Y-117414366D01*
X150388511Y-117473258D01*
X150388502Y-117473261D01*
X150182267Y-117569431D01*
X150182265Y-117569432D01*
X149995858Y-117699954D01*
X149834954Y-117860858D01*
X149704432Y-118047265D01*
X149704428Y-118047272D01*
X149677381Y-118105274D01*
X149631208Y-118157713D01*
X149564014Y-118176864D01*
X149497133Y-118156647D01*
X149452618Y-118105273D01*
X149449938Y-118099525D01*
X149425569Y-118047266D01*
X149295048Y-117860861D01*
X149134140Y-117699953D01*
X149064088Y-117650902D01*
X149048377Y-117639901D01*
X149004752Y-117585324D01*
X148995501Y-117538326D01*
X148995501Y-117476005D01*
X148968582Y-117340678D01*
X148968581Y-117340677D01*
X148968581Y-117340673D01*
X148915776Y-117213190D01*
X148910896Y-117205886D01*
X148839115Y-117098458D01*
X148839113Y-117098455D01*
X144040654Y-112299996D01*
X145044435Y-112299996D01*
X145044435Y-112300003D01*
X145064630Y-112479249D01*
X145064631Y-112479254D01*
X145124211Y-112649523D01*
X145200028Y-112770184D01*
X145220184Y-112802262D01*
X145347738Y-112929816D01*
X145428430Y-112980518D01*
X145488425Y-113018216D01*
X145500478Y-113025789D01*
X145597033Y-113059575D01*
X145670745Y-113085368D01*
X145670750Y-113085369D01*
X145849996Y-113105565D01*
X145850000Y-113105565D01*
X145850004Y-113105565D01*
X146029249Y-113085369D01*
X146029252Y-113085368D01*
X146029255Y-113085368D01*
X146199522Y-113025789D01*
X146352262Y-112929816D01*
X146479816Y-112802262D01*
X146575789Y-112649522D01*
X146635368Y-112479255D01*
X146645161Y-112392329D01*
X146672226Y-112327918D01*
X146680690Y-112318543D01*
X152687821Y-106311413D01*
X152749142Y-106277930D01*
X152818834Y-106282914D01*
X152874767Y-106324786D01*
X152899184Y-106390250D01*
X152899500Y-106399096D01*
X152899500Y-106949901D01*
X152879815Y-107016940D01*
X152863181Y-107037582D01*
X147287514Y-112613249D01*
X147240789Y-112642609D01*
X147150476Y-112674211D01*
X147150475Y-112674212D01*
X146997737Y-112770184D01*
X146870184Y-112897737D01*
X146774211Y-113050476D01*
X146714631Y-113220745D01*
X146714630Y-113220750D01*
X146694435Y-113399996D01*
X146694435Y-113400003D01*
X146714630Y-113579249D01*
X146714631Y-113579254D01*
X146774211Y-113749523D01*
X146817863Y-113818994D01*
X146870184Y-113902262D01*
X146997738Y-114029816D01*
X147150478Y-114125789D01*
X147320745Y-114185368D01*
X147320750Y-114185369D01*
X147499996Y-114205565D01*
X147500000Y-114205565D01*
X147500004Y-114205565D01*
X147679249Y-114185369D01*
X147679252Y-114185368D01*
X147679255Y-114185368D01*
X147849522Y-114125789D01*
X148002262Y-114029816D01*
X148129816Y-113902262D01*
X148225789Y-113749522D01*
X148285368Y-113579255D01*
X148294731Y-113496161D01*
X148305565Y-113400002D01*
X148305565Y-113400000D01*
X148305565Y-113399996D01*
X148301483Y-113363776D01*
X148313536Y-113294956D01*
X148337019Y-113262214D01*
X153712417Y-107886818D01*
X153773740Y-107853333D01*
X153800098Y-107850499D01*
X155147871Y-107850499D01*
X155147872Y-107850499D01*
X155207483Y-107844091D01*
X155342331Y-107793796D01*
X155457546Y-107707546D01*
X155543796Y-107592331D01*
X155594091Y-107457483D01*
X155600500Y-107397873D01*
X155600499Y-105602128D01*
X155594091Y-105542517D01*
X155573700Y-105487847D01*
X155543797Y-105407671D01*
X155543793Y-105407664D01*
X155457547Y-105292455D01*
X155457544Y-105292452D01*
X155342335Y-105206206D01*
X155342328Y-105206202D01*
X155210917Y-105157189D01*
X155154983Y-105115318D01*
X155130566Y-105049853D01*
X155145418Y-104981580D01*
X155166563Y-104953332D01*
X155288495Y-104831401D01*
X155424035Y-104637830D01*
X155523903Y-104423663D01*
X155585063Y-104195408D01*
X155605659Y-103960000D01*
X155585063Y-103724592D01*
X155523903Y-103496337D01*
X155424035Y-103282171D01*
X155406901Y-103257700D01*
X155288494Y-103088597D01*
X155121402Y-102921506D01*
X155121401Y-102921505D01*
X154935842Y-102791575D01*
X154892218Y-102736998D01*
X154885025Y-102667499D01*
X154916547Y-102605145D01*
X154935843Y-102588425D01*
X154951367Y-102577555D01*
X155121401Y-102458496D01*
X155288495Y-102291402D01*
X155424035Y-102097831D01*
X155523903Y-101883664D01*
X155585063Y-101655409D01*
X155605659Y-101420001D01*
X155585063Y-101184593D01*
X155523903Y-100956338D01*
X155424035Y-100742172D01*
X155406901Y-100717701D01*
X155288494Y-100548598D01*
X155121402Y-100381507D01*
X155121396Y-100381502D01*
X154935405Y-100251270D01*
X154891780Y-100196693D01*
X154884586Y-100127195D01*
X154916109Y-100064840D01*
X154935404Y-100048120D01*
X155121082Y-99918105D01*
X155288105Y-99751082D01*
X155423600Y-99557578D01*
X155523429Y-99343492D01*
X155523432Y-99343486D01*
X155580636Y-99130000D01*
X154683012Y-99130000D01*
X154715925Y-99072993D01*
X154750000Y-98945826D01*
X154750000Y-98814174D01*
X154715925Y-98687007D01*
X154683012Y-98630000D01*
X155580636Y-98630000D01*
X155580635Y-98629999D01*
X155523432Y-98416513D01*
X155523429Y-98416507D01*
X155423600Y-98202422D01*
X155423599Y-98202420D01*
X155288113Y-98008926D01*
X155288108Y-98008920D01*
X155121082Y-97841894D01*
X154927578Y-97706399D01*
X154713492Y-97606570D01*
X154713486Y-97606567D01*
X154500000Y-97549364D01*
X154500000Y-98446988D01*
X154442993Y-98414075D01*
X154315826Y-98380000D01*
X154184174Y-98380000D01*
X154057007Y-98414075D01*
X154000000Y-98446988D01*
X154000000Y-97549364D01*
X153999999Y-97549364D01*
X153786513Y-97606567D01*
X153786507Y-97606570D01*
X153572422Y-97706399D01*
X153572420Y-97706400D01*
X153378926Y-97841886D01*
X153378920Y-97841891D01*
X153211891Y-98008920D01*
X153211886Y-98008926D01*
X153076400Y-98202420D01*
X153076399Y-98202422D01*
X152976570Y-98416507D01*
X152976567Y-98416513D01*
X152919364Y-98629999D01*
X152919364Y-98630000D01*
X153816988Y-98630000D01*
X153784075Y-98687007D01*
X153750000Y-98814174D01*
X153750000Y-98945826D01*
X153784075Y-99072993D01*
X153816988Y-99130000D01*
X152919364Y-99130000D01*
X152976567Y-99343486D01*
X152976570Y-99343492D01*
X153076399Y-99557578D01*
X153211894Y-99751082D01*
X153378917Y-99918105D01*
X153564596Y-100048120D01*
X153608221Y-100102697D01*
X153615413Y-100172196D01*
X153583891Y-100234550D01*
X153564595Y-100251270D01*
X153378597Y-100381506D01*
X153211505Y-100548598D01*
X153075965Y-100742170D01*
X153075964Y-100742172D01*
X152976098Y-100956336D01*
X152976094Y-100956345D01*
X152914938Y-101184587D01*
X152914936Y-101184597D01*
X152894341Y-101420000D01*
X152894341Y-101420001D01*
X152914936Y-101655404D01*
X152914938Y-101655414D01*
X152976094Y-101883656D01*
X152976096Y-101883660D01*
X152976097Y-101883664D01*
X153051179Y-102044678D01*
X153075965Y-102097831D01*
X153075967Y-102097835D01*
X153160257Y-102218213D01*
X153211505Y-102291402D01*
X153378599Y-102458496D01*
X153548631Y-102577554D01*
X153564157Y-102588425D01*
X153607782Y-102643002D01*
X153614976Y-102712500D01*
X153583453Y-102774855D01*
X153564158Y-102791575D01*
X153378594Y-102921508D01*
X153211505Y-103088597D01*
X153075965Y-103282169D01*
X153075964Y-103282171D01*
X152976098Y-103496335D01*
X152976094Y-103496344D01*
X152914938Y-103724586D01*
X152914936Y-103724596D01*
X152894341Y-103959999D01*
X152894341Y-103960000D01*
X152914937Y-104195408D01*
X152936647Y-104276436D01*
X152934983Y-104346286D01*
X152904553Y-104396209D01*
X145831465Y-111469298D01*
X145770142Y-111502783D01*
X145757668Y-111504837D01*
X145670750Y-111514630D01*
X145500478Y-111574210D01*
X145347737Y-111670184D01*
X145220184Y-111797737D01*
X145124211Y-111950476D01*
X145064631Y-112120745D01*
X145064630Y-112120750D01*
X145044435Y-112299996D01*
X144040654Y-112299996D01*
X141236819Y-109496161D01*
X141203334Y-109434838D01*
X141200500Y-109408480D01*
X141200500Y-94425493D01*
X141219508Y-94359519D01*
X141225787Y-94349525D01*
X141225786Y-94349525D01*
X141225789Y-94349522D01*
X141285368Y-94179255D01*
X141285369Y-94179249D01*
X141305565Y-94000003D01*
X141305565Y-93999996D01*
X141285369Y-93820750D01*
X141285368Y-93820745D01*
X141225788Y-93650476D01*
X141163100Y-93550709D01*
X141129816Y-93497738D01*
X141002262Y-93370184D01*
X140891283Y-93300451D01*
X140849523Y-93274211D01*
X140679254Y-93214631D01*
X140679249Y-93214630D01*
X140500004Y-93194435D01*
X140499996Y-93194435D01*
X140320750Y-93214630D01*
X140320745Y-93214631D01*
X140150476Y-93274211D01*
X139997737Y-93370184D01*
X139870184Y-93497737D01*
X139774211Y-93650476D01*
X139714631Y-93820745D01*
X139714630Y-93820750D01*
X139694435Y-93999996D01*
X139694435Y-94000003D01*
X139714630Y-94179249D01*
X139714631Y-94179254D01*
X139774212Y-94349525D01*
X139780492Y-94359519D01*
X139799500Y-94425493D01*
X139799500Y-109681006D01*
X139799500Y-109818994D01*
X139799500Y-109818996D01*
X139799499Y-109818996D01*
X139826418Y-109954322D01*
X139826421Y-109954332D01*
X139879222Y-110081807D01*
X139955887Y-110196545D01*
X139955888Y-110196546D01*
X147369897Y-117610554D01*
X147403382Y-117671877D01*
X147398398Y-117741569D01*
X147369898Y-117785916D01*
X147294952Y-117860862D01*
X147164433Y-118047265D01*
X147164429Y-118047272D01*
X147137105Y-118105868D01*
X147090932Y-118158307D01*
X147023738Y-118177458D01*
X146956857Y-118157241D01*
X146912341Y-118105866D01*
X146885132Y-118047515D01*
X146754657Y-117861179D01*
X146593820Y-117700342D01*
X146407482Y-117569865D01*
X146201328Y-117473734D01*
X146005000Y-117421127D01*
X146005000Y-118384314D01*
X146000606Y-118379920D01*
X145909394Y-118327259D01*
X145807661Y-118300000D01*
X145702339Y-118300000D01*
X145600606Y-118327259D01*
X145509394Y-118379920D01*
X145505000Y-118384314D01*
X145505000Y-117421127D01*
X145308671Y-117473734D01*
X145102517Y-117569865D01*
X144916179Y-117700342D01*
X144755342Y-117861179D01*
X144624865Y-118047517D01*
X144597382Y-118106457D01*
X144551210Y-118158896D01*
X144484016Y-118178048D01*
X144417135Y-118157832D01*
X144372618Y-118106457D01*
X144345134Y-118047517D01*
X144214657Y-117861179D01*
X144053820Y-117700342D01*
X143867482Y-117569865D01*
X143661328Y-117473734D01*
X143465000Y-117421127D01*
X143465000Y-118384314D01*
X143460606Y-118379920D01*
X143369394Y-118327259D01*
X143267661Y-118300000D01*
X143162339Y-118300000D01*
X143060606Y-118327259D01*
X142969394Y-118379920D01*
X142965000Y-118384314D01*
X142965000Y-117421127D01*
X142768671Y-117473734D01*
X142562517Y-117569865D01*
X142376179Y-117700342D01*
X142215342Y-117861179D01*
X142084867Y-118047515D01*
X142057657Y-118105867D01*
X142011484Y-118158306D01*
X141944290Y-118177457D01*
X141877409Y-118157241D01*
X141832893Y-118105865D01*
X141832617Y-118105274D01*
X141805568Y-118047266D01*
X141675047Y-117860861D01*
X141514139Y-117699953D01*
X141444087Y-117650902D01*
X141428376Y-117639901D01*
X141384751Y-117585324D01*
X141375500Y-117538326D01*
X141375500Y-116356004D01*
X141348581Y-116220677D01*
X141348580Y-116220676D01*
X141348580Y-116220672D01*
X141348578Y-116220667D01*
X141295777Y-116093192D01*
X141219112Y-115978454D01*
X138736819Y-113496161D01*
X138703334Y-113434838D01*
X138700500Y-113408480D01*
X138700500Y-87704773D01*
X143200000Y-87704773D01*
X143200000Y-88500000D01*
X144531116Y-88500000D01*
X144500000Y-88656433D01*
X144500000Y-88843567D01*
X144531116Y-89000000D01*
X143200001Y-89000000D01*
X143200001Y-89795227D01*
X143210566Y-89929474D01*
X143266423Y-90151152D01*
X143360962Y-90359287D01*
X143360967Y-90359296D01*
X143491151Y-90547203D01*
X143652796Y-90708848D01*
X143840703Y-90839032D01*
X143840712Y-90839037D01*
X144048847Y-90933576D01*
X144270525Y-90989433D01*
X144404780Y-90999999D01*
X145199999Y-90999999D01*
X145200000Y-90999998D01*
X145200000Y-89668883D01*
X145356433Y-89700000D01*
X145543567Y-89700000D01*
X145700000Y-89668883D01*
X145700000Y-90999999D01*
X146495212Y-90999999D01*
X146495227Y-90999998D01*
X146629474Y-90989433D01*
X146851152Y-90933576D01*
X147059287Y-90839037D01*
X147059296Y-90839032D01*
X147247203Y-90708848D01*
X147408848Y-90547203D01*
X147539032Y-90359296D01*
X147539037Y-90359287D01*
X147633576Y-90151152D01*
X147689433Y-89929474D01*
X147699999Y-89795226D01*
X147700000Y-89795213D01*
X147700000Y-89000000D01*
X146368884Y-89000000D01*
X146400000Y-88843567D01*
X146400000Y-88656433D01*
X146368884Y-88500000D01*
X147699999Y-88500000D01*
X147699999Y-87704787D01*
X147699998Y-87704772D01*
X147689433Y-87570525D01*
X147633576Y-87348847D01*
X147539037Y-87140712D01*
X147539032Y-87140703D01*
X147408848Y-86952796D01*
X147247203Y-86791151D01*
X147059296Y-86660967D01*
X147059287Y-86660962D01*
X146851152Y-86566423D01*
X146629474Y-86510566D01*
X146495226Y-86500000D01*
X145700000Y-86500000D01*
X145700000Y-87831116D01*
X145543567Y-87800000D01*
X145356433Y-87800000D01*
X145200000Y-87831116D01*
X145200000Y-86500000D01*
X144404787Y-86500000D01*
X144404772Y-86500001D01*
X144270525Y-86510566D01*
X144048847Y-86566423D01*
X143840712Y-86660962D01*
X143840703Y-86660967D01*
X143652796Y-86791151D01*
X143491151Y-86952796D01*
X143360967Y-87140703D01*
X143360962Y-87140712D01*
X143266423Y-87348847D01*
X143210566Y-87570525D01*
X143200000Y-87704773D01*
X138700500Y-87704773D01*
X138700500Y-84931004D01*
X138673581Y-84795677D01*
X138673580Y-84795676D01*
X138673580Y-84795672D01*
X138667141Y-84780127D01*
X138620777Y-84668192D01*
X138544112Y-84553454D01*
X137740650Y-83749992D01*
X143194671Y-83749992D01*
X143194671Y-83750007D01*
X143213964Y-84044363D01*
X143213965Y-84044373D01*
X143213966Y-84044380D01*
X143259113Y-84271354D01*
X143271518Y-84333716D01*
X143271521Y-84333730D01*
X143366349Y-84613080D01*
X143496825Y-84877660D01*
X143496829Y-84877667D01*
X143660725Y-85122955D01*
X143855241Y-85344758D01*
X144077044Y-85539274D01*
X144081576Y-85542302D01*
X144322335Y-85703172D01*
X144586923Y-85833652D01*
X144866278Y-85928481D01*
X145155620Y-85986034D01*
X145183888Y-85987886D01*
X145449993Y-86005329D01*
X145450000Y-86005329D01*
X145450007Y-86005329D01*
X145685675Y-85989881D01*
X145744380Y-85986034D01*
X146033722Y-85928481D01*
X146313077Y-85833652D01*
X146577665Y-85703172D01*
X146822957Y-85539273D01*
X147044758Y-85344758D01*
X147239273Y-85122957D01*
X147403172Y-84877665D01*
X147533652Y-84613077D01*
X147628481Y-84333722D01*
X147686034Y-84044380D01*
X147690930Y-83969682D01*
X147705329Y-83750007D01*
X147705329Y-83749992D01*
X147686035Y-83455636D01*
X147686034Y-83455620D01*
X147628481Y-83166278D01*
X147625199Y-83156611D01*
X147571269Y-82997738D01*
X147533652Y-82886923D01*
X147403172Y-82622336D01*
X147239273Y-82377043D01*
X147158876Y-82285368D01*
X147044758Y-82155241D01*
X146822955Y-81960725D01*
X146577667Y-81796829D01*
X146577660Y-81796825D01*
X146313080Y-81666349D01*
X146033730Y-81571521D01*
X146033724Y-81571519D01*
X146033722Y-81571519D01*
X145744380Y-81513966D01*
X145744373Y-81513965D01*
X145744363Y-81513964D01*
X145450007Y-81494671D01*
X145449993Y-81494671D01*
X145155636Y-81513964D01*
X145155624Y-81513965D01*
X145155620Y-81513966D01*
X145155612Y-81513967D01*
X145155609Y-81513968D01*
X144866283Y-81571518D01*
X144866269Y-81571521D01*
X144586919Y-81666349D01*
X144322334Y-81796828D01*
X144077041Y-81960728D01*
X143855241Y-82155241D01*
X143660728Y-82377041D01*
X143496828Y-82622334D01*
X143366349Y-82886919D01*
X143271521Y-83166269D01*
X143271518Y-83166283D01*
X143213968Y-83455609D01*
X143213964Y-83455636D01*
X143194671Y-83749992D01*
X137740650Y-83749992D01*
X136516545Y-82525887D01*
X136401807Y-82449222D01*
X136274332Y-82396421D01*
X136274322Y-82396418D01*
X136138996Y-82369500D01*
X136138994Y-82369500D01*
X136138993Y-82369500D01*
X135925494Y-82369500D01*
X135859523Y-82350494D01*
X135849525Y-82344212D01*
X135679254Y-82284631D01*
X135679249Y-82284630D01*
X135500004Y-82264435D01*
X135499996Y-82264435D01*
X135320750Y-82284630D01*
X135320745Y-82284631D01*
X135150476Y-82344211D01*
X134997737Y-82440184D01*
X134870184Y-82567737D01*
X134774211Y-82720476D01*
X134714631Y-82890745D01*
X134714630Y-82890750D01*
X134694435Y-83069996D01*
X134694435Y-83070003D01*
X134714630Y-83249249D01*
X134714631Y-83249254D01*
X134774211Y-83419523D01*
X134851430Y-83542416D01*
X134870184Y-83572262D01*
X134997738Y-83699816D01*
X135078610Y-83750631D01*
X135136375Y-83786928D01*
X135150478Y-83795789D01*
X135256901Y-83833028D01*
X135320745Y-83855368D01*
X135320750Y-83855369D01*
X135499996Y-83875565D01*
X135500000Y-83875565D01*
X135500004Y-83875565D01*
X135679248Y-83855369D01*
X135679248Y-83855368D01*
X135679255Y-83855368D01*
X135743099Y-83833027D01*
X135812872Y-83829465D01*
X135871731Y-83862388D01*
X137263181Y-85253838D01*
X137296666Y-85315161D01*
X137299500Y-85341519D01*
X137299500Y-113681006D01*
X137299500Y-113818994D01*
X137299500Y-113818996D01*
X137299499Y-113818996D01*
X137326418Y-113954322D01*
X137326421Y-113954332D01*
X137379222Y-114081807D01*
X137455887Y-114196545D01*
X137455888Y-114196546D01*
X139938181Y-116678838D01*
X139971666Y-116740161D01*
X139974500Y-116766519D01*
X139974500Y-117538326D01*
X139954815Y-117605365D01*
X139921624Y-117639901D01*
X139835863Y-117699951D01*
X139674951Y-117860862D01*
X139544432Y-118047265D01*
X139544431Y-118047267D01*
X139525310Y-118088272D01*
X139520065Y-118099522D01*
X139517382Y-118105275D01*
X139471209Y-118157714D01*
X139404016Y-118176866D01*
X139337135Y-118156650D01*
X139292618Y-118105275D01*
X139289937Y-118099525D01*
X139265568Y-118047266D01*
X139135047Y-117860861D01*
X139135045Y-117860858D01*
X138974141Y-117699954D01*
X138787734Y-117569432D01*
X138787732Y-117569431D01*
X138581497Y-117473261D01*
X138581488Y-117473258D01*
X138361697Y-117414366D01*
X138361693Y-117414365D01*
X138361692Y-117414365D01*
X138361691Y-117414364D01*
X138361686Y-117414364D01*
X138135002Y-117394532D01*
X138134998Y-117394532D01*
X137908313Y-117414364D01*
X137908302Y-117414366D01*
X137688511Y-117473258D01*
X137688502Y-117473261D01*
X137482267Y-117569431D01*
X137482265Y-117569432D01*
X137295858Y-117699954D01*
X137134954Y-117860858D01*
X137004433Y-118047264D01*
X137004432Y-118047266D01*
X136980065Y-118099522D01*
X136977381Y-118105277D01*
X136931208Y-118157716D01*
X136864014Y-118176867D01*
X136797133Y-118156651D01*
X136752617Y-118105275D01*
X136749936Y-118099525D01*
X136725567Y-118047266D01*
X136595046Y-117860861D01*
X136595044Y-117860858D01*
X136434140Y-117699954D01*
X136247733Y-117569432D01*
X136247731Y-117569431D01*
X136041496Y-117473261D01*
X136041487Y-117473258D01*
X135821696Y-117414366D01*
X135821692Y-117414365D01*
X135821691Y-117414365D01*
X135821690Y-117414364D01*
X135821685Y-117414364D01*
X135595001Y-117394532D01*
X135594997Y-117394532D01*
X135368312Y-117414364D01*
X135368301Y-117414366D01*
X135148510Y-117473258D01*
X135148501Y-117473261D01*
X134942266Y-117569431D01*
X134942264Y-117569432D01*
X134755857Y-117699954D01*
X134594953Y-117860858D01*
X134464431Y-118047265D01*
X134464430Y-118047267D01*
X134368260Y-118253502D01*
X134368257Y-118253511D01*
X134309365Y-118473302D01*
X134309363Y-118473313D01*
X134289531Y-118699998D01*
X134289531Y-118700001D01*
X134309363Y-118926686D01*
X134309365Y-118926697D01*
X134368257Y-119146488D01*
X134368260Y-119146497D01*
X134464430Y-119352732D01*
X134464431Y-119352734D01*
X134594953Y-119539141D01*
X134755857Y-119700045D01*
X134755860Y-119700047D01*
X134942265Y-119830568D01*
X135108746Y-119908200D01*
X135119293Y-119913118D01*
X135171732Y-119959291D01*
X135190884Y-120026484D01*
X135170668Y-120093365D01*
X135117503Y-120138700D01*
X135066888Y-120149500D01*
X130582412Y-120149500D01*
X130515373Y-120129815D01*
X130505097Y-120122445D01*
X130502263Y-120120185D01*
X130502262Y-120120184D01*
X130421828Y-120069644D01*
X130349523Y-120024211D01*
X130179254Y-119964631D01*
X130179249Y-119964630D01*
X130000004Y-119944435D01*
X129999996Y-119944435D01*
X129820750Y-119964630D01*
X129820745Y-119964631D01*
X129650476Y-120024211D01*
X129497737Y-120120184D01*
X129370184Y-120247737D01*
X129274211Y-120400476D01*
X129214631Y-120570745D01*
X129214630Y-120570750D01*
X129194435Y-120749996D01*
X128350500Y-120749996D01*
X128350500Y-102539059D01*
X128350501Y-102539046D01*
X128350501Y-102370945D01*
X128350501Y-102370943D01*
X128309577Y-102218215D01*
X128274895Y-102158144D01*
X128274895Y-102158143D01*
X128230524Y-102081290D01*
X128230521Y-102081286D01*
X128230520Y-102081284D01*
X128118716Y-101969480D01*
X128118715Y-101969479D01*
X128114385Y-101965149D01*
X128114374Y-101965139D01*
X126913663Y-100764428D01*
X126884303Y-100717704D01*
X126825789Y-100550478D01*
X126729816Y-100397738D01*
X126602262Y-100270184D01*
X126449523Y-100174211D01*
X126279254Y-100114631D01*
X126279250Y-100114630D01*
X126172725Y-100102628D01*
X126108311Y-100075561D01*
X126068756Y-100017966D01*
X126066619Y-99948129D01*
X126098926Y-99891729D01*
X127077269Y-98913388D01*
X130124500Y-98913388D01*
X130124500Y-99086610D01*
X130151598Y-99257700D01*
X130205127Y-99422444D01*
X130283768Y-99576787D01*
X130385586Y-99716927D01*
X130508072Y-99839413D01*
X130508078Y-99839417D01*
X130591023Y-99899682D01*
X130633689Y-99955012D01*
X130639667Y-100024625D01*
X130607061Y-100086420D01*
X130591023Y-100100316D01*
X130508078Y-100160580D01*
X130508069Y-100160587D01*
X130385588Y-100283068D01*
X130385588Y-100283069D01*
X130385586Y-100283071D01*
X130376431Y-100295672D01*
X130283768Y-100423210D01*
X130205128Y-100577551D01*
X130151597Y-100742301D01*
X130124500Y-100913388D01*
X130124500Y-101086609D01*
X130151579Y-101257585D01*
X130151598Y-101257700D01*
X130205127Y-101422444D01*
X130283768Y-101576787D01*
X130385586Y-101716927D01*
X130508072Y-101839413D01*
X130508078Y-101839417D01*
X130591023Y-101899682D01*
X130633689Y-101955012D01*
X130639667Y-102024625D01*
X130607061Y-102086420D01*
X130591023Y-102100316D01*
X130508078Y-102160580D01*
X130508069Y-102160587D01*
X130385588Y-102283068D01*
X130385588Y-102283069D01*
X130385586Y-102283071D01*
X130341859Y-102343255D01*
X130283768Y-102423210D01*
X130205128Y-102577551D01*
X130151597Y-102742301D01*
X130124500Y-102913388D01*
X130124500Y-103086609D01*
X130151597Y-103257696D01*
X130151597Y-103257698D01*
X130151598Y-103257700D01*
X130205127Y-103422444D01*
X130283768Y-103576787D01*
X130385586Y-103716927D01*
X130508072Y-103839413D01*
X130508078Y-103839417D01*
X130591023Y-103899682D01*
X130633689Y-103955012D01*
X130639667Y-104024625D01*
X130607061Y-104086420D01*
X130591023Y-104100316D01*
X130508078Y-104160580D01*
X130508069Y-104160587D01*
X130385588Y-104283068D01*
X130385588Y-104283069D01*
X130385586Y-104283071D01*
X130341859Y-104343255D01*
X130283768Y-104423210D01*
X130205128Y-104577551D01*
X130151597Y-104742301D01*
X130124500Y-104913388D01*
X130124500Y-105086609D01*
X130151597Y-105257696D01*
X130151597Y-105257698D01*
X130151598Y-105257700D01*
X130205127Y-105422444D01*
X130283768Y-105576787D01*
X130385586Y-105716927D01*
X130508072Y-105839413D01*
X130591448Y-105899989D01*
X130634113Y-105955319D01*
X130640092Y-106024933D01*
X130607486Y-106086728D01*
X130591448Y-106100625D01*
X130508399Y-106160963D01*
X130385967Y-106283395D01*
X130284195Y-106423473D01*
X130205591Y-106577742D01*
X130152085Y-106742413D01*
X130150884Y-106749997D01*
X130150885Y-106749998D01*
X131219670Y-106749998D01*
X131199925Y-106769743D01*
X131150556Y-106855253D01*
X131125000Y-106950628D01*
X131125000Y-107049368D01*
X131150556Y-107144743D01*
X131199925Y-107230253D01*
X131219670Y-107249998D01*
X130150885Y-107249998D01*
X130152085Y-107257582D01*
X130205591Y-107422253D01*
X130284195Y-107576522D01*
X130385967Y-107716600D01*
X130493565Y-107824198D01*
X130527050Y-107885521D01*
X130522066Y-107955213D01*
X130480194Y-108011146D01*
X130470982Y-108017417D01*
X130406344Y-108057286D01*
X130282289Y-108181341D01*
X130190187Y-108330662D01*
X130190186Y-108330665D01*
X130135001Y-108497202D01*
X130135001Y-108497203D01*
X130135000Y-108497203D01*
X130124500Y-108599982D01*
X130124500Y-109400000D01*
X130124501Y-109400018D01*
X130135000Y-109502795D01*
X130135001Y-109502798D01*
X130163753Y-109589565D01*
X130190186Y-109669333D01*
X130282288Y-109818655D01*
X130406344Y-109942711D01*
X130555666Y-110034813D01*
X130722203Y-110089998D01*
X130824991Y-110100499D01*
X132175008Y-110100498D01*
X132277797Y-110089998D01*
X132444334Y-110034813D01*
X132593656Y-109942711D01*
X132717712Y-109818655D01*
X132809814Y-109669333D01*
X132864999Y-109502796D01*
X132875500Y-109400008D01*
X132875499Y-108599991D01*
X132864999Y-108497202D01*
X132809814Y-108330665D01*
X132717712Y-108181343D01*
X132593656Y-108057287D01*
X132593652Y-108057284D01*
X132529018Y-108017417D01*
X132482293Y-107965469D01*
X132471072Y-107896507D01*
X132498915Y-107832425D01*
X132506434Y-107824197D01*
X132614035Y-107716596D01*
X132715804Y-107576522D01*
X132794408Y-107422253D01*
X132847914Y-107257582D01*
X132849115Y-107249998D01*
X131780330Y-107249998D01*
X131800075Y-107230253D01*
X131849444Y-107144743D01*
X131875000Y-107049368D01*
X131875000Y-106950628D01*
X131849444Y-106855253D01*
X131800075Y-106769743D01*
X131780330Y-106749998D01*
X132849115Y-106749998D01*
X132849115Y-106749997D01*
X132847914Y-106742413D01*
X132794408Y-106577742D01*
X132715804Y-106423473D01*
X132614032Y-106283395D01*
X132491600Y-106160963D01*
X132491595Y-106160959D01*
X132408552Y-106100625D01*
X132365886Y-106045295D01*
X132359907Y-105975682D01*
X132392512Y-105913887D01*
X132408549Y-105899991D01*
X132491928Y-105839413D01*
X132614414Y-105716927D01*
X132716232Y-105576787D01*
X132794873Y-105422444D01*
X132848402Y-105257700D01*
X132875500Y-105086610D01*
X132875500Y-104913388D01*
X132848402Y-104742298D01*
X132794873Y-104577554D01*
X132716232Y-104423211D01*
X132614414Y-104283071D01*
X132491928Y-104160585D01*
X132408975Y-104100316D01*
X132366311Y-104044987D01*
X132360332Y-103975373D01*
X132392938Y-103913578D01*
X132408976Y-103899681D01*
X132491928Y-103839413D01*
X132614414Y-103716927D01*
X132716232Y-103576787D01*
X132794873Y-103422444D01*
X132848402Y-103257700D01*
X132875500Y-103086610D01*
X132875500Y-102913388D01*
X132848402Y-102742298D01*
X132794873Y-102577554D01*
X132716232Y-102423211D01*
X132614414Y-102283071D01*
X132491928Y-102160585D01*
X132408975Y-102100316D01*
X132366311Y-102044987D01*
X132360332Y-101975373D01*
X132392938Y-101913578D01*
X132408976Y-101899681D01*
X132491928Y-101839413D01*
X132614414Y-101716927D01*
X132716232Y-101576787D01*
X132794873Y-101422444D01*
X132848402Y-101257700D01*
X132875500Y-101086610D01*
X132875500Y-100913388D01*
X132848402Y-100742298D01*
X132794873Y-100577554D01*
X132716232Y-100423211D01*
X132614414Y-100283071D01*
X132491928Y-100160585D01*
X132408975Y-100100316D01*
X132366311Y-100044987D01*
X132360332Y-99975373D01*
X132392938Y-99913578D01*
X132408976Y-99899681D01*
X132491928Y-99839413D01*
X132614414Y-99716927D01*
X132716232Y-99576787D01*
X132794873Y-99422444D01*
X132848402Y-99257700D01*
X132875500Y-99086610D01*
X132875500Y-98913388D01*
X132848402Y-98742298D01*
X132794873Y-98577554D01*
X132716232Y-98423211D01*
X132614414Y-98283071D01*
X132491928Y-98160585D01*
X132351788Y-98058767D01*
X132197445Y-97980126D01*
X132032701Y-97926597D01*
X132032699Y-97926596D01*
X132032698Y-97926596D01*
X131899910Y-97905565D01*
X131861611Y-97899499D01*
X131138389Y-97899499D01*
X131100090Y-97905565D01*
X130967302Y-97926596D01*
X130802552Y-97980127D01*
X130648211Y-98058767D01*
X130592116Y-98099523D01*
X130508072Y-98160585D01*
X130508070Y-98160587D01*
X130508069Y-98160587D01*
X130385588Y-98283068D01*
X130385588Y-98283069D01*
X130385586Y-98283071D01*
X130371643Y-98302262D01*
X130283768Y-98423210D01*
X130205128Y-98577551D01*
X130151597Y-98742301D01*
X130144776Y-98785368D01*
X130124500Y-98913388D01*
X127077269Y-98913388D01*
X127253838Y-98736819D01*
X127315161Y-98703334D01*
X127341519Y-98700500D01*
X127824506Y-98700500D01*
X127890477Y-98719506D01*
X127900474Y-98725787D01*
X127900475Y-98725787D01*
X127900478Y-98725789D01*
X128070745Y-98785368D01*
X128070750Y-98785369D01*
X128249996Y-98805565D01*
X128250000Y-98805565D01*
X128250004Y-98805565D01*
X128429249Y-98785369D01*
X128429252Y-98785368D01*
X128429255Y-98785368D01*
X128599522Y-98725789D01*
X128752262Y-98629816D01*
X128879816Y-98502262D01*
X128975789Y-98349522D01*
X129035368Y-98179255D01*
X129035369Y-98179249D01*
X129055565Y-98000003D01*
X129055565Y-97999996D01*
X129035369Y-97820750D01*
X129035368Y-97820745D01*
X129010612Y-97749996D01*
X128975789Y-97650478D01*
X128957106Y-97620745D01*
X128931298Y-97579671D01*
X128879816Y-97497738D01*
X128752262Y-97370184D01*
X128682614Y-97326421D01*
X128599523Y-97274211D01*
X128429254Y-97214631D01*
X128429249Y-97214630D01*
X128250004Y-97194435D01*
X128249996Y-97194435D01*
X128070750Y-97214630D01*
X128070745Y-97214631D01*
X127900474Y-97274212D01*
X127890477Y-97280494D01*
X127824506Y-97299500D01*
X126931004Y-97299500D01*
X126795677Y-97326418D01*
X126795667Y-97326421D01*
X126668192Y-97379222D01*
X126553454Y-97455887D01*
X123955887Y-100053454D01*
X123879222Y-100168192D01*
X123826421Y-100295667D01*
X123826418Y-100295679D01*
X123801793Y-100419474D01*
X123801794Y-100419475D01*
X123801793Y-100419481D01*
X123799500Y-100431007D01*
X123799500Y-123931006D01*
X123799500Y-124068994D01*
X123799500Y-124068996D01*
X123799499Y-124068996D01*
X123826418Y-124204322D01*
X123826421Y-124204332D01*
X123879222Y-124331807D01*
X123955887Y-124446545D01*
X123955888Y-124446546D01*
X127001070Y-127491727D01*
X127034555Y-127553050D01*
X127029571Y-127622742D01*
X126987699Y-127678675D01*
X126927273Y-127702628D01*
X126820749Y-127714630D01*
X126820745Y-127714631D01*
X126650476Y-127774211D01*
X126497736Y-127870185D01*
X126494903Y-127872445D01*
X126492724Y-127873334D01*
X126491842Y-127873889D01*
X126491744Y-127873734D01*
X126430217Y-127898855D01*
X126417588Y-127899500D01*
X119566711Y-127899500D01*
X119519860Y-127888481D01*
X119519334Y-127889841D01*
X119513990Y-127887770D01*
X119513989Y-127887770D01*
X119315566Y-127810901D01*
X119106868Y-127771888D01*
X119044589Y-127740221D01*
X119009316Y-127679908D01*
X119012250Y-127610100D01*
X119052459Y-127552960D01*
X119106868Y-127528111D01*
X119315566Y-127489099D01*
X119513989Y-127412230D01*
X119694909Y-127300209D01*
X119852165Y-127156851D01*
X119980402Y-126987039D01*
X119987528Y-126972728D01*
X120075249Y-126796560D01*
X120075249Y-126796559D01*
X120075248Y-126796559D01*
X120075251Y-126796555D01*
X120133485Y-126591885D01*
X120153119Y-126380000D01*
X120150172Y-126348202D01*
X120133485Y-126168115D01*
X120106819Y-126074394D01*
X120075251Y-125963445D01*
X120075249Y-125963440D01*
X120075249Y-125963439D01*
X119980403Y-125772962D01*
X119900776Y-125667520D01*
X119852165Y-125603149D01*
X119718370Y-125481179D01*
X119694909Y-125459791D01*
X119694907Y-125459789D01*
X119513992Y-125347771D01*
X119513986Y-125347768D01*
X119357603Y-125287186D01*
X119315566Y-125270901D01*
X119106868Y-125231888D01*
X119044589Y-125200221D01*
X119009316Y-125139908D01*
X119012250Y-125070100D01*
X119052459Y-125012960D01*
X119106868Y-124988111D01*
X119315566Y-124949099D01*
X119513989Y-124872230D01*
X119694909Y-124760209D01*
X119852165Y-124616851D01*
X119980402Y-124447039D01*
X119980649Y-124446543D01*
X120075249Y-124256560D01*
X120075249Y-124256559D01*
X120075248Y-124256559D01*
X120075251Y-124256555D01*
X120133485Y-124051885D01*
X120153119Y-123840000D01*
X120133485Y-123628115D01*
X120075251Y-123423445D01*
X120075249Y-123423440D01*
X120075249Y-123423439D01*
X119980403Y-123232962D01*
X119852163Y-123063147D01*
X119694909Y-122919791D01*
X119694907Y-122919789D01*
X119513992Y-122807771D01*
X119513986Y-122807768D01*
X119357603Y-122747186D01*
X119315566Y-122730901D01*
X119106868Y-122691888D01*
X119044589Y-122660221D01*
X119009316Y-122599908D01*
X119012250Y-122530100D01*
X119052459Y-122472960D01*
X119106868Y-122448111D01*
X119315566Y-122409099D01*
X119513989Y-122332230D01*
X119694909Y-122220209D01*
X119852165Y-122076851D01*
X119980402Y-121907039D01*
X120075251Y-121716555D01*
X120133485Y-121511885D01*
X120153119Y-121300000D01*
X120148695Y-121252262D01*
X120133485Y-121088115D01*
X120113860Y-121019141D01*
X120075251Y-120883445D01*
X120075249Y-120883440D01*
X120075249Y-120883439D01*
X119980403Y-120692962D01*
X119852163Y-120523147D01*
X119694909Y-120379791D01*
X119694907Y-120379789D01*
X119513992Y-120267771D01*
X119513986Y-120267768D01*
X119315569Y-120190902D01*
X119315568Y-120190901D01*
X119315566Y-120190901D01*
X119106396Y-120151800D01*
X119105508Y-120151634D01*
X119043228Y-120119965D01*
X119007955Y-120059653D01*
X119010889Y-119989845D01*
X119051098Y-119932705D01*
X119105510Y-119907856D01*
X119315425Y-119868617D01*
X119315436Y-119868613D01*
X119513765Y-119791780D01*
X119513767Y-119791779D01*
X119615336Y-119728889D01*
X119040148Y-119153700D01*
X119051832Y-119153700D01*
X119151962Y-119126870D01*
X119241737Y-119075038D01*
X119315038Y-119001737D01*
X119366870Y-118911962D01*
X119393700Y-118811832D01*
X119393700Y-118800147D01*
X119971521Y-119377967D01*
X119979974Y-119366775D01*
X120074782Y-119176372D01*
X120132991Y-118971793D01*
X120152617Y-118760000D01*
X120152617Y-118759999D01*
X120132991Y-118548206D01*
X120074781Y-118343623D01*
X120074781Y-118343621D01*
X119979976Y-118153226D01*
X119979975Y-118153224D01*
X119971522Y-118142031D01*
X119971521Y-118142031D01*
X119393700Y-118719852D01*
X119393700Y-118708168D01*
X119366870Y-118608038D01*
X119315038Y-118518263D01*
X119241737Y-118444962D01*
X119151962Y-118393130D01*
X119051832Y-118366300D01*
X119040147Y-118366300D01*
X119615336Y-117791109D01*
X119615335Y-117791108D01*
X119513769Y-117728221D01*
X119513763Y-117728218D01*
X119315427Y-117651383D01*
X119106347Y-117612300D01*
X118893653Y-117612300D01*
X118684573Y-117651383D01*
X118684572Y-117651383D01*
X118486237Y-117728218D01*
X118384662Y-117791109D01*
X118959854Y-118366300D01*
X118948168Y-118366300D01*
X118848038Y-118393130D01*
X118758263Y-118444962D01*
X118684962Y-118518263D01*
X118633130Y-118608038D01*
X118606300Y-118708168D01*
X118606300Y-118719853D01*
X118028477Y-118142031D01*
X118028476Y-118142031D01*
X118020025Y-118153224D01*
X118020023Y-118153228D01*
X117925218Y-118343621D01*
X117925218Y-118343623D01*
X117867008Y-118548206D01*
X117847383Y-118759999D01*
X117847383Y-118760000D01*
X117867008Y-118971793D01*
X117925217Y-119176372D01*
X118020025Y-119366775D01*
X118028477Y-119377968D01*
X118606300Y-118800145D01*
X118606300Y-118811832D01*
X118633130Y-118911962D01*
X118684962Y-119001737D01*
X118758263Y-119075038D01*
X118848038Y-119126870D01*
X118948168Y-119153700D01*
X118959853Y-119153700D01*
X118384662Y-119728889D01*
X118486235Y-119791780D01*
X118486236Y-119791781D01*
X118684563Y-119868613D01*
X118684574Y-119868617D01*
X118894489Y-119907856D01*
X118956770Y-119939524D01*
X118992044Y-119999836D01*
X118989111Y-120069644D01*
X118948902Y-120126784D01*
X118894491Y-120151634D01*
X118804388Y-120168477D01*
X118684434Y-120190901D01*
X118684432Y-120190901D01*
X118684430Y-120190902D01*
X118486013Y-120267768D01*
X118486007Y-120267771D01*
X118305092Y-120379789D01*
X118305090Y-120379791D01*
X118147836Y-120523147D01*
X118019596Y-120692962D01*
X117924750Y-120883439D01*
X117924750Y-120883440D01*
X117866514Y-121088115D01*
X117846881Y-121299999D01*
X112533119Y-121299999D01*
X112528695Y-121252262D01*
X112513485Y-121088115D01*
X112493860Y-121019141D01*
X112455251Y-120883445D01*
X112455249Y-120883440D01*
X112455249Y-120883439D01*
X112360403Y-120692962D01*
X112232163Y-120523147D01*
X112074909Y-120379791D01*
X112074907Y-120379789D01*
X111893992Y-120267771D01*
X111893986Y-120267768D01*
X111730458Y-120204418D01*
X111695566Y-120190901D01*
X111486868Y-120151888D01*
X111424589Y-120120221D01*
X111389316Y-120059908D01*
X111392250Y-119990100D01*
X111432459Y-119932960D01*
X111486868Y-119908111D01*
X111695566Y-119869099D01*
X111893989Y-119792230D01*
X112074909Y-119680209D01*
X112232165Y-119536851D01*
X112360402Y-119367039D01*
X112367524Y-119352736D01*
X112455249Y-119176560D01*
X112455249Y-119176559D01*
X112455248Y-119176559D01*
X112455251Y-119176555D01*
X112513485Y-118971885D01*
X112533119Y-118760000D01*
X112513485Y-118548115D01*
X112455251Y-118343445D01*
X112455249Y-118343440D01*
X112455249Y-118343439D01*
X112360403Y-118152962D01*
X112280584Y-118047266D01*
X112232165Y-117983149D01*
X112178785Y-117934487D01*
X112074909Y-117839791D01*
X112074907Y-117839789D01*
X111893992Y-117727771D01*
X111893986Y-117727768D01*
X111696810Y-117651383D01*
X111695566Y-117650901D01*
X111486396Y-117611800D01*
X111273604Y-117611800D01*
X111064434Y-117650901D01*
X111064431Y-117650901D01*
X111064431Y-117650902D01*
X110866013Y-117727768D01*
X110866007Y-117727771D01*
X110685092Y-117839789D01*
X110685090Y-117839791D01*
X110527836Y-117983147D01*
X110399596Y-118152962D01*
X110304750Y-118343439D01*
X110304750Y-118343440D01*
X110246514Y-118548115D01*
X110226881Y-118759999D01*
X107600500Y-118759999D01*
X107600500Y-114300097D01*
X107620185Y-114233058D01*
X107636819Y-114212416D01*
X108712416Y-113136819D01*
X108773739Y-113103334D01*
X108800097Y-113100500D01*
X120413331Y-113100500D01*
X120413347Y-113100501D01*
X120420943Y-113100501D01*
X120579054Y-113100501D01*
X120579057Y-113100501D01*
X120731785Y-113059577D01*
X120803424Y-113018216D01*
X120868716Y-112980520D01*
X120980520Y-112868716D01*
X120980520Y-112868714D01*
X120990724Y-112858511D01*
X120990728Y-112858506D01*
X122958506Y-110890728D01*
X122958511Y-110890724D01*
X122968714Y-110880520D01*
X122968716Y-110880520D01*
X123080520Y-110768716D01*
X123159577Y-110631784D01*
X123200500Y-110479057D01*
X123200500Y-106085370D01*
X123220185Y-106018331D01*
X123236819Y-105997689D01*
X123244395Y-105990113D01*
X123340368Y-105837373D01*
X123399947Y-105667106D01*
X123407268Y-105602129D01*
X123420144Y-105487854D01*
X123420144Y-105487847D01*
X123399948Y-105308601D01*
X123399947Y-105308596D01*
X123368200Y-105217869D01*
X123340368Y-105138329D01*
X123244395Y-104985589D01*
X123116841Y-104858035D01*
X122964102Y-104762062D01*
X122793833Y-104702482D01*
X122793828Y-104702481D01*
X122614583Y-104682286D01*
X122614575Y-104682286D01*
X122435329Y-104702481D01*
X122435324Y-104702482D01*
X122265055Y-104762062D01*
X122112316Y-104858035D01*
X121984763Y-104985588D01*
X121888791Y-105138326D01*
X121888789Y-105138330D01*
X121887579Y-105141789D01*
X121886195Y-105143718D01*
X121885772Y-105144597D01*
X121885617Y-105144522D01*
X121846853Y-105198563D01*
X121811494Y-105217869D01*
X121650478Y-105274210D01*
X121497737Y-105370184D01*
X121370184Y-105497737D01*
X121274211Y-105650476D01*
X121214631Y-105820745D01*
X121214630Y-105820750D01*
X121194435Y-105999996D01*
X121194435Y-106000003D01*
X121214630Y-106179249D01*
X121214631Y-106179254D01*
X121274211Y-106349523D01*
X121370185Y-106502263D01*
X121372445Y-106505097D01*
X121373334Y-106507275D01*
X121373889Y-106508158D01*
X121373734Y-106508255D01*
X121398855Y-106569783D01*
X121399500Y-106582412D01*
X121399500Y-109699903D01*
X121379815Y-109766942D01*
X121363181Y-109787584D01*
X120287584Y-110863181D01*
X120226261Y-110896666D01*
X120199903Y-110899500D01*
X108171671Y-110899500D01*
X108171655Y-110899499D01*
X108164059Y-110899499D01*
X108005944Y-110899499D01*
X107929580Y-110919961D01*
X107853215Y-110940423D01*
X107853210Y-110940426D01*
X107716291Y-111019475D01*
X107716283Y-111019481D01*
X99847706Y-118888058D01*
X99786383Y-118921543D01*
X99727932Y-118920152D01*
X99631698Y-118894366D01*
X99631694Y-118894365D01*
X99631693Y-118894365D01*
X99631692Y-118894364D01*
X99631687Y-118894364D01*
X99405003Y-118874532D01*
X99404999Y-118874532D01*
X99178314Y-118894364D01*
X99178303Y-118894366D01*
X98958512Y-118953258D01*
X98958503Y-118953261D01*
X98752268Y-119049431D01*
X98752266Y-119049432D01*
X98565859Y-119179954D01*
X98404955Y-119340858D01*
X98274433Y-119527265D01*
X98274432Y-119527267D01*
X98247383Y-119585275D01*
X98201210Y-119637714D01*
X98134017Y-119656866D01*
X98067136Y-119636650D01*
X98022619Y-119585275D01*
X98005178Y-119547873D01*
X97995569Y-119527266D01*
X97883378Y-119367039D01*
X97865046Y-119340858D01*
X97704142Y-119179954D01*
X97517735Y-119049432D01*
X97517733Y-119049431D01*
X97311498Y-118953261D01*
X97311489Y-118953258D01*
X97091698Y-118894366D01*
X97091694Y-118894365D01*
X97091693Y-118894365D01*
X97091692Y-118894364D01*
X97091687Y-118894364D01*
X96865003Y-118874532D01*
X96864999Y-118874532D01*
X96638314Y-118894364D01*
X96638303Y-118894366D01*
X96418512Y-118953258D01*
X96418503Y-118953261D01*
X96212268Y-119049431D01*
X96212266Y-119049432D01*
X96025859Y-119179954D01*
X95864955Y-119340858D01*
X95734433Y-119527265D01*
X95734432Y-119527267D01*
X95707383Y-119585275D01*
X95661210Y-119637714D01*
X95594017Y-119656866D01*
X95527136Y-119636650D01*
X95482619Y-119585275D01*
X95465178Y-119547873D01*
X95455569Y-119527266D01*
X95361972Y-119393594D01*
X95325049Y-119340862D01*
X95277730Y-119293543D01*
X95164140Y-119179953D01*
X95078377Y-119119901D01*
X95034752Y-119065324D01*
X95025501Y-119018326D01*
X95025501Y-98599983D01*
X97124500Y-98599983D01*
X97124500Y-99400001D01*
X97124501Y-99400019D01*
X97135000Y-99502796D01*
X97135001Y-99502799D01*
X97157518Y-99570750D01*
X97190186Y-99669334D01*
X97282288Y-99818656D01*
X97406344Y-99942712D01*
X97470981Y-99982580D01*
X97517705Y-100034528D01*
X97528928Y-100103491D01*
X97501084Y-100167573D01*
X97493566Y-100175800D01*
X97385964Y-100283402D01*
X97284195Y-100423476D01*
X97205591Y-100577745D01*
X97152085Y-100742416D01*
X97150884Y-100750000D01*
X97150885Y-100750001D01*
X98219670Y-100750001D01*
X98199925Y-100769746D01*
X98150556Y-100855256D01*
X98125000Y-100950631D01*
X98125000Y-101049371D01*
X98150556Y-101144746D01*
X98199925Y-101230256D01*
X98219670Y-101250001D01*
X97150885Y-101250001D01*
X97152085Y-101257585D01*
X97205591Y-101422256D01*
X97284195Y-101576525D01*
X97385967Y-101716603D01*
X97508403Y-101839039D01*
X97591447Y-101899373D01*
X97634113Y-101954702D01*
X97640092Y-102024316D01*
X97607487Y-102086111D01*
X97591448Y-102100008D01*
X97508078Y-102160581D01*
X97508069Y-102160588D01*
X97385588Y-102283069D01*
X97385588Y-102283070D01*
X97385586Y-102283072D01*
X97341859Y-102343256D01*
X97283768Y-102423211D01*
X97205128Y-102577552D01*
X97151597Y-102742302D01*
X97144682Y-102785965D01*
X97124500Y-102913389D01*
X97124500Y-103086611D01*
X97151598Y-103257701D01*
X97159548Y-103282169D01*
X97205128Y-103422447D01*
X97242777Y-103496337D01*
X97283768Y-103576788D01*
X97385586Y-103716928D01*
X97508072Y-103839414D01*
X97508078Y-103839418D01*
X97591023Y-103899683D01*
X97633689Y-103955013D01*
X97639667Y-104024626D01*
X97607061Y-104086421D01*
X97591023Y-104100317D01*
X97508078Y-104160581D01*
X97508069Y-104160588D01*
X97385588Y-104283069D01*
X97385588Y-104283070D01*
X97385586Y-104283072D01*
X97341859Y-104343256D01*
X97283768Y-104423211D01*
X97205128Y-104577552D01*
X97151597Y-104742302D01*
X97124500Y-104913389D01*
X97124500Y-105086610D01*
X97144776Y-105214632D01*
X97151598Y-105257701D01*
X97205127Y-105422445D01*
X97283768Y-105576788D01*
X97385586Y-105716928D01*
X97508072Y-105839414D01*
X97508078Y-105839418D01*
X97591023Y-105899683D01*
X97633689Y-105955013D01*
X97639667Y-106024626D01*
X97607061Y-106086421D01*
X97591023Y-106100317D01*
X97508078Y-106160581D01*
X97508069Y-106160588D01*
X97385588Y-106283069D01*
X97385588Y-106283070D01*
X97385586Y-106283072D01*
X97364994Y-106311415D01*
X97283768Y-106423211D01*
X97205128Y-106577552D01*
X97151597Y-106742302D01*
X97124500Y-106913389D01*
X97124500Y-107086610D01*
X97150453Y-107250476D01*
X97151598Y-107257701D01*
X97205127Y-107422445D01*
X97283768Y-107576788D01*
X97385586Y-107716928D01*
X97508072Y-107839414D01*
X97523328Y-107850498D01*
X97591023Y-107899683D01*
X97633689Y-107955013D01*
X97639667Y-108024626D01*
X97607061Y-108086421D01*
X97591023Y-108100317D01*
X97508078Y-108160581D01*
X97508069Y-108160588D01*
X97385588Y-108283069D01*
X97385588Y-108283070D01*
X97385586Y-108283072D01*
X97354551Y-108325788D01*
X97283768Y-108423211D01*
X97205128Y-108577552D01*
X97151597Y-108742302D01*
X97131343Y-108870184D01*
X97124500Y-108913389D01*
X97124500Y-109086611D01*
X97151598Y-109257701D01*
X97200589Y-109408480D01*
X97205128Y-109422447D01*
X97246067Y-109502795D01*
X97283768Y-109576788D01*
X97385586Y-109716928D01*
X97508072Y-109839414D01*
X97648212Y-109941232D01*
X97802555Y-110019873D01*
X97967299Y-110073402D01*
X98138389Y-110100500D01*
X98138390Y-110100500D01*
X98861610Y-110100500D01*
X98861611Y-110100500D01*
X99032701Y-110073402D01*
X99197445Y-110019873D01*
X99351788Y-109941232D01*
X99491928Y-109839414D01*
X99614414Y-109716928D01*
X99716232Y-109576788D01*
X99794873Y-109422445D01*
X99848402Y-109257701D01*
X99875500Y-109086611D01*
X99875500Y-108913389D01*
X99848402Y-108742299D01*
X99794873Y-108577555D01*
X99716232Y-108423212D01*
X99614414Y-108283072D01*
X99491928Y-108160586D01*
X99408975Y-108100317D01*
X99366311Y-108044988D01*
X99360332Y-107975374D01*
X99392938Y-107913579D01*
X99408976Y-107899682D01*
X99491928Y-107839414D01*
X99614414Y-107716928D01*
X99716232Y-107576788D01*
X99794873Y-107422445D01*
X99848402Y-107257701D01*
X99875500Y-107086611D01*
X99875500Y-106913389D01*
X99848402Y-106742299D01*
X99794873Y-106577555D01*
X99716232Y-106423212D01*
X99614414Y-106283072D01*
X99491928Y-106160586D01*
X99408975Y-106100317D01*
X99366311Y-106044988D01*
X99360332Y-105975374D01*
X99392938Y-105913579D01*
X99408976Y-105899682D01*
X99491928Y-105839414D01*
X99614414Y-105716928D01*
X99716232Y-105576788D01*
X99794873Y-105422445D01*
X99848402Y-105257701D01*
X99875500Y-105086611D01*
X99875500Y-104913389D01*
X99848402Y-104742299D01*
X99794873Y-104577555D01*
X99716232Y-104423212D01*
X99614414Y-104283072D01*
X99491928Y-104160586D01*
X99408974Y-104100316D01*
X99366311Y-104044988D01*
X99360332Y-103975374D01*
X99392938Y-103913579D01*
X99408976Y-103899682D01*
X99491928Y-103839414D01*
X99614414Y-103716928D01*
X99716232Y-103576788D01*
X99794873Y-103422445D01*
X99848402Y-103257701D01*
X99875500Y-103086611D01*
X99875500Y-102913389D01*
X99848402Y-102742299D01*
X99794873Y-102577555D01*
X99716232Y-102423212D01*
X99614414Y-102283072D01*
X99491928Y-102160586D01*
X99408550Y-102100008D01*
X99365886Y-102044678D01*
X99359907Y-101975065D01*
X99392513Y-101913270D01*
X99408553Y-101899372D01*
X99491598Y-101839037D01*
X99614032Y-101716603D01*
X99715804Y-101576525D01*
X99794408Y-101422256D01*
X99847914Y-101257585D01*
X99849115Y-101250001D01*
X98780330Y-101250001D01*
X98800075Y-101230256D01*
X98849444Y-101144746D01*
X98875000Y-101049371D01*
X98875000Y-100950631D01*
X98849444Y-100855256D01*
X98800075Y-100769746D01*
X98780330Y-100750001D01*
X99849115Y-100750001D01*
X99849115Y-100750000D01*
X99847914Y-100742416D01*
X99794408Y-100577745D01*
X99715804Y-100423476D01*
X99614032Y-100283398D01*
X99506434Y-100175800D01*
X99472949Y-100114477D01*
X99477933Y-100044785D01*
X99519805Y-99988852D01*
X99529019Y-99982580D01*
X99593656Y-99942712D01*
X99717712Y-99818656D01*
X99809814Y-99669334D01*
X99864999Y-99502797D01*
X99875500Y-99400009D01*
X99875499Y-98599992D01*
X99864999Y-98497203D01*
X99809814Y-98330666D01*
X99717712Y-98181344D01*
X99593656Y-98057288D01*
X99500770Y-97999996D01*
X99444336Y-97965187D01*
X99444331Y-97965185D01*
X99442862Y-97964698D01*
X99277797Y-97910001D01*
X99277795Y-97910000D01*
X99175010Y-97899500D01*
X97824998Y-97899500D01*
X97824981Y-97899501D01*
X97722203Y-97910000D01*
X97722200Y-97910001D01*
X97555668Y-97965185D01*
X97555663Y-97965187D01*
X97406342Y-98057289D01*
X97282289Y-98181342D01*
X97190187Y-98330663D01*
X97190185Y-98330668D01*
X97173899Y-98379816D01*
X97135001Y-98497203D01*
X97135001Y-98497204D01*
X97135000Y-98497204D01*
X97124500Y-98599983D01*
X95025501Y-98599983D01*
X95025501Y-85506005D01*
X94998582Y-85370678D01*
X94998581Y-85370677D01*
X94998581Y-85370673D01*
X94981733Y-85329999D01*
X94945778Y-85243194D01*
X94945777Y-85243192D01*
X94919809Y-85204328D01*
X94919809Y-85204327D01*
X94869116Y-85128459D01*
X94869110Y-85128452D01*
X93041367Y-83300710D01*
X93012006Y-83253983D01*
X93010351Y-83249254D01*
X92975789Y-83150478D01*
X92879816Y-82997738D01*
X92752262Y-82870184D01*
X92695516Y-82834528D01*
X92599523Y-82774211D01*
X92429252Y-82714631D01*
X92420306Y-82713623D01*
X92355892Y-82686555D01*
X92316339Y-82628959D01*
X92314202Y-82559122D01*
X92346509Y-82502724D01*
X93449251Y-81399983D01*
X97124500Y-81399983D01*
X97124500Y-82200001D01*
X97124501Y-82200019D01*
X97135000Y-82302796D01*
X97135001Y-82302799D01*
X97190185Y-82469331D01*
X97190186Y-82469334D01*
X97282288Y-82618656D01*
X97406344Y-82742712D01*
X97470981Y-82782580D01*
X97517705Y-82834528D01*
X97528928Y-82903491D01*
X97501084Y-82967573D01*
X97493566Y-82975800D01*
X97385964Y-83083402D01*
X97284195Y-83223476D01*
X97205591Y-83377745D01*
X97152085Y-83542416D01*
X97150884Y-83550000D01*
X97150885Y-83550001D01*
X98219670Y-83550001D01*
X98199925Y-83569746D01*
X98150556Y-83655256D01*
X98125000Y-83750631D01*
X98125000Y-83849371D01*
X98150556Y-83944746D01*
X98199925Y-84030256D01*
X98219670Y-84050001D01*
X97150885Y-84050001D01*
X97152085Y-84057585D01*
X97205591Y-84222256D01*
X97284195Y-84376525D01*
X97385967Y-84516603D01*
X97508403Y-84639039D01*
X97591447Y-84699373D01*
X97634113Y-84754702D01*
X97640092Y-84824316D01*
X97607487Y-84886111D01*
X97591448Y-84900008D01*
X97508078Y-84960581D01*
X97508069Y-84960588D01*
X97385588Y-85083069D01*
X97385588Y-85083070D01*
X97385586Y-85083072D01*
X97352611Y-85128458D01*
X97283768Y-85223211D01*
X97205128Y-85377552D01*
X97151597Y-85542302D01*
X97126118Y-85703172D01*
X97124500Y-85713389D01*
X97124500Y-85886611D01*
X97128111Y-85909411D01*
X97149645Y-86045374D01*
X97151598Y-86057701D01*
X97205127Y-86222445D01*
X97283768Y-86376788D01*
X97385586Y-86516928D01*
X97508072Y-86639414D01*
X97508078Y-86639418D01*
X97591023Y-86699683D01*
X97633689Y-86755013D01*
X97639667Y-86824626D01*
X97607061Y-86886421D01*
X97591023Y-86900317D01*
X97508078Y-86960581D01*
X97508069Y-86960588D01*
X97385588Y-87083069D01*
X97385588Y-87083070D01*
X97385586Y-87083072D01*
X97343708Y-87140712D01*
X97283768Y-87223211D01*
X97205128Y-87377552D01*
X97205127Y-87377554D01*
X97205127Y-87377555D01*
X97178362Y-87459927D01*
X97151597Y-87542302D01*
X97124500Y-87713389D01*
X97124500Y-87886610D01*
X97149645Y-88045374D01*
X97151598Y-88057701D01*
X97205127Y-88222445D01*
X97283768Y-88376788D01*
X97385586Y-88516928D01*
X97508072Y-88639414D01*
X97508078Y-88639418D01*
X97591023Y-88699683D01*
X97633689Y-88755013D01*
X97639667Y-88824626D01*
X97607061Y-88886421D01*
X97591023Y-88900317D01*
X97508078Y-88960581D01*
X97508069Y-88960588D01*
X97385588Y-89083069D01*
X97385588Y-89083070D01*
X97385586Y-89083072D01*
X97341859Y-89143256D01*
X97283768Y-89223211D01*
X97205128Y-89377552D01*
X97151597Y-89542302D01*
X97124500Y-89713389D01*
X97124500Y-89886610D01*
X97149694Y-90045683D01*
X97151598Y-90057701D01*
X97205127Y-90222445D01*
X97283768Y-90376788D01*
X97385586Y-90516928D01*
X97508072Y-90639414D01*
X97508078Y-90639418D01*
X97591023Y-90699683D01*
X97633689Y-90755013D01*
X97639667Y-90824626D01*
X97607061Y-90886421D01*
X97591023Y-90900317D01*
X97508078Y-90960581D01*
X97508069Y-90960588D01*
X97385588Y-91083069D01*
X97385588Y-91083070D01*
X97385586Y-91083072D01*
X97359215Y-91119369D01*
X97283768Y-91223211D01*
X97205128Y-91377552D01*
X97151597Y-91542302D01*
X97124500Y-91713389D01*
X97124500Y-91886610D01*
X97146452Y-92025214D01*
X97151598Y-92057701D01*
X97205127Y-92222445D01*
X97283768Y-92376788D01*
X97385586Y-92516928D01*
X97508072Y-92639414D01*
X97648212Y-92741232D01*
X97802555Y-92819873D01*
X97967299Y-92873402D01*
X98138389Y-92900500D01*
X98138390Y-92900500D01*
X98861610Y-92900500D01*
X98861611Y-92900500D01*
X99032701Y-92873402D01*
X99197445Y-92819873D01*
X99351788Y-92741232D01*
X99491928Y-92639414D01*
X99614414Y-92516928D01*
X99716232Y-92376788D01*
X99794873Y-92222445D01*
X99848402Y-92057701D01*
X99875500Y-91886611D01*
X99875500Y-91713389D01*
X99848402Y-91542299D01*
X99794873Y-91377555D01*
X99716232Y-91223212D01*
X99614414Y-91083072D01*
X99491928Y-90960586D01*
X99408975Y-90900317D01*
X99366311Y-90844988D01*
X99360332Y-90775374D01*
X99392938Y-90713579D01*
X99408976Y-90699682D01*
X99491928Y-90639414D01*
X99614414Y-90516928D01*
X99716232Y-90376788D01*
X99794873Y-90222445D01*
X99848402Y-90057701D01*
X99875500Y-89886611D01*
X99875500Y-89713389D01*
X99848402Y-89542299D01*
X99794873Y-89377555D01*
X99716232Y-89223212D01*
X99614414Y-89083072D01*
X99491928Y-88960586D01*
X99408975Y-88900317D01*
X99366311Y-88844988D01*
X99360332Y-88775374D01*
X99392938Y-88713579D01*
X99408976Y-88699682D01*
X99491928Y-88639414D01*
X99614414Y-88516928D01*
X99716232Y-88376788D01*
X99794873Y-88222445D01*
X99848402Y-88057701D01*
X99875500Y-87886611D01*
X99875500Y-87713389D01*
X99848402Y-87542299D01*
X99794873Y-87377555D01*
X99716232Y-87223212D01*
X99614414Y-87083072D01*
X99491928Y-86960586D01*
X99408975Y-86900317D01*
X99366311Y-86844988D01*
X99360332Y-86775374D01*
X99392938Y-86713579D01*
X99408976Y-86699682D01*
X99491928Y-86639414D01*
X99614414Y-86516928D01*
X99716232Y-86376788D01*
X99794873Y-86222445D01*
X99848402Y-86057701D01*
X99875500Y-85886611D01*
X99875500Y-85713389D01*
X99848402Y-85542299D01*
X99794873Y-85377555D01*
X99716232Y-85223212D01*
X99614414Y-85083072D01*
X99491928Y-84960586D01*
X99408550Y-84900008D01*
X99365886Y-84844678D01*
X99359907Y-84775065D01*
X99392513Y-84713270D01*
X99408553Y-84699372D01*
X99491598Y-84639037D01*
X99614032Y-84516603D01*
X99715804Y-84376525D01*
X99794408Y-84222256D01*
X99847914Y-84057585D01*
X99849115Y-84050001D01*
X98780330Y-84050001D01*
X98800075Y-84030256D01*
X98849444Y-83944746D01*
X98875000Y-83849371D01*
X98875000Y-83750631D01*
X98849444Y-83655256D01*
X98800075Y-83569746D01*
X98780330Y-83550001D01*
X99849115Y-83550001D01*
X99849115Y-83550000D01*
X99847914Y-83542416D01*
X99794408Y-83377745D01*
X99715804Y-83223476D01*
X99614032Y-83083398D01*
X99506434Y-82975800D01*
X99472949Y-82914477D01*
X99477933Y-82844785D01*
X99519805Y-82788852D01*
X99529019Y-82782580D01*
X99593656Y-82742712D01*
X99717712Y-82618656D01*
X99809814Y-82469334D01*
X99864999Y-82302797D01*
X99875500Y-82200009D01*
X99875499Y-81399992D01*
X99872328Y-81368954D01*
X99864999Y-81297203D01*
X99864998Y-81297200D01*
X99832623Y-81199500D01*
X99809814Y-81130666D01*
X99717712Y-80981344D01*
X99593656Y-80857288D01*
X99444334Y-80765186D01*
X99277797Y-80710001D01*
X99277795Y-80710000D01*
X99175010Y-80699500D01*
X97824998Y-80699500D01*
X97824981Y-80699501D01*
X97722203Y-80710000D01*
X97722200Y-80710001D01*
X97555668Y-80765185D01*
X97555663Y-80765187D01*
X97406342Y-80857289D01*
X97282289Y-80981342D01*
X97190187Y-81130663D01*
X97190185Y-81130668D01*
X97172008Y-81185523D01*
X97135001Y-81297203D01*
X97135001Y-81297204D01*
X97135000Y-81297204D01*
X97124500Y-81399983D01*
X93449251Y-81399983D01*
X94612416Y-80236819D01*
X94673739Y-80203334D01*
X94700097Y-80200500D01*
X103499903Y-80200500D01*
X103566942Y-80220185D01*
X103587584Y-80236819D01*
X103963181Y-80612416D01*
X103996666Y-80673739D01*
X103999500Y-80700097D01*
X103999500Y-107017587D01*
X103979815Y-107084626D01*
X103972450Y-107094896D01*
X103970186Y-107097734D01*
X103874211Y-107250476D01*
X103814631Y-107420745D01*
X103814630Y-107420750D01*
X103794435Y-107599996D01*
X103794435Y-107600003D01*
X103814630Y-107779249D01*
X103814631Y-107779254D01*
X103874211Y-107949523D01*
X103970184Y-108102262D01*
X104097738Y-108229816D01*
X104250478Y-108325789D01*
X104264419Y-108330667D01*
X104420745Y-108385368D01*
X104420750Y-108385369D01*
X104599996Y-108405565D01*
X104600000Y-108405565D01*
X104600004Y-108405565D01*
X104779249Y-108385369D01*
X104779252Y-108385368D01*
X104779255Y-108385368D01*
X104949522Y-108325789D01*
X105102262Y-108229816D01*
X105229816Y-108102262D01*
X105325789Y-107949522D01*
X105385368Y-107779255D01*
X105385369Y-107779249D01*
X105405565Y-107600003D01*
X105405565Y-107599996D01*
X105385369Y-107420750D01*
X105385368Y-107420745D01*
X105325788Y-107250476D01*
X105229813Y-107097734D01*
X105227550Y-107094896D01*
X105226659Y-107092715D01*
X105226111Y-107091842D01*
X105226264Y-107091745D01*
X105201144Y-107030209D01*
X105200500Y-107017587D01*
X105200500Y-80489059D01*
X105200501Y-80489046D01*
X105200501Y-80320945D01*
X105200501Y-80320943D01*
X105159577Y-80168215D01*
X105108102Y-80079058D01*
X105080520Y-80031284D01*
X104968716Y-79919480D01*
X104968715Y-79919479D01*
X104964385Y-79915149D01*
X104964374Y-79915139D01*
X104287590Y-79238355D01*
X104287588Y-79238352D01*
X104168717Y-79119481D01*
X104168716Y-79119480D01*
X104081904Y-79069360D01*
X104081904Y-79069359D01*
X104081900Y-79069358D01*
X104031785Y-79040423D01*
X103879057Y-78999499D01*
X103720943Y-78999499D01*
X103713347Y-78999499D01*
X103713331Y-78999500D01*
X94320940Y-78999500D01*
X94280019Y-79010464D01*
X94280019Y-79010465D01*
X94242751Y-79020451D01*
X94168214Y-79040423D01*
X94168209Y-79040426D01*
X94031290Y-79119475D01*
X94031282Y-79119481D01*
X93919478Y-79231286D01*
X81169742Y-91981021D01*
X81108419Y-92014506D01*
X81038727Y-92009522D01*
X81007750Y-91992607D01*
X80992273Y-91981021D01*
X80892331Y-91906204D01*
X80892330Y-91906203D01*
X80892328Y-91906202D01*
X80760917Y-91857189D01*
X80704983Y-91815318D01*
X80680566Y-91749853D01*
X80695418Y-91681580D01*
X80716563Y-91653332D01*
X80838495Y-91531401D01*
X80974035Y-91337830D01*
X81073903Y-91123663D01*
X81135063Y-90895408D01*
X81155659Y-90660000D01*
X81135063Y-90424592D01*
X81073903Y-90196337D01*
X81040312Y-90124303D01*
X81029821Y-90055228D01*
X81058340Y-89991444D01*
X81065001Y-89984232D01*
X92812417Y-78236819D01*
X92873740Y-78203334D01*
X92900098Y-78200500D01*
X105099903Y-78200500D01*
X105166942Y-78220185D01*
X105187584Y-78236819D01*
X108563181Y-81612416D01*
X108596666Y-81673739D01*
X108599500Y-81700097D01*
X108599500Y-97217587D01*
X108579815Y-97284626D01*
X108572450Y-97294896D01*
X108570186Y-97297734D01*
X108474211Y-97450476D01*
X108414631Y-97620745D01*
X108414630Y-97620750D01*
X108394435Y-97799996D01*
X108394435Y-97800003D01*
X108414630Y-97979249D01*
X108414631Y-97979254D01*
X108474211Y-98149523D01*
X108494206Y-98181344D01*
X108570184Y-98302262D01*
X108697738Y-98429816D01*
X108850478Y-98525789D01*
X108935573Y-98555565D01*
X109020745Y-98585368D01*
X109020750Y-98585369D01*
X109199996Y-98605565D01*
X109200000Y-98605565D01*
X109200004Y-98605565D01*
X109379249Y-98585369D01*
X109379252Y-98585368D01*
X109379255Y-98585368D01*
X109549522Y-98525789D01*
X109702262Y-98429816D01*
X109829816Y-98302262D01*
X109925789Y-98149522D01*
X109985368Y-97979255D01*
X109986953Y-97965187D01*
X110005565Y-97800003D01*
X110005565Y-97799996D01*
X109985369Y-97620750D01*
X109985368Y-97620745D01*
X109980407Y-97606567D01*
X109925789Y-97450478D01*
X109829816Y-97297738D01*
X109829814Y-97297736D01*
X109829813Y-97297734D01*
X109827550Y-97294896D01*
X109826659Y-97292715D01*
X109826111Y-97291842D01*
X109826264Y-97291745D01*
X109801144Y-97230209D01*
X109800500Y-97217587D01*
X109800500Y-96993078D01*
X109820185Y-96926039D01*
X109872989Y-96880284D01*
X109942147Y-96870340D01*
X109990471Y-96888084D01*
X110006458Y-96898129D01*
X110050475Y-96925788D01*
X110220745Y-96985368D01*
X110220750Y-96985369D01*
X110399996Y-97005565D01*
X110400000Y-97005565D01*
X110400004Y-97005565D01*
X110579249Y-96985369D01*
X110579252Y-96985368D01*
X110579255Y-96985368D01*
X110749522Y-96925789D01*
X110790571Y-96899996D01*
X112194435Y-96899996D01*
X112194435Y-96900003D01*
X112214630Y-97079249D01*
X112214631Y-97079254D01*
X112274211Y-97249523D01*
X112304507Y-97297738D01*
X112370184Y-97402262D01*
X112497738Y-97529816D01*
X112562876Y-97570745D01*
X112642450Y-97620745D01*
X112650478Y-97625789D01*
X112747033Y-97659575D01*
X112820745Y-97685368D01*
X112820750Y-97685369D01*
X112999996Y-97705565D01*
X113000000Y-97705565D01*
X113000004Y-97705565D01*
X113179249Y-97685369D01*
X113179252Y-97685368D01*
X113179255Y-97685368D01*
X113349522Y-97625789D01*
X113485023Y-97540648D01*
X113552260Y-97521648D01*
X113619095Y-97542016D01*
X113655989Y-97579671D01*
X113670181Y-97602259D01*
X113670184Y-97602262D01*
X113797738Y-97729816D01*
X113859356Y-97768533D01*
X113942450Y-97820745D01*
X113950478Y-97825789D01*
X114120745Y-97885368D01*
X114120750Y-97885369D01*
X114299996Y-97905565D01*
X114300000Y-97905565D01*
X114300004Y-97905565D01*
X114479249Y-97885369D01*
X114479252Y-97885368D01*
X114479255Y-97885368D01*
X114649522Y-97825789D01*
X114770146Y-97749996D01*
X120444435Y-97749996D01*
X120444435Y-97750003D01*
X120464630Y-97929249D01*
X120464631Y-97929254D01*
X120524211Y-98099523D01*
X120575622Y-98181342D01*
X120620184Y-98252262D01*
X120747738Y-98379816D01*
X120900478Y-98475789D01*
X121043367Y-98525788D01*
X121070745Y-98535368D01*
X121070750Y-98535369D01*
X121249996Y-98555565D01*
X121250000Y-98555565D01*
X121250004Y-98555565D01*
X121429249Y-98535369D01*
X121429252Y-98535368D01*
X121429255Y-98535368D01*
X121599522Y-98475789D01*
X121752262Y-98379816D01*
X121879816Y-98252262D01*
X121975789Y-98099522D01*
X122035368Y-97929255D01*
X122045161Y-97842329D01*
X122072226Y-97777918D01*
X122080690Y-97768543D01*
X123212417Y-96636819D01*
X123273740Y-96603334D01*
X123300098Y-96600500D01*
X134699903Y-96600500D01*
X134766942Y-96620185D01*
X134787584Y-96636819D01*
X135363181Y-97212416D01*
X135396666Y-97273739D01*
X135399500Y-97300097D01*
X135399500Y-100417586D01*
X135379815Y-100484625D01*
X135372450Y-100494895D01*
X135370186Y-100497733D01*
X135274211Y-100650475D01*
X135214631Y-100820744D01*
X135214630Y-100820749D01*
X135194435Y-100999995D01*
X135194435Y-101000002D01*
X135214630Y-101179248D01*
X135214631Y-101179253D01*
X135274211Y-101349522D01*
X135320033Y-101422446D01*
X135370184Y-101502261D01*
X135497738Y-101629815D01*
X135538463Y-101655404D01*
X135649621Y-101725250D01*
X135650478Y-101725788D01*
X135696478Y-101741884D01*
X135820745Y-101785367D01*
X135820750Y-101785368D01*
X135999996Y-101805564D01*
X136000000Y-101805564D01*
X136000004Y-101805564D01*
X136179249Y-101785368D01*
X136179252Y-101785367D01*
X136179255Y-101785367D01*
X136349522Y-101725788D01*
X136502262Y-101629815D01*
X136629816Y-101502261D01*
X136725789Y-101349521D01*
X136785368Y-101179254D01*
X136789256Y-101144746D01*
X136805565Y-101000002D01*
X136805565Y-100999995D01*
X136785369Y-100820749D01*
X136785368Y-100820744D01*
X136760614Y-100750001D01*
X136725789Y-100650477D01*
X136629816Y-100497737D01*
X136629814Y-100497735D01*
X136629813Y-100497733D01*
X136627550Y-100494895D01*
X136626659Y-100492714D01*
X136626111Y-100491841D01*
X136626264Y-100491744D01*
X136601144Y-100430208D01*
X136600500Y-100417586D01*
X136600500Y-97089060D01*
X136600501Y-97089047D01*
X136600501Y-96920944D01*
X136594888Y-96899996D01*
X136559577Y-96768216D01*
X136483716Y-96636819D01*
X136480524Y-96631290D01*
X136480518Y-96631282D01*
X135487590Y-95638355D01*
X135487588Y-95638352D01*
X135368717Y-95519481D01*
X135368716Y-95519480D01*
X135281904Y-95469360D01*
X135281904Y-95469359D01*
X135281900Y-95469358D01*
X135231785Y-95440423D01*
X135079057Y-95399499D01*
X134920943Y-95399499D01*
X134913347Y-95399499D01*
X134913331Y-95399500D01*
X123086670Y-95399500D01*
X123086654Y-95399499D01*
X123079058Y-95399499D01*
X122920943Y-95399499D01*
X122844579Y-95419961D01*
X122768214Y-95440423D01*
X122768209Y-95440426D01*
X122631290Y-95519475D01*
X122631282Y-95519481D01*
X121231465Y-96919298D01*
X121170142Y-96952783D01*
X121157668Y-96954837D01*
X121070750Y-96964630D01*
X120900478Y-97024210D01*
X120747737Y-97120184D01*
X120620184Y-97247737D01*
X120524211Y-97400476D01*
X120464631Y-97570745D01*
X120464630Y-97570750D01*
X120444435Y-97749996D01*
X114770146Y-97749996D01*
X114802262Y-97729816D01*
X114802267Y-97729810D01*
X114805097Y-97727555D01*
X114807275Y-97726665D01*
X114808158Y-97726111D01*
X114808255Y-97726265D01*
X114869783Y-97701145D01*
X114882412Y-97700500D01*
X116713331Y-97700500D01*
X116713347Y-97700501D01*
X116720943Y-97700501D01*
X116879054Y-97700501D01*
X116879057Y-97700501D01*
X117031785Y-97659577D01*
X117090307Y-97625789D01*
X117168716Y-97580520D01*
X117280520Y-97468716D01*
X117280520Y-97468714D01*
X117290724Y-97458511D01*
X117290727Y-97458506D01*
X126180520Y-88568716D01*
X126259577Y-88431784D01*
X126300501Y-88279057D01*
X126300501Y-88120942D01*
X126300501Y-88113347D01*
X126300500Y-88113329D01*
X126300500Y-82983389D01*
X130124500Y-82983389D01*
X130124500Y-83156611D01*
X130151598Y-83327701D01*
X130193158Y-83455609D01*
X130205128Y-83492447D01*
X130243629Y-83568010D01*
X130283768Y-83646788D01*
X130385586Y-83786928D01*
X130508072Y-83909414D01*
X130508078Y-83909418D01*
X130591023Y-83969683D01*
X130633689Y-84025013D01*
X130639667Y-84094626D01*
X130607061Y-84156421D01*
X130591023Y-84170317D01*
X130508078Y-84230581D01*
X130508069Y-84230588D01*
X130385588Y-84353069D01*
X130385588Y-84353070D01*
X130385586Y-84353072D01*
X130346842Y-84406399D01*
X130283768Y-84493211D01*
X130205128Y-84647552D01*
X130151597Y-84812302D01*
X130124500Y-84983389D01*
X130124500Y-85156610D01*
X130145651Y-85290157D01*
X130151598Y-85327701D01*
X130205127Y-85492445D01*
X130283768Y-85646788D01*
X130385586Y-85786928D01*
X130508072Y-85909414D01*
X130508078Y-85909418D01*
X130591023Y-85969683D01*
X130633689Y-86025013D01*
X130639667Y-86094626D01*
X130607061Y-86156421D01*
X130591023Y-86170317D01*
X130508078Y-86230581D01*
X130508069Y-86230588D01*
X130385588Y-86353069D01*
X130385588Y-86353070D01*
X130385586Y-86353072D01*
X130341859Y-86413256D01*
X130283768Y-86493211D01*
X130205128Y-86647552D01*
X130151597Y-86812302D01*
X130144238Y-86858768D01*
X130124500Y-86983389D01*
X130124500Y-87156611D01*
X130151598Y-87327701D01*
X130205127Y-87492445D01*
X130283768Y-87646788D01*
X130385586Y-87786928D01*
X130508072Y-87909414D01*
X130508078Y-87909418D01*
X130591023Y-87969683D01*
X130633689Y-88025013D01*
X130639667Y-88094626D01*
X130607061Y-88156421D01*
X130591023Y-88170317D01*
X130508078Y-88230581D01*
X130508069Y-88230588D01*
X130385588Y-88353069D01*
X130385588Y-88353070D01*
X130385586Y-88353072D01*
X130341859Y-88413256D01*
X130283768Y-88493211D01*
X130205128Y-88647552D01*
X130151597Y-88812302D01*
X130144238Y-88858768D01*
X130124500Y-88983389D01*
X130124500Y-89156611D01*
X130151598Y-89327701D01*
X130205127Y-89492445D01*
X130283768Y-89646788D01*
X130385586Y-89786928D01*
X130508072Y-89909414D01*
X130591448Y-89969990D01*
X130634113Y-90025320D01*
X130640092Y-90094934D01*
X130607486Y-90156729D01*
X130591448Y-90170626D01*
X130508399Y-90230964D01*
X130385967Y-90353396D01*
X130284195Y-90493474D01*
X130205591Y-90647743D01*
X130152085Y-90812414D01*
X130150884Y-90819998D01*
X130150885Y-90819999D01*
X131219670Y-90819999D01*
X131199925Y-90839744D01*
X131150556Y-90925254D01*
X131125000Y-91020629D01*
X131125000Y-91119369D01*
X131150556Y-91214744D01*
X131199925Y-91300254D01*
X131219670Y-91319999D01*
X130150885Y-91319999D01*
X130152085Y-91327583D01*
X130205591Y-91492254D01*
X130284195Y-91646523D01*
X130385967Y-91786601D01*
X130493565Y-91894199D01*
X130527050Y-91955522D01*
X130522066Y-92025214D01*
X130480194Y-92081147D01*
X130470982Y-92087418D01*
X130406344Y-92127287D01*
X130282289Y-92251342D01*
X130190187Y-92400663D01*
X130190186Y-92400666D01*
X130135001Y-92567203D01*
X130135001Y-92567204D01*
X130135000Y-92567204D01*
X130124500Y-92669983D01*
X130124500Y-93470001D01*
X130124501Y-93470019D01*
X130135000Y-93572796D01*
X130135001Y-93572799D01*
X130174182Y-93691037D01*
X130190186Y-93739334D01*
X130282288Y-93888656D01*
X130406344Y-94012712D01*
X130555666Y-94104814D01*
X130722203Y-94159999D01*
X130824991Y-94170500D01*
X132175008Y-94170499D01*
X132176477Y-94170349D01*
X132257699Y-94162052D01*
X132277797Y-94159999D01*
X132444334Y-94104814D01*
X132593656Y-94012712D01*
X132717712Y-93888656D01*
X132809814Y-93739334D01*
X132864999Y-93572797D01*
X132875500Y-93470009D01*
X132875499Y-92669992D01*
X132872375Y-92639414D01*
X132864999Y-92567203D01*
X132864998Y-92567200D01*
X132848339Y-92516928D01*
X132809814Y-92400666D01*
X132717712Y-92251344D01*
X132593656Y-92127288D01*
X132593652Y-92127285D01*
X132529018Y-92087418D01*
X132482293Y-92035470D01*
X132471072Y-91966508D01*
X132498915Y-91902426D01*
X132506434Y-91894198D01*
X132614035Y-91786597D01*
X132715804Y-91646523D01*
X132794408Y-91492254D01*
X132847914Y-91327583D01*
X132849115Y-91319999D01*
X131780330Y-91319999D01*
X131800075Y-91300254D01*
X131849444Y-91214744D01*
X131875000Y-91119369D01*
X131875000Y-91020629D01*
X131849444Y-90925254D01*
X131800075Y-90839744D01*
X131780330Y-90819999D01*
X132849115Y-90819999D01*
X132849115Y-90819998D01*
X132847914Y-90812414D01*
X132794408Y-90647743D01*
X132715804Y-90493474D01*
X132614032Y-90353396D01*
X132491600Y-90230964D01*
X132491595Y-90230960D01*
X132408552Y-90170626D01*
X132365886Y-90115296D01*
X132359907Y-90045683D01*
X132392512Y-89983888D01*
X132408549Y-89969992D01*
X132491928Y-89909414D01*
X132614414Y-89786928D01*
X132716232Y-89646788D01*
X132794873Y-89492445D01*
X132848402Y-89327701D01*
X132875500Y-89156611D01*
X132875500Y-88983389D01*
X132848402Y-88812299D01*
X132794873Y-88647555D01*
X132716232Y-88493212D01*
X132614414Y-88353072D01*
X132491928Y-88230586D01*
X132408975Y-88170317D01*
X132366311Y-88114988D01*
X132360332Y-88045374D01*
X132392938Y-87983579D01*
X132408976Y-87969682D01*
X132491928Y-87909414D01*
X132614414Y-87786928D01*
X132716232Y-87646788D01*
X132794873Y-87492445D01*
X132848402Y-87327701D01*
X132875500Y-87156611D01*
X132875500Y-86983389D01*
X132848402Y-86812299D01*
X132794873Y-86647555D01*
X132716232Y-86493212D01*
X132614414Y-86353072D01*
X132491928Y-86230586D01*
X132408975Y-86170317D01*
X132366311Y-86114988D01*
X132360332Y-86045374D01*
X132392938Y-85983579D01*
X132408976Y-85969682D01*
X132491928Y-85909414D01*
X132614414Y-85786928D01*
X132716232Y-85646788D01*
X132794873Y-85492445D01*
X132848402Y-85327701D01*
X132875500Y-85156611D01*
X132875500Y-84983389D01*
X132848402Y-84812299D01*
X132794873Y-84647555D01*
X132716232Y-84493212D01*
X132614414Y-84353072D01*
X132491928Y-84230586D01*
X132408975Y-84170317D01*
X132366311Y-84114988D01*
X132360332Y-84045374D01*
X132392938Y-83983579D01*
X132408976Y-83969682D01*
X132491928Y-83909414D01*
X132614414Y-83786928D01*
X132716232Y-83646788D01*
X132794873Y-83492445D01*
X132848402Y-83327701D01*
X132875500Y-83156611D01*
X132875500Y-82983389D01*
X132848402Y-82812299D01*
X132794873Y-82647555D01*
X132716232Y-82493212D01*
X132614414Y-82353072D01*
X132491928Y-82230586D01*
X132351788Y-82128768D01*
X132197445Y-82050127D01*
X132032701Y-81996598D01*
X132032699Y-81996597D01*
X132032698Y-81996597D01*
X131901271Y-81975781D01*
X131861611Y-81969500D01*
X131138389Y-81969500D01*
X131098728Y-81975781D01*
X130967302Y-81996597D01*
X130802552Y-82050128D01*
X130648211Y-82128768D01*
X130601901Y-82162415D01*
X130508072Y-82230586D01*
X130508070Y-82230588D01*
X130508069Y-82230588D01*
X130385588Y-82353069D01*
X130385588Y-82353070D01*
X130385586Y-82353072D01*
X130341859Y-82413256D01*
X130283768Y-82493211D01*
X130205128Y-82647552D01*
X130151597Y-82812302D01*
X130127005Y-82967573D01*
X130124500Y-82983389D01*
X126300500Y-82983389D01*
X126300500Y-72689635D01*
X148497000Y-72689635D01*
X148497000Y-75410370D01*
X148497001Y-75410376D01*
X148503408Y-75469983D01*
X148553702Y-75604828D01*
X148553706Y-75604835D01*
X148639952Y-75720044D01*
X148639955Y-75720047D01*
X148755164Y-75806293D01*
X148755171Y-75806297D01*
X148890017Y-75856591D01*
X148890016Y-75856591D01*
X148896944Y-75857335D01*
X148949627Y-75863000D01*
X151670372Y-75862999D01*
X151729983Y-75856591D01*
X151864831Y-75806296D01*
X151980046Y-75720046D01*
X152066296Y-75604831D01*
X152116591Y-75469983D01*
X152123000Y-75410373D01*
X152122999Y-72689628D01*
X152116591Y-72630017D01*
X152066296Y-72495169D01*
X152066295Y-72495168D01*
X152066293Y-72495164D01*
X151980047Y-72379955D01*
X151980044Y-72379952D01*
X151864835Y-72293706D01*
X151864828Y-72293702D01*
X151729982Y-72243408D01*
X151729983Y-72243408D01*
X151670383Y-72237001D01*
X151670381Y-72237000D01*
X151670373Y-72237000D01*
X151670364Y-72237000D01*
X148949629Y-72237000D01*
X148949623Y-72237001D01*
X148890016Y-72243408D01*
X148755171Y-72293702D01*
X148755164Y-72293706D01*
X148639955Y-72379952D01*
X148639952Y-72379955D01*
X148553706Y-72495164D01*
X148553702Y-72495171D01*
X148503408Y-72630017D01*
X148500487Y-72657190D01*
X148497001Y-72689623D01*
X148497000Y-72689635D01*
X126300500Y-72689635D01*
X126300500Y-69449995D01*
X148491917Y-69449995D01*
X148491917Y-69450004D01*
X148512222Y-69720969D01*
X148530283Y-69800097D01*
X148572689Y-69985890D01*
X148572691Y-69985895D01*
X148671961Y-70238831D01*
X148671964Y-70238839D01*
X148741341Y-70359001D01*
X148807830Y-70474163D01*
X148916760Y-70610757D01*
X148977254Y-70686615D01*
X149126163Y-70824781D01*
X149176444Y-70871435D01*
X149400959Y-71024507D01*
X149645780Y-71142407D01*
X149905439Y-71222501D01*
X149905440Y-71222501D01*
X149905443Y-71222502D01*
X150174127Y-71262999D01*
X150174132Y-71262999D01*
X150174135Y-71263000D01*
X150174136Y-71263000D01*
X150445866Y-71263000D01*
X150445867Y-71263000D01*
X150445874Y-71262999D01*
X150714558Y-71222502D01*
X150714559Y-71222501D01*
X150714563Y-71222501D01*
X150974222Y-71142407D01*
X151219043Y-71024507D01*
X151443558Y-70871435D01*
X151609520Y-70717445D01*
X151642747Y-70686615D01*
X151642747Y-70686613D01*
X151642751Y-70686611D01*
X151812172Y-70474163D01*
X151948038Y-70238837D01*
X152047313Y-69985890D01*
X152107779Y-69720971D01*
X152128085Y-69450000D01*
X152114462Y-69268216D01*
X152107779Y-69179030D01*
X152107779Y-69179029D01*
X152047313Y-68914110D01*
X151948038Y-68661163D01*
X151948037Y-68661160D01*
X151890613Y-68561700D01*
X151812172Y-68425837D01*
X151642751Y-68213389D01*
X151642750Y-68213388D01*
X151642747Y-68213384D01*
X151443558Y-68028565D01*
X151374110Y-67981216D01*
X151219043Y-67875493D01*
X151219040Y-67875492D01*
X151219038Y-67875490D01*
X150974222Y-67757593D01*
X150714564Y-67677499D01*
X150714558Y-67677497D01*
X150445874Y-67637000D01*
X150445867Y-67637000D01*
X150174135Y-67637000D01*
X150174127Y-67637000D01*
X149905443Y-67677497D01*
X149905437Y-67677499D01*
X149645779Y-67757593D01*
X149400963Y-67875490D01*
X149176443Y-68028565D01*
X148977254Y-68213384D01*
X148807830Y-68425837D01*
X148671964Y-68661160D01*
X148671961Y-68661168D01*
X148572691Y-68914104D01*
X148572686Y-68914121D01*
X148512222Y-69179030D01*
X148491917Y-69449995D01*
X126300500Y-69449995D01*
X126300500Y-66089059D01*
X126300501Y-66089046D01*
X126300501Y-65920945D01*
X126300501Y-65920943D01*
X126259577Y-65768215D01*
X126230639Y-65718095D01*
X126180520Y-65631284D01*
X126068716Y-65519480D01*
X126068715Y-65519479D01*
X126064385Y-65515149D01*
X126064374Y-65515139D01*
X118886818Y-58337583D01*
X118853333Y-58276260D01*
X118850499Y-58249902D01*
X118850499Y-58068713D01*
X152149500Y-58068713D01*
X152149500Y-58281286D01*
X152182753Y-58491239D01*
X152248444Y-58693414D01*
X152344951Y-58882820D01*
X152469890Y-59054786D01*
X152620213Y-59205109D01*
X152792179Y-59330048D01*
X152792181Y-59330049D01*
X152792184Y-59330051D01*
X152981588Y-59426557D01*
X153183757Y-59492246D01*
X153393713Y-59525500D01*
X153393714Y-59525500D01*
X153606286Y-59525500D01*
X153606287Y-59525500D01*
X153816243Y-59492246D01*
X154018412Y-59426557D01*
X154207816Y-59330051D01*
X154278008Y-59279054D01*
X154379786Y-59205109D01*
X154379788Y-59205106D01*
X154379792Y-59205104D01*
X154530104Y-59054792D01*
X154530106Y-59054788D01*
X154530109Y-59054786D01*
X154655048Y-58882820D01*
X154655047Y-58882820D01*
X154655051Y-58882816D01*
X154751557Y-58693412D01*
X154817246Y-58491243D01*
X154850500Y-58281287D01*
X154850500Y-58068713D01*
X154817246Y-57858757D01*
X154751557Y-57656588D01*
X154655051Y-57467184D01*
X154655049Y-57467181D01*
X154655048Y-57467179D01*
X154530109Y-57295213D01*
X154379786Y-57144890D01*
X154207820Y-57019951D01*
X154018414Y-56923444D01*
X154018413Y-56923443D01*
X154018412Y-56923443D01*
X153816243Y-56857754D01*
X153816241Y-56857753D01*
X153816240Y-56857753D01*
X153646802Y-56830917D01*
X153606287Y-56824500D01*
X153393713Y-56824500D01*
X153353198Y-56830917D01*
X153183760Y-56857753D01*
X152981585Y-56923444D01*
X152792179Y-57019951D01*
X152620213Y-57144890D01*
X152469890Y-57295213D01*
X152344951Y-57467179D01*
X152248444Y-57656585D01*
X152182753Y-57858760D01*
X152149500Y-58068713D01*
X118850499Y-58068713D01*
X118850499Y-56602129D01*
X118850498Y-56602123D01*
X118850497Y-56602116D01*
X118844091Y-56542517D01*
X118839698Y-56530740D01*
X118793797Y-56407671D01*
X118793793Y-56407664D01*
X118707547Y-56292455D01*
X118707544Y-56292452D01*
X118592335Y-56206206D01*
X118592328Y-56206202D01*
X118457482Y-56155908D01*
X118457483Y-56155908D01*
X118397883Y-56149501D01*
X118397881Y-56149500D01*
X118397873Y-56149500D01*
X118397864Y-56149500D01*
X116302129Y-56149500D01*
X116302123Y-56149501D01*
X116242516Y-56155908D01*
X116107671Y-56206202D01*
X116107664Y-56206206D01*
X115992455Y-56292452D01*
X115992452Y-56292455D01*
X115906206Y-56407664D01*
X115906202Y-56407671D01*
X115891182Y-56447944D01*
X115849311Y-56503878D01*
X115783847Y-56528295D01*
X115715574Y-56513443D01*
X115666168Y-56464038D01*
X115658818Y-56447944D01*
X115643797Y-56407671D01*
X115643793Y-56407664D01*
X115557547Y-56292455D01*
X115557544Y-56292452D01*
X115442335Y-56206206D01*
X115442328Y-56206202D01*
X115307482Y-56155908D01*
X115307483Y-56155908D01*
X115247883Y-56149501D01*
X115247881Y-56149500D01*
X115247873Y-56149500D01*
X115247864Y-56149500D01*
X113152129Y-56149500D01*
X113152123Y-56149501D01*
X113092516Y-56155908D01*
X112957671Y-56206202D01*
X112957664Y-56206206D01*
X112842455Y-56292452D01*
X112842452Y-56292455D01*
X112756206Y-56407664D01*
X112756202Y-56407671D01*
X112705908Y-56542517D01*
X112699501Y-56602116D01*
X112699501Y-56602123D01*
X112699500Y-56602135D01*
X112699500Y-58697870D01*
X112699501Y-58697876D01*
X112705908Y-58757483D01*
X112756202Y-58892328D01*
X112756206Y-58892335D01*
X112842452Y-59007544D01*
X112842455Y-59007547D01*
X112957664Y-59093793D01*
X112957671Y-59093797D01*
X113002618Y-59110561D01*
X113092517Y-59144091D01*
X113152127Y-59150500D01*
X113475499Y-59150499D01*
X113542538Y-59170183D01*
X113588293Y-59222987D01*
X113599499Y-59274499D01*
X113599499Y-59279054D01*
X113599498Y-59279054D01*
X113640423Y-59431785D01*
X113669358Y-59481900D01*
X113669359Y-59481904D01*
X113669360Y-59481904D01*
X113719479Y-59568714D01*
X113719481Y-59568717D01*
X113838349Y-59687585D01*
X113838355Y-59687590D01*
X123863181Y-69712416D01*
X123896666Y-69773739D01*
X123899500Y-69800097D01*
X123899500Y-87599902D01*
X123879815Y-87666941D01*
X123863181Y-87687583D01*
X115987584Y-95563181D01*
X115926261Y-95596666D01*
X115899903Y-95599500D01*
X113620940Y-95599500D01*
X113580019Y-95610464D01*
X113580019Y-95610465D01*
X113553440Y-95617587D01*
X113468214Y-95640423D01*
X113468209Y-95640426D01*
X113331290Y-95719475D01*
X113331282Y-95719481D01*
X113219478Y-95831286D01*
X112981465Y-96069298D01*
X112920142Y-96102783D01*
X112907668Y-96104837D01*
X112820750Y-96114630D01*
X112650478Y-96174210D01*
X112497737Y-96270184D01*
X112370184Y-96397737D01*
X112274211Y-96550476D01*
X112214631Y-96720745D01*
X112214630Y-96720750D01*
X112194435Y-96899996D01*
X110790571Y-96899996D01*
X110902262Y-96829816D01*
X111029816Y-96702262D01*
X111125789Y-96549522D01*
X111185368Y-96379255D01*
X111185369Y-96379249D01*
X111205565Y-96200003D01*
X111205565Y-96199996D01*
X111185369Y-96020750D01*
X111185368Y-96020745D01*
X111125788Y-95850476D01*
X111029813Y-95697734D01*
X111027550Y-95694896D01*
X111026659Y-95692715D01*
X111026111Y-95691842D01*
X111026264Y-95691745D01*
X111001144Y-95630209D01*
X111000500Y-95617587D01*
X111000500Y-80089060D01*
X111000501Y-80089047D01*
X111000501Y-79920944D01*
X110959576Y-79768214D01*
X110959573Y-79768209D01*
X110880524Y-79631290D01*
X110880518Y-79631282D01*
X106487590Y-75238355D01*
X106487588Y-75238352D01*
X106368717Y-75119481D01*
X106368716Y-75119480D01*
X106281904Y-75069360D01*
X106281904Y-75069359D01*
X106281900Y-75069358D01*
X106231785Y-75040423D01*
X106079057Y-74999499D01*
X105920943Y-74999499D01*
X105913347Y-74999499D01*
X105913331Y-74999500D01*
X89429057Y-74999500D01*
X89270943Y-74999500D01*
X89118215Y-75040423D01*
X89118214Y-75040423D01*
X89118212Y-75040424D01*
X89118209Y-75040425D01*
X89068096Y-75069359D01*
X89068095Y-75069360D01*
X89024689Y-75094420D01*
X88981285Y-75119479D01*
X88981282Y-75119481D01*
X82519481Y-81581282D01*
X82519479Y-81581285D01*
X82490325Y-81631783D01*
X82490324Y-81631785D01*
X82440423Y-81718214D01*
X82440423Y-81718215D01*
X82399499Y-81870943D01*
X82399499Y-81870945D01*
X82399499Y-82039046D01*
X82399500Y-82039059D01*
X82399500Y-84619903D01*
X82379815Y-84686942D01*
X82363181Y-84707584D01*
X81277083Y-85793681D01*
X81215760Y-85827166D01*
X81189402Y-85830000D01*
X80233012Y-85830000D01*
X80265925Y-85772993D01*
X80300000Y-85645826D01*
X80300000Y-85514174D01*
X80265925Y-85387007D01*
X80233012Y-85330000D01*
X81130636Y-85330000D01*
X81130635Y-85329999D01*
X81073432Y-85116513D01*
X81073429Y-85116507D01*
X80973600Y-84902422D01*
X80973599Y-84902420D01*
X80838113Y-84708926D01*
X80838108Y-84708920D01*
X80671082Y-84541894D01*
X80477578Y-84406399D01*
X80263492Y-84306570D01*
X80263486Y-84306567D01*
X80050000Y-84249364D01*
X80050000Y-85146988D01*
X79992993Y-85114075D01*
X79865826Y-85080000D01*
X79734174Y-85080000D01*
X79607007Y-85114075D01*
X79550000Y-85146988D01*
X79550000Y-84249364D01*
X79549999Y-84249364D01*
X79336513Y-84306567D01*
X79336507Y-84306570D01*
X79122422Y-84406399D01*
X79122420Y-84406400D01*
X78928926Y-84541886D01*
X78928920Y-84541891D01*
X78761891Y-84708920D01*
X78761886Y-84708926D01*
X78626400Y-84902420D01*
X78626399Y-84902422D01*
X78526570Y-85116507D01*
X78526567Y-85116513D01*
X78469364Y-85329999D01*
X78469364Y-85330000D01*
X79366988Y-85330000D01*
X79334075Y-85387007D01*
X79300000Y-85514174D01*
X79300000Y-85645826D01*
X79334075Y-85772993D01*
X79366988Y-85830000D01*
X78469364Y-85830000D01*
X78526567Y-86043486D01*
X78526570Y-86043492D01*
X78626399Y-86257578D01*
X78761894Y-86451082D01*
X78928917Y-86618105D01*
X79114596Y-86748120D01*
X79158221Y-86802697D01*
X79165413Y-86872196D01*
X79133891Y-86934550D01*
X79114595Y-86951270D01*
X78928597Y-87081506D01*
X78761505Y-87248598D01*
X78625965Y-87442170D01*
X78625964Y-87442172D01*
X78526098Y-87656336D01*
X78526094Y-87656345D01*
X78464938Y-87884587D01*
X78464936Y-87884597D01*
X78444341Y-88120000D01*
X78444341Y-88120001D01*
X78464936Y-88355404D01*
X78464938Y-88355414D01*
X78526094Y-88583656D01*
X78526096Y-88583660D01*
X78526097Y-88583664D01*
X78605999Y-88755013D01*
X78625965Y-88797831D01*
X78625967Y-88797835D01*
X78761501Y-88991396D01*
X78761506Y-88991403D01*
X78928597Y-89158494D01*
X78928603Y-89158499D01*
X79114157Y-89288425D01*
X79157782Y-89343002D01*
X79164976Y-89412500D01*
X79133453Y-89474855D01*
X79114158Y-89491575D01*
X78928594Y-89621508D01*
X78761505Y-89788597D01*
X78625965Y-89982169D01*
X78625964Y-89982171D01*
X78526098Y-90196335D01*
X78526094Y-90196344D01*
X78464938Y-90424586D01*
X78464936Y-90424596D01*
X78444341Y-90659999D01*
X78444341Y-90660000D01*
X78464936Y-90895403D01*
X78464938Y-90895413D01*
X78526094Y-91123655D01*
X78526096Y-91123659D01*
X78526097Y-91123663D01*
X78572517Y-91223211D01*
X78625965Y-91337830D01*
X78625967Y-91337834D01*
X78734094Y-91492254D01*
X78761501Y-91531396D01*
X78761506Y-91531402D01*
X78883430Y-91653326D01*
X78916915Y-91714649D01*
X78911931Y-91784341D01*
X78870059Y-91840274D01*
X78839083Y-91857189D01*
X78707669Y-91906203D01*
X78707664Y-91906206D01*
X78592455Y-91992452D01*
X78592452Y-91992455D01*
X78506206Y-92107664D01*
X78506202Y-92107671D01*
X78455908Y-92242517D01*
X78449501Y-92302116D01*
X78449500Y-92302135D01*
X78449500Y-94097870D01*
X78449501Y-94097876D01*
X78455908Y-94157483D01*
X78506202Y-94292328D01*
X78506206Y-94292335D01*
X78592452Y-94407544D01*
X78592455Y-94407547D01*
X78707664Y-94493793D01*
X78707671Y-94493797D01*
X78842517Y-94544091D01*
X78842516Y-94544091D01*
X78849444Y-94544835D01*
X78902127Y-94550500D01*
X80697872Y-94550499D01*
X80757483Y-94544091D01*
X80892331Y-94493796D01*
X81007546Y-94407546D01*
X81093796Y-94292331D01*
X81144091Y-94157483D01*
X81150500Y-94097873D01*
X81150499Y-93750098D01*
X81170183Y-93683060D01*
X81186818Y-93662418D01*
X81198760Y-93650476D01*
X81280520Y-93568716D01*
X81280520Y-93568714D01*
X81290724Y-93558511D01*
X81290728Y-93558506D01*
X91252724Y-83596509D01*
X91314045Y-83563026D01*
X91383737Y-83568010D01*
X91439670Y-83609882D01*
X91463623Y-83670306D01*
X91464631Y-83679251D01*
X91464631Y-83679254D01*
X91524211Y-83849523D01*
X91599713Y-83969683D01*
X91620184Y-84002262D01*
X91747738Y-84129816D01*
X91900478Y-84225789D01*
X92003984Y-84262007D01*
X92050710Y-84291367D01*
X93588182Y-85828839D01*
X93621667Y-85890162D01*
X93624501Y-85916520D01*
X93624501Y-93206738D01*
X93604816Y-93273777D01*
X93552012Y-93319532D01*
X93482854Y-93329476D01*
X93419298Y-93300451D01*
X93395508Y-93272711D01*
X93379817Y-93247739D01*
X93252262Y-93120184D01*
X93099523Y-93024211D01*
X92929254Y-92964631D01*
X92929249Y-92964630D01*
X92750004Y-92944435D01*
X92749996Y-92944435D01*
X92570750Y-92964630D01*
X92570745Y-92964631D01*
X92400476Y-93024211D01*
X92247737Y-93120184D01*
X92120184Y-93247737D01*
X92024212Y-93400475D01*
X92024211Y-93400476D01*
X91987992Y-93503984D01*
X91958632Y-93550709D01*
X91705887Y-93803454D01*
X91629222Y-93918192D01*
X91576421Y-94045667D01*
X91576418Y-94045679D01*
X91553271Y-94162048D01*
X91553271Y-94162051D01*
X91551590Y-94170500D01*
X91549500Y-94181007D01*
X91549500Y-113408480D01*
X91529815Y-113475519D01*
X91513181Y-113496161D01*
X86160889Y-118848452D01*
X86160886Y-118848455D01*
X86084230Y-118963180D01*
X86084228Y-118963184D01*
X86084226Y-118963186D01*
X86084226Y-118963188D01*
X86075221Y-118984927D01*
X86060794Y-119019755D01*
X86017358Y-119073874D01*
X85865864Y-119179951D01*
X85704952Y-119340862D01*
X85574433Y-119527265D01*
X85574432Y-119527267D01*
X85547383Y-119585275D01*
X85501210Y-119637714D01*
X85434017Y-119656866D01*
X85367136Y-119636650D01*
X85322619Y-119585275D01*
X85305178Y-119547873D01*
X85295569Y-119527266D01*
X85183378Y-119367039D01*
X85165046Y-119340858D01*
X85004142Y-119179954D01*
X84817735Y-119049432D01*
X84817733Y-119049431D01*
X84611498Y-118953261D01*
X84611489Y-118953258D01*
X84391698Y-118894366D01*
X84391694Y-118894365D01*
X84391693Y-118894365D01*
X84391692Y-118894364D01*
X84391687Y-118894364D01*
X84165003Y-118874532D01*
X84164999Y-118874532D01*
X83938314Y-118894364D01*
X83938303Y-118894366D01*
X83718512Y-118953258D01*
X83718503Y-118953261D01*
X83512268Y-119049431D01*
X83512266Y-119049432D01*
X83325859Y-119179954D01*
X83164955Y-119340858D01*
X83034433Y-119527265D01*
X83034432Y-119527267D01*
X83007383Y-119585275D01*
X82961210Y-119637714D01*
X82894017Y-119656866D01*
X82827136Y-119636650D01*
X82782619Y-119585275D01*
X82765178Y-119547873D01*
X82755569Y-119527266D01*
X82643378Y-119367039D01*
X82625046Y-119340858D01*
X82464142Y-119179954D01*
X82277735Y-119049432D01*
X82277733Y-119049431D01*
X82071498Y-118953261D01*
X82071489Y-118953258D01*
X81851698Y-118894366D01*
X81851694Y-118894365D01*
X81851693Y-118894365D01*
X81851692Y-118894364D01*
X81851687Y-118894364D01*
X81625003Y-118874532D01*
X81624999Y-118874532D01*
X81398314Y-118894364D01*
X81398303Y-118894366D01*
X81178512Y-118953258D01*
X81178503Y-118953261D01*
X80972268Y-119049431D01*
X80972266Y-119049432D01*
X80785859Y-119179954D01*
X80624955Y-119340858D01*
X80494433Y-119527265D01*
X80494432Y-119527267D01*
X80398262Y-119733502D01*
X80398259Y-119733511D01*
X80339367Y-119953302D01*
X80339365Y-119953312D01*
X80323089Y-120139350D01*
X80297636Y-120204418D01*
X80241045Y-120245397D01*
X80171283Y-120249275D01*
X80111880Y-120216223D01*
X78986819Y-119091162D01*
X78953334Y-119029839D01*
X78950500Y-119003481D01*
X78950500Y-110591517D01*
X78970185Y-110524478D01*
X78986814Y-110503841D01*
X88949288Y-100541366D01*
X88996012Y-100512008D01*
X89099522Y-100475789D01*
X89252262Y-100379816D01*
X89379816Y-100252262D01*
X89475789Y-100099522D01*
X89535368Y-99929255D01*
X89535369Y-99929249D01*
X89555565Y-99750003D01*
X89555565Y-99749996D01*
X89535369Y-99570750D01*
X89535368Y-99570745D01*
X89511592Y-99502797D01*
X89475789Y-99400478D01*
X89475494Y-99400009D01*
X89400150Y-99280099D01*
X89379816Y-99247738D01*
X89252262Y-99120184D01*
X89099523Y-99024211D01*
X88929254Y-98964631D01*
X88929249Y-98964630D01*
X88750004Y-98944435D01*
X88749996Y-98944435D01*
X88570750Y-98964630D01*
X88570745Y-98964631D01*
X88400476Y-99024211D01*
X88247737Y-99120184D01*
X88120184Y-99247737D01*
X88024212Y-99400475D01*
X88024211Y-99400476D01*
X87987991Y-99503986D01*
X87958631Y-99550711D01*
X77919776Y-109589565D01*
X77858453Y-109623050D01*
X77788761Y-109618066D01*
X77732828Y-109576194D01*
X77708411Y-109510730D01*
X77708095Y-109501984D01*
X77684339Y-72347844D01*
X77980000Y-72347844D01*
X77986401Y-72407372D01*
X77986403Y-72407379D01*
X78036645Y-72542086D01*
X78036649Y-72542093D01*
X78122809Y-72657187D01*
X78122812Y-72657190D01*
X78237906Y-72743350D01*
X78237913Y-72743354D01*
X78372620Y-72793596D01*
X78372627Y-72793598D01*
X78432155Y-72799999D01*
X78432172Y-72800000D01*
X78730000Y-72800000D01*
X79230000Y-72800000D01*
X79527828Y-72800000D01*
X79527844Y-72799999D01*
X79587372Y-72793598D01*
X79587379Y-72793596D01*
X79722086Y-72743354D01*
X79722093Y-72743350D01*
X79837187Y-72657190D01*
X79837190Y-72657187D01*
X79923350Y-72542093D01*
X79923354Y-72542086D01*
X79973596Y-72407379D01*
X79973598Y-72407372D01*
X79979999Y-72347844D01*
X79980000Y-72347827D01*
X79980000Y-72050000D01*
X79230000Y-72050000D01*
X79230000Y-72800000D01*
X78730000Y-72800000D01*
X78730000Y-72050000D01*
X77980000Y-72050000D01*
X77980000Y-72347844D01*
X77684339Y-72347844D01*
X77679451Y-64702135D01*
X77979500Y-64702135D01*
X77979500Y-65797870D01*
X77979501Y-65797876D01*
X77985908Y-65857483D01*
X78036202Y-65992328D01*
X78036206Y-65992335D01*
X78122452Y-66107544D01*
X78122455Y-66107547D01*
X78237664Y-66193793D01*
X78237671Y-66193797D01*
X78322629Y-66225484D01*
X78378562Y-66267355D01*
X78402980Y-66332819D01*
X78388129Y-66401092D01*
X78338724Y-66450498D01*
X78322630Y-66457848D01*
X78237669Y-66489536D01*
X78237664Y-66489539D01*
X78122455Y-66575785D01*
X78122452Y-66575788D01*
X78036206Y-66690997D01*
X78036202Y-66691004D01*
X77985908Y-66825850D01*
X77979501Y-66885449D01*
X77979501Y-66885456D01*
X77979500Y-66885468D01*
X77979500Y-67981203D01*
X77979501Y-67981209D01*
X77985908Y-68040816D01*
X78036202Y-68175661D01*
X78036206Y-68175668D01*
X78122452Y-68290877D01*
X78122455Y-68290880D01*
X78237664Y-68377126D01*
X78237671Y-68377130D01*
X78322629Y-68408817D01*
X78378562Y-68450688D01*
X78402980Y-68516152D01*
X78388129Y-68584425D01*
X78338724Y-68633831D01*
X78322630Y-68641181D01*
X78237669Y-68672869D01*
X78237664Y-68672872D01*
X78122455Y-68759118D01*
X78122452Y-68759121D01*
X78036206Y-68874330D01*
X78036202Y-68874337D01*
X77985908Y-69009183D01*
X77980048Y-69063696D01*
X77979501Y-69068789D01*
X77979500Y-69068801D01*
X77979500Y-70164536D01*
X77979501Y-70164542D01*
X77985908Y-70224149D01*
X78036202Y-70358994D01*
X78036206Y-70359001D01*
X78122452Y-70474210D01*
X78122455Y-70474213D01*
X78237664Y-70560459D01*
X78237671Y-70560463D01*
X78323345Y-70592417D01*
X78379278Y-70634288D01*
X78403696Y-70699752D01*
X78388845Y-70768025D01*
X78339440Y-70817431D01*
X78323346Y-70824781D01*
X78237911Y-70856646D01*
X78237906Y-70856649D01*
X78122812Y-70942809D01*
X78122809Y-70942812D01*
X78036649Y-71057906D01*
X78036645Y-71057913D01*
X77986403Y-71192620D01*
X77986401Y-71192627D01*
X77980000Y-71252155D01*
X77980000Y-71550000D01*
X78930272Y-71550000D01*
X78838386Y-71588060D01*
X78768060Y-71658386D01*
X78730000Y-71750272D01*
X78730000Y-71849728D01*
X78768060Y-71941614D01*
X78838386Y-72011940D01*
X78930272Y-72050000D01*
X79029728Y-72050000D01*
X79121614Y-72011940D01*
X79191940Y-71941614D01*
X79230000Y-71849728D01*
X79230000Y-71750272D01*
X79191940Y-71658386D01*
X79121614Y-71588060D01*
X79029728Y-71550000D01*
X79980000Y-71550000D01*
X79980000Y-71252172D01*
X79979999Y-71252155D01*
X79973598Y-71192627D01*
X79973596Y-71192620D01*
X79923354Y-71057913D01*
X79923350Y-71057906D01*
X79837190Y-70942812D01*
X79837187Y-70942809D01*
X79722093Y-70856649D01*
X79722086Y-70856645D01*
X79636654Y-70824781D01*
X79580720Y-70782910D01*
X79556303Y-70717445D01*
X79571155Y-70649172D01*
X79620560Y-70599767D01*
X79636655Y-70592417D01*
X79722326Y-70560464D01*
X79722326Y-70560463D01*
X79722331Y-70560462D01*
X79837546Y-70474212D01*
X79923796Y-70358997D01*
X79974091Y-70224149D01*
X79980500Y-70164539D01*
X79980499Y-69068794D01*
X79974091Y-69009183D01*
X79923796Y-68874335D01*
X79923795Y-68874334D01*
X79923793Y-68874330D01*
X79837547Y-68759121D01*
X79837544Y-68759118D01*
X79722335Y-68672872D01*
X79722328Y-68672868D01*
X79637370Y-68641181D01*
X79581436Y-68599310D01*
X79557019Y-68533845D01*
X79571871Y-68465572D01*
X79621276Y-68416167D01*
X79637371Y-68408817D01*
X79722326Y-68377131D01*
X79722326Y-68377130D01*
X79722331Y-68377129D01*
X79837546Y-68290879D01*
X79923796Y-68175664D01*
X79974091Y-68040816D01*
X79980500Y-67981206D01*
X79980499Y-66885461D01*
X79974091Y-66825850D01*
X79923796Y-66691002D01*
X79923795Y-66691001D01*
X79923793Y-66690997D01*
X79837547Y-66575788D01*
X79837544Y-66575785D01*
X79722335Y-66489539D01*
X79722328Y-66489535D01*
X79637370Y-66457848D01*
X79581436Y-66415977D01*
X79557019Y-66350512D01*
X79571871Y-66282239D01*
X79621276Y-66232834D01*
X79637371Y-66225484D01*
X79722326Y-66193798D01*
X79722326Y-66193797D01*
X79722331Y-66193796D01*
X79837546Y-66107546D01*
X79923796Y-65992331D01*
X79974091Y-65857483D01*
X79980500Y-65797873D01*
X79980499Y-64702128D01*
X79974091Y-64642517D01*
X79923796Y-64507669D01*
X79923795Y-64507668D01*
X79923793Y-64507664D01*
X79837547Y-64392455D01*
X79837544Y-64392452D01*
X79722335Y-64306206D01*
X79722328Y-64306202D01*
X79587482Y-64255908D01*
X79587483Y-64255908D01*
X79527883Y-64249501D01*
X79527881Y-64249500D01*
X79527873Y-64249500D01*
X79527864Y-64249500D01*
X78432129Y-64249500D01*
X78432123Y-64249501D01*
X78372516Y-64255908D01*
X78237671Y-64306202D01*
X78237664Y-64306206D01*
X78122455Y-64392452D01*
X78122452Y-64392455D01*
X78036206Y-64507664D01*
X78036202Y-64507671D01*
X77985908Y-64642517D01*
X77979501Y-64702116D01*
X77979501Y-64702123D01*
X77979500Y-64702135D01*
X77679451Y-64702135D01*
X77675376Y-58328152D01*
X77675546Y-58321586D01*
X77677659Y-58281286D01*
X77688801Y-58068713D01*
X80149500Y-58068713D01*
X80149500Y-58281286D01*
X80182753Y-58491239D01*
X80248444Y-58693414D01*
X80344951Y-58882820D01*
X80469890Y-59054786D01*
X80620213Y-59205109D01*
X80792179Y-59330048D01*
X80792181Y-59330049D01*
X80792184Y-59330051D01*
X80981588Y-59426557D01*
X81183757Y-59492246D01*
X81393713Y-59525500D01*
X81393714Y-59525500D01*
X81606286Y-59525500D01*
X81606287Y-59525500D01*
X81816243Y-59492246D01*
X82018412Y-59426557D01*
X82207816Y-59330051D01*
X82278008Y-59279054D01*
X82379786Y-59205109D01*
X82379788Y-59205106D01*
X82379792Y-59205104D01*
X82530104Y-59054792D01*
X82530106Y-59054788D01*
X82530109Y-59054786D01*
X82655048Y-58882820D01*
X82655047Y-58882820D01*
X82655051Y-58882816D01*
X82751557Y-58693412D01*
X82817246Y-58491243D01*
X82850500Y-58281287D01*
X82850500Y-58068713D01*
X82817246Y-57858757D01*
X82751557Y-57656588D01*
X82655051Y-57467184D01*
X82655049Y-57467181D01*
X82655048Y-57467179D01*
X82530109Y-57295213D01*
X82379786Y-57144890D01*
X82207820Y-57019951D01*
X82018414Y-56923444D01*
X82018413Y-56923443D01*
X82018412Y-56923443D01*
X81816243Y-56857754D01*
X81816241Y-56857753D01*
X81816240Y-56857753D01*
X81646802Y-56830917D01*
X81606287Y-56824500D01*
X81393713Y-56824500D01*
X81353198Y-56830917D01*
X81183760Y-56857753D01*
X80981585Y-56923444D01*
X80792179Y-57019951D01*
X80620213Y-57144890D01*
X80469890Y-57295213D01*
X80344951Y-57467179D01*
X80248444Y-57656585D01*
X80182753Y-57858760D01*
X80149500Y-58068713D01*
X77688801Y-58068713D01*
X77691468Y-58017828D01*
X77692825Y-58004923D01*
X77739908Y-57707661D01*
X77742601Y-57694986D01*
X77820504Y-57404253D01*
X77824514Y-57391915D01*
X77861637Y-57295208D01*
X77932378Y-57110922D01*
X77937641Y-57099101D01*
X78074296Y-56830904D01*
X78080772Y-56819689D01*
X78222040Y-56602155D01*
X106200000Y-56602155D01*
X106200000Y-57400000D01*
X107266988Y-57400000D01*
X107234075Y-57457007D01*
X107200000Y-57584174D01*
X107200000Y-57715826D01*
X107234075Y-57842993D01*
X107266988Y-57900000D01*
X106200000Y-57900000D01*
X106200000Y-58697844D01*
X106206401Y-58757372D01*
X106206403Y-58757379D01*
X106256645Y-58892086D01*
X106256649Y-58892093D01*
X106342809Y-59007187D01*
X106342812Y-59007190D01*
X106457906Y-59093350D01*
X106457913Y-59093354D01*
X106592620Y-59143596D01*
X106592627Y-59143598D01*
X106652155Y-59149999D01*
X106652172Y-59150000D01*
X107450000Y-59150000D01*
X107450000Y-58083012D01*
X107507007Y-58115925D01*
X107634174Y-58150000D01*
X107765826Y-58150000D01*
X107892993Y-58115925D01*
X107950000Y-58083012D01*
X107950000Y-59150000D01*
X108747828Y-59150000D01*
X108747844Y-59149999D01*
X108807372Y-59143598D01*
X108807379Y-59143596D01*
X108942086Y-59093354D01*
X108942093Y-59093350D01*
X109057187Y-59007190D01*
X109057190Y-59007187D01*
X109143350Y-58892093D01*
X109143354Y-58892086D01*
X109193596Y-58757379D01*
X109193598Y-58757372D01*
X109199999Y-58697844D01*
X109200000Y-58697827D01*
X109200000Y-57900000D01*
X108133012Y-57900000D01*
X108165925Y-57842993D01*
X108200000Y-57715826D01*
X108200000Y-57584174D01*
X108165925Y-57457007D01*
X108133012Y-57400000D01*
X109200000Y-57400000D01*
X109200000Y-56602172D01*
X109199999Y-56602155D01*
X109199997Y-56602135D01*
X109449500Y-56602135D01*
X109449500Y-58697870D01*
X109449501Y-58697876D01*
X109455908Y-58757483D01*
X109506202Y-58892328D01*
X109506206Y-58892335D01*
X109592452Y-59007544D01*
X109592455Y-59007547D01*
X109707664Y-59093793D01*
X109707671Y-59093797D01*
X109842517Y-59144091D01*
X109842516Y-59144091D01*
X109849444Y-59144835D01*
X109902127Y-59150500D01*
X111997872Y-59150499D01*
X112057483Y-59144091D01*
X112192331Y-59093796D01*
X112307546Y-59007546D01*
X112393796Y-58892331D01*
X112444091Y-58757483D01*
X112450500Y-58697873D01*
X112450499Y-56602128D01*
X112444091Y-56542517D01*
X112439698Y-56530740D01*
X112393797Y-56407671D01*
X112393793Y-56407664D01*
X112307547Y-56292455D01*
X112307544Y-56292452D01*
X112192335Y-56206206D01*
X112192328Y-56206202D01*
X112057482Y-56155908D01*
X112057483Y-56155908D01*
X111997883Y-56149501D01*
X111997881Y-56149500D01*
X111997873Y-56149500D01*
X111997864Y-56149500D01*
X109902129Y-56149500D01*
X109902123Y-56149501D01*
X109842516Y-56155908D01*
X109707671Y-56206202D01*
X109707664Y-56206206D01*
X109592455Y-56292452D01*
X109592452Y-56292455D01*
X109506206Y-56407664D01*
X109506202Y-56407671D01*
X109455908Y-56542517D01*
X109449501Y-56602116D01*
X109449501Y-56602123D01*
X109449500Y-56602135D01*
X109199997Y-56602135D01*
X109193598Y-56542627D01*
X109193596Y-56542620D01*
X109143354Y-56407913D01*
X109143350Y-56407906D01*
X109057190Y-56292812D01*
X109057187Y-56292809D01*
X108942093Y-56206649D01*
X108942086Y-56206645D01*
X108807379Y-56156403D01*
X108807372Y-56156401D01*
X108747844Y-56150000D01*
X107950000Y-56150000D01*
X107950000Y-57216988D01*
X107892993Y-57184075D01*
X107765826Y-57150000D01*
X107634174Y-57150000D01*
X107507007Y-57184075D01*
X107450000Y-57216988D01*
X107450000Y-56150000D01*
X106652155Y-56150000D01*
X106592627Y-56156401D01*
X106592620Y-56156403D01*
X106457913Y-56206645D01*
X106457906Y-56206649D01*
X106342812Y-56292809D01*
X106342809Y-56292812D01*
X106256649Y-56407906D01*
X106256645Y-56407913D01*
X106206403Y-56542620D01*
X106206401Y-56542627D01*
X106200000Y-56602155D01*
X78222040Y-56602155D01*
X78244700Y-56567261D01*
X78252314Y-56556780D01*
X78441740Y-56322861D01*
X78450407Y-56313235D01*
X78663235Y-56100407D01*
X78672861Y-56091740D01*
X78906780Y-55902314D01*
X78917261Y-55894700D01*
X79169689Y-55730772D01*
X79180904Y-55724296D01*
X79449101Y-55587641D01*
X79460922Y-55582378D01*
X79741920Y-55474512D01*
X79754255Y-55470505D01*
X79905296Y-55430032D01*
X79937315Y-55425806D01*
X80254284Y-55425621D01*
X80406986Y-55384608D01*
X80467146Y-55349826D01*
X80522713Y-55333349D01*
X80671650Y-55325543D01*
X80678118Y-55325374D01*
X153625662Y-55350474D01*
G37*
%TD.AperFunction*%
%TA.AperFunction,Conductor*%
G36*
X92035001Y-129078872D02*
G01*
X92231318Y-129026269D01*
X92231327Y-129026265D01*
X92437483Y-128930134D01*
X92623821Y-128799657D01*
X92784658Y-128638820D01*
X92915133Y-128452484D01*
X92942342Y-128394134D01*
X92988514Y-128341695D01*
X93055708Y-128322542D01*
X93122589Y-128342757D01*
X93167106Y-128394132D01*
X93189089Y-128441275D01*
X93194432Y-128452732D01*
X93194433Y-128452734D01*
X93324955Y-128639141D01*
X93485859Y-128800045D01*
X93485862Y-128800047D01*
X93672267Y-128930568D01*
X93878505Y-129026739D01*
X94098309Y-129085635D01*
X94240362Y-129098063D01*
X94324999Y-129105468D01*
X94325001Y-129105468D01*
X94325003Y-129105468D01*
X94381808Y-129100498D01*
X94551693Y-129085635D01*
X94771497Y-129026739D01*
X94977735Y-128930568D01*
X95164140Y-128800047D01*
X95325048Y-128639139D01*
X95455569Y-128452734D01*
X95482619Y-128394724D01*
X95528791Y-128342285D01*
X95595984Y-128323133D01*
X95662866Y-128343348D01*
X95707382Y-128394724D01*
X95721518Y-128425038D01*
X95734430Y-128452728D01*
X95734433Y-128452734D01*
X95864955Y-128639141D01*
X96025859Y-128800045D01*
X96025862Y-128800047D01*
X96212267Y-128930568D01*
X96418505Y-129026739D01*
X96638309Y-129085635D01*
X96780362Y-129098063D01*
X96864999Y-129105468D01*
X96865001Y-129105468D01*
X96865003Y-129105468D01*
X96921808Y-129100498D01*
X97091693Y-129085635D01*
X97311497Y-129026739D01*
X97517735Y-128930568D01*
X97704140Y-128800047D01*
X97865048Y-128639139D01*
X97995569Y-128452734D01*
X98022621Y-128394719D01*
X98068790Y-128342285D01*
X98135984Y-128323132D01*
X98202865Y-128343347D01*
X98247382Y-128394722D01*
X98266196Y-128435069D01*
X98274433Y-128452732D01*
X98274434Y-128452734D01*
X98404956Y-128639141D01*
X98565859Y-128800044D01*
X98565862Y-128800046D01*
X98565863Y-128800047D01*
X98651625Y-128860097D01*
X98695250Y-128914673D01*
X98704502Y-128961672D01*
X98704502Y-130919505D01*
X98685496Y-130985476D01*
X98679211Y-130995477D01*
X98619635Y-131165735D01*
X98619632Y-131165748D01*
X98599437Y-131344994D01*
X98599437Y-131345001D01*
X98619632Y-131524247D01*
X98619633Y-131524252D01*
X98679213Y-131694522D01*
X98688642Y-131709527D01*
X98707643Y-131776764D01*
X98687276Y-131843599D01*
X98634008Y-131888814D01*
X98583649Y-131899500D01*
X86625099Y-131899500D01*
X86558060Y-131879815D01*
X86537418Y-131863181D01*
X85357384Y-130683147D01*
X83983663Y-129309427D01*
X83950179Y-129248105D01*
X83955163Y-129178413D01*
X83997035Y-129122480D01*
X84062499Y-129098063D01*
X84082143Y-129098218D01*
X84165001Y-129105468D01*
X84165003Y-129105468D01*
X84221808Y-129100498D01*
X84391693Y-129085635D01*
X84611497Y-129026739D01*
X84817735Y-128930568D01*
X85004140Y-128800047D01*
X85165048Y-128639139D01*
X85295569Y-128452734D01*
X85322618Y-128394726D01*
X85368790Y-128342287D01*
X85435983Y-128323135D01*
X85502865Y-128343350D01*
X85547381Y-128394724D01*
X85574432Y-128452734D01*
X85609940Y-128503445D01*
X85704954Y-128639141D01*
X85865858Y-128800045D01*
X85865861Y-128800047D01*
X86052266Y-128930568D01*
X86258504Y-129026739D01*
X86478308Y-129085635D01*
X86620361Y-129098063D01*
X86704998Y-129105468D01*
X86705000Y-129105468D01*
X86705002Y-129105468D01*
X86761807Y-129100498D01*
X86931692Y-129085635D01*
X87151496Y-129026739D01*
X87357734Y-128930568D01*
X87544139Y-128800047D01*
X87705047Y-128639139D01*
X87835568Y-128452734D01*
X87862894Y-128394132D01*
X87909066Y-128341693D01*
X87976259Y-128322541D01*
X88043141Y-128342756D01*
X88087658Y-128394133D01*
X88114865Y-128452479D01*
X88114866Y-128452481D01*
X88245343Y-128638820D01*
X88406180Y-128799657D01*
X88592518Y-128930134D01*
X88798674Y-129026265D01*
X88798683Y-129026269D01*
X88995000Y-129078872D01*
X88995001Y-129078871D01*
X88995001Y-128115686D01*
X88999395Y-128120080D01*
X89090607Y-128172741D01*
X89192340Y-128200000D01*
X89297662Y-128200000D01*
X89399395Y-128172741D01*
X89490607Y-128120080D01*
X89495001Y-128115686D01*
X89495001Y-129078872D01*
X89691318Y-129026269D01*
X89691327Y-129026265D01*
X89897483Y-128930134D01*
X90083821Y-128799657D01*
X90244658Y-128638820D01*
X90375135Y-128452481D01*
X90375136Y-128452479D01*
X90402619Y-128393543D01*
X90448791Y-128341103D01*
X90515984Y-128321951D01*
X90582865Y-128342166D01*
X90627383Y-128393543D01*
X90654865Y-128452479D01*
X90654866Y-128452481D01*
X90785343Y-128638820D01*
X90946180Y-128799657D01*
X91132518Y-128930134D01*
X91338674Y-129026265D01*
X91338683Y-129026269D01*
X91535000Y-129078872D01*
X91535001Y-129078871D01*
X91535001Y-128115686D01*
X91539395Y-128120080D01*
X91630607Y-128172741D01*
X91732340Y-128200000D01*
X91837662Y-128200000D01*
X91939395Y-128172741D01*
X92030607Y-128120080D01*
X92035001Y-128115686D01*
X92035001Y-129078872D01*
G37*
%TD.AperFunction*%
%TA.AperFunction,Conductor*%
G36*
X106318834Y-114217916D02*
G01*
X106374767Y-114259788D01*
X106399184Y-114325252D01*
X106399500Y-114334098D01*
X106399500Y-130199903D01*
X106379815Y-130266942D01*
X106363181Y-130287584D01*
X104787584Y-131863181D01*
X104726261Y-131896666D01*
X104699903Y-131899500D01*
X100226355Y-131899500D01*
X100159316Y-131879815D01*
X100113561Y-131827011D01*
X100103617Y-131757853D01*
X100121362Y-131709527D01*
X100130790Y-131694522D01*
X100138711Y-131671885D01*
X100190370Y-131524253D01*
X100210567Y-131344998D01*
X100190370Y-131165743D01*
X100190369Y-131165741D01*
X100190368Y-131165735D01*
X100130792Y-130995477D01*
X100124508Y-130985476D01*
X100105502Y-130919505D01*
X100105502Y-128961672D01*
X100125187Y-128894633D01*
X100158377Y-128860098D01*
X100244141Y-128800047D01*
X100405049Y-128639139D01*
X100535570Y-128452734D01*
X100631741Y-128246496D01*
X100690637Y-128026692D01*
X100710470Y-127800000D01*
X100690637Y-127573308D01*
X100631741Y-127353504D01*
X100535570Y-127147266D01*
X100423379Y-126987039D01*
X100405047Y-126960858D01*
X100244143Y-126799954D01*
X100057736Y-126669432D01*
X100057734Y-126669431D01*
X99851499Y-126573261D01*
X99851490Y-126573258D01*
X99631699Y-126514366D01*
X99631695Y-126514365D01*
X99631694Y-126514365D01*
X99631693Y-126514364D01*
X99631688Y-126514364D01*
X99405004Y-126494532D01*
X99405000Y-126494532D01*
X99178315Y-126514364D01*
X99178304Y-126514366D01*
X98958513Y-126573258D01*
X98958504Y-126573261D01*
X98752269Y-126669431D01*
X98752267Y-126669432D01*
X98565860Y-126799954D01*
X98404956Y-126960858D01*
X98274435Y-127147264D01*
X98274434Y-127147266D01*
X98268898Y-127159139D01*
X98247383Y-127205277D01*
X98201210Y-127257716D01*
X98134016Y-127276867D01*
X98067135Y-127256651D01*
X98022619Y-127205275D01*
X98001106Y-127159141D01*
X97995569Y-127147266D01*
X97883378Y-126987039D01*
X97865046Y-126960858D01*
X97704142Y-126799954D01*
X97517735Y-126669432D01*
X97517733Y-126669431D01*
X97311498Y-126573261D01*
X97311489Y-126573258D01*
X97091698Y-126514366D01*
X97091688Y-126514364D01*
X96905650Y-126498088D01*
X96840582Y-126472635D01*
X96799603Y-126416044D01*
X96795725Y-126346282D01*
X96828775Y-126286881D01*
X98378839Y-124736819D01*
X98440162Y-124703334D01*
X98466520Y-124700500D01*
X101318996Y-124700500D01*
X101410040Y-124682389D01*
X101454328Y-124673580D01*
X101518069Y-124647177D01*
X101581807Y-124620777D01*
X101581808Y-124620776D01*
X101581811Y-124620775D01*
X101696543Y-124544114D01*
X104294114Y-121946543D01*
X104370775Y-121831811D01*
X104423580Y-121704328D01*
X104450500Y-121568994D01*
X104450500Y-121431006D01*
X104450500Y-118175493D01*
X104469508Y-118109519D01*
X104475787Y-118099525D01*
X104475786Y-118099525D01*
X104475789Y-118099522D01*
X104535368Y-117929255D01*
X104539549Y-117892146D01*
X104555565Y-117750003D01*
X104555565Y-117749996D01*
X104535369Y-117570750D01*
X104535368Y-117570745D01*
X104495288Y-117456204D01*
X104475789Y-117400478D01*
X104475174Y-117399500D01*
X104379815Y-117247737D01*
X104252262Y-117120184D01*
X104099523Y-117024211D01*
X103929254Y-116964631D01*
X103929250Y-116964630D01*
X103772018Y-116946915D01*
X103707604Y-116919848D01*
X103668049Y-116862254D01*
X103665912Y-116792417D01*
X103698219Y-116736016D01*
X106187819Y-114246417D01*
X106249142Y-114212932D01*
X106318834Y-114217916D01*
G37*
%TD.AperFunction*%
%TA.AperFunction,Conductor*%
G36*
X91464921Y-127554394D02*
G01*
X91412260Y-127645606D01*
X91385001Y-127747339D01*
X91385001Y-127852661D01*
X91412260Y-127954394D01*
X91464921Y-128045606D01*
X91469315Y-128050000D01*
X89560687Y-128050000D01*
X89565081Y-128045606D01*
X89617742Y-127954394D01*
X89645001Y-127852661D01*
X89645001Y-127747339D01*
X89617742Y-127645606D01*
X89565081Y-127554394D01*
X89560687Y-127550000D01*
X91469315Y-127550000D01*
X91464921Y-127554394D01*
G37*
%TD.AperFunction*%
%TA.AperFunction,Conductor*%
G36*
X102867029Y-117669720D02*
G01*
X102922962Y-117711592D01*
X102946915Y-117772018D01*
X102964630Y-117929250D01*
X102964631Y-117929254D01*
X103024212Y-118099525D01*
X103030492Y-118109519D01*
X103049500Y-118175493D01*
X103049500Y-121158481D01*
X103029815Y-121225520D01*
X103013181Y-121246162D01*
X100996162Y-123263181D01*
X100934839Y-123296666D01*
X100908481Y-123299500D01*
X98056006Y-123299500D01*
X97920678Y-123326418D01*
X97920668Y-123326421D01*
X97793193Y-123379222D01*
X97678455Y-123455887D01*
X94655370Y-126478972D01*
X94594047Y-126512457D01*
X94556882Y-126514819D01*
X94551681Y-126514364D01*
X94532172Y-126512657D01*
X94325003Y-126494532D01*
X94324999Y-126494532D01*
X94098314Y-126514364D01*
X94098303Y-126514366D01*
X93878512Y-126573258D01*
X93878503Y-126573261D01*
X93672268Y-126669431D01*
X93672266Y-126669432D01*
X93485859Y-126799954D01*
X93324955Y-126960858D01*
X93194434Y-127147264D01*
X93194433Y-127147266D01*
X93188897Y-127159139D01*
X93167107Y-127205867D01*
X93120934Y-127258306D01*
X93053740Y-127277457D01*
X92986859Y-127257241D01*
X92942343Y-127205865D01*
X92915136Y-127147520D01*
X92915135Y-127147518D01*
X92784658Y-126961179D01*
X92623821Y-126800342D01*
X92437483Y-126669865D01*
X92231329Y-126573734D01*
X92035001Y-126521127D01*
X92035001Y-127484314D01*
X92030607Y-127479920D01*
X91939395Y-127427259D01*
X91837662Y-127400000D01*
X91732340Y-127400000D01*
X91630607Y-127427259D01*
X91539395Y-127479920D01*
X91535001Y-127484314D01*
X91535001Y-126521127D01*
X91338672Y-126573734D01*
X91132518Y-126669865D01*
X90946180Y-126800342D01*
X90785343Y-126961179D01*
X90654866Y-127147517D01*
X90627383Y-127206457D01*
X90581211Y-127258896D01*
X90514017Y-127278048D01*
X90447136Y-127257832D01*
X90402619Y-127206457D01*
X90375135Y-127147517D01*
X90244658Y-126961179D01*
X90083821Y-126800342D01*
X89897483Y-126669865D01*
X89691329Y-126573734D01*
X89495001Y-126521127D01*
X89495001Y-127484314D01*
X89490607Y-127479920D01*
X89399395Y-127427259D01*
X89297662Y-127400000D01*
X89192340Y-127400000D01*
X89090607Y-127427259D01*
X88999395Y-127479920D01*
X88995001Y-127484314D01*
X88995001Y-126521127D01*
X88798672Y-126573734D01*
X88592518Y-126669865D01*
X88406180Y-126800342D01*
X88245343Y-126961179D01*
X88114866Y-127147517D01*
X88087658Y-127205867D01*
X88041485Y-127258306D01*
X87974292Y-127277458D01*
X87907411Y-127257242D01*
X87862894Y-127205867D01*
X87841105Y-127159141D01*
X87835568Y-127147266D01*
X87723377Y-126987039D01*
X87705045Y-126960858D01*
X87544141Y-126799954D01*
X87357734Y-126669432D01*
X87357732Y-126669431D01*
X87151497Y-126573261D01*
X87151488Y-126573258D01*
X86931697Y-126514366D01*
X86931693Y-126514365D01*
X86931692Y-126514365D01*
X86931691Y-126514364D01*
X86931686Y-126514364D01*
X86705002Y-126494532D01*
X86704998Y-126494532D01*
X86473117Y-126514819D01*
X86404617Y-126501052D01*
X86374629Y-126478972D01*
X81588777Y-121693120D01*
X81555292Y-121631797D01*
X81560276Y-121562105D01*
X81602148Y-121506172D01*
X81665649Y-121481911D01*
X81851693Y-121465635D01*
X82071497Y-121406739D01*
X82277735Y-121310568D01*
X82464140Y-121180047D01*
X82625048Y-121019139D01*
X82755569Y-120832734D01*
X82782619Y-120774724D01*
X82828791Y-120722285D01*
X82895984Y-120703133D01*
X82962866Y-120723348D01*
X83007383Y-120774725D01*
X83034430Y-120832728D01*
X83034433Y-120832734D01*
X83164955Y-121019141D01*
X83325859Y-121180045D01*
X83325862Y-121180047D01*
X83512267Y-121310568D01*
X83718505Y-121406739D01*
X83938309Y-121465635D01*
X84100231Y-121479801D01*
X84164999Y-121485468D01*
X84165001Y-121485468D01*
X84165003Y-121485468D01*
X84221674Y-121480509D01*
X84391693Y-121465635D01*
X84611497Y-121406739D01*
X84817735Y-121310568D01*
X85004140Y-121180047D01*
X85165048Y-121019139D01*
X85295569Y-120832734D01*
X85322619Y-120774724D01*
X85368791Y-120722285D01*
X85435984Y-120703133D01*
X85502866Y-120723348D01*
X85547383Y-120774725D01*
X85574430Y-120832728D01*
X85574433Y-120832734D01*
X85704955Y-121019141D01*
X85865859Y-121180045D01*
X85865862Y-121180047D01*
X86052267Y-121310568D01*
X86258505Y-121406739D01*
X86478309Y-121465635D01*
X86640231Y-121479801D01*
X86704999Y-121485468D01*
X86705001Y-121485468D01*
X86705003Y-121485468D01*
X86761674Y-121480509D01*
X86931693Y-121465635D01*
X87151497Y-121406739D01*
X87357735Y-121310568D01*
X87544140Y-121180047D01*
X87705048Y-121019139D01*
X87835569Y-120832734D01*
X87862896Y-120774129D01*
X87909065Y-120721695D01*
X87976258Y-120702542D01*
X88043140Y-120722757D01*
X88087658Y-120774133D01*
X88114866Y-120832482D01*
X88245343Y-121018820D01*
X88406180Y-121179657D01*
X88592518Y-121310134D01*
X88798674Y-121406265D01*
X88798683Y-121406269D01*
X88995000Y-121458872D01*
X88995001Y-121458871D01*
X88995001Y-120495686D01*
X88999395Y-120500080D01*
X89090607Y-120552741D01*
X89192340Y-120580000D01*
X89297662Y-120580000D01*
X89399395Y-120552741D01*
X89490607Y-120500080D01*
X89495001Y-120495686D01*
X89495001Y-121458872D01*
X89691318Y-121406269D01*
X89691327Y-121406265D01*
X89897483Y-121310134D01*
X90083821Y-121179657D01*
X90244658Y-121018820D01*
X90375135Y-120832481D01*
X90375136Y-120832479D01*
X90402619Y-120773543D01*
X90448791Y-120721103D01*
X90515984Y-120701951D01*
X90582865Y-120722166D01*
X90627383Y-120773543D01*
X90654865Y-120832479D01*
X90654866Y-120832481D01*
X90785343Y-121018820D01*
X90946180Y-121179657D01*
X91132518Y-121310134D01*
X91338674Y-121406265D01*
X91338683Y-121406269D01*
X91535000Y-121458872D01*
X91535001Y-121458871D01*
X91535001Y-120495686D01*
X91539395Y-120500080D01*
X91630607Y-120552741D01*
X91732340Y-120580000D01*
X91837662Y-120580000D01*
X91939395Y-120552741D01*
X92030607Y-120500080D01*
X92035001Y-120495686D01*
X92035001Y-121458872D01*
X92231318Y-121406269D01*
X92231327Y-121406265D01*
X92437483Y-121310134D01*
X92623821Y-121179657D01*
X92784658Y-121018820D01*
X92915133Y-120832484D01*
X92942342Y-120774134D01*
X92988514Y-120721695D01*
X93055708Y-120702542D01*
X93122589Y-120722757D01*
X93167107Y-120774133D01*
X93194432Y-120832732D01*
X93194433Y-120832734D01*
X93324955Y-121019141D01*
X93485859Y-121180045D01*
X93485862Y-121180047D01*
X93672267Y-121310568D01*
X93878505Y-121406739D01*
X94098309Y-121465635D01*
X94260231Y-121479801D01*
X94324999Y-121485468D01*
X94325001Y-121485468D01*
X94325003Y-121485468D01*
X94381674Y-121480509D01*
X94551693Y-121465635D01*
X94771497Y-121406739D01*
X94977735Y-121310568D01*
X95164140Y-121180047D01*
X95325048Y-121019139D01*
X95455569Y-120832734D01*
X95482619Y-120774724D01*
X95528791Y-120722285D01*
X95595984Y-120703133D01*
X95662866Y-120723348D01*
X95707383Y-120774725D01*
X95734430Y-120832728D01*
X95734433Y-120832734D01*
X95864955Y-121019141D01*
X96025859Y-121180045D01*
X96025862Y-121180047D01*
X96212267Y-121310568D01*
X96418505Y-121406739D01*
X96638309Y-121465635D01*
X96800231Y-121479801D01*
X96864999Y-121485468D01*
X96865001Y-121485468D01*
X96865003Y-121485468D01*
X96921674Y-121480509D01*
X97091693Y-121465635D01*
X97311497Y-121406739D01*
X97517735Y-121310568D01*
X97704140Y-121180047D01*
X97865048Y-121019139D01*
X97995569Y-120832734D01*
X98022619Y-120774724D01*
X98068791Y-120722285D01*
X98135984Y-120703133D01*
X98202866Y-120723348D01*
X98247383Y-120774725D01*
X98274430Y-120832728D01*
X98274433Y-120832734D01*
X98404955Y-121019141D01*
X98565859Y-121180045D01*
X98565862Y-121180047D01*
X98752267Y-121310568D01*
X98958505Y-121406739D01*
X99178309Y-121465635D01*
X99340231Y-121479801D01*
X99404999Y-121485468D01*
X99405001Y-121485468D01*
X99405003Y-121485468D01*
X99461674Y-121480509D01*
X99631693Y-121465635D01*
X99851497Y-121406739D01*
X100057735Y-121310568D01*
X100244140Y-121180047D01*
X100405048Y-121019139D01*
X100535569Y-120832734D01*
X100631740Y-120626496D01*
X100690636Y-120406692D01*
X100710469Y-120180000D01*
X100690636Y-119953308D01*
X100664977Y-119857547D01*
X100664848Y-119857066D01*
X100666511Y-119787217D01*
X100696940Y-119737294D01*
X102736015Y-117698219D01*
X102797337Y-117664736D01*
X102867029Y-117669720D01*
G37*
%TD.AperFunction*%
%TA.AperFunction,Conductor*%
G36*
X91464921Y-119934394D02*
G01*
X91412260Y-120025606D01*
X91385001Y-120127339D01*
X91385001Y-120232661D01*
X91412260Y-120334394D01*
X91464921Y-120425606D01*
X91469315Y-120430000D01*
X89560687Y-120430000D01*
X89565081Y-120425606D01*
X89617742Y-120334394D01*
X89645001Y-120232661D01*
X89645001Y-120127339D01*
X89617742Y-120025606D01*
X89565081Y-119934394D01*
X89560687Y-119930000D01*
X91469315Y-119930000D01*
X91464921Y-119934394D01*
G37*
%TD.AperFunction*%
%TA.AperFunction,Conductor*%
G36*
X93580743Y-94198724D02*
G01*
X93619115Y-94257114D01*
X93624501Y-94293261D01*
X93624501Y-119018326D01*
X93604816Y-119085365D01*
X93571625Y-119119901D01*
X93485864Y-119179951D01*
X93324952Y-119340862D01*
X93238929Y-119463718D01*
X93194433Y-119527266D01*
X93188897Y-119539139D01*
X93167107Y-119585867D01*
X93120934Y-119638306D01*
X93053740Y-119657457D01*
X92986859Y-119637241D01*
X92942343Y-119585865D01*
X92915136Y-119527520D01*
X92915135Y-119527518D01*
X92784658Y-119341179D01*
X92623821Y-119180342D01*
X92437483Y-119049865D01*
X92231329Y-118953734D01*
X92035001Y-118901127D01*
X92035001Y-119864314D01*
X92030607Y-119859920D01*
X91939395Y-119807259D01*
X91837662Y-119780000D01*
X91732340Y-119780000D01*
X91630607Y-119807259D01*
X91539395Y-119859920D01*
X91535001Y-119864314D01*
X91535001Y-118901127D01*
X91338672Y-118953734D01*
X91132518Y-119049865D01*
X90946180Y-119180342D01*
X90785343Y-119341179D01*
X90654866Y-119527517D01*
X90627383Y-119586457D01*
X90581211Y-119638896D01*
X90514017Y-119658048D01*
X90447136Y-119637832D01*
X90402619Y-119586457D01*
X90375135Y-119527517D01*
X90244658Y-119341179D01*
X90083821Y-119180342D01*
X89897483Y-119049865D01*
X89691329Y-118953734D01*
X89495001Y-118901127D01*
X89495001Y-119864314D01*
X89490607Y-119859920D01*
X89399395Y-119807259D01*
X89297662Y-119780000D01*
X89192340Y-119780000D01*
X89090607Y-119807259D01*
X88999395Y-119859920D01*
X88995001Y-119864314D01*
X88995001Y-118901127D01*
X88798672Y-118953734D01*
X88592518Y-119049865D01*
X88406180Y-119180342D01*
X88245343Y-119341179D01*
X88114868Y-119527515D01*
X88087658Y-119585867D01*
X88041485Y-119638306D01*
X87974291Y-119657457D01*
X87907410Y-119637241D01*
X87862894Y-119585865D01*
X87845177Y-119547872D01*
X87835569Y-119527266D01*
X87741972Y-119393594D01*
X87719645Y-119327387D01*
X87736656Y-119259620D01*
X87755862Y-119234794D01*
X92794114Y-114196543D01*
X92870775Y-114081811D01*
X92871915Y-114079060D01*
X92923578Y-113954332D01*
X92923580Y-113954328D01*
X92950500Y-113818994D01*
X92950500Y-113681006D01*
X92950500Y-94615916D01*
X92970185Y-94548877D01*
X93022989Y-94503122D01*
X93033547Y-94498874D01*
X93099522Y-94475789D01*
X93252262Y-94379816D01*
X93379816Y-94252262D01*
X93395507Y-94227290D01*
X93447841Y-94180998D01*
X93516894Y-94170349D01*
X93580743Y-94198724D01*
G37*
%TD.AperFunction*%
%TD*%
M02*
